G04 #@! TF.GenerationSoftware,KiCad,Pcbnew,5.0.1-33cea8e~67~ubuntu18.04.1*
G04 #@! TF.CreationDate,2018-10-21T17:35:32+02:00*
G04 #@! TF.ProjectId,CondorCabSim,436F6E646F7243616253696D2E6B6963,rev?*
G04 #@! TF.SameCoordinates,Original*
G04 #@! TF.FileFunction,Soldermask,Bot*
G04 #@! TF.FilePolarity,Negative*
%FSLAX46Y46*%
G04 Gerber Fmt 4.6, Leading zero omitted, Abs format (unit mm)*
G04 Created by KiCad (PCBNEW 5.0.1-33cea8e~67~ubuntu18.04.1) date Sun 21 Oct 2018 05:35:32 PM CEST*
%MOMM*%
%LPD*%
G01*
G04 APERTURE LIST*
%ADD10C,0.100000*%
G04 APERTURE END LIST*
D10*
G36*
X152629583Y-116065300D02*
X152756974Y-116118068D01*
X152871625Y-116194675D01*
X152969125Y-116292175D01*
X153045732Y-116406826D01*
X153098500Y-116534217D01*
X153125400Y-116669455D01*
X153125400Y-116807345D01*
X153098500Y-116942583D01*
X153045732Y-117069974D01*
X152969125Y-117184625D01*
X152871625Y-117282125D01*
X152756974Y-117358732D01*
X152629583Y-117411500D01*
X152494345Y-117438400D01*
X152356455Y-117438400D01*
X152221217Y-117411500D01*
X152093826Y-117358732D01*
X151979175Y-117282125D01*
X151881675Y-117184625D01*
X151805068Y-117069974D01*
X151752300Y-116942583D01*
X151725400Y-116807345D01*
X151725400Y-116669455D01*
X151752300Y-116534217D01*
X151805068Y-116406826D01*
X151881675Y-116292175D01*
X151979175Y-116194675D01*
X152093826Y-116118068D01*
X152221217Y-116065300D01*
X152356455Y-116038400D01*
X152494345Y-116038400D01*
X152629583Y-116065300D01*
X152629583Y-116065300D01*
G37*
G36*
X149748000Y-115966000D02*
X148448000Y-115966000D01*
X148448000Y-114666000D01*
X149748000Y-114666000D01*
X149748000Y-115966000D01*
X149748000Y-115966000D01*
G37*
G36*
X168501274Y-113174962D02*
X168714204Y-113263160D01*
X168905833Y-113391203D01*
X169068797Y-113554167D01*
X169196840Y-113745796D01*
X169285038Y-113958726D01*
X169330000Y-114184764D01*
X169330000Y-114415236D01*
X169285038Y-114641274D01*
X169196840Y-114854204D01*
X169068797Y-115045833D01*
X168905833Y-115208797D01*
X168714204Y-115336840D01*
X168501274Y-115425038D01*
X168275236Y-115470000D01*
X168044764Y-115470000D01*
X167818726Y-115425038D01*
X167605796Y-115336840D01*
X167414167Y-115208797D01*
X167251203Y-115045833D01*
X167123160Y-114854204D01*
X167034962Y-114641274D01*
X166990000Y-114415236D01*
X166990000Y-114184764D01*
X167034962Y-113958726D01*
X167123160Y-113745796D01*
X167251203Y-113554167D01*
X167414167Y-113391203D01*
X167605796Y-113263160D01*
X167818726Y-113174962D01*
X168044764Y-113130000D01*
X168275236Y-113130000D01*
X168501274Y-113174962D01*
X168501274Y-113174962D01*
G37*
G36*
X142501274Y-113174962D02*
X142714204Y-113263160D01*
X142905833Y-113391203D01*
X143068797Y-113554167D01*
X143196840Y-113745796D01*
X143285038Y-113958726D01*
X143330000Y-114184764D01*
X143330000Y-114415236D01*
X143285038Y-114641274D01*
X143196840Y-114854204D01*
X143068797Y-115045833D01*
X142905833Y-115208797D01*
X142714204Y-115336840D01*
X142501274Y-115425038D01*
X142275236Y-115470000D01*
X142044764Y-115470000D01*
X141818726Y-115425038D01*
X141605796Y-115336840D01*
X141414167Y-115208797D01*
X141251203Y-115045833D01*
X141123160Y-114854204D01*
X141034962Y-114641274D01*
X140990000Y-114415236D01*
X140990000Y-114184764D01*
X141034962Y-113958726D01*
X141123160Y-113745796D01*
X141251203Y-113554167D01*
X141414167Y-113391203D01*
X141605796Y-113263160D01*
X141818726Y-113174962D01*
X142044764Y-113130000D01*
X142275236Y-113130000D01*
X142501274Y-113174962D01*
X142501274Y-113174962D01*
G37*
G36*
X158501274Y-113174962D02*
X158714204Y-113263160D01*
X158905833Y-113391203D01*
X159068797Y-113554167D01*
X159196840Y-113745796D01*
X159285038Y-113958726D01*
X159330000Y-114184764D01*
X159330000Y-114415236D01*
X159285038Y-114641274D01*
X159196840Y-114854204D01*
X159068797Y-115045833D01*
X158905833Y-115208797D01*
X158714204Y-115336840D01*
X158501274Y-115425038D01*
X158275236Y-115470000D01*
X158044764Y-115470000D01*
X157818726Y-115425038D01*
X157605796Y-115336840D01*
X157414167Y-115208797D01*
X157251203Y-115045833D01*
X157123160Y-114854204D01*
X157034962Y-114641274D01*
X156990000Y-114415236D01*
X156990000Y-114184764D01*
X157034962Y-113958726D01*
X157123160Y-113745796D01*
X157251203Y-113554167D01*
X157414167Y-113391203D01*
X157605796Y-113263160D01*
X157818726Y-113174962D01*
X158044764Y-113130000D01*
X158275236Y-113130000D01*
X158501274Y-113174962D01*
X158501274Y-113174962D01*
G37*
G36*
X163501274Y-113174962D02*
X163714204Y-113263160D01*
X163905833Y-113391203D01*
X164068797Y-113554167D01*
X164196840Y-113745796D01*
X164285038Y-113958726D01*
X164330000Y-114184764D01*
X164330000Y-114415236D01*
X164285038Y-114641274D01*
X164196840Y-114854204D01*
X164068797Y-115045833D01*
X163905833Y-115208797D01*
X163714204Y-115336840D01*
X163501274Y-115425038D01*
X163275236Y-115470000D01*
X163044764Y-115470000D01*
X162818726Y-115425038D01*
X162605796Y-115336840D01*
X162414167Y-115208797D01*
X162251203Y-115045833D01*
X162123160Y-114854204D01*
X162034962Y-114641274D01*
X161990000Y-114415236D01*
X161990000Y-114184764D01*
X162034962Y-113958726D01*
X162123160Y-113745796D01*
X162251203Y-113554167D01*
X162414167Y-113391203D01*
X162605796Y-113263160D01*
X162818726Y-113174962D01*
X163044764Y-113130000D01*
X163275236Y-113130000D01*
X163501274Y-113174962D01*
X163501274Y-113174962D01*
G37*
G36*
X132501274Y-113174962D02*
X132714204Y-113263160D01*
X132905833Y-113391203D01*
X133068797Y-113554167D01*
X133196840Y-113745796D01*
X133285038Y-113958726D01*
X133330000Y-114184764D01*
X133330000Y-114415236D01*
X133285038Y-114641274D01*
X133196840Y-114854204D01*
X133068797Y-115045833D01*
X132905833Y-115208797D01*
X132714204Y-115336840D01*
X132501274Y-115425038D01*
X132275236Y-115470000D01*
X132044764Y-115470000D01*
X131818726Y-115425038D01*
X131605796Y-115336840D01*
X131414167Y-115208797D01*
X131251203Y-115045833D01*
X131123160Y-114854204D01*
X131034962Y-114641274D01*
X130990000Y-114415236D01*
X130990000Y-114184764D01*
X131034962Y-113958726D01*
X131123160Y-113745796D01*
X131251203Y-113554167D01*
X131414167Y-113391203D01*
X131605796Y-113263160D01*
X131818726Y-113174962D01*
X132044764Y-113130000D01*
X132275236Y-113130000D01*
X132501274Y-113174962D01*
X132501274Y-113174962D01*
G37*
G36*
X137501274Y-113174962D02*
X137714204Y-113263160D01*
X137905833Y-113391203D01*
X138068797Y-113554167D01*
X138196840Y-113745796D01*
X138285038Y-113958726D01*
X138330000Y-114184764D01*
X138330000Y-114415236D01*
X138285038Y-114641274D01*
X138196840Y-114854204D01*
X138068797Y-115045833D01*
X137905833Y-115208797D01*
X137714204Y-115336840D01*
X137501274Y-115425038D01*
X137275236Y-115470000D01*
X137044764Y-115470000D01*
X136818726Y-115425038D01*
X136605796Y-115336840D01*
X136414167Y-115208797D01*
X136251203Y-115045833D01*
X136123160Y-114854204D01*
X136034962Y-114641274D01*
X135990000Y-114415236D01*
X135990000Y-114184764D01*
X136034962Y-113958726D01*
X136123160Y-113745796D01*
X136251203Y-113554167D01*
X136414167Y-113391203D01*
X136605796Y-113263160D01*
X136818726Y-113174962D01*
X137044764Y-113130000D01*
X137275236Y-113130000D01*
X137501274Y-113174962D01*
X137501274Y-113174962D01*
G37*
G36*
X152629583Y-113565300D02*
X152756974Y-113618068D01*
X152777300Y-113631649D01*
X152871625Y-113694675D01*
X152969125Y-113792175D01*
X153045732Y-113906826D01*
X153098500Y-114034217D01*
X153125400Y-114169455D01*
X153125400Y-114307345D01*
X153098500Y-114442583D01*
X153045732Y-114569974D01*
X152969125Y-114684625D01*
X152871625Y-114782125D01*
X152756974Y-114858732D01*
X152629583Y-114911500D01*
X152494345Y-114938400D01*
X152356455Y-114938400D01*
X152221217Y-114911500D01*
X152093826Y-114858732D01*
X151979175Y-114782125D01*
X151881675Y-114684625D01*
X151805068Y-114569974D01*
X151752300Y-114442583D01*
X151725400Y-114307345D01*
X151725400Y-114169455D01*
X151752300Y-114034217D01*
X151805068Y-113906826D01*
X151881675Y-113792175D01*
X151979175Y-113694675D01*
X152073501Y-113631649D01*
X152093826Y-113618068D01*
X152221217Y-113565300D01*
X152356455Y-113538400D01*
X152494345Y-113538400D01*
X152629583Y-113565300D01*
X152629583Y-113565300D01*
G37*
G36*
X147975738Y-113412653D02*
X148017598Y-113420979D01*
X148052245Y-113435330D01*
X148135890Y-113469977D01*
X148242354Y-113541114D01*
X148332886Y-113631646D01*
X148404023Y-113738110D01*
X148453021Y-113856403D01*
X148478000Y-113981979D01*
X148478000Y-114110021D01*
X148453021Y-114235597D01*
X148404023Y-114353890D01*
X148326807Y-114469453D01*
X148325082Y-114471554D01*
X148313531Y-114493165D01*
X148306418Y-114516614D01*
X148305718Y-114523718D01*
X148298614Y-114524418D01*
X148275165Y-114531531D01*
X148253554Y-114543082D01*
X148251453Y-114544807D01*
X148135890Y-114622023D01*
X148052245Y-114656670D01*
X148017598Y-114671021D01*
X147975738Y-114679347D01*
X147892021Y-114696000D01*
X147763979Y-114696000D01*
X147680262Y-114679347D01*
X147638402Y-114671021D01*
X147603755Y-114656670D01*
X147520110Y-114622023D01*
X147413646Y-114550886D01*
X147323114Y-114460354D01*
X147251977Y-114353890D01*
X147202979Y-114235597D01*
X147178000Y-114110021D01*
X147178000Y-113981979D01*
X147202979Y-113856403D01*
X147251977Y-113738110D01*
X147323114Y-113631646D01*
X147413646Y-113541114D01*
X147520110Y-113469977D01*
X147603755Y-113435330D01*
X147638402Y-113420979D01*
X147680262Y-113412653D01*
X147763979Y-113396000D01*
X147892021Y-113396000D01*
X147975738Y-113412653D01*
X147975738Y-113412653D01*
G37*
G36*
X149245738Y-112142653D02*
X149287598Y-112150979D01*
X149322245Y-112165330D01*
X149405890Y-112199977D01*
X149512354Y-112271114D01*
X149602886Y-112361646D01*
X149674023Y-112468110D01*
X149723021Y-112586403D01*
X149748000Y-112711979D01*
X149748000Y-112840021D01*
X149723021Y-112965597D01*
X149674023Y-113083890D01*
X149602886Y-113190354D01*
X149512354Y-113280886D01*
X149405890Y-113352023D01*
X149322245Y-113386670D01*
X149287598Y-113401021D01*
X149245738Y-113409347D01*
X149162021Y-113426000D01*
X149033979Y-113426000D01*
X148950262Y-113409347D01*
X148908402Y-113401021D01*
X148873755Y-113386670D01*
X148790110Y-113352023D01*
X148683646Y-113280886D01*
X148593114Y-113190354D01*
X148521977Y-113083890D01*
X148472979Y-112965597D01*
X148448000Y-112840021D01*
X148448000Y-112711979D01*
X148472979Y-112586403D01*
X148521977Y-112468110D01*
X148593114Y-112361646D01*
X148683646Y-112271114D01*
X148790110Y-112199977D01*
X148873755Y-112165330D01*
X148908402Y-112150979D01*
X148950262Y-112142653D01*
X149033979Y-112126000D01*
X149162021Y-112126000D01*
X149245738Y-112142653D01*
X149245738Y-112142653D01*
G37*
G36*
X182198885Y-111779329D02*
X182228082Y-111788186D01*
X182254987Y-111802567D01*
X182278577Y-111821926D01*
X182297936Y-111845516D01*
X182312317Y-111872421D01*
X182321174Y-111901618D01*
X182324769Y-111938124D01*
X182324769Y-112488344D01*
X182321174Y-112524850D01*
X182312317Y-112554047D01*
X182297936Y-112580952D01*
X182278577Y-112604542D01*
X182254987Y-112623901D01*
X182228082Y-112638282D01*
X182198885Y-112647139D01*
X182162379Y-112650734D01*
X181537159Y-112650734D01*
X181500653Y-112647139D01*
X181471456Y-112638282D01*
X181444551Y-112623901D01*
X181420961Y-112604542D01*
X181401602Y-112580952D01*
X181387221Y-112554047D01*
X181378364Y-112524850D01*
X181374769Y-112488344D01*
X181374769Y-111938124D01*
X181378364Y-111901618D01*
X181387221Y-111872421D01*
X181401602Y-111845516D01*
X181420961Y-111821926D01*
X181444551Y-111802567D01*
X181471456Y-111788186D01*
X181500653Y-111779329D01*
X181537159Y-111775734D01*
X182162379Y-111775734D01*
X182198885Y-111779329D01*
X182198885Y-111779329D01*
G37*
G36*
X182198885Y-110204329D02*
X182228082Y-110213186D01*
X182254987Y-110227567D01*
X182278577Y-110246926D01*
X182297936Y-110270516D01*
X182312317Y-110297421D01*
X182321174Y-110326618D01*
X182324769Y-110363124D01*
X182324769Y-110913344D01*
X182321174Y-110949850D01*
X182312317Y-110979047D01*
X182297936Y-111005952D01*
X182278577Y-111029542D01*
X182254987Y-111048901D01*
X182228082Y-111063282D01*
X182198885Y-111072139D01*
X182162379Y-111075734D01*
X181537159Y-111075734D01*
X181500653Y-111072139D01*
X181471456Y-111063282D01*
X181444551Y-111048901D01*
X181420961Y-111029542D01*
X181401602Y-111005952D01*
X181387221Y-110979047D01*
X181378364Y-110949850D01*
X181374769Y-110913344D01*
X181374769Y-110363124D01*
X181378364Y-110326618D01*
X181387221Y-110297421D01*
X181401602Y-110270516D01*
X181420961Y-110246926D01*
X181444551Y-110227567D01*
X181471456Y-110213186D01*
X181500653Y-110204329D01*
X181537159Y-110200734D01*
X182162379Y-110200734D01*
X182198885Y-110204329D01*
X182198885Y-110204329D01*
G37*
G36*
X148789103Y-109507020D02*
X148916494Y-109559788D01*
X149031145Y-109636395D01*
X149128645Y-109733895D01*
X149205252Y-109848546D01*
X149258020Y-109975937D01*
X149284920Y-110111175D01*
X149284920Y-110249065D01*
X149258020Y-110384303D01*
X149205252Y-110511694D01*
X149128646Y-110626344D01*
X149031144Y-110723846D01*
X149003766Y-110742139D01*
X148916494Y-110800452D01*
X148789103Y-110853220D01*
X148653865Y-110880120D01*
X148515975Y-110880120D01*
X148380737Y-110853220D01*
X148253346Y-110800452D01*
X148166074Y-110742139D01*
X148138696Y-110723846D01*
X148041194Y-110626344D01*
X147964588Y-110511694D01*
X147911820Y-110384303D01*
X147884920Y-110249065D01*
X147884920Y-110111175D01*
X147911820Y-109975937D01*
X147964588Y-109848546D01*
X148041195Y-109733895D01*
X148138695Y-109636395D01*
X148253346Y-109559788D01*
X148380737Y-109507020D01*
X148515975Y-109480120D01*
X148653865Y-109480120D01*
X148789103Y-109507020D01*
X148789103Y-109507020D01*
G37*
G36*
X174464652Y-109263543D02*
X174610241Y-109323848D01*
X174741273Y-109411401D01*
X174852699Y-109522827D01*
X174940252Y-109653859D01*
X175000557Y-109799448D01*
X175031300Y-109954005D01*
X175031300Y-110111595D01*
X175000557Y-110266152D01*
X174940252Y-110411741D01*
X174852699Y-110542773D01*
X174741273Y-110654199D01*
X174610241Y-110741752D01*
X174464652Y-110802057D01*
X174310095Y-110832800D01*
X174152505Y-110832800D01*
X173997948Y-110802057D01*
X173852359Y-110741752D01*
X173721327Y-110654199D01*
X173609901Y-110542773D01*
X173522348Y-110411741D01*
X173462043Y-110266152D01*
X173431300Y-110111595D01*
X173431300Y-109954005D01*
X173462043Y-109799448D01*
X173522348Y-109653859D01*
X173609901Y-109522827D01*
X173721327Y-109411401D01*
X173852359Y-109323848D01*
X173997948Y-109263543D01*
X174152505Y-109232800D01*
X174310095Y-109232800D01*
X174464652Y-109263543D01*
X174464652Y-109263543D01*
G37*
G36*
X178388885Y-109874329D02*
X178418082Y-109883186D01*
X178444987Y-109897567D01*
X178468577Y-109916926D01*
X178487936Y-109940516D01*
X178502317Y-109967421D01*
X178511174Y-109996618D01*
X178514769Y-110033124D01*
X178514769Y-110583344D01*
X178511174Y-110619850D01*
X178502317Y-110649047D01*
X178487936Y-110675952D01*
X178468577Y-110699542D01*
X178444987Y-110718901D01*
X178418082Y-110733282D01*
X178388885Y-110742139D01*
X178352379Y-110745734D01*
X177727159Y-110745734D01*
X177690653Y-110742139D01*
X177661456Y-110733282D01*
X177634551Y-110718901D01*
X177610961Y-110699542D01*
X177591602Y-110675952D01*
X177577221Y-110649047D01*
X177568364Y-110619850D01*
X177564769Y-110583344D01*
X177564769Y-110033124D01*
X177568364Y-109996618D01*
X177577221Y-109967421D01*
X177591602Y-109940516D01*
X177610961Y-109916926D01*
X177634551Y-109897567D01*
X177661456Y-109883186D01*
X177690653Y-109874329D01*
X177727159Y-109870734D01*
X178352379Y-109870734D01*
X178388885Y-109874329D01*
X178388885Y-109874329D01*
G37*
G36*
X178388885Y-108299329D02*
X178418082Y-108308186D01*
X178444987Y-108322567D01*
X178468577Y-108341926D01*
X178487936Y-108365516D01*
X178502317Y-108392421D01*
X178511174Y-108421618D01*
X178514769Y-108458124D01*
X178514769Y-109008344D01*
X178511174Y-109044850D01*
X178502317Y-109074047D01*
X178487936Y-109100952D01*
X178468577Y-109124542D01*
X178444987Y-109143901D01*
X178418082Y-109158282D01*
X178388885Y-109167139D01*
X178352379Y-109170734D01*
X177727159Y-109170734D01*
X177690653Y-109167139D01*
X177661456Y-109158282D01*
X177634551Y-109143901D01*
X177610961Y-109124542D01*
X177591602Y-109100952D01*
X177577221Y-109074047D01*
X177568364Y-109044850D01*
X177564769Y-109008344D01*
X177564769Y-108458124D01*
X177568364Y-108421618D01*
X177577221Y-108392421D01*
X177591602Y-108365516D01*
X177610961Y-108341926D01*
X177634551Y-108322567D01*
X177661456Y-108308186D01*
X177690653Y-108299329D01*
X177727159Y-108295734D01*
X178352379Y-108295734D01*
X178388885Y-108299329D01*
X178388885Y-108299329D01*
G37*
G36*
X148789103Y-107007020D02*
X148916494Y-107059788D01*
X149031145Y-107136395D01*
X149128645Y-107233895D01*
X149205252Y-107348546D01*
X149258020Y-107475937D01*
X149284920Y-107611175D01*
X149284920Y-107749065D01*
X149258020Y-107884303D01*
X149205252Y-108011694D01*
X149128645Y-108126345D01*
X149031145Y-108223845D01*
X148916494Y-108300452D01*
X148789103Y-108353220D01*
X148653865Y-108380120D01*
X148515975Y-108380120D01*
X148380737Y-108353220D01*
X148253346Y-108300452D01*
X148138695Y-108223845D01*
X148041195Y-108126345D01*
X147964588Y-108011694D01*
X147911820Y-107884303D01*
X147884920Y-107749065D01*
X147884920Y-107611175D01*
X147911820Y-107475937D01*
X147964588Y-107348546D01*
X148041195Y-107233895D01*
X148138695Y-107136395D01*
X148253346Y-107059788D01*
X148380737Y-107007020D01*
X148515975Y-106980120D01*
X148653865Y-106980120D01*
X148789103Y-107007020D01*
X148789103Y-107007020D01*
G37*
G36*
X153239183Y-105184580D02*
X153366574Y-105237348D01*
X153409683Y-105266152D01*
X153481225Y-105313955D01*
X153578725Y-105411455D01*
X153655332Y-105526106D01*
X153708100Y-105653497D01*
X153735000Y-105788735D01*
X153735000Y-105926625D01*
X153708100Y-106061863D01*
X153655332Y-106189254D01*
X153578725Y-106303905D01*
X153481225Y-106401405D01*
X153366574Y-106478012D01*
X153239183Y-106530780D01*
X153103945Y-106557680D01*
X152966055Y-106557680D01*
X152830817Y-106530780D01*
X152703426Y-106478012D01*
X152588775Y-106401405D01*
X152491275Y-106303905D01*
X152414668Y-106189254D01*
X152361900Y-106061863D01*
X152335000Y-105926625D01*
X152335000Y-105788735D01*
X152361900Y-105653497D01*
X152414668Y-105526106D01*
X152491275Y-105411455D01*
X152588775Y-105313955D01*
X152660318Y-105266152D01*
X152703426Y-105237348D01*
X152830817Y-105184580D01*
X152966055Y-105157680D01*
X153103945Y-105157680D01*
X153239183Y-105184580D01*
X153239183Y-105184580D01*
G37*
G36*
X174464652Y-104263543D02*
X174610241Y-104323848D01*
X174741273Y-104411401D01*
X174852699Y-104522827D01*
X174940252Y-104653859D01*
X175000557Y-104799448D01*
X175031300Y-104954005D01*
X175031300Y-105111595D01*
X175000557Y-105266152D01*
X174940252Y-105411741D01*
X174852699Y-105542773D01*
X174741273Y-105654199D01*
X174610241Y-105741752D01*
X174464652Y-105802057D01*
X174310095Y-105832800D01*
X174152505Y-105832800D01*
X173997948Y-105802057D01*
X173852359Y-105741752D01*
X173721327Y-105654199D01*
X173609901Y-105542773D01*
X173522348Y-105411741D01*
X173462043Y-105266152D01*
X173431300Y-105111595D01*
X173431300Y-104954005D01*
X173462043Y-104799448D01*
X173522348Y-104653859D01*
X173609901Y-104522827D01*
X173721327Y-104411401D01*
X173852359Y-104323848D01*
X173997948Y-104263543D01*
X174152505Y-104232800D01*
X174310095Y-104232800D01*
X174464652Y-104263543D01*
X174464652Y-104263543D01*
G37*
G36*
X138959303Y-104452420D02*
X139086694Y-104505188D01*
X139175065Y-104564235D01*
X139201345Y-104581795D01*
X139298845Y-104679295D01*
X139375452Y-104793946D01*
X139428220Y-104921337D01*
X139455120Y-105056575D01*
X139455120Y-105194465D01*
X139428220Y-105329703D01*
X139375452Y-105457094D01*
X139298846Y-105571744D01*
X139201344Y-105669246D01*
X139092832Y-105741751D01*
X139086694Y-105745852D01*
X138959303Y-105798620D01*
X138824065Y-105825520D01*
X138686175Y-105825520D01*
X138550937Y-105798620D01*
X138423546Y-105745852D01*
X138417408Y-105741751D01*
X138308896Y-105669246D01*
X138211394Y-105571744D01*
X138134788Y-105457094D01*
X138082020Y-105329703D01*
X138055120Y-105194465D01*
X138055120Y-105056575D01*
X138082020Y-104921337D01*
X138134788Y-104793946D01*
X138211395Y-104679295D01*
X138308895Y-104581795D01*
X138335176Y-104564235D01*
X138423546Y-104505188D01*
X138550937Y-104452420D01*
X138686175Y-104425520D01*
X138824065Y-104425520D01*
X138959303Y-104452420D01*
X138959303Y-104452420D01*
G37*
G36*
X136459303Y-104452420D02*
X136586694Y-104505188D01*
X136675065Y-104564235D01*
X136701345Y-104581795D01*
X136798845Y-104679295D01*
X136875452Y-104793946D01*
X136928220Y-104921337D01*
X136955120Y-105056575D01*
X136955120Y-105194465D01*
X136928220Y-105329703D01*
X136875452Y-105457094D01*
X136798846Y-105571744D01*
X136701344Y-105669246D01*
X136592832Y-105741751D01*
X136586694Y-105745852D01*
X136459303Y-105798620D01*
X136324065Y-105825520D01*
X136186175Y-105825520D01*
X136050937Y-105798620D01*
X135923546Y-105745852D01*
X135917408Y-105741751D01*
X135808896Y-105669246D01*
X135711394Y-105571744D01*
X135634788Y-105457094D01*
X135582020Y-105329703D01*
X135555120Y-105194465D01*
X135555120Y-105056575D01*
X135582020Y-104921337D01*
X135634788Y-104793946D01*
X135711395Y-104679295D01*
X135808895Y-104581795D01*
X135835176Y-104564235D01*
X135923546Y-104505188D01*
X136050937Y-104452420D01*
X136186175Y-104425520D01*
X136324065Y-104425520D01*
X136459303Y-104452420D01*
X136459303Y-104452420D01*
G37*
G36*
X185831555Y-103984885D02*
X185861631Y-103994008D01*
X185889345Y-104008822D01*
X185913640Y-104028760D01*
X185933578Y-104053055D01*
X185948392Y-104080769D01*
X185957515Y-104110845D01*
X185961200Y-104148259D01*
X185961200Y-105554141D01*
X185957515Y-105591555D01*
X185948392Y-105621631D01*
X185933578Y-105649345D01*
X185913640Y-105673640D01*
X185889345Y-105693578D01*
X185861631Y-105708392D01*
X185831555Y-105717515D01*
X185794141Y-105721200D01*
X183928259Y-105721200D01*
X183890845Y-105717515D01*
X183860769Y-105708392D01*
X183833055Y-105693578D01*
X183808760Y-105673640D01*
X183788822Y-105649345D01*
X183774008Y-105621631D01*
X183764885Y-105591555D01*
X183761200Y-105554141D01*
X183761200Y-104148259D01*
X183764885Y-104110845D01*
X183774008Y-104080769D01*
X183788822Y-104053055D01*
X183808760Y-104028760D01*
X183833055Y-104008822D01*
X183860769Y-103994008D01*
X183890845Y-103984885D01*
X183928259Y-103981200D01*
X185794141Y-103981200D01*
X185831555Y-103984885D01*
X185831555Y-103984885D01*
G37*
G36*
X144519312Y-103716183D02*
X144664901Y-103776488D01*
X144795933Y-103864041D01*
X144907359Y-103975467D01*
X144994912Y-104106499D01*
X145055217Y-104252088D01*
X145085960Y-104406645D01*
X145085960Y-104564235D01*
X145055217Y-104718792D01*
X144994912Y-104864381D01*
X144907359Y-104995413D01*
X144795933Y-105106839D01*
X144664901Y-105194392D01*
X144519312Y-105254697D01*
X144364755Y-105285440D01*
X144207165Y-105285440D01*
X144052608Y-105254697D01*
X143907019Y-105194392D01*
X143775987Y-105106839D01*
X143664561Y-104995413D01*
X143577008Y-104864381D01*
X143516703Y-104718792D01*
X143485960Y-104564235D01*
X143485960Y-104406645D01*
X143516703Y-104252088D01*
X143577008Y-104106499D01*
X143664561Y-103975467D01*
X143775987Y-103864041D01*
X143907019Y-103776488D01*
X144052608Y-103716183D01*
X144207165Y-103685440D01*
X144364755Y-103685440D01*
X144519312Y-103716183D01*
X144519312Y-103716183D01*
G37*
G36*
X149519312Y-103716183D02*
X149664901Y-103776488D01*
X149795933Y-103864041D01*
X149907359Y-103975467D01*
X149994912Y-104106499D01*
X150055217Y-104252088D01*
X150085960Y-104406645D01*
X150085960Y-104564235D01*
X150055217Y-104718792D01*
X149994912Y-104864381D01*
X149907359Y-104995413D01*
X149795933Y-105106839D01*
X149664901Y-105194392D01*
X149519312Y-105254697D01*
X149364755Y-105285440D01*
X149207165Y-105285440D01*
X149052608Y-105254697D01*
X148907019Y-105194392D01*
X148775987Y-105106839D01*
X148664561Y-104995413D01*
X148577008Y-104864381D01*
X148516703Y-104718792D01*
X148485960Y-104564235D01*
X148485960Y-104406645D01*
X148516703Y-104252088D01*
X148577008Y-104106499D01*
X148664561Y-103975467D01*
X148775987Y-103864041D01*
X148907019Y-103776488D01*
X149052608Y-103716183D01*
X149207165Y-103685440D01*
X149364755Y-103685440D01*
X149519312Y-103716183D01*
X149519312Y-103716183D01*
G37*
G36*
X166001274Y-102674962D02*
X166214204Y-102763160D01*
X166405833Y-102891203D01*
X166568797Y-103054167D01*
X166696840Y-103245796D01*
X166785038Y-103458726D01*
X166830000Y-103684764D01*
X166830000Y-103915236D01*
X166785038Y-104141274D01*
X166696840Y-104354204D01*
X166568797Y-104545833D01*
X166405833Y-104708797D01*
X166214204Y-104836840D01*
X166001274Y-104925038D01*
X165775236Y-104970000D01*
X165544764Y-104970000D01*
X165318726Y-104925038D01*
X165105796Y-104836840D01*
X164914167Y-104708797D01*
X164751203Y-104545833D01*
X164623160Y-104354204D01*
X164534962Y-104141274D01*
X164490000Y-103915236D01*
X164490000Y-103684764D01*
X164534962Y-103458726D01*
X164623160Y-103245796D01*
X164751203Y-103054167D01*
X164914167Y-102891203D01*
X165105796Y-102763160D01*
X165318726Y-102674962D01*
X165544764Y-102630000D01*
X165775236Y-102630000D01*
X166001274Y-102674962D01*
X166001274Y-102674962D01*
G37*
G36*
X161001274Y-102674962D02*
X161214204Y-102763160D01*
X161405833Y-102891203D01*
X161568797Y-103054167D01*
X161696840Y-103245796D01*
X161785038Y-103458726D01*
X161830000Y-103684764D01*
X161830000Y-103915236D01*
X161785038Y-104141274D01*
X161696840Y-104354204D01*
X161568797Y-104545833D01*
X161405833Y-104708797D01*
X161214204Y-104836840D01*
X161001274Y-104925038D01*
X160775236Y-104970000D01*
X160544764Y-104970000D01*
X160318726Y-104925038D01*
X160105796Y-104836840D01*
X159914167Y-104708797D01*
X159751203Y-104545833D01*
X159623160Y-104354204D01*
X159534962Y-104141274D01*
X159490000Y-103915236D01*
X159490000Y-103684764D01*
X159534962Y-103458726D01*
X159623160Y-103245796D01*
X159751203Y-103054167D01*
X159914167Y-102891203D01*
X160105796Y-102763160D01*
X160318726Y-102674962D01*
X160544764Y-102630000D01*
X160775236Y-102630000D01*
X161001274Y-102674962D01*
X161001274Y-102674962D01*
G37*
G36*
X153239183Y-102684580D02*
X153366574Y-102737348D01*
X153455680Y-102796886D01*
X153481225Y-102813955D01*
X153578725Y-102911455D01*
X153655332Y-103026106D01*
X153708100Y-103153497D01*
X153735000Y-103288735D01*
X153735000Y-103426625D01*
X153708100Y-103561863D01*
X153658974Y-103680462D01*
X153655332Y-103689254D01*
X153578726Y-103803904D01*
X153481224Y-103901406D01*
X153370383Y-103975467D01*
X153366574Y-103978012D01*
X153239183Y-104030780D01*
X153103945Y-104057680D01*
X152966055Y-104057680D01*
X152830817Y-104030780D01*
X152703426Y-103978012D01*
X152699617Y-103975467D01*
X152588776Y-103901406D01*
X152491274Y-103803904D01*
X152414668Y-103689254D01*
X152411026Y-103680462D01*
X152361900Y-103561863D01*
X152335000Y-103426625D01*
X152335000Y-103288735D01*
X152361900Y-103153497D01*
X152414668Y-103026106D01*
X152491275Y-102911455D01*
X152588775Y-102813955D01*
X152614321Y-102796886D01*
X152703426Y-102737348D01*
X152830817Y-102684580D01*
X152966055Y-102657680D01*
X153103945Y-102657680D01*
X153239183Y-102684580D01*
X153239183Y-102684580D01*
G37*
G36*
X180816116Y-102944095D02*
X180845313Y-102952952D01*
X180872218Y-102967333D01*
X180895808Y-102986692D01*
X180915167Y-103010282D01*
X180929548Y-103037187D01*
X180938405Y-103066384D01*
X180942000Y-103102890D01*
X180942000Y-103653110D01*
X180938405Y-103689616D01*
X180929548Y-103718813D01*
X180915167Y-103745718D01*
X180895808Y-103769308D01*
X180872218Y-103788667D01*
X180845313Y-103803048D01*
X180816116Y-103811905D01*
X180779610Y-103815500D01*
X180154390Y-103815500D01*
X180117884Y-103811905D01*
X180088687Y-103803048D01*
X180061782Y-103788667D01*
X180038192Y-103769308D01*
X180018833Y-103745718D01*
X180004452Y-103718813D01*
X179995595Y-103689616D01*
X179992000Y-103653110D01*
X179992000Y-103102890D01*
X179995595Y-103066384D01*
X180004452Y-103037187D01*
X180018833Y-103010282D01*
X180038192Y-102986692D01*
X180061782Y-102967333D01*
X180088687Y-102952952D01*
X180117884Y-102944095D01*
X180154390Y-102940500D01*
X180779610Y-102940500D01*
X180816116Y-102944095D01*
X180816116Y-102944095D01*
G37*
G36*
X185261746Y-101453788D02*
X185261749Y-101453789D01*
X185261750Y-101453789D01*
X185425745Y-101503536D01*
X185425747Y-101503537D01*
X185576886Y-101584322D01*
X185709359Y-101693041D01*
X185818078Y-101825514D01*
X185878908Y-101939320D01*
X185898864Y-101976655D01*
X185948611Y-102140650D01*
X185948612Y-102140654D01*
X185965409Y-102311200D01*
X185948612Y-102481746D01*
X185948611Y-102481749D01*
X185948611Y-102481750D01*
X185904628Y-102626745D01*
X185898863Y-102645747D01*
X185818078Y-102796886D01*
X185709359Y-102929359D01*
X185576886Y-103038078D01*
X185430029Y-103116574D01*
X185425745Y-103118864D01*
X185261750Y-103168611D01*
X185261749Y-103168611D01*
X185261746Y-103168612D01*
X185133938Y-103181200D01*
X184588462Y-103181200D01*
X184460654Y-103168612D01*
X184460651Y-103168611D01*
X184460650Y-103168611D01*
X184296655Y-103118864D01*
X184292371Y-103116574D01*
X184145514Y-103038078D01*
X184013041Y-102929359D01*
X183904322Y-102796886D01*
X183823537Y-102645747D01*
X183817773Y-102626745D01*
X183773789Y-102481750D01*
X183773789Y-102481749D01*
X183773788Y-102481746D01*
X183756991Y-102311200D01*
X183773788Y-102140654D01*
X183773789Y-102140650D01*
X183823536Y-101976655D01*
X183843492Y-101939320D01*
X183904322Y-101825514D01*
X184013041Y-101693041D01*
X184145514Y-101584322D01*
X184296653Y-101503537D01*
X184296655Y-101503536D01*
X184460650Y-101453789D01*
X184460651Y-101453789D01*
X184460654Y-101453788D01*
X184588462Y-101441200D01*
X185133938Y-101441200D01*
X185261746Y-101453788D01*
X185261746Y-101453788D01*
G37*
G36*
X173118855Y-100962285D02*
X173148931Y-100971408D01*
X173176645Y-100986222D01*
X173200940Y-101006160D01*
X173220878Y-101030455D01*
X173235692Y-101058169D01*
X173244815Y-101088245D01*
X173248500Y-101125659D01*
X173248500Y-102531541D01*
X173244815Y-102568955D01*
X173235692Y-102599031D01*
X173220878Y-102626745D01*
X173200940Y-102651040D01*
X173176645Y-102670978D01*
X173148931Y-102685792D01*
X173118855Y-102694915D01*
X173081441Y-102698600D01*
X171215559Y-102698600D01*
X171178145Y-102694915D01*
X171148069Y-102685792D01*
X171120355Y-102670978D01*
X171096060Y-102651040D01*
X171076122Y-102626745D01*
X171061308Y-102599031D01*
X171052185Y-102568955D01*
X171048500Y-102531541D01*
X171048500Y-101125659D01*
X171052185Y-101088245D01*
X171061308Y-101058169D01*
X171076122Y-101030455D01*
X171096060Y-101006160D01*
X171120355Y-100986222D01*
X171148069Y-100971408D01*
X171178145Y-100962285D01*
X171215559Y-100958600D01*
X173081441Y-100958600D01*
X173118855Y-100962285D01*
X173118855Y-100962285D01*
G37*
G36*
X180816116Y-101369095D02*
X180845313Y-101377952D01*
X180872218Y-101392333D01*
X180895808Y-101411692D01*
X180915167Y-101435282D01*
X180929548Y-101462187D01*
X180938405Y-101491384D01*
X180942000Y-101527890D01*
X180942000Y-102078110D01*
X180938405Y-102114616D01*
X180929548Y-102143813D01*
X180915167Y-102170718D01*
X180895808Y-102194308D01*
X180872218Y-102213667D01*
X180845313Y-102228048D01*
X180816116Y-102236905D01*
X180779610Y-102240500D01*
X180154390Y-102240500D01*
X180117884Y-102236905D01*
X180088687Y-102228048D01*
X180061782Y-102213667D01*
X180038192Y-102194308D01*
X180018833Y-102170718D01*
X180004452Y-102143813D01*
X179995595Y-102114616D01*
X179992000Y-102078110D01*
X179992000Y-101527890D01*
X179995595Y-101491384D01*
X180004452Y-101462187D01*
X180018833Y-101435282D01*
X180038192Y-101411692D01*
X180061782Y-101392333D01*
X180088687Y-101377952D01*
X180117884Y-101369095D01*
X180154390Y-101365500D01*
X180779610Y-101365500D01*
X180816116Y-101369095D01*
X180816116Y-101369095D01*
G37*
G36*
X148875463Y-100566220D02*
X149002854Y-100618988D01*
X149117504Y-100695594D01*
X149215006Y-100793096D01*
X149264700Y-100867469D01*
X149291612Y-100907746D01*
X149344380Y-101035137D01*
X149371280Y-101170375D01*
X149371280Y-101308265D01*
X149344380Y-101443503D01*
X149305013Y-101538541D01*
X149291612Y-101570894D01*
X149215006Y-101685544D01*
X149117504Y-101783046D01*
X149002854Y-101859652D01*
X148875463Y-101912420D01*
X148740225Y-101939320D01*
X148602335Y-101939320D01*
X148467097Y-101912420D01*
X148339706Y-101859652D01*
X148225056Y-101783046D01*
X148127554Y-101685544D01*
X148050948Y-101570894D01*
X148037547Y-101538541D01*
X147998180Y-101443503D01*
X147971280Y-101308265D01*
X147971280Y-101170375D01*
X147998180Y-101035137D01*
X148050948Y-100907746D01*
X148077860Y-100867469D01*
X148127554Y-100793096D01*
X148225056Y-100695594D01*
X148339706Y-100618988D01*
X148467097Y-100566220D01*
X148602335Y-100539320D01*
X148740225Y-100539320D01*
X148875463Y-100566220D01*
X148875463Y-100566220D01*
G37*
G36*
X145924640Y-101632120D02*
X144224640Y-101632120D01*
X144224640Y-99932120D01*
X145924640Y-99932120D01*
X145924640Y-101632120D01*
X145924640Y-101632120D01*
G37*
G36*
X140687160Y-101550840D02*
X138987160Y-101550840D01*
X138987160Y-99850840D01*
X140687160Y-99850840D01*
X140687160Y-101550840D01*
X140687160Y-101550840D01*
G37*
G36*
X137463790Y-99863139D02*
X137624015Y-99911743D01*
X137771680Y-99990671D01*
X137901109Y-100096891D01*
X138007329Y-100226320D01*
X138086257Y-100373985D01*
X138134861Y-100534210D01*
X138151272Y-100700840D01*
X138134861Y-100867470D01*
X138086257Y-101027695D01*
X138007329Y-101175360D01*
X137901109Y-101304789D01*
X137771680Y-101411009D01*
X137624015Y-101489937D01*
X137463790Y-101538541D01*
X137338912Y-101550840D01*
X137255408Y-101550840D01*
X137130530Y-101538541D01*
X136970305Y-101489937D01*
X136822640Y-101411009D01*
X136693211Y-101304789D01*
X136586991Y-101175360D01*
X136508063Y-101027695D01*
X136459459Y-100867470D01*
X136443048Y-100700840D01*
X136459459Y-100534210D01*
X136508063Y-100373985D01*
X136586991Y-100226320D01*
X136693211Y-100096891D01*
X136822640Y-99990671D01*
X136970305Y-99911743D01*
X137130530Y-99863139D01*
X137255408Y-99850840D01*
X137338912Y-99850840D01*
X137463790Y-99863139D01*
X137463790Y-99863139D01*
G37*
G36*
X177006116Y-100455095D02*
X177035313Y-100463952D01*
X177062218Y-100478333D01*
X177085808Y-100497692D01*
X177105167Y-100521282D01*
X177119548Y-100548187D01*
X177128405Y-100577384D01*
X177132000Y-100613890D01*
X177132000Y-101164110D01*
X177128405Y-101200616D01*
X177119548Y-101229813D01*
X177105167Y-101256718D01*
X177085808Y-101280308D01*
X177062218Y-101299667D01*
X177035313Y-101314048D01*
X177006116Y-101322905D01*
X176969610Y-101326500D01*
X176344390Y-101326500D01*
X176307884Y-101322905D01*
X176278687Y-101314048D01*
X176251782Y-101299667D01*
X176228192Y-101280308D01*
X176208833Y-101256718D01*
X176194452Y-101229813D01*
X176185595Y-101200616D01*
X176182000Y-101164110D01*
X176182000Y-100613890D01*
X176185595Y-100577384D01*
X176194452Y-100548187D01*
X176208833Y-100521282D01*
X176228192Y-100497692D01*
X176251782Y-100478333D01*
X176278687Y-100463952D01*
X176307884Y-100455095D01*
X176344390Y-100451500D01*
X176969610Y-100451500D01*
X177006116Y-100455095D01*
X177006116Y-100455095D01*
G37*
G36*
X165991274Y-98674962D02*
X166204204Y-98763160D01*
X166395833Y-98891203D01*
X166558797Y-99054167D01*
X166686840Y-99245796D01*
X166775038Y-99458726D01*
X166820000Y-99684764D01*
X166820000Y-99915236D01*
X166775038Y-100141274D01*
X166686840Y-100354204D01*
X166558797Y-100545833D01*
X166395833Y-100708797D01*
X166204204Y-100836840D01*
X165991274Y-100925038D01*
X165765236Y-100970000D01*
X165534764Y-100970000D01*
X165308726Y-100925038D01*
X165095796Y-100836840D01*
X164904167Y-100708797D01*
X164741203Y-100545833D01*
X164613160Y-100354204D01*
X164524962Y-100141274D01*
X164480000Y-99915236D01*
X164480000Y-99684764D01*
X164524962Y-99458726D01*
X164613160Y-99245796D01*
X164741203Y-99054167D01*
X164904167Y-98891203D01*
X165095796Y-98763160D01*
X165308726Y-98674962D01*
X165534764Y-98630000D01*
X165765236Y-98630000D01*
X165991274Y-98674962D01*
X165991274Y-98674962D01*
G37*
G36*
X161001274Y-98664962D02*
X161214204Y-98753160D01*
X161405833Y-98881203D01*
X161568797Y-99044167D01*
X161696840Y-99235796D01*
X161785038Y-99448726D01*
X161830000Y-99674764D01*
X161830000Y-99905236D01*
X161785038Y-100131274D01*
X161696840Y-100344204D01*
X161568797Y-100535833D01*
X161405833Y-100698797D01*
X161214204Y-100826840D01*
X161001274Y-100915038D01*
X160775236Y-100960000D01*
X160544764Y-100960000D01*
X160318726Y-100915038D01*
X160105796Y-100826840D01*
X159914167Y-100698797D01*
X159751203Y-100535833D01*
X159623160Y-100344204D01*
X159534962Y-100131274D01*
X159490000Y-99905236D01*
X159490000Y-99674764D01*
X159534962Y-99448726D01*
X159623160Y-99235796D01*
X159751203Y-99044167D01*
X159914167Y-98881203D01*
X160105796Y-98753160D01*
X160318726Y-98664962D01*
X160544764Y-98620000D01*
X160775236Y-98620000D01*
X161001274Y-98664962D01*
X161001274Y-98664962D01*
G37*
G36*
X129512992Y-99250863D02*
X129658581Y-99311168D01*
X129789613Y-99398721D01*
X129901039Y-99510147D01*
X129988592Y-99641179D01*
X130048897Y-99786768D01*
X130079640Y-99941325D01*
X130079640Y-100098915D01*
X130048897Y-100253472D01*
X129988592Y-100399061D01*
X129901039Y-100530093D01*
X129789613Y-100641519D01*
X129658581Y-100729072D01*
X129512992Y-100789377D01*
X129358435Y-100820120D01*
X129200845Y-100820120D01*
X129046288Y-100789377D01*
X128900699Y-100729072D01*
X128769667Y-100641519D01*
X128658241Y-100530093D01*
X128570688Y-100399061D01*
X128510383Y-100253472D01*
X128479640Y-100098915D01*
X128479640Y-99941325D01*
X128510383Y-99786768D01*
X128570688Y-99641179D01*
X128658241Y-99510147D01*
X128769667Y-99398721D01*
X128900699Y-99311168D01*
X129046288Y-99250863D01*
X129200845Y-99220120D01*
X129358435Y-99220120D01*
X129512992Y-99250863D01*
X129512992Y-99250863D01*
G37*
G36*
X134512992Y-99250863D02*
X134658581Y-99311168D01*
X134789613Y-99398721D01*
X134901039Y-99510147D01*
X134988592Y-99641179D01*
X135048897Y-99786768D01*
X135079640Y-99941325D01*
X135079640Y-100098915D01*
X135048897Y-100253472D01*
X134988592Y-100399061D01*
X134901039Y-100530093D01*
X134789613Y-100641519D01*
X134658581Y-100729072D01*
X134512992Y-100789377D01*
X134358435Y-100820120D01*
X134200845Y-100820120D01*
X134046288Y-100789377D01*
X133900699Y-100729072D01*
X133769667Y-100641519D01*
X133658241Y-100530093D01*
X133570688Y-100399061D01*
X133510383Y-100253472D01*
X133479640Y-100098915D01*
X133479640Y-99941325D01*
X133510383Y-99786768D01*
X133570688Y-99641179D01*
X133658241Y-99510147D01*
X133769667Y-99398721D01*
X133900699Y-99311168D01*
X134046288Y-99250863D01*
X134200845Y-99220120D01*
X134358435Y-99220120D01*
X134512992Y-99250863D01*
X134512992Y-99250863D01*
G37*
G36*
X151865368Y-99093928D02*
X152012779Y-99154987D01*
X152145448Y-99243634D01*
X152258266Y-99356452D01*
X152346913Y-99489121D01*
X152407972Y-99636532D01*
X152439100Y-99793022D01*
X152439100Y-99952578D01*
X152407972Y-100109068D01*
X152346913Y-100256479D01*
X152258266Y-100389148D01*
X152145448Y-100501966D01*
X152012779Y-100590613D01*
X151889875Y-100641521D01*
X151865368Y-100651672D01*
X151708878Y-100682800D01*
X151549322Y-100682800D01*
X151392832Y-100651672D01*
X151368325Y-100641521D01*
X151245421Y-100590613D01*
X151112752Y-100501966D01*
X150999934Y-100389148D01*
X150911287Y-100256479D01*
X150850228Y-100109068D01*
X150819100Y-99952578D01*
X150819100Y-99793022D01*
X150850228Y-99636532D01*
X150911287Y-99489121D01*
X150999934Y-99356452D01*
X151112752Y-99243634D01*
X151245421Y-99154987D01*
X151392832Y-99093928D01*
X151549322Y-99062800D01*
X151708878Y-99062800D01*
X151865368Y-99093928D01*
X151865368Y-99093928D01*
G37*
G36*
X156865368Y-99093928D02*
X157012779Y-99154987D01*
X157145448Y-99243634D01*
X157258266Y-99356452D01*
X157346913Y-99489121D01*
X157407972Y-99636532D01*
X157439100Y-99793022D01*
X157439100Y-99952578D01*
X157407972Y-100109068D01*
X157346913Y-100256479D01*
X157258266Y-100389148D01*
X157145448Y-100501966D01*
X157012779Y-100590613D01*
X156889875Y-100641521D01*
X156865368Y-100651672D01*
X156708878Y-100682800D01*
X156549322Y-100682800D01*
X156392832Y-100651672D01*
X156368325Y-100641521D01*
X156245421Y-100590613D01*
X156112752Y-100501966D01*
X155999934Y-100389148D01*
X155911287Y-100256479D01*
X155850228Y-100109068D01*
X155819100Y-99952578D01*
X155819100Y-99793022D01*
X155850228Y-99636532D01*
X155911287Y-99489121D01*
X155999934Y-99356452D01*
X156112752Y-99243634D01*
X156245421Y-99154987D01*
X156392832Y-99093928D01*
X156549322Y-99062800D01*
X156708878Y-99062800D01*
X156865368Y-99093928D01*
X156865368Y-99093928D01*
G37*
G36*
X172549046Y-98431188D02*
X172549049Y-98431189D01*
X172549050Y-98431189D01*
X172713045Y-98480936D01*
X172713047Y-98480937D01*
X172864186Y-98561722D01*
X172996659Y-98670441D01*
X173105378Y-98802914D01*
X173164415Y-98913366D01*
X173186164Y-98954055D01*
X173228995Y-99095250D01*
X173235912Y-99118054D01*
X173252709Y-99288600D01*
X173235912Y-99459146D01*
X173186163Y-99623147D01*
X173105378Y-99774286D01*
X172996659Y-99906759D01*
X172864186Y-100015478D01*
X172713047Y-100096263D01*
X172713045Y-100096264D01*
X172549050Y-100146011D01*
X172549049Y-100146011D01*
X172549046Y-100146012D01*
X172421238Y-100158600D01*
X171875762Y-100158600D01*
X171747954Y-100146012D01*
X171747951Y-100146011D01*
X171747950Y-100146011D01*
X171583955Y-100096264D01*
X171583953Y-100096263D01*
X171432814Y-100015478D01*
X171300341Y-99906759D01*
X171191622Y-99774286D01*
X171110837Y-99623147D01*
X171061088Y-99459146D01*
X171044291Y-99288600D01*
X171061088Y-99118054D01*
X171068005Y-99095250D01*
X171110836Y-98954055D01*
X171132585Y-98913366D01*
X171191622Y-98802914D01*
X171300341Y-98670441D01*
X171432814Y-98561722D01*
X171583953Y-98480937D01*
X171583955Y-98480936D01*
X171747950Y-98431189D01*
X171747951Y-98431189D01*
X171747954Y-98431188D01*
X171875762Y-98418600D01*
X172421238Y-98418600D01*
X172549046Y-98431188D01*
X172549046Y-98431188D01*
G37*
G36*
X177006116Y-98880095D02*
X177035313Y-98888952D01*
X177062218Y-98903333D01*
X177085808Y-98922692D01*
X177105167Y-98946282D01*
X177119548Y-98973187D01*
X177128405Y-99002384D01*
X177132000Y-99038890D01*
X177132000Y-99589110D01*
X177128405Y-99625616D01*
X177119548Y-99654813D01*
X177105167Y-99681718D01*
X177085808Y-99705308D01*
X177062218Y-99724667D01*
X177035313Y-99739048D01*
X177006116Y-99747905D01*
X176969610Y-99751500D01*
X176344390Y-99751500D01*
X176307884Y-99747905D01*
X176278687Y-99739048D01*
X176251782Y-99724667D01*
X176228192Y-99705308D01*
X176208833Y-99681718D01*
X176194452Y-99654813D01*
X176185595Y-99625616D01*
X176182000Y-99589110D01*
X176182000Y-99038890D01*
X176185595Y-99002384D01*
X176194452Y-98973187D01*
X176208833Y-98946282D01*
X176228192Y-98922692D01*
X176251782Y-98903333D01*
X176278687Y-98888952D01*
X176307884Y-98880095D01*
X176344390Y-98876500D01*
X176969610Y-98876500D01*
X177006116Y-98880095D01*
X177006116Y-98880095D01*
G37*
G36*
X148875463Y-98066220D02*
X149002854Y-98118988D01*
X149117505Y-98195595D01*
X149215005Y-98293095D01*
X149291612Y-98407746D01*
X149344380Y-98535137D01*
X149371280Y-98670375D01*
X149371280Y-98808265D01*
X149344380Y-98943503D01*
X149298540Y-99054169D01*
X149291612Y-99070894D01*
X149215006Y-99185544D01*
X149117504Y-99283046D01*
X149007643Y-99356452D01*
X149002854Y-99359652D01*
X148875463Y-99412420D01*
X148740225Y-99439320D01*
X148602335Y-99439320D01*
X148467097Y-99412420D01*
X148339706Y-99359652D01*
X148334917Y-99356452D01*
X148225056Y-99283046D01*
X148127554Y-99185544D01*
X148050948Y-99070894D01*
X148044020Y-99054169D01*
X147998180Y-98943503D01*
X147971280Y-98808265D01*
X147971280Y-98670375D01*
X147998180Y-98535137D01*
X148050948Y-98407746D01*
X148127555Y-98293095D01*
X148225055Y-98195595D01*
X148339706Y-98118988D01*
X148467097Y-98066220D01*
X148602335Y-98039320D01*
X148740225Y-98039320D01*
X148875463Y-98066220D01*
X148875463Y-98066220D01*
G37*
G36*
X145241270Y-97404419D02*
X145401495Y-97453023D01*
X145549160Y-97531951D01*
X145678589Y-97638171D01*
X145784809Y-97767600D01*
X145863737Y-97915265D01*
X145912341Y-98075490D01*
X145928752Y-98242120D01*
X145912341Y-98408750D01*
X145863737Y-98568975D01*
X145784809Y-98716640D01*
X145678589Y-98846069D01*
X145549160Y-98952289D01*
X145401495Y-99031217D01*
X145241270Y-99079821D01*
X145116392Y-99092120D01*
X145032888Y-99092120D01*
X144908010Y-99079821D01*
X144747785Y-99031217D01*
X144600120Y-98952289D01*
X144470691Y-98846069D01*
X144364471Y-98716640D01*
X144285543Y-98568975D01*
X144236939Y-98408750D01*
X144220528Y-98242120D01*
X144236939Y-98075490D01*
X144285543Y-97915265D01*
X144364471Y-97767600D01*
X144470691Y-97638171D01*
X144600120Y-97531951D01*
X144747785Y-97453023D01*
X144908010Y-97404419D01*
X145032888Y-97392120D01*
X145116392Y-97392120D01*
X145241270Y-97404419D01*
X145241270Y-97404419D01*
G37*
G36*
X135951943Y-96080580D02*
X136079334Y-96133348D01*
X136193985Y-96209955D01*
X136291485Y-96307455D01*
X136368092Y-96422106D01*
X136420860Y-96549497D01*
X136447760Y-96684735D01*
X136447760Y-96822625D01*
X136420860Y-96957863D01*
X136368092Y-97085254D01*
X136291485Y-97199905D01*
X136193985Y-97297405D01*
X136079334Y-97374012D01*
X135951943Y-97426780D01*
X135816705Y-97453680D01*
X135678815Y-97453680D01*
X135543577Y-97426780D01*
X135416186Y-97374012D01*
X135301535Y-97297405D01*
X135204035Y-97199905D01*
X135127428Y-97085254D01*
X135074660Y-96957863D01*
X135047760Y-96822625D01*
X135047760Y-96684735D01*
X135074660Y-96549497D01*
X135127428Y-96422106D01*
X135204035Y-96307455D01*
X135301535Y-96209955D01*
X135416186Y-96133348D01*
X135543577Y-96080580D01*
X135678815Y-96053680D01*
X135816705Y-96053680D01*
X135951943Y-96080580D01*
X135951943Y-96080580D01*
G37*
G36*
X132395943Y-96080580D02*
X132523334Y-96133348D01*
X132637985Y-96209955D01*
X132735485Y-96307455D01*
X132812092Y-96422106D01*
X132864860Y-96549497D01*
X132891760Y-96684735D01*
X132891760Y-96822625D01*
X132864860Y-96957863D01*
X132812092Y-97085254D01*
X132735485Y-97199905D01*
X132637985Y-97297405D01*
X132523334Y-97374012D01*
X132395943Y-97426780D01*
X132260705Y-97453680D01*
X132122815Y-97453680D01*
X131987577Y-97426780D01*
X131860186Y-97374012D01*
X131745535Y-97297405D01*
X131648035Y-97199905D01*
X131571428Y-97085254D01*
X131518660Y-96957863D01*
X131491760Y-96822625D01*
X131491760Y-96684735D01*
X131518660Y-96549497D01*
X131571428Y-96422106D01*
X131648035Y-96307455D01*
X131745535Y-96209955D01*
X131860186Y-96133348D01*
X131987577Y-96080580D01*
X132122815Y-96053680D01*
X132260705Y-96053680D01*
X132395943Y-96080580D01*
X132395943Y-96080580D01*
G37*
G36*
X161001274Y-94674962D02*
X161214204Y-94763160D01*
X161405833Y-94891203D01*
X161568797Y-95054167D01*
X161696840Y-95245796D01*
X161785038Y-95458726D01*
X161830000Y-95684764D01*
X161830000Y-95915236D01*
X161785038Y-96141274D01*
X161696840Y-96354204D01*
X161568797Y-96545833D01*
X161405833Y-96708797D01*
X161214204Y-96836840D01*
X161001274Y-96925038D01*
X160775236Y-96970000D01*
X160544764Y-96970000D01*
X160318726Y-96925038D01*
X160105796Y-96836840D01*
X159914167Y-96708797D01*
X159751203Y-96545833D01*
X159623160Y-96354204D01*
X159534962Y-96141274D01*
X159490000Y-95915236D01*
X159490000Y-95684764D01*
X159534962Y-95458726D01*
X159623160Y-95245796D01*
X159751203Y-95054167D01*
X159914167Y-94891203D01*
X160105796Y-94763160D01*
X160318726Y-94674962D01*
X160544764Y-94630000D01*
X160775236Y-94630000D01*
X161001274Y-94674962D01*
X161001274Y-94674962D01*
G37*
G36*
X166001274Y-94674962D02*
X166214204Y-94763160D01*
X166405833Y-94891203D01*
X166568797Y-95054167D01*
X166696840Y-95245796D01*
X166785038Y-95458726D01*
X166830000Y-95684764D01*
X166830000Y-95915236D01*
X166785038Y-96141274D01*
X166696840Y-96354204D01*
X166568797Y-96545833D01*
X166405833Y-96708797D01*
X166214204Y-96836840D01*
X166001274Y-96925038D01*
X165775236Y-96970000D01*
X165544764Y-96970000D01*
X165318726Y-96925038D01*
X165105796Y-96836840D01*
X164914167Y-96708797D01*
X164751203Y-96545833D01*
X164623160Y-96354204D01*
X164534962Y-96141274D01*
X164490000Y-95915236D01*
X164490000Y-95684764D01*
X164534962Y-95458726D01*
X164623160Y-95245796D01*
X164751203Y-95054167D01*
X164914167Y-94891203D01*
X165105796Y-94763160D01*
X165318726Y-94674962D01*
X165544764Y-94630000D01*
X165775236Y-94630000D01*
X166001274Y-94674962D01*
X166001274Y-94674962D01*
G37*
G36*
X148819583Y-94399100D02*
X148942387Y-94449968D01*
X148946974Y-94451868D01*
X149061624Y-94528474D01*
X149159126Y-94625976D01*
X149166179Y-94636532D01*
X149235732Y-94740626D01*
X149288500Y-94868017D01*
X149315400Y-95003255D01*
X149315400Y-95141145D01*
X149288500Y-95276383D01*
X149241790Y-95389148D01*
X149235732Y-95403774D01*
X149160396Y-95516524D01*
X149159125Y-95518425D01*
X149061625Y-95615925D01*
X148946974Y-95692532D01*
X148819583Y-95745300D01*
X148684345Y-95772200D01*
X148546455Y-95772200D01*
X148411217Y-95745300D01*
X148283826Y-95692532D01*
X148169175Y-95615925D01*
X148071675Y-95518425D01*
X148070405Y-95516524D01*
X147995068Y-95403774D01*
X147989010Y-95389148D01*
X147942300Y-95276383D01*
X147915400Y-95141145D01*
X147915400Y-95003255D01*
X147942300Y-94868017D01*
X147995068Y-94740626D01*
X148064621Y-94636532D01*
X148071674Y-94625976D01*
X148169176Y-94528474D01*
X148283826Y-94451868D01*
X148288413Y-94449968D01*
X148411217Y-94399100D01*
X148546455Y-94372200D01*
X148684345Y-94372200D01*
X148819583Y-94399100D01*
X148819583Y-94399100D01*
G37*
G36*
X145492183Y-94397200D02*
X145619574Y-94449968D01*
X145734224Y-94526574D01*
X145831726Y-94624076D01*
X145865727Y-94674963D01*
X145908332Y-94738726D01*
X145961100Y-94866117D01*
X145988000Y-95001355D01*
X145988000Y-95139245D01*
X145961100Y-95274483D01*
X145913603Y-95389148D01*
X145908332Y-95401874D01*
X145831726Y-95516524D01*
X145734224Y-95614026D01*
X145628356Y-95684764D01*
X145619574Y-95690632D01*
X145492183Y-95743400D01*
X145356945Y-95770300D01*
X145219055Y-95770300D01*
X145083817Y-95743400D01*
X144956426Y-95690632D01*
X144947644Y-95684764D01*
X144841776Y-95614026D01*
X144744274Y-95516524D01*
X144667668Y-95401874D01*
X144662397Y-95389148D01*
X144614900Y-95274483D01*
X144588000Y-95139245D01*
X144588000Y-95001355D01*
X144614900Y-94866117D01*
X144667668Y-94738726D01*
X144710273Y-94674963D01*
X144744274Y-94624076D01*
X144841776Y-94526574D01*
X144956426Y-94449968D01*
X145083817Y-94397200D01*
X145219055Y-94370300D01*
X145356945Y-94370300D01*
X145492183Y-94397200D01*
X145492183Y-94397200D01*
G37*
G36*
X154365368Y-94093928D02*
X154512779Y-94154987D01*
X154645448Y-94243634D01*
X154758266Y-94356452D01*
X154846913Y-94489121D01*
X154907972Y-94636532D01*
X154939100Y-94793022D01*
X154939100Y-94952578D01*
X154907972Y-95109068D01*
X154846913Y-95256479D01*
X154758266Y-95389148D01*
X154645448Y-95501966D01*
X154512779Y-95590613D01*
X154365368Y-95651672D01*
X154208878Y-95682800D01*
X154049322Y-95682800D01*
X153892832Y-95651672D01*
X153745421Y-95590613D01*
X153612752Y-95501966D01*
X153499934Y-95389148D01*
X153411287Y-95256479D01*
X153350228Y-95109068D01*
X153319100Y-94952578D01*
X153319100Y-94793022D01*
X153350228Y-94636532D01*
X153411287Y-94489121D01*
X153499934Y-94356452D01*
X153612752Y-94243634D01*
X153745421Y-94154987D01*
X153892832Y-94093928D01*
X154049322Y-94062800D01*
X154208878Y-94062800D01*
X154365368Y-94093928D01*
X154365368Y-94093928D01*
G37*
G36*
X135951943Y-93580580D02*
X136079334Y-93633348D01*
X136193984Y-93709954D01*
X136291486Y-93807456D01*
X136368092Y-93922106D01*
X136420860Y-94049497D01*
X136447760Y-94184735D01*
X136447760Y-94322625D01*
X136420860Y-94457863D01*
X136368092Y-94585254D01*
X136308152Y-94674962D01*
X136291485Y-94699905D01*
X136193985Y-94797405D01*
X136079334Y-94874012D01*
X135951943Y-94926780D01*
X135816705Y-94953680D01*
X135678815Y-94953680D01*
X135543577Y-94926780D01*
X135416186Y-94874012D01*
X135301535Y-94797405D01*
X135204035Y-94699905D01*
X135187369Y-94674962D01*
X135127428Y-94585254D01*
X135074660Y-94457863D01*
X135047760Y-94322625D01*
X135047760Y-94184735D01*
X135074660Y-94049497D01*
X135127428Y-93922106D01*
X135204034Y-93807456D01*
X135301536Y-93709954D01*
X135416186Y-93633348D01*
X135543577Y-93580580D01*
X135678815Y-93553680D01*
X135816705Y-93553680D01*
X135951943Y-93580580D01*
X135951943Y-93580580D01*
G37*
G36*
X132395943Y-93580580D02*
X132523334Y-93633348D01*
X132637984Y-93709954D01*
X132735486Y-93807456D01*
X132812092Y-93922106D01*
X132864860Y-94049497D01*
X132891760Y-94184735D01*
X132891760Y-94322625D01*
X132864860Y-94457863D01*
X132812092Y-94585254D01*
X132752152Y-94674962D01*
X132735485Y-94699905D01*
X132637985Y-94797405D01*
X132523334Y-94874012D01*
X132395943Y-94926780D01*
X132260705Y-94953680D01*
X132122815Y-94953680D01*
X131987577Y-94926780D01*
X131860186Y-94874012D01*
X131745535Y-94797405D01*
X131648035Y-94699905D01*
X131631369Y-94674962D01*
X131571428Y-94585254D01*
X131518660Y-94457863D01*
X131491760Y-94322625D01*
X131491760Y-94184735D01*
X131518660Y-94049497D01*
X131571428Y-93922106D01*
X131648034Y-93807456D01*
X131745536Y-93709954D01*
X131860186Y-93633348D01*
X131987577Y-93580580D01*
X132122815Y-93553680D01*
X132260705Y-93553680D01*
X132395943Y-93580580D01*
X132395943Y-93580580D01*
G37*
G36*
X140527712Y-92270943D02*
X140673301Y-92331248D01*
X140804333Y-92418801D01*
X140915759Y-92530227D01*
X141003312Y-92661259D01*
X141063617Y-92806848D01*
X141094360Y-92961405D01*
X141094360Y-93118995D01*
X141063617Y-93273552D01*
X141003312Y-93419141D01*
X140915759Y-93550173D01*
X140804333Y-93661599D01*
X140673301Y-93749152D01*
X140527712Y-93809457D01*
X140373155Y-93840200D01*
X140215565Y-93840200D01*
X140061008Y-93809457D01*
X139915419Y-93749152D01*
X139784387Y-93661599D01*
X139672961Y-93550173D01*
X139585408Y-93419141D01*
X139525103Y-93273552D01*
X139494360Y-93118995D01*
X139494360Y-92961405D01*
X139525103Y-92806848D01*
X139585408Y-92661259D01*
X139672961Y-92530227D01*
X139784387Y-92418801D01*
X139915419Y-92331248D01*
X140061008Y-92270943D01*
X140215565Y-92240200D01*
X140373155Y-92240200D01*
X140527712Y-92270943D01*
X140527712Y-92270943D01*
G37*
G36*
X148819583Y-91899100D02*
X148942387Y-91949968D01*
X148946974Y-91951868D01*
X149058782Y-92026575D01*
X149061625Y-92028475D01*
X149159125Y-92125975D01*
X149235732Y-92240626D01*
X149288500Y-92368017D01*
X149315400Y-92503255D01*
X149315400Y-92641145D01*
X149288500Y-92776383D01*
X149236519Y-92901874D01*
X149235732Y-92903774D01*
X149159126Y-93018424D01*
X149061624Y-93115926D01*
X148949818Y-93190632D01*
X148946974Y-93192532D01*
X148819583Y-93245300D01*
X148684345Y-93272200D01*
X148546455Y-93272200D01*
X148411217Y-93245300D01*
X148283826Y-93192532D01*
X148280982Y-93190632D01*
X148169176Y-93115926D01*
X148071674Y-93018424D01*
X147995068Y-92903774D01*
X147994281Y-92901874D01*
X147942300Y-92776383D01*
X147915400Y-92641145D01*
X147915400Y-92503255D01*
X147942300Y-92368017D01*
X147995068Y-92240626D01*
X148071675Y-92125975D01*
X148169175Y-92028475D01*
X148172019Y-92026575D01*
X148283826Y-91951868D01*
X148288413Y-91949968D01*
X148411217Y-91899100D01*
X148546455Y-91872200D01*
X148684345Y-91872200D01*
X148819583Y-91899100D01*
X148819583Y-91899100D01*
G37*
G36*
X145492183Y-91897200D02*
X145619574Y-91949968D01*
X145734224Y-92026574D01*
X145831726Y-92124076D01*
X145872989Y-92185831D01*
X145908332Y-92238726D01*
X145961100Y-92366117D01*
X145988000Y-92501355D01*
X145988000Y-92639245D01*
X145961100Y-92774483D01*
X145908332Y-92901874D01*
X145831726Y-93016524D01*
X145734224Y-93114026D01*
X145731380Y-93115926D01*
X145619574Y-93190632D01*
X145492183Y-93243400D01*
X145356945Y-93270300D01*
X145219055Y-93270300D01*
X145083817Y-93243400D01*
X144956426Y-93190632D01*
X144844620Y-93115926D01*
X144841776Y-93114026D01*
X144744274Y-93016524D01*
X144667668Y-92901874D01*
X144614900Y-92774483D01*
X144588000Y-92639245D01*
X144588000Y-92501355D01*
X144614900Y-92366117D01*
X144667668Y-92238726D01*
X144703011Y-92185831D01*
X144744274Y-92124076D01*
X144841776Y-92026574D01*
X144956426Y-91949968D01*
X145083817Y-91897200D01*
X145219055Y-91870300D01*
X145356945Y-91870300D01*
X145492183Y-91897200D01*
X145492183Y-91897200D01*
G37*
G36*
X163501274Y-90314962D02*
X163714204Y-90403160D01*
X163905833Y-90531203D01*
X164068797Y-90694167D01*
X164196840Y-90885796D01*
X164285038Y-91098726D01*
X164330000Y-91324764D01*
X164330000Y-91555236D01*
X164285038Y-91781274D01*
X164196840Y-91994204D01*
X164068797Y-92185833D01*
X163905833Y-92348797D01*
X163714204Y-92476840D01*
X163501274Y-92565038D01*
X163275236Y-92610000D01*
X163044764Y-92610000D01*
X162818726Y-92565038D01*
X162605796Y-92476840D01*
X162414167Y-92348797D01*
X162251203Y-92185833D01*
X162123160Y-91994204D01*
X162034962Y-91781274D01*
X161990000Y-91555236D01*
X161990000Y-91324764D01*
X162034962Y-91098726D01*
X162123160Y-90885796D01*
X162251203Y-90694167D01*
X162414167Y-90531203D01*
X162605796Y-90403160D01*
X162818726Y-90314962D01*
X163044764Y-90270000D01*
X163275236Y-90270000D01*
X163501274Y-90314962D01*
X163501274Y-90314962D01*
G37*
G36*
X134474416Y-90308195D02*
X134503613Y-90317052D01*
X134530518Y-90331433D01*
X134554108Y-90350792D01*
X134573467Y-90374382D01*
X134587848Y-90401287D01*
X134596705Y-90430484D01*
X134600300Y-90466990D01*
X134600300Y-91092210D01*
X134596705Y-91128716D01*
X134587848Y-91157913D01*
X134573467Y-91184818D01*
X134554108Y-91208408D01*
X134530518Y-91227767D01*
X134503613Y-91242148D01*
X134474416Y-91251005D01*
X134437910Y-91254600D01*
X133887690Y-91254600D01*
X133851184Y-91251005D01*
X133821987Y-91242148D01*
X133795082Y-91227767D01*
X133771492Y-91208408D01*
X133752133Y-91184818D01*
X133737752Y-91157913D01*
X133728895Y-91128716D01*
X133725300Y-91092210D01*
X133725300Y-90466990D01*
X133728895Y-90430484D01*
X133737752Y-90401287D01*
X133752133Y-90374382D01*
X133771492Y-90350792D01*
X133795082Y-90331433D01*
X133821987Y-90317052D01*
X133851184Y-90308195D01*
X133887690Y-90304600D01*
X134437910Y-90304600D01*
X134474416Y-90308195D01*
X134474416Y-90308195D01*
G37*
G36*
X132899416Y-90308195D02*
X132928613Y-90317052D01*
X132955518Y-90331433D01*
X132979108Y-90350792D01*
X132998467Y-90374382D01*
X133012848Y-90401287D01*
X133021705Y-90430484D01*
X133025300Y-90466990D01*
X133025300Y-91092210D01*
X133021705Y-91128716D01*
X133012848Y-91157913D01*
X132998467Y-91184818D01*
X132979108Y-91208408D01*
X132955518Y-91227767D01*
X132928613Y-91242148D01*
X132899416Y-91251005D01*
X132862910Y-91254600D01*
X132312690Y-91254600D01*
X132276184Y-91251005D01*
X132246987Y-91242148D01*
X132220082Y-91227767D01*
X132196492Y-91208408D01*
X132177133Y-91184818D01*
X132162752Y-91157913D01*
X132153895Y-91128716D01*
X132150300Y-91092210D01*
X132150300Y-90466990D01*
X132153895Y-90430484D01*
X132162752Y-90401287D01*
X132177133Y-90374382D01*
X132196492Y-90350792D01*
X132220082Y-90331433D01*
X132246987Y-90317052D01*
X132276184Y-90308195D01*
X132312690Y-90304600D01*
X132862910Y-90304600D01*
X132899416Y-90308195D01*
X132899416Y-90308195D01*
G37*
G36*
X152648592Y-89305503D02*
X152794181Y-89365808D01*
X152925213Y-89453361D01*
X153036639Y-89564787D01*
X153124192Y-89695819D01*
X153184497Y-89841408D01*
X153215240Y-89995965D01*
X153215240Y-90153555D01*
X153184497Y-90308112D01*
X153124192Y-90453701D01*
X153036639Y-90584733D01*
X152925213Y-90696159D01*
X152794181Y-90783712D01*
X152648592Y-90844017D01*
X152494035Y-90874760D01*
X152336445Y-90874760D01*
X152181888Y-90844017D01*
X152036299Y-90783712D01*
X151905267Y-90696159D01*
X151793841Y-90584733D01*
X151706288Y-90453701D01*
X151645983Y-90308112D01*
X151615240Y-90153555D01*
X151615240Y-89995965D01*
X151645983Y-89841408D01*
X151706288Y-89695819D01*
X151793841Y-89564787D01*
X151905267Y-89453361D01*
X152036299Y-89365808D01*
X152181888Y-89305503D01*
X152336445Y-89274760D01*
X152494035Y-89274760D01*
X152648592Y-89305503D01*
X152648592Y-89305503D01*
G37*
G36*
X146656356Y-89873855D02*
X146685553Y-89882712D01*
X146712458Y-89897093D01*
X146736048Y-89916452D01*
X146755407Y-89940042D01*
X146769788Y-89966947D01*
X146778645Y-89996144D01*
X146782240Y-90032650D01*
X146782240Y-90657870D01*
X146778645Y-90694376D01*
X146769788Y-90723573D01*
X146755407Y-90750478D01*
X146736048Y-90774068D01*
X146712458Y-90793427D01*
X146685553Y-90807808D01*
X146656356Y-90816665D01*
X146619850Y-90820260D01*
X146069630Y-90820260D01*
X146033124Y-90816665D01*
X146003927Y-90807808D01*
X145977022Y-90793427D01*
X145953432Y-90774068D01*
X145934073Y-90750478D01*
X145919692Y-90723573D01*
X145910835Y-90694376D01*
X145907240Y-90657870D01*
X145907240Y-90032650D01*
X145910835Y-89996144D01*
X145919692Y-89966947D01*
X145934073Y-89940042D01*
X145953432Y-89916452D01*
X145977022Y-89897093D01*
X146003927Y-89882712D01*
X146033124Y-89873855D01*
X146069630Y-89870260D01*
X146619850Y-89870260D01*
X146656356Y-89873855D01*
X146656356Y-89873855D01*
G37*
G36*
X145081356Y-89873855D02*
X145110553Y-89882712D01*
X145137458Y-89897093D01*
X145161048Y-89916452D01*
X145180407Y-89940042D01*
X145194788Y-89966947D01*
X145203645Y-89996144D01*
X145207240Y-90032650D01*
X145207240Y-90657870D01*
X145203645Y-90694376D01*
X145194788Y-90723573D01*
X145180407Y-90750478D01*
X145161048Y-90774068D01*
X145137458Y-90793427D01*
X145110553Y-90807808D01*
X145081356Y-90816665D01*
X145044850Y-90820260D01*
X144494630Y-90820260D01*
X144458124Y-90816665D01*
X144428927Y-90807808D01*
X144402022Y-90793427D01*
X144378432Y-90774068D01*
X144359073Y-90750478D01*
X144344692Y-90723573D01*
X144335835Y-90694376D01*
X144332240Y-90657870D01*
X144332240Y-90032650D01*
X144335835Y-89996144D01*
X144344692Y-89966947D01*
X144359073Y-89940042D01*
X144378432Y-89916452D01*
X144402022Y-89897093D01*
X144428927Y-89882712D01*
X144458124Y-89873855D01*
X144494630Y-89870260D01*
X145044850Y-89870260D01*
X145081356Y-89873855D01*
X145081356Y-89873855D01*
G37*
G36*
X140527712Y-87270943D02*
X140673301Y-87331248D01*
X140804333Y-87418801D01*
X140915759Y-87530227D01*
X141003312Y-87661259D01*
X141063617Y-87806848D01*
X141094360Y-87961405D01*
X141094360Y-88118995D01*
X141063617Y-88273552D01*
X141003312Y-88419141D01*
X140915759Y-88550173D01*
X140804333Y-88661599D01*
X140673301Y-88749152D01*
X140527712Y-88809457D01*
X140373155Y-88840200D01*
X140215565Y-88840200D01*
X140061008Y-88809457D01*
X139915419Y-88749152D01*
X139784387Y-88661599D01*
X139672961Y-88550173D01*
X139585408Y-88419141D01*
X139525103Y-88273552D01*
X139494360Y-88118995D01*
X139494360Y-87961405D01*
X139525103Y-87806848D01*
X139585408Y-87661259D01*
X139672961Y-87530227D01*
X139784387Y-87418801D01*
X139915419Y-87331248D01*
X140061008Y-87270943D01*
X140215565Y-87240200D01*
X140373155Y-87240200D01*
X140527712Y-87270943D01*
X140527712Y-87270943D01*
G37*
G36*
X160252906Y-87051988D02*
X160252909Y-87051989D01*
X160252910Y-87051989D01*
X160416905Y-87101736D01*
X160416907Y-87101737D01*
X160568046Y-87182522D01*
X160700519Y-87291241D01*
X160809238Y-87423714D01*
X160890023Y-87574853D01*
X160939772Y-87738854D01*
X160956569Y-87909400D01*
X160939772Y-88079946D01*
X160939771Y-88079949D01*
X160939771Y-88079950D01*
X160927928Y-88118993D01*
X160890023Y-88243947D01*
X160809238Y-88395086D01*
X160700519Y-88527559D01*
X160568046Y-88636278D01*
X160416907Y-88717063D01*
X160416905Y-88717064D01*
X160252910Y-88766811D01*
X160252909Y-88766811D01*
X160252906Y-88766812D01*
X160125098Y-88779400D01*
X159579622Y-88779400D01*
X159451814Y-88766812D01*
X159451811Y-88766811D01*
X159451810Y-88766811D01*
X159287815Y-88717064D01*
X159287813Y-88717063D01*
X159136674Y-88636278D01*
X159004201Y-88527559D01*
X158895482Y-88395086D01*
X158814697Y-88243947D01*
X158776793Y-88118993D01*
X158764949Y-88079950D01*
X158764949Y-88079949D01*
X158764948Y-88079946D01*
X158748151Y-87909400D01*
X158764948Y-87738854D01*
X158814697Y-87574853D01*
X158895482Y-87423714D01*
X159004201Y-87291241D01*
X159136674Y-87182522D01*
X159287813Y-87101737D01*
X159287815Y-87101736D01*
X159451810Y-87051989D01*
X159451811Y-87051989D01*
X159451814Y-87051988D01*
X159579622Y-87039400D01*
X160125098Y-87039400D01*
X160252906Y-87051988D01*
X160252906Y-87051988D01*
G37*
G36*
X136862216Y-86498195D02*
X136891413Y-86507052D01*
X136918318Y-86521433D01*
X136941908Y-86540792D01*
X136961267Y-86564382D01*
X136975648Y-86591287D01*
X136984505Y-86620484D01*
X136988100Y-86656990D01*
X136988100Y-87282210D01*
X136984505Y-87318716D01*
X136975648Y-87347913D01*
X136961267Y-87374818D01*
X136941908Y-87398408D01*
X136918318Y-87417767D01*
X136891413Y-87432148D01*
X136862216Y-87441005D01*
X136825710Y-87444600D01*
X136275490Y-87444600D01*
X136238984Y-87441005D01*
X136209787Y-87432148D01*
X136182882Y-87417767D01*
X136159292Y-87398408D01*
X136139933Y-87374818D01*
X136125552Y-87347913D01*
X136116695Y-87318716D01*
X136113100Y-87282210D01*
X136113100Y-86656990D01*
X136116695Y-86620484D01*
X136125552Y-86591287D01*
X136139933Y-86564382D01*
X136159292Y-86540792D01*
X136182882Y-86521433D01*
X136209787Y-86507052D01*
X136238984Y-86498195D01*
X136275490Y-86494600D01*
X136825710Y-86494600D01*
X136862216Y-86498195D01*
X136862216Y-86498195D01*
G37*
G36*
X135287216Y-86498195D02*
X135316413Y-86507052D01*
X135343318Y-86521433D01*
X135366908Y-86540792D01*
X135386267Y-86564382D01*
X135400648Y-86591287D01*
X135409505Y-86620484D01*
X135413100Y-86656990D01*
X135413100Y-87282210D01*
X135409505Y-87318716D01*
X135400648Y-87347913D01*
X135386267Y-87374818D01*
X135366908Y-87398408D01*
X135343318Y-87417767D01*
X135316413Y-87432148D01*
X135287216Y-87441005D01*
X135250710Y-87444600D01*
X134700490Y-87444600D01*
X134663984Y-87441005D01*
X134634787Y-87432148D01*
X134607882Y-87417767D01*
X134584292Y-87398408D01*
X134564933Y-87374818D01*
X134550552Y-87347913D01*
X134541695Y-87318716D01*
X134538100Y-87282210D01*
X134538100Y-86656990D01*
X134541695Y-86620484D01*
X134550552Y-86591287D01*
X134564933Y-86564382D01*
X134584292Y-86540792D01*
X134607882Y-86521433D01*
X134634787Y-86507052D01*
X134663984Y-86498195D01*
X134700490Y-86494600D01*
X135250710Y-86494600D01*
X135287216Y-86498195D01*
X135287216Y-86498195D01*
G37*
G36*
X149094856Y-86063855D02*
X149124053Y-86072712D01*
X149150958Y-86087093D01*
X149174548Y-86106452D01*
X149193907Y-86130042D01*
X149208288Y-86156947D01*
X149217145Y-86186144D01*
X149220740Y-86222650D01*
X149220740Y-86847870D01*
X149217145Y-86884376D01*
X149208288Y-86913573D01*
X149193907Y-86940478D01*
X149174548Y-86964068D01*
X149150958Y-86983427D01*
X149124053Y-86997808D01*
X149094856Y-87006665D01*
X149058350Y-87010260D01*
X148508130Y-87010260D01*
X148471624Y-87006665D01*
X148442427Y-86997808D01*
X148415522Y-86983427D01*
X148391932Y-86964068D01*
X148372573Y-86940478D01*
X148358192Y-86913573D01*
X148349335Y-86884376D01*
X148345740Y-86847870D01*
X148345740Y-86222650D01*
X148349335Y-86186144D01*
X148358192Y-86156947D01*
X148372573Y-86130042D01*
X148391932Y-86106452D01*
X148415522Y-86087093D01*
X148442427Y-86072712D01*
X148471624Y-86063855D01*
X148508130Y-86060260D01*
X149058350Y-86060260D01*
X149094856Y-86063855D01*
X149094856Y-86063855D01*
G37*
G36*
X147519856Y-86063855D02*
X147549053Y-86072712D01*
X147575958Y-86087093D01*
X147599548Y-86106452D01*
X147618907Y-86130042D01*
X147633288Y-86156947D01*
X147642145Y-86186144D01*
X147645740Y-86222650D01*
X147645740Y-86847870D01*
X147642145Y-86884376D01*
X147633288Y-86913573D01*
X147618907Y-86940478D01*
X147599548Y-86964068D01*
X147575958Y-86983427D01*
X147549053Y-86997808D01*
X147519856Y-87006665D01*
X147483350Y-87010260D01*
X146933130Y-87010260D01*
X146896624Y-87006665D01*
X146867427Y-86997808D01*
X146840522Y-86983427D01*
X146816932Y-86964068D01*
X146797573Y-86940478D01*
X146783192Y-86913573D01*
X146774335Y-86884376D01*
X146770740Y-86847870D01*
X146770740Y-86222650D01*
X146774335Y-86186144D01*
X146783192Y-86156947D01*
X146797573Y-86130042D01*
X146816932Y-86106452D01*
X146840522Y-86087093D01*
X146867427Y-86072712D01*
X146896624Y-86063855D01*
X146933130Y-86060260D01*
X147483350Y-86060260D01*
X147519856Y-86063855D01*
X147519856Y-86063855D01*
G37*
G36*
X158464116Y-84478495D02*
X158493313Y-84487352D01*
X158520218Y-84501733D01*
X158543808Y-84521092D01*
X158563167Y-84544682D01*
X158577548Y-84571587D01*
X158586405Y-84600784D01*
X158590000Y-84637290D01*
X158590000Y-84956203D01*
X158592402Y-84980589D01*
X158599515Y-85004038D01*
X158611066Y-85025649D01*
X158626612Y-85044591D01*
X158645554Y-85060137D01*
X158667165Y-85071688D01*
X158690614Y-85078801D01*
X158715000Y-85081203D01*
X158739386Y-85078801D01*
X158762835Y-85071688D01*
X158784446Y-85060137D01*
X158803388Y-85044591D01*
X158825240Y-85015128D01*
X158895482Y-84883714D01*
X159004201Y-84751241D01*
X159136674Y-84642522D01*
X159287813Y-84561737D01*
X159287815Y-84561736D01*
X159451810Y-84511989D01*
X159451811Y-84511989D01*
X159451814Y-84511988D01*
X159579622Y-84499400D01*
X160125098Y-84499400D01*
X160252906Y-84511988D01*
X160252909Y-84511989D01*
X160252910Y-84511989D01*
X160416905Y-84561736D01*
X160416907Y-84561737D01*
X160568046Y-84642522D01*
X160700519Y-84751241D01*
X160809238Y-84883714D01*
X160861018Y-84980589D01*
X160890024Y-85034855D01*
X160939639Y-85198416D01*
X160939772Y-85198854D01*
X160956569Y-85369400D01*
X160939772Y-85539946D01*
X160939771Y-85539949D01*
X160939771Y-85539950D01*
X160892386Y-85696159D01*
X160890023Y-85703947D01*
X160809238Y-85855086D01*
X160700519Y-85987559D01*
X160568046Y-86096278D01*
X160453546Y-86157479D01*
X160416905Y-86177064D01*
X160252910Y-86226811D01*
X160252909Y-86226811D01*
X160252906Y-86226812D01*
X160125098Y-86239400D01*
X159579622Y-86239400D01*
X159451814Y-86226812D01*
X159451811Y-86226811D01*
X159451810Y-86226811D01*
X159287815Y-86177064D01*
X159251174Y-86157479D01*
X159136674Y-86096278D01*
X159004201Y-85987559D01*
X158895482Y-85855086D01*
X158814697Y-85703947D01*
X158812335Y-85696159D01*
X158764949Y-85539950D01*
X158764949Y-85539949D01*
X158764948Y-85539946D01*
X158749805Y-85386195D01*
X158745025Y-85362162D01*
X158735647Y-85339523D01*
X158722033Y-85319148D01*
X158704706Y-85301821D01*
X158684332Y-85288207D01*
X158661693Y-85278830D01*
X158637659Y-85274049D01*
X158613155Y-85274049D01*
X158589122Y-85278829D01*
X158566483Y-85288207D01*
X158546109Y-85301820D01*
X158520221Y-85323065D01*
X158493313Y-85337448D01*
X158464116Y-85346305D01*
X158427610Y-85349900D01*
X157802390Y-85349900D01*
X157765884Y-85346305D01*
X157736687Y-85337448D01*
X157709782Y-85323067D01*
X157686192Y-85303708D01*
X157666833Y-85280118D01*
X157652452Y-85253213D01*
X157643595Y-85224016D01*
X157640000Y-85187510D01*
X157640000Y-84637290D01*
X157643595Y-84600784D01*
X157652452Y-84571587D01*
X157666833Y-84544682D01*
X157686192Y-84521092D01*
X157709782Y-84501733D01*
X157736687Y-84487352D01*
X157765884Y-84478495D01*
X157802390Y-84474900D01*
X158427610Y-84474900D01*
X158464116Y-84478495D01*
X158464116Y-84478495D01*
G37*
G36*
X152648592Y-84305503D02*
X152794181Y-84365808D01*
X152925213Y-84453361D01*
X153036639Y-84564787D01*
X153124192Y-84695819D01*
X153184497Y-84841408D01*
X153215240Y-84995965D01*
X153215240Y-85153555D01*
X153184497Y-85308112D01*
X153124192Y-85453701D01*
X153036639Y-85584733D01*
X152925213Y-85696159D01*
X152794181Y-85783712D01*
X152648592Y-85844017D01*
X152494035Y-85874760D01*
X152336445Y-85874760D01*
X152181888Y-85844017D01*
X152036299Y-85783712D01*
X151905267Y-85696159D01*
X151793841Y-85584733D01*
X151706288Y-85453701D01*
X151645983Y-85308112D01*
X151615240Y-85153555D01*
X151615240Y-84995965D01*
X151645983Y-84841408D01*
X151706288Y-84695819D01*
X151793841Y-84564787D01*
X151905267Y-84453361D01*
X152036299Y-84365808D01*
X152181888Y-84305503D01*
X152336445Y-84274760D01*
X152494035Y-84274760D01*
X152648592Y-84305503D01*
X152648592Y-84305503D01*
G37*
G36*
X162553516Y-84452895D02*
X162582713Y-84461752D01*
X162609618Y-84476133D01*
X162633208Y-84495492D01*
X162652567Y-84519082D01*
X162666948Y-84545987D01*
X162675805Y-84575184D01*
X162679400Y-84611690D01*
X162679400Y-85161910D01*
X162675805Y-85198416D01*
X162666948Y-85227613D01*
X162652567Y-85254518D01*
X162633208Y-85278108D01*
X162609618Y-85297467D01*
X162582713Y-85311848D01*
X162553516Y-85320705D01*
X162517010Y-85324300D01*
X161891790Y-85324300D01*
X161855284Y-85320705D01*
X161826087Y-85311848D01*
X161799182Y-85297467D01*
X161775592Y-85278108D01*
X161756233Y-85254518D01*
X161741852Y-85227613D01*
X161732995Y-85198416D01*
X161729400Y-85161910D01*
X161729400Y-84611690D01*
X161732995Y-84575184D01*
X161741852Y-84545987D01*
X161756233Y-84519082D01*
X161775592Y-84495492D01*
X161799182Y-84476133D01*
X161826087Y-84461752D01*
X161855284Y-84452895D01*
X161891790Y-84449300D01*
X162517010Y-84449300D01*
X162553516Y-84452895D01*
X162553516Y-84452895D01*
G37*
G36*
X160252906Y-81971988D02*
X160252909Y-81971989D01*
X160252910Y-81971989D01*
X160416905Y-82021736D01*
X160416907Y-82021737D01*
X160568046Y-82102522D01*
X160700519Y-82211241D01*
X160809238Y-82343714D01*
X160890023Y-82494853D01*
X160939772Y-82658854D01*
X160956569Y-82829400D01*
X160939772Y-82999946D01*
X160939771Y-82999949D01*
X160939771Y-82999950D01*
X160902451Y-83122979D01*
X160890023Y-83163947D01*
X160809238Y-83315086D01*
X160700519Y-83447559D01*
X160568046Y-83556278D01*
X160416907Y-83637063D01*
X160416905Y-83637064D01*
X160252910Y-83686811D01*
X160252909Y-83686811D01*
X160252906Y-83686812D01*
X160125098Y-83699400D01*
X159579622Y-83699400D01*
X159451814Y-83686812D01*
X159451811Y-83686811D01*
X159451810Y-83686811D01*
X159287815Y-83637064D01*
X159287813Y-83637063D01*
X159136674Y-83556278D01*
X159004201Y-83447559D01*
X158895482Y-83315086D01*
X158825240Y-83183672D01*
X158811626Y-83163298D01*
X158794299Y-83145971D01*
X158773925Y-83132357D01*
X158751286Y-83122979D01*
X158727252Y-83118199D01*
X158702748Y-83118199D01*
X158678714Y-83122979D01*
X158656075Y-83132357D01*
X158635701Y-83145971D01*
X158618374Y-83163298D01*
X158604760Y-83183672D01*
X158595382Y-83206311D01*
X158590000Y-83242597D01*
X158590000Y-83612510D01*
X158586405Y-83649016D01*
X158577548Y-83678213D01*
X158563167Y-83705118D01*
X158543808Y-83728708D01*
X158520218Y-83748067D01*
X158493313Y-83762448D01*
X158464116Y-83771305D01*
X158427610Y-83774900D01*
X157802390Y-83774900D01*
X157765884Y-83771305D01*
X157736687Y-83762448D01*
X157709782Y-83748067D01*
X157686192Y-83728708D01*
X157666833Y-83705118D01*
X157652452Y-83678213D01*
X157643595Y-83649016D01*
X157640000Y-83612510D01*
X157640000Y-83062290D01*
X157643595Y-83025784D01*
X157652452Y-82996587D01*
X157666833Y-82969682D01*
X157686192Y-82946092D01*
X157709782Y-82926733D01*
X157736687Y-82912352D01*
X157765884Y-82903495D01*
X157802390Y-82899900D01*
X158427610Y-82899900D01*
X158464116Y-82903495D01*
X158493313Y-82912352D01*
X158520222Y-82926735D01*
X158545349Y-82947356D01*
X158565724Y-82960970D01*
X158588363Y-82970347D01*
X158612397Y-82975127D01*
X158636901Y-82975127D01*
X158660934Y-82970346D01*
X158683573Y-82960968D01*
X158703947Y-82947354D01*
X158721274Y-82930027D01*
X158734888Y-82909652D01*
X158744265Y-82887013D01*
X158749045Y-82862979D01*
X158749045Y-82838475D01*
X158748151Y-82829398D01*
X158764948Y-82658854D01*
X158814697Y-82494853D01*
X158895482Y-82343714D01*
X159004201Y-82211241D01*
X159136674Y-82102522D01*
X159287813Y-82021737D01*
X159287815Y-82021736D01*
X159451810Y-81971989D01*
X159451811Y-81971989D01*
X159451814Y-81971988D01*
X159579622Y-81959400D01*
X160125098Y-81959400D01*
X160252906Y-81971988D01*
X160252906Y-81971988D01*
G37*
G36*
X162553516Y-82877895D02*
X162582713Y-82886752D01*
X162609618Y-82901133D01*
X162633208Y-82920492D01*
X162652567Y-82944082D01*
X162666948Y-82970987D01*
X162675805Y-83000184D01*
X162679400Y-83036690D01*
X162679400Y-83586910D01*
X162675805Y-83623416D01*
X162666948Y-83652613D01*
X162652567Y-83679518D01*
X162633208Y-83703108D01*
X162609618Y-83722467D01*
X162582713Y-83736848D01*
X162553516Y-83745705D01*
X162517010Y-83749300D01*
X161891790Y-83749300D01*
X161855284Y-83745705D01*
X161826087Y-83736848D01*
X161799182Y-83722467D01*
X161775592Y-83703108D01*
X161756233Y-83679518D01*
X161741852Y-83652613D01*
X161732995Y-83623416D01*
X161729400Y-83586910D01*
X161729400Y-83036690D01*
X161732995Y-83000184D01*
X161741852Y-82970987D01*
X161756233Y-82944082D01*
X161775592Y-82920492D01*
X161799182Y-82901133D01*
X161826087Y-82886752D01*
X161855284Y-82877895D01*
X161891790Y-82874300D01*
X162517010Y-82874300D01*
X162553516Y-82877895D01*
X162553516Y-82877895D01*
G37*
G36*
X160822715Y-79423085D02*
X160852791Y-79432208D01*
X160880505Y-79447022D01*
X160904800Y-79466960D01*
X160924738Y-79491255D01*
X160939552Y-79518969D01*
X160948675Y-79549045D01*
X160952360Y-79586459D01*
X160952360Y-80992341D01*
X160948675Y-81029755D01*
X160939552Y-81059831D01*
X160924738Y-81087545D01*
X160904800Y-81111840D01*
X160880505Y-81131778D01*
X160852791Y-81146592D01*
X160822715Y-81155715D01*
X160785301Y-81159400D01*
X158919419Y-81159400D01*
X158882005Y-81155715D01*
X158851929Y-81146592D01*
X158824215Y-81131778D01*
X158799920Y-81111840D01*
X158779982Y-81087545D01*
X158765168Y-81059831D01*
X158756045Y-81029755D01*
X158752360Y-80992341D01*
X158752360Y-79586459D01*
X158756045Y-79549045D01*
X158765168Y-79518969D01*
X158779982Y-79491255D01*
X158799920Y-79466960D01*
X158824215Y-79447022D01*
X158851929Y-79432208D01*
X158882005Y-79423085D01*
X158919419Y-79419400D01*
X160785301Y-79419400D01*
X160822715Y-79423085D01*
X160822715Y-79423085D01*
G37*
G36*
X133337039Y-74938116D02*
X133544386Y-75001015D01*
X133544388Y-75001016D01*
X133735484Y-75103158D01*
X133902981Y-75240619D01*
X134040442Y-75408116D01*
X134141109Y-75596452D01*
X134142585Y-75599214D01*
X134205484Y-75806561D01*
X134226722Y-76022200D01*
X134205484Y-76237839D01*
X134143422Y-76442428D01*
X134142584Y-76445188D01*
X134040442Y-76636284D01*
X133902981Y-76803781D01*
X133735484Y-76941242D01*
X133549550Y-77040625D01*
X133544386Y-77043385D01*
X133337039Y-77106284D01*
X133175438Y-77122200D01*
X133067362Y-77122200D01*
X132905761Y-77106284D01*
X132698414Y-77043385D01*
X132693250Y-77040625D01*
X132507316Y-76941242D01*
X132339819Y-76803781D01*
X132202358Y-76636284D01*
X132100216Y-76445188D01*
X132099379Y-76442428D01*
X132037316Y-76237839D01*
X132016078Y-76022200D01*
X132037316Y-75806561D01*
X132100215Y-75599214D01*
X132101691Y-75596452D01*
X132202358Y-75408116D01*
X132339819Y-75240619D01*
X132507316Y-75103158D01*
X132698412Y-75001016D01*
X132698414Y-75001015D01*
X132905761Y-74938116D01*
X133067362Y-74922200D01*
X133175438Y-74922200D01*
X133337039Y-74938116D01*
X133337039Y-74938116D01*
G37*
G36*
X136588239Y-74935356D02*
X136795586Y-74998255D01*
X136795588Y-74998256D01*
X136986684Y-75100398D01*
X137154181Y-75237859D01*
X137291642Y-75405356D01*
X137393784Y-75596452D01*
X137393785Y-75596454D01*
X137456684Y-75803801D01*
X137477922Y-76019440D01*
X137456684Y-76235079D01*
X137455847Y-76237839D01*
X137393784Y-76442428D01*
X137291642Y-76633524D01*
X137154181Y-76801021D01*
X136986684Y-76938482D01*
X136795588Y-77040624D01*
X136795586Y-77040625D01*
X136588239Y-77103524D01*
X136426638Y-77119440D01*
X136318562Y-77119440D01*
X136156961Y-77103524D01*
X135949614Y-77040625D01*
X135949612Y-77040624D01*
X135758516Y-76938482D01*
X135591019Y-76801021D01*
X135453558Y-76633524D01*
X135351416Y-76442428D01*
X135289354Y-76237839D01*
X135288516Y-76235079D01*
X135267278Y-76019440D01*
X135288516Y-75803801D01*
X135351415Y-75596454D01*
X135351416Y-75596452D01*
X135453558Y-75405356D01*
X135591019Y-75237859D01*
X135758516Y-75100398D01*
X135949612Y-74998256D01*
X135949614Y-74998255D01*
X136156961Y-74935356D01*
X136318562Y-74919440D01*
X136426638Y-74919440D01*
X136588239Y-74935356D01*
X136588239Y-74935356D01*
G37*
G36*
X166391400Y-74705200D02*
X165891400Y-74705200D01*
X165891400Y-74205200D01*
X166391400Y-74205200D01*
X166391400Y-74705200D01*
X166391400Y-74705200D01*
G37*
G36*
X175783300Y-74384600D02*
X173783300Y-74384600D01*
X173783300Y-72884600D01*
X175783300Y-72884600D01*
X175783300Y-74384600D01*
X175783300Y-74384600D01*
G37*
G36*
X163199586Y-71715555D02*
X163417972Y-71806013D01*
X163614518Y-71937341D01*
X163781659Y-72104482D01*
X163912987Y-72301028D01*
X164003445Y-72519414D01*
X164049560Y-72751249D01*
X164049560Y-72987631D01*
X164003445Y-73219466D01*
X163912987Y-73437852D01*
X163781659Y-73634398D01*
X163614518Y-73801539D01*
X163417972Y-73932867D01*
X163199586Y-74023325D01*
X162967751Y-74069440D01*
X162731369Y-74069440D01*
X162499534Y-74023325D01*
X162281148Y-73932867D01*
X162084602Y-73801539D01*
X161917461Y-73634398D01*
X161786133Y-73437852D01*
X161695675Y-73219466D01*
X161649560Y-72987631D01*
X161649560Y-72751249D01*
X161695675Y-72519414D01*
X161786133Y-72301028D01*
X161917461Y-72104482D01*
X162084602Y-71937341D01*
X162281148Y-71806013D01*
X162499534Y-71715555D01*
X162731369Y-71669440D01*
X162967751Y-71669440D01*
X163199586Y-71715555D01*
X163199586Y-71715555D01*
G37*
G36*
X146679426Y-71715555D02*
X146897812Y-71806013D01*
X147094358Y-71937341D01*
X147261499Y-72104482D01*
X147392827Y-72301028D01*
X147483285Y-72519414D01*
X147529400Y-72751249D01*
X147529400Y-72987631D01*
X147483285Y-73219466D01*
X147392827Y-73437852D01*
X147261499Y-73634398D01*
X147094358Y-73801539D01*
X146897812Y-73932867D01*
X146679426Y-74023325D01*
X146447591Y-74069440D01*
X146211209Y-74069440D01*
X145979374Y-74023325D01*
X145760988Y-73932867D01*
X145564442Y-73801539D01*
X145397301Y-73634398D01*
X145265973Y-73437852D01*
X145175515Y-73219466D01*
X145129400Y-72987631D01*
X145129400Y-72751249D01*
X145175515Y-72519414D01*
X145265973Y-72301028D01*
X145397301Y-72104482D01*
X145564442Y-71937341D01*
X145760988Y-71806013D01*
X145979374Y-71715555D01*
X146211209Y-71669440D01*
X146447591Y-71669440D01*
X146679426Y-71715555D01*
X146679426Y-71715555D01*
G37*
G36*
X153673504Y-71998395D02*
X153706216Y-72008319D01*
X153736370Y-72024437D01*
X153762796Y-72046124D01*
X153784483Y-72072550D01*
X153800601Y-72102704D01*
X153810525Y-72135416D01*
X153814480Y-72175578D01*
X153814480Y-73563302D01*
X153810525Y-73603464D01*
X153800601Y-73636176D01*
X153784483Y-73666330D01*
X153762796Y-73692756D01*
X153736370Y-73714443D01*
X153706216Y-73730561D01*
X153673504Y-73740485D01*
X153633342Y-73744440D01*
X152745618Y-73744440D01*
X152705456Y-73740485D01*
X152672744Y-73730561D01*
X152642590Y-73714443D01*
X152616164Y-73692756D01*
X152594477Y-73666330D01*
X152578359Y-73636176D01*
X152568435Y-73603464D01*
X152564480Y-73563302D01*
X152564480Y-72175578D01*
X152568435Y-72135416D01*
X152578359Y-72102704D01*
X152594477Y-72072550D01*
X152616164Y-72046124D01*
X152642590Y-72024437D01*
X152672744Y-72008319D01*
X152705456Y-71998395D01*
X152745618Y-71994440D01*
X153633342Y-71994440D01*
X153673504Y-71998395D01*
X153673504Y-71998395D01*
G37*
G36*
X156473504Y-71998395D02*
X156506216Y-72008319D01*
X156536370Y-72024437D01*
X156562796Y-72046124D01*
X156584483Y-72072550D01*
X156600601Y-72102704D01*
X156610525Y-72135416D01*
X156614480Y-72175578D01*
X156614480Y-73563302D01*
X156610525Y-73603464D01*
X156600601Y-73636176D01*
X156584483Y-73666330D01*
X156562796Y-73692756D01*
X156536370Y-73714443D01*
X156506216Y-73730561D01*
X156473504Y-73740485D01*
X156433342Y-73744440D01*
X155545618Y-73744440D01*
X155505456Y-73740485D01*
X155472744Y-73730561D01*
X155442590Y-73714443D01*
X155416164Y-73692756D01*
X155394477Y-73666330D01*
X155378359Y-73636176D01*
X155368435Y-73603464D01*
X155364480Y-73563302D01*
X155364480Y-72175578D01*
X155368435Y-72135416D01*
X155378359Y-72102704D01*
X155394477Y-72072550D01*
X155416164Y-72046124D01*
X155442590Y-72024437D01*
X155472744Y-72008319D01*
X155505456Y-71998395D01*
X155545618Y-71994440D01*
X156433342Y-71994440D01*
X156473504Y-71998395D01*
X156473504Y-71998395D01*
G37*
G36*
X133470516Y-72718295D02*
X133499713Y-72727152D01*
X133526618Y-72741533D01*
X133550208Y-72760892D01*
X133569567Y-72784482D01*
X133583948Y-72811387D01*
X133592805Y-72840584D01*
X133596400Y-72877090D01*
X133596400Y-73427310D01*
X133592805Y-73463816D01*
X133583948Y-73493013D01*
X133569567Y-73519918D01*
X133550208Y-73543508D01*
X133526618Y-73562867D01*
X133499713Y-73577248D01*
X133470516Y-73586105D01*
X133434010Y-73589700D01*
X132808790Y-73589700D01*
X132772284Y-73586105D01*
X132743087Y-73577248D01*
X132716182Y-73562867D01*
X132692592Y-73543508D01*
X132673233Y-73519918D01*
X132658852Y-73493013D01*
X132649995Y-73463816D01*
X132646400Y-73427310D01*
X132646400Y-72877090D01*
X132649995Y-72840584D01*
X132658852Y-72811387D01*
X132673233Y-72784482D01*
X132692592Y-72760892D01*
X132716182Y-72741533D01*
X132743087Y-72727152D01*
X132772284Y-72718295D01*
X132808790Y-72714700D01*
X133434010Y-72714700D01*
X133470516Y-72718295D01*
X133470516Y-72718295D01*
G37*
G36*
X136731876Y-72616595D02*
X136761073Y-72625452D01*
X136787978Y-72639833D01*
X136811568Y-72659192D01*
X136830927Y-72682782D01*
X136845308Y-72709687D01*
X136854165Y-72738884D01*
X136857760Y-72775390D01*
X136857760Y-73325610D01*
X136854165Y-73362116D01*
X136845308Y-73391313D01*
X136830927Y-73418218D01*
X136811568Y-73441808D01*
X136787978Y-73461167D01*
X136761073Y-73475548D01*
X136731876Y-73484405D01*
X136695370Y-73488000D01*
X136070150Y-73488000D01*
X136033644Y-73484405D01*
X136004447Y-73475548D01*
X135977542Y-73461167D01*
X135953952Y-73441808D01*
X135934593Y-73418218D01*
X135920212Y-73391313D01*
X135911355Y-73362116D01*
X135907760Y-73325610D01*
X135907760Y-72775390D01*
X135911355Y-72738884D01*
X135920212Y-72709687D01*
X135934593Y-72682782D01*
X135953952Y-72659192D01*
X135977542Y-72639833D01*
X136004447Y-72625452D01*
X136033644Y-72616595D01*
X136070150Y-72613000D01*
X136695370Y-72613000D01*
X136731876Y-72616595D01*
X136731876Y-72616595D01*
G37*
G36*
X169483300Y-73234600D02*
X167483300Y-73234600D01*
X167483300Y-69434600D01*
X169483300Y-69434600D01*
X169483300Y-73234600D01*
X169483300Y-73234600D01*
G37*
G36*
X166391400Y-72505200D02*
X165891400Y-72505200D01*
X165891400Y-72005200D01*
X166391400Y-72005200D01*
X166391400Y-72505200D01*
X166391400Y-72505200D01*
G37*
G36*
X175783300Y-72084600D02*
X173783300Y-72084600D01*
X173783300Y-70584600D01*
X175783300Y-70584600D01*
X175783300Y-72084600D01*
X175783300Y-72084600D01*
G37*
G36*
X133470516Y-71143295D02*
X133499713Y-71152152D01*
X133526618Y-71166533D01*
X133550208Y-71185892D01*
X133569567Y-71209482D01*
X133583948Y-71236387D01*
X133592805Y-71265584D01*
X133596400Y-71302090D01*
X133596400Y-71852310D01*
X133592805Y-71888816D01*
X133583948Y-71918013D01*
X133569567Y-71944918D01*
X133550208Y-71968508D01*
X133526618Y-71987867D01*
X133499713Y-72002248D01*
X133470516Y-72011105D01*
X133434010Y-72014700D01*
X132808790Y-72014700D01*
X132772284Y-72011105D01*
X132743087Y-72002248D01*
X132716182Y-71987867D01*
X132692592Y-71968508D01*
X132673233Y-71944918D01*
X132658852Y-71918013D01*
X132649995Y-71888816D01*
X132646400Y-71852310D01*
X132646400Y-71302090D01*
X132649995Y-71265584D01*
X132658852Y-71236387D01*
X132673233Y-71209482D01*
X132692592Y-71185892D01*
X132716182Y-71166533D01*
X132743087Y-71152152D01*
X132772284Y-71143295D01*
X132808790Y-71139700D01*
X133434010Y-71139700D01*
X133470516Y-71143295D01*
X133470516Y-71143295D01*
G37*
G36*
X136731876Y-71041595D02*
X136761073Y-71050452D01*
X136787978Y-71064833D01*
X136811568Y-71084192D01*
X136830927Y-71107782D01*
X136845308Y-71134687D01*
X136854165Y-71163884D01*
X136857760Y-71200390D01*
X136857760Y-71750610D01*
X136854165Y-71787116D01*
X136845308Y-71816313D01*
X136830927Y-71843218D01*
X136811568Y-71866808D01*
X136787978Y-71886167D01*
X136761073Y-71900548D01*
X136731876Y-71909405D01*
X136695370Y-71913000D01*
X136070150Y-71913000D01*
X136033644Y-71909405D01*
X136004447Y-71900548D01*
X135977542Y-71886167D01*
X135953952Y-71866808D01*
X135934593Y-71843218D01*
X135920212Y-71816313D01*
X135911355Y-71787116D01*
X135907760Y-71750610D01*
X135907760Y-71200390D01*
X135911355Y-71163884D01*
X135920212Y-71134687D01*
X135934593Y-71107782D01*
X135953952Y-71084192D01*
X135977542Y-71064833D01*
X136004447Y-71050452D01*
X136033644Y-71041595D01*
X136070150Y-71038000D01*
X136695370Y-71038000D01*
X136731876Y-71041595D01*
X136731876Y-71041595D01*
G37*
G36*
X177465800Y-70699800D02*
X176965800Y-70699800D01*
X176965800Y-70199800D01*
X177465800Y-70199800D01*
X177465800Y-70699800D01*
X177465800Y-70699800D01*
G37*
G36*
X163198676Y-69558535D02*
X163227873Y-69567392D01*
X163254778Y-69581773D01*
X163278368Y-69601132D01*
X163297727Y-69624722D01*
X163312108Y-69651627D01*
X163320965Y-69680824D01*
X163324560Y-69717330D01*
X163324560Y-70267550D01*
X163320965Y-70304056D01*
X163312108Y-70333253D01*
X163297727Y-70360158D01*
X163278368Y-70383748D01*
X163254778Y-70403107D01*
X163227873Y-70417488D01*
X163198676Y-70426345D01*
X163162170Y-70429940D01*
X162536950Y-70429940D01*
X162500444Y-70426345D01*
X162471247Y-70417488D01*
X162444342Y-70403107D01*
X162420752Y-70383748D01*
X162401393Y-70360158D01*
X162387012Y-70333253D01*
X162378155Y-70304056D01*
X162374560Y-70267550D01*
X162374560Y-69717330D01*
X162378155Y-69680824D01*
X162387012Y-69651627D01*
X162401393Y-69624722D01*
X162420752Y-69601132D01*
X162444342Y-69581773D01*
X162471247Y-69567392D01*
X162500444Y-69558535D01*
X162536950Y-69554940D01*
X163162170Y-69554940D01*
X163198676Y-69558535D01*
X163198676Y-69558535D01*
G37*
G36*
X175783300Y-69784600D02*
X173783300Y-69784600D01*
X173783300Y-68284600D01*
X175783300Y-68284600D01*
X175783300Y-69784600D01*
X175783300Y-69784600D01*
G37*
G36*
X134221400Y-69502200D02*
X132021400Y-69502200D01*
X132021400Y-67302200D01*
X134221400Y-67302200D01*
X134221400Y-69502200D01*
X134221400Y-69502200D01*
G37*
G36*
X137472600Y-69499440D02*
X135272600Y-69499440D01*
X135272600Y-67299440D01*
X137472600Y-67299440D01*
X137472600Y-69499440D01*
X137472600Y-69499440D01*
G37*
G36*
X180495450Y-66909452D02*
X180611369Y-66932509D01*
X180793358Y-67007891D01*
X180957143Y-67117329D01*
X181096431Y-67256617D01*
X181205869Y-67420402D01*
X181281251Y-67602391D01*
X181304308Y-67718310D01*
X181319680Y-67795587D01*
X181319680Y-67992573D01*
X181309448Y-68044010D01*
X181281251Y-68185769D01*
X181205869Y-68367758D01*
X181096431Y-68531543D01*
X180957143Y-68670831D01*
X180793358Y-68780269D01*
X180611369Y-68855651D01*
X180495450Y-68878708D01*
X180418173Y-68894080D01*
X180221187Y-68894080D01*
X180143910Y-68878708D01*
X180027991Y-68855651D01*
X179846002Y-68780269D01*
X179682217Y-68670831D01*
X179542929Y-68531543D01*
X179433491Y-68367758D01*
X179358109Y-68185769D01*
X179329912Y-68044010D01*
X179319680Y-67992573D01*
X179319680Y-67795587D01*
X179335052Y-67718310D01*
X179358109Y-67602391D01*
X179433491Y-67420402D01*
X179542929Y-67256617D01*
X179682217Y-67117329D01*
X179846002Y-67007891D01*
X180027991Y-66932509D01*
X180143910Y-66909452D01*
X180221187Y-66894080D01*
X180418173Y-66894080D01*
X180495450Y-66909452D01*
X180495450Y-66909452D01*
G37*
G36*
X163198676Y-67983535D02*
X163227873Y-67992392D01*
X163254778Y-68006773D01*
X163278368Y-68026132D01*
X163297727Y-68049722D01*
X163312108Y-68076627D01*
X163320965Y-68105824D01*
X163324560Y-68142330D01*
X163324560Y-68692550D01*
X163320965Y-68729056D01*
X163312108Y-68758253D01*
X163297727Y-68785158D01*
X163278368Y-68808748D01*
X163254778Y-68828107D01*
X163227873Y-68842488D01*
X163198676Y-68851345D01*
X163162170Y-68854940D01*
X162536950Y-68854940D01*
X162500444Y-68851345D01*
X162471247Y-68842488D01*
X162444342Y-68828107D01*
X162420752Y-68808748D01*
X162401393Y-68785158D01*
X162387012Y-68758253D01*
X162378155Y-68729056D01*
X162374560Y-68692550D01*
X162374560Y-68142330D01*
X162378155Y-68105824D01*
X162387012Y-68076627D01*
X162401393Y-68049722D01*
X162420752Y-68026132D01*
X162444342Y-68006773D01*
X162471247Y-67992392D01*
X162500444Y-67983535D01*
X162536950Y-67979940D01*
X163162170Y-67979940D01*
X163198676Y-67983535D01*
X163198676Y-67983535D01*
G37*
G36*
X177465800Y-68499800D02*
X176965800Y-68499800D01*
X176965800Y-67999800D01*
X177465800Y-67999800D01*
X177465800Y-68499800D01*
X177465800Y-68499800D01*
G37*
G36*
X184717500Y-67491600D02*
X184217500Y-67491600D01*
X184217500Y-66991600D01*
X184717500Y-66991600D01*
X184717500Y-67491600D01*
X184717500Y-67491600D01*
G37*
G36*
X183010676Y-66510535D02*
X183039873Y-66519392D01*
X183066778Y-66533773D01*
X183090368Y-66553132D01*
X183109727Y-66576722D01*
X183124108Y-66603627D01*
X183132965Y-66632824D01*
X183136560Y-66669330D01*
X183136560Y-67219550D01*
X183132965Y-67256056D01*
X183124108Y-67285253D01*
X183109727Y-67312158D01*
X183090368Y-67335748D01*
X183066778Y-67355107D01*
X183039873Y-67369488D01*
X183010676Y-67378345D01*
X182974170Y-67381940D01*
X182348950Y-67381940D01*
X182312444Y-67378345D01*
X182283247Y-67369488D01*
X182256342Y-67355107D01*
X182232752Y-67335748D01*
X182213393Y-67312158D01*
X182199012Y-67285253D01*
X182190155Y-67256056D01*
X182186560Y-67219550D01*
X182186560Y-66669330D01*
X182190155Y-66632824D01*
X182199012Y-66603627D01*
X182213393Y-66576722D01*
X182232752Y-66553132D01*
X182256342Y-66533773D01*
X182283247Y-66519392D01*
X182312444Y-66510535D01*
X182348950Y-66506940D01*
X182974170Y-66506940D01*
X183010676Y-66510535D01*
X183010676Y-66510535D01*
G37*
G36*
X173762292Y-65928276D02*
X173796183Y-65938557D01*
X173827411Y-65955248D01*
X173854785Y-65977715D01*
X173877252Y-66005089D01*
X173893943Y-66036317D01*
X173904224Y-66070208D01*
X173908300Y-66111591D01*
X173908300Y-67136809D01*
X173904224Y-67178192D01*
X173893943Y-67212083D01*
X173877252Y-67243311D01*
X173854785Y-67270685D01*
X173827411Y-67293152D01*
X173796183Y-67309843D01*
X173762292Y-67320124D01*
X173720909Y-67324200D01*
X173120691Y-67324200D01*
X173079308Y-67320124D01*
X173045417Y-67309843D01*
X173014189Y-67293152D01*
X172986815Y-67270685D01*
X172964348Y-67243311D01*
X172947657Y-67212083D01*
X172937376Y-67178192D01*
X172933300Y-67136809D01*
X172933300Y-66111591D01*
X172937376Y-66070208D01*
X172947657Y-66036317D01*
X172964348Y-66005089D01*
X172986815Y-65977715D01*
X173014189Y-65955248D01*
X173045417Y-65938557D01*
X173079308Y-65928276D01*
X173120691Y-65924200D01*
X173720909Y-65924200D01*
X173762292Y-65928276D01*
X173762292Y-65928276D01*
G37*
G36*
X175637292Y-65928276D02*
X175671183Y-65938557D01*
X175702411Y-65955248D01*
X175729785Y-65977715D01*
X175752252Y-66005089D01*
X175768943Y-66036317D01*
X175779224Y-66070208D01*
X175783300Y-66111591D01*
X175783300Y-67136809D01*
X175779224Y-67178192D01*
X175768943Y-67212083D01*
X175752252Y-67243311D01*
X175729785Y-67270685D01*
X175702411Y-67293152D01*
X175671183Y-67309843D01*
X175637292Y-67320124D01*
X175595909Y-67324200D01*
X174995691Y-67324200D01*
X174954308Y-67320124D01*
X174920417Y-67309843D01*
X174889189Y-67293152D01*
X174861815Y-67270685D01*
X174839348Y-67243311D01*
X174822657Y-67212083D01*
X174812376Y-67178192D01*
X174808300Y-67136809D01*
X174808300Y-66111591D01*
X174812376Y-66070208D01*
X174822657Y-66036317D01*
X174839348Y-66005089D01*
X174861815Y-65977715D01*
X174889189Y-65955248D01*
X174920417Y-65938557D01*
X174954308Y-65928276D01*
X174995691Y-65924200D01*
X175595909Y-65924200D01*
X175637292Y-65928276D01*
X175637292Y-65928276D01*
G37*
G36*
X177949824Y-66003155D02*
X177982536Y-66013079D01*
X178012690Y-66029197D01*
X178039116Y-66050884D01*
X178060803Y-66077310D01*
X178076921Y-66107464D01*
X178086845Y-66140176D01*
X178090800Y-66180338D01*
X178090800Y-67068062D01*
X178086845Y-67108224D01*
X178076921Y-67140936D01*
X178060803Y-67171090D01*
X178039116Y-67197516D01*
X178012690Y-67219203D01*
X177982536Y-67235321D01*
X177949824Y-67245245D01*
X177909662Y-67249200D01*
X176521938Y-67249200D01*
X176481776Y-67245245D01*
X176449064Y-67235321D01*
X176418910Y-67219203D01*
X176392484Y-67197516D01*
X176370797Y-67171090D01*
X176354679Y-67140936D01*
X176344755Y-67108224D01*
X176340800Y-67068062D01*
X176340800Y-66180338D01*
X176344755Y-66140176D01*
X176354679Y-66107464D01*
X176370797Y-66077310D01*
X176392484Y-66050884D01*
X176418910Y-66029197D01*
X176449064Y-66013079D01*
X176481776Y-66003155D01*
X176521938Y-65999200D01*
X177909662Y-65999200D01*
X177949824Y-66003155D01*
X177949824Y-66003155D01*
G37*
G36*
X147529400Y-66569440D02*
X145129400Y-66569440D01*
X145129400Y-64169440D01*
X147529400Y-64169440D01*
X147529400Y-66569440D01*
X147529400Y-66569440D01*
G37*
G36*
X164049560Y-66569440D02*
X161649560Y-66569440D01*
X161649560Y-64169440D01*
X164049560Y-64169440D01*
X164049560Y-66569440D01*
X164049560Y-66569440D01*
G37*
G36*
X183010676Y-64935535D02*
X183039873Y-64944392D01*
X183066778Y-64958773D01*
X183090368Y-64978132D01*
X183109727Y-65001722D01*
X183124108Y-65028627D01*
X183132965Y-65057824D01*
X183136560Y-65094330D01*
X183136560Y-65644550D01*
X183132965Y-65681056D01*
X183124108Y-65710253D01*
X183109727Y-65737158D01*
X183090368Y-65760748D01*
X183066778Y-65780107D01*
X183039873Y-65794488D01*
X183010676Y-65803345D01*
X182974170Y-65806940D01*
X182348950Y-65806940D01*
X182312444Y-65803345D01*
X182283247Y-65794488D01*
X182256342Y-65780107D01*
X182232752Y-65760748D01*
X182213393Y-65737158D01*
X182199012Y-65710253D01*
X182190155Y-65681056D01*
X182186560Y-65644550D01*
X182186560Y-65094330D01*
X182190155Y-65057824D01*
X182199012Y-65028627D01*
X182213393Y-65001722D01*
X182232752Y-64978132D01*
X182256342Y-64958773D01*
X182283247Y-64944392D01*
X182312444Y-64935535D01*
X182348950Y-64931940D01*
X182974170Y-64931940D01*
X183010676Y-64935535D01*
X183010676Y-64935535D01*
G37*
G36*
X135033246Y-63912588D02*
X135033249Y-63912589D01*
X135033250Y-63912589D01*
X135197245Y-63962336D01*
X135197247Y-63962337D01*
X135348386Y-64043122D01*
X135480859Y-64151841D01*
X135589578Y-64284314D01*
X135650085Y-64397516D01*
X135670364Y-64435455D01*
X135674533Y-64449200D01*
X135720112Y-64599454D01*
X135736909Y-64770000D01*
X135720112Y-64940546D01*
X135720111Y-64940549D01*
X135720111Y-64940550D01*
X135673463Y-65094330D01*
X135670363Y-65104547D01*
X135589578Y-65255686D01*
X135480859Y-65388159D01*
X135348386Y-65496878D01*
X135197247Y-65577663D01*
X135197245Y-65577664D01*
X135033250Y-65627411D01*
X135033249Y-65627411D01*
X135033246Y-65627412D01*
X134905438Y-65640000D01*
X134359962Y-65640000D01*
X134232154Y-65627412D01*
X134232151Y-65627411D01*
X134232150Y-65627411D01*
X134068155Y-65577664D01*
X134068153Y-65577663D01*
X133917014Y-65496878D01*
X133784541Y-65388159D01*
X133675822Y-65255686D01*
X133595037Y-65104547D01*
X133591938Y-65094330D01*
X133545289Y-64940550D01*
X133545289Y-64940549D01*
X133545288Y-64940546D01*
X133528491Y-64770000D01*
X133545288Y-64599454D01*
X133590867Y-64449200D01*
X133595036Y-64435455D01*
X133615315Y-64397516D01*
X133675822Y-64284314D01*
X133784541Y-64151841D01*
X133917014Y-64043122D01*
X134068153Y-63962337D01*
X134068155Y-63962336D01*
X134232150Y-63912589D01*
X134232151Y-63912589D01*
X134232154Y-63912588D01*
X134359962Y-63900000D01*
X134905438Y-63900000D01*
X135033246Y-63912588D01*
X135033246Y-63912588D01*
G37*
G36*
X181319680Y-65394080D02*
X179319680Y-65394080D01*
X179319680Y-63394080D01*
X181319680Y-63394080D01*
X181319680Y-65394080D01*
X181319680Y-65394080D01*
G37*
G36*
X175637292Y-63921676D02*
X175671183Y-63931957D01*
X175702411Y-63948648D01*
X175729785Y-63971115D01*
X175752252Y-63998489D01*
X175768943Y-64029717D01*
X175779224Y-64063608D01*
X175783300Y-64104991D01*
X175783300Y-65130209D01*
X175779224Y-65171592D01*
X175768943Y-65205483D01*
X175752252Y-65236711D01*
X175729785Y-65264085D01*
X175702411Y-65286552D01*
X175671183Y-65303243D01*
X175637292Y-65313524D01*
X175595909Y-65317600D01*
X174995691Y-65317600D01*
X174954308Y-65313524D01*
X174920417Y-65303243D01*
X174889189Y-65286552D01*
X174861815Y-65264085D01*
X174839348Y-65236711D01*
X174822657Y-65205483D01*
X174812376Y-65171592D01*
X174808300Y-65130209D01*
X174808300Y-64104991D01*
X174812376Y-64063608D01*
X174822657Y-64029717D01*
X174839348Y-63998489D01*
X174861815Y-63971115D01*
X174889189Y-63948648D01*
X174920417Y-63931957D01*
X174954308Y-63921676D01*
X174995691Y-63917600D01*
X175595909Y-63917600D01*
X175637292Y-63921676D01*
X175637292Y-63921676D01*
G37*
G36*
X173762292Y-63921676D02*
X173796183Y-63931957D01*
X173827411Y-63948648D01*
X173854785Y-63971115D01*
X173877252Y-63998489D01*
X173893943Y-64029717D01*
X173904224Y-64063608D01*
X173908300Y-64104991D01*
X173908300Y-65130209D01*
X173904224Y-65171592D01*
X173893943Y-65205483D01*
X173877252Y-65236711D01*
X173854785Y-65264085D01*
X173827411Y-65286552D01*
X173796183Y-65303243D01*
X173762292Y-65313524D01*
X173720909Y-65317600D01*
X173120691Y-65317600D01*
X173079308Y-65313524D01*
X173045417Y-65303243D01*
X173014189Y-65286552D01*
X172986815Y-65264085D01*
X172964348Y-65236711D01*
X172947657Y-65205483D01*
X172937376Y-65171592D01*
X172933300Y-65130209D01*
X172933300Y-64104991D01*
X172937376Y-64063608D01*
X172947657Y-64029717D01*
X172964348Y-63998489D01*
X172986815Y-63971115D01*
X173014189Y-63948648D01*
X173045417Y-63931957D01*
X173079308Y-63921676D01*
X173120691Y-63917600D01*
X173720909Y-63917600D01*
X173762292Y-63921676D01*
X173762292Y-63921676D01*
G37*
G36*
X184717500Y-65291600D02*
X184217500Y-65291600D01*
X184217500Y-64791600D01*
X184717500Y-64791600D01*
X184717500Y-65291600D01*
X184717500Y-65291600D01*
G37*
G36*
X167711800Y-64554000D02*
X164711800Y-64554000D01*
X164711800Y-62954000D01*
X167711800Y-62954000D01*
X167711800Y-64554000D01*
X167711800Y-64554000D01*
G37*
G36*
X172111800Y-64554000D02*
X169111800Y-64554000D01*
X169111800Y-62954000D01*
X172111800Y-62954000D01*
X172111800Y-64554000D01*
X172111800Y-64554000D01*
G37*
G36*
X177949824Y-63203155D02*
X177982536Y-63213079D01*
X178012690Y-63229197D01*
X178039116Y-63250884D01*
X178060803Y-63277310D01*
X178076921Y-63307464D01*
X178086845Y-63340176D01*
X178090800Y-63380338D01*
X178090800Y-64268062D01*
X178086845Y-64308224D01*
X178076921Y-64340936D01*
X178060803Y-64371090D01*
X178039116Y-64397516D01*
X178012690Y-64419203D01*
X177982536Y-64435321D01*
X177949824Y-64445245D01*
X177909662Y-64449200D01*
X176521938Y-64449200D01*
X176481776Y-64445245D01*
X176449064Y-64435321D01*
X176418910Y-64419203D01*
X176392484Y-64397516D01*
X176370797Y-64371090D01*
X176354679Y-64340936D01*
X176344755Y-64308224D01*
X176340800Y-64268062D01*
X176340800Y-63380338D01*
X176344755Y-63340176D01*
X176354679Y-63307464D01*
X176370797Y-63277310D01*
X176392484Y-63250884D01*
X176418910Y-63229197D01*
X176449064Y-63213079D01*
X176481776Y-63203155D01*
X176521938Y-63199200D01*
X177909662Y-63199200D01*
X177949824Y-63203155D01*
X177949824Y-63203155D01*
G37*
G36*
X175637292Y-61915076D02*
X175671183Y-61925357D01*
X175702411Y-61942048D01*
X175729785Y-61964515D01*
X175752252Y-61991889D01*
X175768943Y-62023117D01*
X175779224Y-62057008D01*
X175783300Y-62098391D01*
X175783300Y-63123609D01*
X175779224Y-63164992D01*
X175768943Y-63198883D01*
X175752252Y-63230111D01*
X175729785Y-63257485D01*
X175702411Y-63279952D01*
X175671183Y-63296643D01*
X175637292Y-63306924D01*
X175595909Y-63311000D01*
X174995691Y-63311000D01*
X174954308Y-63306924D01*
X174920417Y-63296643D01*
X174889189Y-63279952D01*
X174861815Y-63257485D01*
X174839348Y-63230111D01*
X174822657Y-63198883D01*
X174812376Y-63164992D01*
X174808300Y-63123609D01*
X174808300Y-62098391D01*
X174812376Y-62057008D01*
X174822657Y-62023117D01*
X174839348Y-61991889D01*
X174861815Y-61964515D01*
X174889189Y-61942048D01*
X174920417Y-61925357D01*
X174954308Y-61915076D01*
X174995691Y-61911000D01*
X175595909Y-61911000D01*
X175637292Y-61915076D01*
X175637292Y-61915076D01*
G37*
G36*
X173762292Y-61915076D02*
X173796183Y-61925357D01*
X173827411Y-61942048D01*
X173854785Y-61964515D01*
X173877252Y-61991889D01*
X173893943Y-62023117D01*
X173904224Y-62057008D01*
X173908300Y-62098391D01*
X173908300Y-63123609D01*
X173904224Y-63164992D01*
X173893943Y-63198883D01*
X173877252Y-63230111D01*
X173854785Y-63257485D01*
X173827411Y-63279952D01*
X173796183Y-63296643D01*
X173762292Y-63306924D01*
X173720909Y-63311000D01*
X173120691Y-63311000D01*
X173079308Y-63306924D01*
X173045417Y-63296643D01*
X173014189Y-63279952D01*
X172986815Y-63257485D01*
X172964348Y-63230111D01*
X172947657Y-63198883D01*
X172937376Y-63164992D01*
X172933300Y-63123609D01*
X172933300Y-62098391D01*
X172937376Y-62057008D01*
X172947657Y-62023117D01*
X172964348Y-61991889D01*
X172986815Y-61964515D01*
X173014189Y-61942048D01*
X173045417Y-61925357D01*
X173079308Y-61915076D01*
X173120691Y-61911000D01*
X173720909Y-61911000D01*
X173762292Y-61915076D01*
X173762292Y-61915076D01*
G37*
G36*
X135033246Y-61372588D02*
X135033249Y-61372589D01*
X135033250Y-61372589D01*
X135197245Y-61422336D01*
X135197247Y-61422337D01*
X135348386Y-61503122D01*
X135480859Y-61611841D01*
X135589578Y-61744314D01*
X135670363Y-61895453D01*
X135670364Y-61895455D01*
X135719370Y-62057008D01*
X135720112Y-62059454D01*
X135736909Y-62230000D01*
X135720112Y-62400546D01*
X135670363Y-62564547D01*
X135589578Y-62715686D01*
X135480859Y-62848159D01*
X135348386Y-62956878D01*
X135197247Y-63037663D01*
X135197245Y-63037664D01*
X135033250Y-63087411D01*
X135033249Y-63087411D01*
X135033246Y-63087412D01*
X134905438Y-63100000D01*
X134359962Y-63100000D01*
X134232154Y-63087412D01*
X134232151Y-63087411D01*
X134232150Y-63087411D01*
X134068155Y-63037664D01*
X134068153Y-63037663D01*
X133917014Y-62956878D01*
X133784541Y-62848159D01*
X133675822Y-62715686D01*
X133595037Y-62564547D01*
X133545288Y-62400546D01*
X133528491Y-62230000D01*
X133545288Y-62059454D01*
X133546030Y-62057008D01*
X133595036Y-61895455D01*
X133595037Y-61895453D01*
X133675822Y-61744314D01*
X133784541Y-61611841D01*
X133917014Y-61503122D01*
X134068153Y-61422337D01*
X134068155Y-61422336D01*
X134232150Y-61372589D01*
X134232151Y-61372589D01*
X134232154Y-61372588D01*
X134359962Y-61360000D01*
X134905438Y-61360000D01*
X135033246Y-61372588D01*
X135033246Y-61372588D01*
G37*
G36*
X135033246Y-58832588D02*
X135033249Y-58832589D01*
X135033250Y-58832589D01*
X135197245Y-58882336D01*
X135197247Y-58882337D01*
X135348386Y-58963122D01*
X135480859Y-59071841D01*
X135589578Y-59204314D01*
X135670363Y-59355453D01*
X135670364Y-59355455D01*
X135720111Y-59519450D01*
X135720112Y-59519454D01*
X135736909Y-59690000D01*
X135720112Y-59860546D01*
X135670363Y-60024547D01*
X135589578Y-60175686D01*
X135480859Y-60308159D01*
X135348386Y-60416878D01*
X135197247Y-60497663D01*
X135197245Y-60497664D01*
X135033250Y-60547411D01*
X135033249Y-60547411D01*
X135033246Y-60547412D01*
X134905438Y-60560000D01*
X134359962Y-60560000D01*
X134232154Y-60547412D01*
X134232151Y-60547411D01*
X134232150Y-60547411D01*
X134068155Y-60497664D01*
X134068153Y-60497663D01*
X133917014Y-60416878D01*
X133784541Y-60308159D01*
X133675822Y-60175686D01*
X133595037Y-60024547D01*
X133545288Y-59860546D01*
X133528491Y-59690000D01*
X133545288Y-59519454D01*
X133545289Y-59519450D01*
X133595036Y-59355455D01*
X133595037Y-59355453D01*
X133675822Y-59204314D01*
X133784541Y-59071841D01*
X133917014Y-58963122D01*
X134068153Y-58882337D01*
X134068155Y-58882336D01*
X134232150Y-58832589D01*
X134232151Y-58832589D01*
X134232154Y-58832588D01*
X134359962Y-58820000D01*
X134905438Y-58820000D01*
X135033246Y-58832588D01*
X135033246Y-58832588D01*
G37*
G36*
X175637292Y-58323516D02*
X175671183Y-58333797D01*
X175702411Y-58350488D01*
X175729785Y-58372955D01*
X175752252Y-58400329D01*
X175768943Y-58431557D01*
X175779224Y-58465448D01*
X175783300Y-58506831D01*
X175783300Y-59532049D01*
X175779224Y-59573432D01*
X175768943Y-59607323D01*
X175752252Y-59638551D01*
X175729785Y-59665925D01*
X175702411Y-59688392D01*
X175671183Y-59705083D01*
X175637292Y-59715364D01*
X175595909Y-59719440D01*
X174995691Y-59719440D01*
X174954308Y-59715364D01*
X174920417Y-59705083D01*
X174889189Y-59688392D01*
X174861815Y-59665925D01*
X174839348Y-59638551D01*
X174822657Y-59607323D01*
X174812376Y-59573432D01*
X174808300Y-59532049D01*
X174808300Y-58506831D01*
X174812376Y-58465448D01*
X174822657Y-58431557D01*
X174839348Y-58400329D01*
X174861815Y-58372955D01*
X174889189Y-58350488D01*
X174920417Y-58333797D01*
X174954308Y-58323516D01*
X174995691Y-58319440D01*
X175595909Y-58319440D01*
X175637292Y-58323516D01*
X175637292Y-58323516D01*
G37*
G36*
X173762292Y-58323516D02*
X173796183Y-58333797D01*
X173827411Y-58350488D01*
X173854785Y-58372955D01*
X173877252Y-58400329D01*
X173893943Y-58431557D01*
X173904224Y-58465448D01*
X173908300Y-58506831D01*
X173908300Y-59532049D01*
X173904224Y-59573432D01*
X173893943Y-59607323D01*
X173877252Y-59638551D01*
X173854785Y-59665925D01*
X173827411Y-59688392D01*
X173796183Y-59705083D01*
X173762292Y-59715364D01*
X173720909Y-59719440D01*
X173120691Y-59719440D01*
X173079308Y-59715364D01*
X173045417Y-59705083D01*
X173014189Y-59688392D01*
X172986815Y-59665925D01*
X172964348Y-59638551D01*
X172947657Y-59607323D01*
X172937376Y-59573432D01*
X172933300Y-59532049D01*
X172933300Y-58506831D01*
X172937376Y-58465448D01*
X172947657Y-58431557D01*
X172964348Y-58400329D01*
X172986815Y-58372955D01*
X173014189Y-58350488D01*
X173045417Y-58333797D01*
X173079308Y-58323516D01*
X173120691Y-58319440D01*
X173720909Y-58319440D01*
X173762292Y-58323516D01*
X173762292Y-58323516D01*
G37*
G36*
X167711800Y-58724700D02*
X164711800Y-58724700D01*
X164711800Y-57124700D01*
X167711800Y-57124700D01*
X167711800Y-58724700D01*
X167711800Y-58724700D01*
G37*
G36*
X172111800Y-58724700D02*
X169111800Y-58724700D01*
X169111800Y-57124700D01*
X172111800Y-57124700D01*
X172111800Y-58724700D01*
X172111800Y-58724700D01*
G37*
G36*
X177975224Y-57119155D02*
X178007936Y-57129079D01*
X178038090Y-57145197D01*
X178064516Y-57166884D01*
X178086203Y-57193310D01*
X178102321Y-57223464D01*
X178112245Y-57256176D01*
X178116200Y-57296338D01*
X178116200Y-58184062D01*
X178112245Y-58224224D01*
X178102321Y-58256936D01*
X178086203Y-58287090D01*
X178064516Y-58313516D01*
X178038090Y-58335203D01*
X178007936Y-58351321D01*
X177975224Y-58361245D01*
X177935062Y-58365200D01*
X176547338Y-58365200D01*
X176507176Y-58361245D01*
X176474464Y-58351321D01*
X176444310Y-58335203D01*
X176417884Y-58313516D01*
X176396197Y-58287090D01*
X176380079Y-58256936D01*
X176370155Y-58224224D01*
X176366200Y-58184062D01*
X176366200Y-57296338D01*
X176370155Y-57256176D01*
X176380079Y-57223464D01*
X176396197Y-57193310D01*
X176417884Y-57166884D01*
X176444310Y-57145197D01*
X176474464Y-57129079D01*
X176507176Y-57119155D01*
X176547338Y-57115200D01*
X177935062Y-57115200D01*
X177975224Y-57119155D01*
X177975224Y-57119155D01*
G37*
G36*
X180493828Y-56379569D02*
X180611369Y-56402949D01*
X180793358Y-56478331D01*
X180957143Y-56587769D01*
X181096431Y-56727057D01*
X181205869Y-56890842D01*
X181281251Y-57072831D01*
X181295645Y-57145197D01*
X181319680Y-57266027D01*
X181319680Y-57463013D01*
X181312313Y-57500049D01*
X181281251Y-57656209D01*
X181205869Y-57838198D01*
X181096431Y-58001983D01*
X180957143Y-58141271D01*
X180793358Y-58250709D01*
X180611369Y-58326091D01*
X180495450Y-58349148D01*
X180418173Y-58364520D01*
X180221187Y-58364520D01*
X180143910Y-58349148D01*
X180027991Y-58326091D01*
X179846002Y-58250709D01*
X179682217Y-58141271D01*
X179542929Y-58001983D01*
X179433491Y-57838198D01*
X179358109Y-57656209D01*
X179327047Y-57500049D01*
X179319680Y-57463013D01*
X179319680Y-57266027D01*
X179343715Y-57145197D01*
X179358109Y-57072831D01*
X179433491Y-56890842D01*
X179542929Y-56727057D01*
X179682217Y-56587769D01*
X179846002Y-56478331D01*
X180027991Y-56402949D01*
X180145532Y-56379569D01*
X180221187Y-56364520D01*
X180418173Y-56364520D01*
X180493828Y-56379569D01*
X180493828Y-56379569D01*
G37*
G36*
X135603055Y-56283685D02*
X135633131Y-56292808D01*
X135660845Y-56307622D01*
X135685140Y-56327560D01*
X135705078Y-56351855D01*
X135719892Y-56379569D01*
X135729015Y-56409645D01*
X135732700Y-56447059D01*
X135732700Y-57852941D01*
X135729015Y-57890355D01*
X135719892Y-57920431D01*
X135705078Y-57948145D01*
X135685140Y-57972440D01*
X135660845Y-57992378D01*
X135633131Y-58007192D01*
X135603055Y-58016315D01*
X135565641Y-58020000D01*
X133699759Y-58020000D01*
X133662345Y-58016315D01*
X133632269Y-58007192D01*
X133604555Y-57992378D01*
X133580260Y-57972440D01*
X133560322Y-57948145D01*
X133545508Y-57920431D01*
X133536385Y-57890355D01*
X133532700Y-57852941D01*
X133532700Y-56447059D01*
X133536385Y-56409645D01*
X133545508Y-56379569D01*
X133560322Y-56351855D01*
X133580260Y-56327560D01*
X133604555Y-56307622D01*
X133632269Y-56292808D01*
X133662345Y-56283685D01*
X133699759Y-56280000D01*
X135565641Y-56280000D01*
X135603055Y-56283685D01*
X135603055Y-56283685D01*
G37*
G36*
X175637292Y-56291516D02*
X175671183Y-56301797D01*
X175702411Y-56318488D01*
X175729785Y-56340955D01*
X175752252Y-56368329D01*
X175768943Y-56399557D01*
X175779224Y-56433448D01*
X175783300Y-56474831D01*
X175783300Y-57500049D01*
X175779224Y-57541432D01*
X175768943Y-57575323D01*
X175752252Y-57606551D01*
X175729785Y-57633925D01*
X175702411Y-57656392D01*
X175671183Y-57673083D01*
X175637292Y-57683364D01*
X175595909Y-57687440D01*
X174995691Y-57687440D01*
X174954308Y-57683364D01*
X174920417Y-57673083D01*
X174889189Y-57656392D01*
X174861815Y-57633925D01*
X174839348Y-57606551D01*
X174822657Y-57575323D01*
X174812376Y-57541432D01*
X174808300Y-57500049D01*
X174808300Y-56474831D01*
X174812376Y-56433448D01*
X174822657Y-56399557D01*
X174839348Y-56368329D01*
X174861815Y-56340955D01*
X174889189Y-56318488D01*
X174920417Y-56301797D01*
X174954308Y-56291516D01*
X174995691Y-56287440D01*
X175595909Y-56287440D01*
X175637292Y-56291516D01*
X175637292Y-56291516D01*
G37*
G36*
X173762292Y-56291516D02*
X173796183Y-56301797D01*
X173827411Y-56318488D01*
X173854785Y-56340955D01*
X173877252Y-56368329D01*
X173893943Y-56399557D01*
X173904224Y-56433448D01*
X173908300Y-56474831D01*
X173908300Y-57500049D01*
X173904224Y-57541432D01*
X173893943Y-57575323D01*
X173877252Y-57606551D01*
X173854785Y-57633925D01*
X173827411Y-57656392D01*
X173796183Y-57673083D01*
X173762292Y-57683364D01*
X173720909Y-57687440D01*
X173120691Y-57687440D01*
X173079308Y-57683364D01*
X173045417Y-57673083D01*
X173014189Y-57656392D01*
X172986815Y-57633925D01*
X172964348Y-57606551D01*
X172947657Y-57575323D01*
X172937376Y-57541432D01*
X172933300Y-57500049D01*
X172933300Y-56474831D01*
X172937376Y-56433448D01*
X172947657Y-56399557D01*
X172964348Y-56368329D01*
X172986815Y-56340955D01*
X173014189Y-56318488D01*
X173045417Y-56301797D01*
X173079308Y-56291516D01*
X173120691Y-56287440D01*
X173720909Y-56287440D01*
X173762292Y-56291516D01*
X173762292Y-56291516D01*
G37*
G36*
X163199586Y-55210635D02*
X163417972Y-55301093D01*
X163614518Y-55432421D01*
X163781659Y-55599562D01*
X163912987Y-55796108D01*
X164003445Y-56014494D01*
X164049560Y-56246329D01*
X164049560Y-56482711D01*
X164003445Y-56714546D01*
X163912987Y-56932932D01*
X163781659Y-57129478D01*
X163614518Y-57296619D01*
X163417972Y-57427947D01*
X163199586Y-57518405D01*
X162967751Y-57564520D01*
X162731369Y-57564520D01*
X162499534Y-57518405D01*
X162281148Y-57427947D01*
X162084602Y-57296619D01*
X161917461Y-57129478D01*
X161786133Y-56932932D01*
X161695675Y-56714546D01*
X161649560Y-56482711D01*
X161649560Y-56246329D01*
X161695675Y-56014494D01*
X161786133Y-55796108D01*
X161917461Y-55599562D01*
X162084602Y-55432421D01*
X162281148Y-55301093D01*
X162499534Y-55210635D01*
X162731369Y-55164520D01*
X162967751Y-55164520D01*
X163199586Y-55210635D01*
X163199586Y-55210635D01*
G37*
G36*
X146679426Y-55210635D02*
X146897812Y-55301093D01*
X147094358Y-55432421D01*
X147261499Y-55599562D01*
X147392827Y-55796108D01*
X147483285Y-56014494D01*
X147529400Y-56246329D01*
X147529400Y-56482711D01*
X147483285Y-56714546D01*
X147392827Y-56932932D01*
X147261499Y-57129478D01*
X147094358Y-57296619D01*
X146897812Y-57427947D01*
X146679426Y-57518405D01*
X146447591Y-57564520D01*
X146211209Y-57564520D01*
X145979374Y-57518405D01*
X145760988Y-57427947D01*
X145564442Y-57296619D01*
X145397301Y-57129478D01*
X145265973Y-56932932D01*
X145175515Y-56714546D01*
X145129400Y-56482711D01*
X145129400Y-56246329D01*
X145175515Y-56014494D01*
X145265973Y-55796108D01*
X145397301Y-55599562D01*
X145564442Y-55432421D01*
X145760988Y-55301093D01*
X145979374Y-55210635D01*
X146211209Y-55164520D01*
X146447591Y-55164520D01*
X146679426Y-55210635D01*
X146679426Y-55210635D01*
G37*
G36*
X184438100Y-57344300D02*
X183938100Y-57344300D01*
X183938100Y-56844300D01*
X184438100Y-56844300D01*
X184438100Y-57344300D01*
X184438100Y-57344300D01*
G37*
G36*
X182756676Y-56299535D02*
X182785873Y-56308392D01*
X182812778Y-56322773D01*
X182836368Y-56342132D01*
X182855727Y-56365722D01*
X182870108Y-56392627D01*
X182878965Y-56421824D01*
X182882560Y-56458330D01*
X182882560Y-57008550D01*
X182878965Y-57045056D01*
X182870108Y-57074253D01*
X182855727Y-57101158D01*
X182836368Y-57124748D01*
X182812778Y-57144107D01*
X182785873Y-57158488D01*
X182756676Y-57167345D01*
X182720170Y-57170940D01*
X182094950Y-57170940D01*
X182058444Y-57167345D01*
X182029247Y-57158488D01*
X182002342Y-57144107D01*
X181978752Y-57124748D01*
X181959393Y-57101158D01*
X181945012Y-57074253D01*
X181936155Y-57045056D01*
X181932560Y-57008550D01*
X181932560Y-56458330D01*
X181936155Y-56421824D01*
X181945012Y-56392627D01*
X181959393Y-56365722D01*
X181978752Y-56342132D01*
X182002342Y-56322773D01*
X182029247Y-56308392D01*
X182058444Y-56299535D01*
X182094950Y-56295940D01*
X182720170Y-56295940D01*
X182756676Y-56299535D01*
X182756676Y-56299535D01*
G37*
G36*
X175637292Y-54259516D02*
X175671183Y-54269797D01*
X175702411Y-54286488D01*
X175729785Y-54308955D01*
X175752252Y-54336329D01*
X175768943Y-54367557D01*
X175779224Y-54401448D01*
X175783300Y-54442831D01*
X175783300Y-55468049D01*
X175779224Y-55509432D01*
X175768943Y-55543323D01*
X175752252Y-55574551D01*
X175729785Y-55601925D01*
X175702411Y-55624392D01*
X175671183Y-55641083D01*
X175637292Y-55651364D01*
X175595909Y-55655440D01*
X174995691Y-55655440D01*
X174954308Y-55651364D01*
X174920417Y-55641083D01*
X174889189Y-55624392D01*
X174861815Y-55601925D01*
X174839348Y-55574551D01*
X174822657Y-55543323D01*
X174812376Y-55509432D01*
X174808300Y-55468049D01*
X174808300Y-54442831D01*
X174812376Y-54401448D01*
X174822657Y-54367557D01*
X174839348Y-54336329D01*
X174861815Y-54308955D01*
X174889189Y-54286488D01*
X174920417Y-54269797D01*
X174954308Y-54259516D01*
X174995691Y-54255440D01*
X175595909Y-54255440D01*
X175637292Y-54259516D01*
X175637292Y-54259516D01*
G37*
G36*
X173762292Y-54259516D02*
X173796183Y-54269797D01*
X173827411Y-54286488D01*
X173854785Y-54308955D01*
X173877252Y-54336329D01*
X173893943Y-54367557D01*
X173904224Y-54401448D01*
X173908300Y-54442831D01*
X173908300Y-55468049D01*
X173904224Y-55509432D01*
X173893943Y-55543323D01*
X173877252Y-55574551D01*
X173854785Y-55601925D01*
X173827411Y-55624392D01*
X173796183Y-55641083D01*
X173762292Y-55651364D01*
X173720909Y-55655440D01*
X173120691Y-55655440D01*
X173079308Y-55651364D01*
X173045417Y-55641083D01*
X173014189Y-55624392D01*
X172986815Y-55601925D01*
X172964348Y-55574551D01*
X172947657Y-55543323D01*
X172937376Y-55509432D01*
X172933300Y-55468049D01*
X172933300Y-54442831D01*
X172937376Y-54401448D01*
X172947657Y-54367557D01*
X172964348Y-54336329D01*
X172986815Y-54308955D01*
X173014189Y-54286488D01*
X173045417Y-54269797D01*
X173079308Y-54259516D01*
X173120691Y-54255440D01*
X173720909Y-54255440D01*
X173762292Y-54259516D01*
X173762292Y-54259516D01*
G37*
G36*
X182756676Y-54724535D02*
X182785873Y-54733392D01*
X182812778Y-54747773D01*
X182836368Y-54767132D01*
X182855727Y-54790722D01*
X182870108Y-54817627D01*
X182878965Y-54846824D01*
X182882560Y-54883330D01*
X182882560Y-55433550D01*
X182878965Y-55470056D01*
X182870108Y-55499253D01*
X182855727Y-55526158D01*
X182836368Y-55549748D01*
X182812778Y-55569107D01*
X182785873Y-55583488D01*
X182756676Y-55592345D01*
X182720170Y-55595940D01*
X182094950Y-55595940D01*
X182058444Y-55592345D01*
X182029247Y-55583488D01*
X182002342Y-55569107D01*
X181978752Y-55549748D01*
X181959393Y-55526158D01*
X181945012Y-55499253D01*
X181936155Y-55470056D01*
X181932560Y-55433550D01*
X181932560Y-54883330D01*
X181936155Y-54846824D01*
X181945012Y-54817627D01*
X181959393Y-54790722D01*
X181978752Y-54767132D01*
X182002342Y-54747773D01*
X182029247Y-54733392D01*
X182058444Y-54724535D01*
X182094950Y-54720940D01*
X182720170Y-54720940D01*
X182756676Y-54724535D01*
X182756676Y-54724535D01*
G37*
G36*
X177975224Y-54319155D02*
X178007936Y-54329079D01*
X178038090Y-54345197D01*
X178064516Y-54366884D01*
X178086203Y-54393310D01*
X178102321Y-54423464D01*
X178112245Y-54456176D01*
X178116200Y-54496338D01*
X178116200Y-55384062D01*
X178112245Y-55424224D01*
X178102321Y-55456936D01*
X178086203Y-55487090D01*
X178064516Y-55513516D01*
X178038090Y-55535203D01*
X178007936Y-55551321D01*
X177975224Y-55561245D01*
X177935062Y-55565200D01*
X176547338Y-55565200D01*
X176507176Y-55561245D01*
X176474464Y-55551321D01*
X176444310Y-55535203D01*
X176417884Y-55513516D01*
X176396197Y-55487090D01*
X176380079Y-55456936D01*
X176370155Y-55424224D01*
X176366200Y-55384062D01*
X176366200Y-54496338D01*
X176370155Y-54456176D01*
X176380079Y-54423464D01*
X176396197Y-54393310D01*
X176417884Y-54366884D01*
X176444310Y-54345197D01*
X176474464Y-54329079D01*
X176507176Y-54319155D01*
X176547338Y-54315200D01*
X177935062Y-54315200D01*
X177975224Y-54319155D01*
X177975224Y-54319155D01*
G37*
G36*
X184438100Y-55144300D02*
X183938100Y-55144300D01*
X183938100Y-54644300D01*
X184438100Y-54644300D01*
X184438100Y-55144300D01*
X184438100Y-55144300D01*
G37*
G36*
X181319680Y-54864520D02*
X179319680Y-54864520D01*
X179319680Y-52864520D01*
X181319680Y-52864520D01*
X181319680Y-54864520D01*
X181319680Y-54864520D01*
G37*
G36*
X136588239Y-52382916D02*
X136795586Y-52445815D01*
X136795588Y-52445816D01*
X136986684Y-52547958D01*
X137154181Y-52685419D01*
X137291642Y-52852916D01*
X137393784Y-53044012D01*
X137393785Y-53044014D01*
X137456684Y-53251361D01*
X137477922Y-53467000D01*
X137456684Y-53682639D01*
X137424632Y-53788300D01*
X137393784Y-53889988D01*
X137291642Y-54081084D01*
X137154181Y-54248581D01*
X136986684Y-54386042D01*
X136855471Y-54456176D01*
X136795586Y-54488185D01*
X136588239Y-54551084D01*
X136426638Y-54567000D01*
X136318562Y-54567000D01*
X136156961Y-54551084D01*
X135949614Y-54488185D01*
X135889729Y-54456176D01*
X135758516Y-54386042D01*
X135591019Y-54248581D01*
X135453558Y-54081084D01*
X135351416Y-53889988D01*
X135320569Y-53788300D01*
X135288516Y-53682639D01*
X135267278Y-53467000D01*
X135288516Y-53251361D01*
X135351415Y-53044014D01*
X135351416Y-53044012D01*
X135453558Y-52852916D01*
X135591019Y-52685419D01*
X135758516Y-52547958D01*
X135949612Y-52445816D01*
X135949614Y-52445815D01*
X136156961Y-52382916D01*
X136318562Y-52367000D01*
X136426638Y-52367000D01*
X136588239Y-52382916D01*
X136588239Y-52382916D01*
G37*
G36*
X133337039Y-52382916D02*
X133544386Y-52445815D01*
X133544388Y-52445816D01*
X133735484Y-52547958D01*
X133902981Y-52685419D01*
X134040442Y-52852916D01*
X134142584Y-53044012D01*
X134142585Y-53044014D01*
X134205484Y-53251361D01*
X134226722Y-53467000D01*
X134205484Y-53682639D01*
X134173432Y-53788300D01*
X134142584Y-53889988D01*
X134040442Y-54081084D01*
X133902981Y-54248581D01*
X133735484Y-54386042D01*
X133604271Y-54456176D01*
X133544386Y-54488185D01*
X133337039Y-54551084D01*
X133175438Y-54567000D01*
X133067362Y-54567000D01*
X132905761Y-54551084D01*
X132698414Y-54488185D01*
X132638529Y-54456176D01*
X132507316Y-54386042D01*
X132339819Y-54248581D01*
X132202358Y-54081084D01*
X132100216Y-53889988D01*
X132069369Y-53788300D01*
X132037316Y-53682639D01*
X132016078Y-53467000D01*
X132037316Y-53251361D01*
X132100215Y-53044014D01*
X132100216Y-53044012D01*
X132202358Y-52852916D01*
X132339819Y-52685419D01*
X132507316Y-52547958D01*
X132698412Y-52445816D01*
X132698414Y-52445815D01*
X132905761Y-52382916D01*
X133067362Y-52367000D01*
X133175438Y-52367000D01*
X133337039Y-52382916D01*
X133337039Y-52382916D01*
G37*
G36*
X163198676Y-53251535D02*
X163227873Y-53260392D01*
X163254778Y-53274773D01*
X163278368Y-53294132D01*
X163297727Y-53317722D01*
X163312108Y-53344627D01*
X163320965Y-53373824D01*
X163324560Y-53410330D01*
X163324560Y-53960550D01*
X163320965Y-53997056D01*
X163312108Y-54026253D01*
X163297727Y-54053158D01*
X163278368Y-54076748D01*
X163254778Y-54096107D01*
X163227873Y-54110488D01*
X163198676Y-54119345D01*
X163162170Y-54122940D01*
X162536950Y-54122940D01*
X162500444Y-54119345D01*
X162471247Y-54110488D01*
X162444342Y-54096107D01*
X162420752Y-54076748D01*
X162401393Y-54053158D01*
X162387012Y-54026253D01*
X162378155Y-53997056D01*
X162374560Y-53960550D01*
X162374560Y-53410330D01*
X162378155Y-53373824D01*
X162387012Y-53344627D01*
X162401393Y-53317722D01*
X162420752Y-53294132D01*
X162444342Y-53274773D01*
X162471247Y-53260392D01*
X162500444Y-53251535D01*
X162536950Y-53247940D01*
X163162170Y-53247940D01*
X163198676Y-53251535D01*
X163198676Y-53251535D01*
G37*
G36*
X166404100Y-53788300D02*
X165904100Y-53788300D01*
X165904100Y-53288300D01*
X166404100Y-53288300D01*
X166404100Y-53788300D01*
X166404100Y-53788300D01*
G37*
G36*
X169477400Y-53392800D02*
X167477400Y-53392800D01*
X167477400Y-51892800D01*
X169477400Y-51892800D01*
X169477400Y-53392800D01*
X169477400Y-53392800D01*
G37*
G36*
X163198676Y-51676535D02*
X163227873Y-51685392D01*
X163254778Y-51699773D01*
X163278368Y-51719132D01*
X163297727Y-51742722D01*
X163312108Y-51769627D01*
X163320965Y-51798824D01*
X163324560Y-51835330D01*
X163324560Y-52385550D01*
X163320965Y-52422056D01*
X163312108Y-52451253D01*
X163297727Y-52478158D01*
X163278368Y-52501748D01*
X163254778Y-52521107D01*
X163227873Y-52535488D01*
X163198676Y-52544345D01*
X163162170Y-52547940D01*
X162536950Y-52547940D01*
X162500444Y-52544345D01*
X162471247Y-52535488D01*
X162444342Y-52521107D01*
X162420752Y-52501748D01*
X162401393Y-52478158D01*
X162387012Y-52451253D01*
X162378155Y-52422056D01*
X162374560Y-52385550D01*
X162374560Y-51835330D01*
X162378155Y-51798824D01*
X162387012Y-51769627D01*
X162401393Y-51742722D01*
X162420752Y-51719132D01*
X162444342Y-51699773D01*
X162471247Y-51685392D01*
X162500444Y-51676535D01*
X162536950Y-51672940D01*
X163162170Y-51672940D01*
X163198676Y-51676535D01*
X163198676Y-51676535D01*
G37*
G36*
X175777400Y-52242800D02*
X173777400Y-52242800D01*
X173777400Y-48442800D01*
X175777400Y-48442800D01*
X175777400Y-52242800D01*
X175777400Y-52242800D01*
G37*
G36*
X166404100Y-51588300D02*
X165904100Y-51588300D01*
X165904100Y-51088300D01*
X166404100Y-51088300D01*
X166404100Y-51588300D01*
X166404100Y-51588300D01*
G37*
G36*
X169477400Y-51092800D02*
X167477400Y-51092800D01*
X167477400Y-49592800D01*
X169477400Y-49592800D01*
X169477400Y-51092800D01*
X169477400Y-51092800D01*
G37*
G36*
X136721716Y-50010094D02*
X136750913Y-50018951D01*
X136777818Y-50033332D01*
X136801408Y-50052691D01*
X136820767Y-50076281D01*
X136835148Y-50103186D01*
X136844005Y-50132383D01*
X136847600Y-50168889D01*
X136847600Y-50719109D01*
X136844005Y-50755615D01*
X136835148Y-50784812D01*
X136820767Y-50811717D01*
X136801408Y-50835307D01*
X136777818Y-50854666D01*
X136750913Y-50869047D01*
X136721716Y-50877904D01*
X136685210Y-50881499D01*
X136059990Y-50881499D01*
X136023484Y-50877904D01*
X135994287Y-50869047D01*
X135967382Y-50854666D01*
X135943792Y-50835307D01*
X135924433Y-50811717D01*
X135910052Y-50784812D01*
X135901195Y-50755615D01*
X135897600Y-50719109D01*
X135897600Y-50168889D01*
X135901195Y-50132383D01*
X135910052Y-50103186D01*
X135924433Y-50076281D01*
X135943792Y-50052691D01*
X135967382Y-50033332D01*
X135994287Y-50018951D01*
X136023484Y-50010094D01*
X136059990Y-50006499D01*
X136685210Y-50006499D01*
X136721716Y-50010094D01*
X136721716Y-50010094D01*
G37*
G36*
X133470516Y-50010094D02*
X133499713Y-50018951D01*
X133526618Y-50033332D01*
X133550208Y-50052691D01*
X133569567Y-50076281D01*
X133583948Y-50103186D01*
X133592805Y-50132383D01*
X133596400Y-50168889D01*
X133596400Y-50719109D01*
X133592805Y-50755615D01*
X133583948Y-50784812D01*
X133569567Y-50811717D01*
X133550208Y-50835307D01*
X133526618Y-50854666D01*
X133499713Y-50869047D01*
X133470516Y-50877904D01*
X133434010Y-50881499D01*
X132808790Y-50881499D01*
X132772284Y-50877904D01*
X132743087Y-50869047D01*
X132716182Y-50854666D01*
X132692592Y-50835307D01*
X132673233Y-50811717D01*
X132658852Y-50784812D01*
X132649995Y-50755615D01*
X132646400Y-50719109D01*
X132646400Y-50168889D01*
X132649995Y-50132383D01*
X132658852Y-50103186D01*
X132673233Y-50076281D01*
X132692592Y-50052691D01*
X132716182Y-50033332D01*
X132743087Y-50018951D01*
X132772284Y-50010094D01*
X132808790Y-50006499D01*
X133434010Y-50006499D01*
X133470516Y-50010094D01*
X133470516Y-50010094D01*
G37*
G36*
X166404100Y-50499000D02*
X165904100Y-50499000D01*
X165904100Y-49999000D01*
X166404100Y-49999000D01*
X166404100Y-50499000D01*
X166404100Y-50499000D01*
G37*
G36*
X147529400Y-50064520D02*
X145129400Y-50064520D01*
X145129400Y-47664520D01*
X147529400Y-47664520D01*
X147529400Y-50064520D01*
X147529400Y-50064520D01*
G37*
G36*
X164049560Y-50064520D02*
X161649560Y-50064520D01*
X161649560Y-47664520D01*
X164049560Y-47664520D01*
X164049560Y-50064520D01*
X164049560Y-50064520D01*
G37*
G36*
X156473504Y-47993475D02*
X156506216Y-48003399D01*
X156536370Y-48019517D01*
X156562796Y-48041204D01*
X156584483Y-48067630D01*
X156600601Y-48097784D01*
X156610525Y-48130496D01*
X156614480Y-48170658D01*
X156614480Y-49558382D01*
X156610525Y-49598544D01*
X156600601Y-49631256D01*
X156584483Y-49661410D01*
X156562796Y-49687836D01*
X156536370Y-49709523D01*
X156506216Y-49725641D01*
X156473504Y-49735565D01*
X156433342Y-49739520D01*
X155545618Y-49739520D01*
X155505456Y-49735565D01*
X155472744Y-49725641D01*
X155442590Y-49709523D01*
X155416164Y-49687836D01*
X155394477Y-49661410D01*
X155378359Y-49631256D01*
X155368435Y-49598544D01*
X155364480Y-49558382D01*
X155364480Y-48170658D01*
X155368435Y-48130496D01*
X155378359Y-48097784D01*
X155394477Y-48067630D01*
X155416164Y-48041204D01*
X155442590Y-48019517D01*
X155472744Y-48003399D01*
X155505456Y-47993475D01*
X155545618Y-47989520D01*
X156433342Y-47989520D01*
X156473504Y-47993475D01*
X156473504Y-47993475D01*
G37*
G36*
X153673504Y-47993475D02*
X153706216Y-48003399D01*
X153736370Y-48019517D01*
X153762796Y-48041204D01*
X153784483Y-48067630D01*
X153800601Y-48097784D01*
X153810525Y-48130496D01*
X153814480Y-48170658D01*
X153814480Y-49558382D01*
X153810525Y-49598544D01*
X153800601Y-49631256D01*
X153784483Y-49661410D01*
X153762796Y-49687836D01*
X153736370Y-49709523D01*
X153706216Y-49725641D01*
X153673504Y-49735565D01*
X153633342Y-49739520D01*
X152745618Y-49739520D01*
X152705456Y-49735565D01*
X152672744Y-49725641D01*
X152642590Y-49709523D01*
X152616164Y-49687836D01*
X152594477Y-49661410D01*
X152578359Y-49631256D01*
X152568435Y-49598544D01*
X152564480Y-49558382D01*
X152564480Y-48170658D01*
X152568435Y-48130496D01*
X152578359Y-48097784D01*
X152594477Y-48067630D01*
X152616164Y-48041204D01*
X152642590Y-48019517D01*
X152672744Y-48003399D01*
X152705456Y-47993475D01*
X152745618Y-47989520D01*
X153633342Y-47989520D01*
X153673504Y-47993475D01*
X153673504Y-47993475D01*
G37*
G36*
X136721716Y-48435094D02*
X136750913Y-48443951D01*
X136777818Y-48458332D01*
X136801408Y-48477691D01*
X136820767Y-48501281D01*
X136835148Y-48528186D01*
X136844005Y-48557383D01*
X136847600Y-48593889D01*
X136847600Y-49144109D01*
X136844005Y-49180615D01*
X136835148Y-49209812D01*
X136820767Y-49236717D01*
X136801408Y-49260307D01*
X136777818Y-49279666D01*
X136750913Y-49294047D01*
X136721716Y-49302904D01*
X136685210Y-49306499D01*
X136059990Y-49306499D01*
X136023484Y-49302904D01*
X135994287Y-49294047D01*
X135967382Y-49279666D01*
X135943792Y-49260307D01*
X135924433Y-49236717D01*
X135910052Y-49209812D01*
X135901195Y-49180615D01*
X135897600Y-49144109D01*
X135897600Y-48593889D01*
X135901195Y-48557383D01*
X135910052Y-48528186D01*
X135924433Y-48501281D01*
X135943792Y-48477691D01*
X135967382Y-48458332D01*
X135994287Y-48443951D01*
X136023484Y-48435094D01*
X136059990Y-48431499D01*
X136685210Y-48431499D01*
X136721716Y-48435094D01*
X136721716Y-48435094D01*
G37*
G36*
X133470516Y-48435094D02*
X133499713Y-48443951D01*
X133526618Y-48458332D01*
X133550208Y-48477691D01*
X133569567Y-48501281D01*
X133583948Y-48528186D01*
X133592805Y-48557383D01*
X133596400Y-48593889D01*
X133596400Y-49144109D01*
X133592805Y-49180615D01*
X133583948Y-49209812D01*
X133569567Y-49236717D01*
X133550208Y-49260307D01*
X133526618Y-49279666D01*
X133499713Y-49294047D01*
X133470516Y-49302904D01*
X133434010Y-49306499D01*
X132808790Y-49306499D01*
X132772284Y-49302904D01*
X132743087Y-49294047D01*
X132716182Y-49279666D01*
X132692592Y-49260307D01*
X132673233Y-49236717D01*
X132658852Y-49209812D01*
X132649995Y-49180615D01*
X132646400Y-49144109D01*
X132646400Y-48593889D01*
X132649995Y-48557383D01*
X132658852Y-48528186D01*
X132673233Y-48501281D01*
X132692592Y-48477691D01*
X132716182Y-48458332D01*
X132743087Y-48443951D01*
X132772284Y-48435094D01*
X132808790Y-48431499D01*
X133434010Y-48431499D01*
X133470516Y-48435094D01*
X133470516Y-48435094D01*
G37*
G36*
X169477400Y-48792800D02*
X167477400Y-48792800D01*
X167477400Y-47292800D01*
X169477400Y-47292800D01*
X169477400Y-48792800D01*
X169477400Y-48792800D01*
G37*
G36*
X166404100Y-48299000D02*
X165904100Y-48299000D01*
X165904100Y-47799000D01*
X166404100Y-47799000D01*
X166404100Y-48299000D01*
X166404100Y-48299000D01*
G37*
G36*
X137472600Y-46947000D02*
X135272600Y-46947000D01*
X135272600Y-44747000D01*
X137472600Y-44747000D01*
X137472600Y-46947000D01*
X137472600Y-46947000D01*
G37*
G36*
X134221400Y-46947000D02*
X132021400Y-46947000D01*
X132021400Y-44747000D01*
X134221400Y-44747000D01*
X134221400Y-46947000D01*
X134221400Y-46947000D01*
G37*
M02*
