G04 #@! TF.GenerationSoftware,KiCad,Pcbnew,5.0.1-33cea8e~67~ubuntu18.04.1*
G04 #@! TF.CreationDate,2018-10-21T17:35:32+02:00*
G04 #@! TF.ProjectId,CondorCabSim,436F6E646F7243616253696D2E6B6963,rev?*
G04 #@! TF.SameCoordinates,Original*
G04 #@! TF.FileFunction,Soldermask,Top*
G04 #@! TF.FilePolarity,Negative*
%FSLAX46Y46*%
G04 Gerber Fmt 4.6, Leading zero omitted, Abs format (unit mm)*
G04 Created by KiCad (PCBNEW 5.0.1-33cea8e~67~ubuntu18.04.1) date Sun 21 Oct 2018 05:35:32 PM CEST*
%MOMM*%
%LPD*%
G01*
G04 APERTURE LIST*
%ADD10C,0.100000*%
G04 APERTURE END LIST*
D10*
G36*
X152629583Y-116065300D02*
X152756974Y-116118068D01*
X152871625Y-116194675D01*
X152969125Y-116292175D01*
X153045732Y-116406826D01*
X153098500Y-116534217D01*
X153125400Y-116669455D01*
X153125400Y-116807345D01*
X153098500Y-116942583D01*
X153045732Y-117069974D01*
X152969125Y-117184625D01*
X152871625Y-117282125D01*
X152756974Y-117358732D01*
X152629583Y-117411500D01*
X152494345Y-117438400D01*
X152356455Y-117438400D01*
X152221217Y-117411500D01*
X152093826Y-117358732D01*
X151979175Y-117282125D01*
X151881675Y-117184625D01*
X151805068Y-117069974D01*
X151752300Y-116942583D01*
X151725400Y-116807345D01*
X151725400Y-116669455D01*
X151752300Y-116534217D01*
X151805068Y-116406826D01*
X151881675Y-116292175D01*
X151979175Y-116194675D01*
X152093826Y-116118068D01*
X152221217Y-116065300D01*
X152356455Y-116038400D01*
X152494345Y-116038400D01*
X152629583Y-116065300D01*
X152629583Y-116065300D01*
G37*
G36*
X149748000Y-115966000D02*
X148448000Y-115966000D01*
X148448000Y-114666000D01*
X149748000Y-114666000D01*
X149748000Y-115966000D01*
X149748000Y-115966000D01*
G37*
G36*
X178175016Y-114577895D02*
X178204213Y-114586752D01*
X178231118Y-114601133D01*
X178254708Y-114620492D01*
X178274067Y-114644082D01*
X178288448Y-114670987D01*
X178297305Y-114700184D01*
X178300900Y-114736690D01*
X178300900Y-115361910D01*
X178297305Y-115398416D01*
X178288448Y-115427613D01*
X178274067Y-115454518D01*
X178254708Y-115478108D01*
X178231118Y-115497467D01*
X178204213Y-115511848D01*
X178175016Y-115520705D01*
X178138510Y-115524300D01*
X177588290Y-115524300D01*
X177551784Y-115520705D01*
X177522587Y-115511848D01*
X177495682Y-115497467D01*
X177472092Y-115478108D01*
X177452733Y-115454518D01*
X177438352Y-115427613D01*
X177429495Y-115398416D01*
X177425900Y-115361910D01*
X177425900Y-114736690D01*
X177429495Y-114700184D01*
X177438352Y-114670987D01*
X177452733Y-114644082D01*
X177472092Y-114620492D01*
X177495682Y-114601133D01*
X177522587Y-114586752D01*
X177551784Y-114577895D01*
X177588290Y-114574300D01*
X178138510Y-114574300D01*
X178175016Y-114577895D01*
X178175016Y-114577895D01*
G37*
G36*
X179750016Y-114577895D02*
X179779213Y-114586752D01*
X179806118Y-114601133D01*
X179829708Y-114620492D01*
X179849067Y-114644082D01*
X179863448Y-114670987D01*
X179872305Y-114700184D01*
X179875900Y-114736690D01*
X179875900Y-115361910D01*
X179872305Y-115398416D01*
X179863448Y-115427613D01*
X179849067Y-115454518D01*
X179829708Y-115478108D01*
X179806118Y-115497467D01*
X179779213Y-115511848D01*
X179750016Y-115520705D01*
X179713510Y-115524300D01*
X179163290Y-115524300D01*
X179126784Y-115520705D01*
X179097587Y-115511848D01*
X179070682Y-115497467D01*
X179047092Y-115478108D01*
X179027733Y-115454518D01*
X179013352Y-115427613D01*
X179004495Y-115398416D01*
X179000900Y-115361910D01*
X179000900Y-114736690D01*
X179004495Y-114700184D01*
X179013352Y-114670987D01*
X179027733Y-114644082D01*
X179047092Y-114620492D01*
X179070682Y-114601133D01*
X179097587Y-114586752D01*
X179126784Y-114577895D01*
X179163290Y-114574300D01*
X179713510Y-114574300D01*
X179750016Y-114577895D01*
X179750016Y-114577895D01*
G37*
G36*
X132501274Y-113174962D02*
X132714204Y-113263160D01*
X132905833Y-113391203D01*
X133068797Y-113554167D01*
X133196840Y-113745796D01*
X133285038Y-113958726D01*
X133330000Y-114184764D01*
X133330000Y-114415236D01*
X133285038Y-114641274D01*
X133196840Y-114854204D01*
X133068797Y-115045833D01*
X132905833Y-115208797D01*
X132714204Y-115336840D01*
X132501274Y-115425038D01*
X132275236Y-115470000D01*
X132044764Y-115470000D01*
X131818726Y-115425038D01*
X131605796Y-115336840D01*
X131414167Y-115208797D01*
X131251203Y-115045833D01*
X131123160Y-114854204D01*
X131034962Y-114641274D01*
X130990000Y-114415236D01*
X130990000Y-114184764D01*
X131034962Y-113958726D01*
X131123160Y-113745796D01*
X131251203Y-113554167D01*
X131414167Y-113391203D01*
X131605796Y-113263160D01*
X131818726Y-113174962D01*
X132044764Y-113130000D01*
X132275236Y-113130000D01*
X132501274Y-113174962D01*
X132501274Y-113174962D01*
G37*
G36*
X168501274Y-113174962D02*
X168714204Y-113263160D01*
X168905833Y-113391203D01*
X169068797Y-113554167D01*
X169196840Y-113745796D01*
X169285038Y-113958726D01*
X169330000Y-114184764D01*
X169330000Y-114415236D01*
X169285038Y-114641274D01*
X169196840Y-114854204D01*
X169068797Y-115045833D01*
X168905833Y-115208797D01*
X168714204Y-115336840D01*
X168501274Y-115425038D01*
X168275236Y-115470000D01*
X168044764Y-115470000D01*
X167818726Y-115425038D01*
X167605796Y-115336840D01*
X167414167Y-115208797D01*
X167251203Y-115045833D01*
X167123160Y-114854204D01*
X167034962Y-114641274D01*
X166990000Y-114415236D01*
X166990000Y-114184764D01*
X167034962Y-113958726D01*
X167123160Y-113745796D01*
X167251203Y-113554167D01*
X167414167Y-113391203D01*
X167605796Y-113263160D01*
X167818726Y-113174962D01*
X168044764Y-113130000D01*
X168275236Y-113130000D01*
X168501274Y-113174962D01*
X168501274Y-113174962D01*
G37*
G36*
X163501274Y-113174962D02*
X163714204Y-113263160D01*
X163905833Y-113391203D01*
X164068797Y-113554167D01*
X164196840Y-113745796D01*
X164285038Y-113958726D01*
X164330000Y-114184764D01*
X164330000Y-114415236D01*
X164285038Y-114641274D01*
X164196840Y-114854204D01*
X164068797Y-115045833D01*
X163905833Y-115208797D01*
X163714204Y-115336840D01*
X163501274Y-115425038D01*
X163275236Y-115470000D01*
X163044764Y-115470000D01*
X162818726Y-115425038D01*
X162605796Y-115336840D01*
X162414167Y-115208797D01*
X162251203Y-115045833D01*
X162123160Y-114854204D01*
X162034962Y-114641274D01*
X161990000Y-114415236D01*
X161990000Y-114184764D01*
X162034962Y-113958726D01*
X162123160Y-113745796D01*
X162251203Y-113554167D01*
X162414167Y-113391203D01*
X162605796Y-113263160D01*
X162818726Y-113174962D01*
X163044764Y-113130000D01*
X163275236Y-113130000D01*
X163501274Y-113174962D01*
X163501274Y-113174962D01*
G37*
G36*
X158501274Y-113174962D02*
X158714204Y-113263160D01*
X158905833Y-113391203D01*
X159068797Y-113554167D01*
X159196840Y-113745796D01*
X159285038Y-113958726D01*
X159330000Y-114184764D01*
X159330000Y-114415236D01*
X159285038Y-114641274D01*
X159196840Y-114854204D01*
X159068797Y-115045833D01*
X158905833Y-115208797D01*
X158714204Y-115336840D01*
X158501274Y-115425038D01*
X158275236Y-115470000D01*
X158044764Y-115470000D01*
X157818726Y-115425038D01*
X157605796Y-115336840D01*
X157414167Y-115208797D01*
X157251203Y-115045833D01*
X157123160Y-114854204D01*
X157034962Y-114641274D01*
X156990000Y-114415236D01*
X156990000Y-114184764D01*
X157034962Y-113958726D01*
X157123160Y-113745796D01*
X157251203Y-113554167D01*
X157414167Y-113391203D01*
X157605796Y-113263160D01*
X157818726Y-113174962D01*
X158044764Y-113130000D01*
X158275236Y-113130000D01*
X158501274Y-113174962D01*
X158501274Y-113174962D01*
G37*
G36*
X137501274Y-113174962D02*
X137714204Y-113263160D01*
X137905833Y-113391203D01*
X138068797Y-113554167D01*
X138196840Y-113745796D01*
X138285038Y-113958726D01*
X138330000Y-114184764D01*
X138330000Y-114415236D01*
X138285038Y-114641274D01*
X138196840Y-114854204D01*
X138068797Y-115045833D01*
X137905833Y-115208797D01*
X137714204Y-115336840D01*
X137501274Y-115425038D01*
X137275236Y-115470000D01*
X137044764Y-115470000D01*
X136818726Y-115425038D01*
X136605796Y-115336840D01*
X136414167Y-115208797D01*
X136251203Y-115045833D01*
X136123160Y-114854204D01*
X136034962Y-114641274D01*
X135990000Y-114415236D01*
X135990000Y-114184764D01*
X136034962Y-113958726D01*
X136123160Y-113745796D01*
X136251203Y-113554167D01*
X136414167Y-113391203D01*
X136605796Y-113263160D01*
X136818726Y-113174962D01*
X137044764Y-113130000D01*
X137275236Y-113130000D01*
X137501274Y-113174962D01*
X137501274Y-113174962D01*
G37*
G36*
X142501274Y-113174962D02*
X142714204Y-113263160D01*
X142905833Y-113391203D01*
X143068797Y-113554167D01*
X143196840Y-113745796D01*
X143285038Y-113958726D01*
X143330000Y-114184764D01*
X143330000Y-114415236D01*
X143285038Y-114641274D01*
X143196840Y-114854204D01*
X143068797Y-115045833D01*
X142905833Y-115208797D01*
X142714204Y-115336840D01*
X142501274Y-115425038D01*
X142275236Y-115470000D01*
X142044764Y-115470000D01*
X141818726Y-115425038D01*
X141605796Y-115336840D01*
X141414167Y-115208797D01*
X141251203Y-115045833D01*
X141123160Y-114854204D01*
X141034962Y-114641274D01*
X140990000Y-114415236D01*
X140990000Y-114184764D01*
X141034962Y-113958726D01*
X141123160Y-113745796D01*
X141251203Y-113554167D01*
X141414167Y-113391203D01*
X141605796Y-113263160D01*
X141818726Y-113174962D01*
X142044764Y-113130000D01*
X142275236Y-113130000D01*
X142501274Y-113174962D01*
X142501274Y-113174962D01*
G37*
G36*
X152629583Y-113565300D02*
X152756974Y-113618068D01*
X152777300Y-113631649D01*
X152871625Y-113694675D01*
X152969125Y-113792175D01*
X153045732Y-113906826D01*
X153098500Y-114034217D01*
X153125400Y-114169455D01*
X153125400Y-114307345D01*
X153098500Y-114442583D01*
X153053638Y-114550888D01*
X153045732Y-114569974D01*
X153000032Y-114638370D01*
X152969125Y-114684625D01*
X152871625Y-114782125D01*
X152756974Y-114858732D01*
X152629583Y-114911500D01*
X152494345Y-114938400D01*
X152356455Y-114938400D01*
X152221217Y-114911500D01*
X152093826Y-114858732D01*
X151979175Y-114782125D01*
X151881675Y-114684625D01*
X151850769Y-114638370D01*
X151805068Y-114569974D01*
X151797162Y-114550888D01*
X151752300Y-114442583D01*
X151725400Y-114307345D01*
X151725400Y-114169455D01*
X151752300Y-114034217D01*
X151805068Y-113906826D01*
X151881675Y-113792175D01*
X151979175Y-113694675D01*
X152073501Y-113631649D01*
X152093826Y-113618068D01*
X152221217Y-113565300D01*
X152356455Y-113538400D01*
X152494345Y-113538400D01*
X152629583Y-113565300D01*
X152629583Y-113565300D01*
G37*
G36*
X147975738Y-113412653D02*
X148017598Y-113420979D01*
X148029811Y-113426038D01*
X148135890Y-113469977D01*
X148242354Y-113541114D01*
X148332886Y-113631646D01*
X148404023Y-113738110D01*
X148453021Y-113856403D01*
X148478000Y-113981979D01*
X148478000Y-114110021D01*
X148453021Y-114235597D01*
X148404023Y-114353890D01*
X148326807Y-114469453D01*
X148325082Y-114471554D01*
X148313531Y-114493165D01*
X148306418Y-114516614D01*
X148305718Y-114523718D01*
X148298614Y-114524418D01*
X148275165Y-114531531D01*
X148253554Y-114543082D01*
X148251453Y-114544807D01*
X148135890Y-114622023D01*
X148052245Y-114656670D01*
X148017598Y-114671021D01*
X147975738Y-114679347D01*
X147892021Y-114696000D01*
X147763979Y-114696000D01*
X147680262Y-114679347D01*
X147638402Y-114671021D01*
X147603755Y-114656670D01*
X147520110Y-114622023D01*
X147413646Y-114550886D01*
X147323114Y-114460354D01*
X147251977Y-114353890D01*
X147202979Y-114235597D01*
X147178000Y-114110021D01*
X147178000Y-113981979D01*
X147202979Y-113856403D01*
X147251977Y-113738110D01*
X147323114Y-113631646D01*
X147413646Y-113541114D01*
X147520110Y-113469977D01*
X147626189Y-113426038D01*
X147638402Y-113420979D01*
X147680262Y-113412653D01*
X147763979Y-113396000D01*
X147892021Y-113396000D01*
X147975738Y-113412653D01*
X147975738Y-113412653D01*
G37*
G36*
X176180616Y-113307295D02*
X176209813Y-113316152D01*
X176236718Y-113330533D01*
X176260308Y-113349892D01*
X176279667Y-113373482D01*
X176294048Y-113400387D01*
X176302905Y-113429584D01*
X176306500Y-113466090D01*
X176306500Y-114016310D01*
X176302905Y-114052816D01*
X176294048Y-114082013D01*
X176279667Y-114108918D01*
X176260308Y-114132508D01*
X176236718Y-114151867D01*
X176209813Y-114166248D01*
X176180616Y-114175105D01*
X176144110Y-114178700D01*
X175518890Y-114178700D01*
X175482384Y-114175105D01*
X175453187Y-114166248D01*
X175426282Y-114151867D01*
X175402692Y-114132508D01*
X175383333Y-114108918D01*
X175368952Y-114082013D01*
X175360095Y-114052816D01*
X175356500Y-114016310D01*
X175356500Y-113466090D01*
X175360095Y-113429584D01*
X175368952Y-113400387D01*
X175383333Y-113373482D01*
X175402692Y-113349892D01*
X175426282Y-113330533D01*
X175453187Y-113316152D01*
X175482384Y-113307295D01*
X175518890Y-113303700D01*
X176144110Y-113303700D01*
X176180616Y-113307295D01*
X176180616Y-113307295D01*
G37*
G36*
X174542316Y-113294595D02*
X174571513Y-113303452D01*
X174598418Y-113317833D01*
X174622008Y-113337192D01*
X174641367Y-113360782D01*
X174655748Y-113387687D01*
X174664605Y-113416884D01*
X174668200Y-113453390D01*
X174668200Y-114003610D01*
X174664605Y-114040116D01*
X174655748Y-114069313D01*
X174641367Y-114096218D01*
X174622008Y-114119808D01*
X174598418Y-114139167D01*
X174571513Y-114153548D01*
X174542316Y-114162405D01*
X174505810Y-114166000D01*
X173880590Y-114166000D01*
X173844084Y-114162405D01*
X173814887Y-114153548D01*
X173787982Y-114139167D01*
X173764392Y-114119808D01*
X173745033Y-114096218D01*
X173730652Y-114069313D01*
X173721795Y-114040116D01*
X173718200Y-114003610D01*
X173718200Y-113453390D01*
X173721795Y-113416884D01*
X173730652Y-113387687D01*
X173745033Y-113360782D01*
X173764392Y-113337192D01*
X173787982Y-113317833D01*
X173814887Y-113303452D01*
X173844084Y-113294595D01*
X173880590Y-113291000D01*
X174505810Y-113291000D01*
X174542316Y-113294595D01*
X174542316Y-113294595D01*
G37*
G36*
X180879769Y-114004234D02*
X180279769Y-114004234D01*
X180279769Y-112454234D01*
X180879769Y-112454234D01*
X180879769Y-114004234D01*
X180879769Y-114004234D01*
G37*
G36*
X179609769Y-114004234D02*
X179009769Y-114004234D01*
X179009769Y-112454234D01*
X179609769Y-112454234D01*
X179609769Y-114004234D01*
X179609769Y-114004234D01*
G37*
G36*
X178339769Y-114004234D02*
X177739769Y-114004234D01*
X177739769Y-112454234D01*
X178339769Y-112454234D01*
X178339769Y-114004234D01*
X178339769Y-114004234D01*
G37*
G36*
X182149769Y-114004234D02*
X181549769Y-114004234D01*
X181549769Y-112454234D01*
X182149769Y-112454234D01*
X182149769Y-114004234D01*
X182149769Y-114004234D01*
G37*
G36*
X149245738Y-112142653D02*
X149287598Y-112150979D01*
X149322245Y-112165330D01*
X149405890Y-112199977D01*
X149512354Y-112271114D01*
X149602886Y-112361646D01*
X149674023Y-112468110D01*
X149701281Y-112533918D01*
X149723021Y-112586402D01*
X149723985Y-112591248D01*
X149748000Y-112711979D01*
X149748000Y-112840021D01*
X149723021Y-112965597D01*
X149674023Y-113083890D01*
X149602886Y-113190354D01*
X149512354Y-113280886D01*
X149405890Y-113352023D01*
X149322245Y-113386670D01*
X149287598Y-113401021D01*
X149245738Y-113409347D01*
X149162021Y-113426000D01*
X149033979Y-113426000D01*
X148950262Y-113409347D01*
X148908402Y-113401021D01*
X148873755Y-113386670D01*
X148790110Y-113352023D01*
X148683646Y-113280886D01*
X148593114Y-113190354D01*
X148521977Y-113083890D01*
X148472979Y-112965597D01*
X148448000Y-112840021D01*
X148448000Y-112711979D01*
X148472015Y-112591248D01*
X148472979Y-112586402D01*
X148494719Y-112533918D01*
X148521977Y-112468110D01*
X148593114Y-112361646D01*
X148683646Y-112271114D01*
X148790110Y-112199977D01*
X148873755Y-112165330D01*
X148908402Y-112150979D01*
X148950262Y-112142653D01*
X149033979Y-112126000D01*
X149162021Y-112126000D01*
X149245738Y-112142653D01*
X149245738Y-112142653D01*
G37*
G36*
X176180616Y-111732295D02*
X176209813Y-111741152D01*
X176236718Y-111755533D01*
X176260308Y-111774892D01*
X176279667Y-111798482D01*
X176294048Y-111825387D01*
X176302905Y-111854584D01*
X176306500Y-111891090D01*
X176306500Y-112441310D01*
X176302905Y-112477816D01*
X176294048Y-112507013D01*
X176279667Y-112533918D01*
X176260308Y-112557508D01*
X176236718Y-112576867D01*
X176209813Y-112591248D01*
X176180616Y-112600105D01*
X176144110Y-112603700D01*
X175518890Y-112603700D01*
X175482384Y-112600105D01*
X175453187Y-112591248D01*
X175426282Y-112576867D01*
X175402692Y-112557508D01*
X175383333Y-112533918D01*
X175368952Y-112507013D01*
X175360095Y-112477816D01*
X175356500Y-112441310D01*
X175356500Y-111891090D01*
X175360095Y-111854584D01*
X175368952Y-111825387D01*
X175383333Y-111798482D01*
X175402692Y-111774892D01*
X175426282Y-111755533D01*
X175453187Y-111741152D01*
X175482384Y-111732295D01*
X175518890Y-111728700D01*
X176144110Y-111728700D01*
X176180616Y-111732295D01*
X176180616Y-111732295D01*
G37*
G36*
X174542316Y-111719595D02*
X174571513Y-111728452D01*
X174598418Y-111742833D01*
X174622008Y-111762192D01*
X174641367Y-111785782D01*
X174655748Y-111812687D01*
X174664605Y-111841884D01*
X174668200Y-111878390D01*
X174668200Y-112428610D01*
X174664605Y-112465116D01*
X174655748Y-112494313D01*
X174641367Y-112521218D01*
X174622008Y-112544808D01*
X174598418Y-112564167D01*
X174571513Y-112578548D01*
X174542316Y-112587405D01*
X174505810Y-112591000D01*
X173880590Y-112591000D01*
X173844084Y-112587405D01*
X173814887Y-112578548D01*
X173787982Y-112564167D01*
X173764392Y-112544808D01*
X173745033Y-112521218D01*
X173730652Y-112494313D01*
X173721795Y-112465116D01*
X173718200Y-112428610D01*
X173718200Y-111878390D01*
X173721795Y-111841884D01*
X173730652Y-111812687D01*
X173745033Y-111785782D01*
X173764392Y-111762192D01*
X173787982Y-111742833D01*
X173814887Y-111728452D01*
X173844084Y-111719595D01*
X173880590Y-111716000D01*
X174505810Y-111716000D01*
X174542316Y-111719595D01*
X174542316Y-111719595D01*
G37*
G36*
X153394276Y-110305015D02*
X153423473Y-110313872D01*
X153450378Y-110328253D01*
X153473968Y-110347612D01*
X153493327Y-110371202D01*
X153507708Y-110398107D01*
X153516565Y-110427304D01*
X153520160Y-110463810D01*
X153520160Y-111014030D01*
X153516565Y-111050536D01*
X153507708Y-111079733D01*
X153493327Y-111106638D01*
X153473968Y-111130228D01*
X153450378Y-111149587D01*
X153423473Y-111163968D01*
X153394276Y-111172825D01*
X153357770Y-111176420D01*
X152732550Y-111176420D01*
X152696044Y-111172825D01*
X152666847Y-111163968D01*
X152639942Y-111149587D01*
X152616352Y-111130228D01*
X152596993Y-111106638D01*
X152582612Y-111079733D01*
X152573755Y-111050536D01*
X152570160Y-111014030D01*
X152570160Y-110463810D01*
X152573755Y-110427304D01*
X152582612Y-110398107D01*
X152596993Y-110371202D01*
X152616352Y-110347612D01*
X152639942Y-110328253D01*
X152666847Y-110313872D01*
X152696044Y-110305015D01*
X152732550Y-110301420D01*
X153357770Y-110301420D01*
X153394276Y-110305015D01*
X153394276Y-110305015D01*
G37*
G36*
X151788996Y-110294855D02*
X151818193Y-110303712D01*
X151845098Y-110318093D01*
X151868688Y-110337452D01*
X151888047Y-110361042D01*
X151902428Y-110387947D01*
X151911285Y-110417144D01*
X151914880Y-110453650D01*
X151914880Y-111003870D01*
X151911285Y-111040376D01*
X151902428Y-111069573D01*
X151888047Y-111096478D01*
X151868688Y-111120068D01*
X151845098Y-111139427D01*
X151818193Y-111153808D01*
X151788996Y-111162665D01*
X151752490Y-111166260D01*
X151127270Y-111166260D01*
X151090764Y-111162665D01*
X151061567Y-111153808D01*
X151034662Y-111139427D01*
X151011072Y-111120068D01*
X150991713Y-111096478D01*
X150977332Y-111069573D01*
X150968475Y-111040376D01*
X150964880Y-111003870D01*
X150964880Y-110453650D01*
X150968475Y-110417144D01*
X150977332Y-110387947D01*
X150991713Y-110361042D01*
X151011072Y-110337452D01*
X151034662Y-110318093D01*
X151061567Y-110303712D01*
X151090764Y-110294855D01*
X151127270Y-110291260D01*
X151752490Y-110291260D01*
X151788996Y-110294855D01*
X151788996Y-110294855D01*
G37*
G36*
X148789103Y-109507020D02*
X148903472Y-109554394D01*
X148916494Y-109559788D01*
X148963596Y-109591260D01*
X149031145Y-109636395D01*
X149128645Y-109733895D01*
X149205252Y-109848546D01*
X149258020Y-109975937D01*
X149284920Y-110111175D01*
X149284920Y-110249065D01*
X149258020Y-110384303D01*
X149219418Y-110477494D01*
X149205252Y-110511694D01*
X149128646Y-110626344D01*
X149031144Y-110723846D01*
X148916494Y-110800452D01*
X148789103Y-110853220D01*
X148653865Y-110880120D01*
X148515975Y-110880120D01*
X148380737Y-110853220D01*
X148253346Y-110800452D01*
X148138696Y-110723846D01*
X148041194Y-110626344D01*
X147964588Y-110511694D01*
X147950422Y-110477494D01*
X147911820Y-110384303D01*
X147884920Y-110249065D01*
X147884920Y-110111175D01*
X147911820Y-109975937D01*
X147964588Y-109848546D01*
X148041195Y-109733895D01*
X148138695Y-109636395D01*
X148206245Y-109591260D01*
X148253346Y-109559788D01*
X148266368Y-109554394D01*
X148380737Y-109507020D01*
X148515975Y-109480120D01*
X148653865Y-109480120D01*
X148789103Y-109507020D01*
X148789103Y-109507020D01*
G37*
G36*
X174464652Y-109263543D02*
X174610241Y-109323848D01*
X174741273Y-109411401D01*
X174852699Y-109522827D01*
X174940252Y-109653859D01*
X175000557Y-109799448D01*
X175031300Y-109954005D01*
X175031300Y-110111595D01*
X175000557Y-110266152D01*
X174940252Y-110411741D01*
X174852699Y-110542773D01*
X174741273Y-110654199D01*
X174610241Y-110741752D01*
X174464652Y-110802057D01*
X174310095Y-110832800D01*
X174152505Y-110832800D01*
X173997948Y-110802057D01*
X173852359Y-110741752D01*
X173721327Y-110654199D01*
X173609901Y-110542773D01*
X173522348Y-110411741D01*
X173462043Y-110266152D01*
X173431300Y-110111595D01*
X173431300Y-109954005D01*
X173462043Y-109799448D01*
X173522348Y-109653859D01*
X173609901Y-109522827D01*
X173721327Y-109411401D01*
X173852359Y-109323848D01*
X173997948Y-109263543D01*
X174152505Y-109232800D01*
X174310095Y-109232800D01*
X174464652Y-109263543D01*
X174464652Y-109263543D01*
G37*
G36*
X153394276Y-108730015D02*
X153423473Y-108738872D01*
X153450378Y-108753253D01*
X153473968Y-108772612D01*
X153493327Y-108796202D01*
X153507708Y-108823107D01*
X153516565Y-108852304D01*
X153520160Y-108888810D01*
X153520160Y-109439030D01*
X153516565Y-109475536D01*
X153507708Y-109504733D01*
X153493327Y-109531638D01*
X153473968Y-109555228D01*
X153450378Y-109574587D01*
X153423473Y-109588968D01*
X153394276Y-109597825D01*
X153357770Y-109601420D01*
X152732550Y-109601420D01*
X152696044Y-109597825D01*
X152666847Y-109588968D01*
X152639942Y-109574587D01*
X152616352Y-109555228D01*
X152596993Y-109531638D01*
X152582612Y-109504733D01*
X152573755Y-109475536D01*
X152570160Y-109439030D01*
X152570160Y-108888810D01*
X152573755Y-108852304D01*
X152582612Y-108823107D01*
X152596993Y-108796202D01*
X152616352Y-108772612D01*
X152639942Y-108753253D01*
X152666847Y-108738872D01*
X152696044Y-108730015D01*
X152732550Y-108726420D01*
X153357770Y-108726420D01*
X153394276Y-108730015D01*
X153394276Y-108730015D01*
G37*
G36*
X151788996Y-108719855D02*
X151818193Y-108728712D01*
X151845098Y-108743093D01*
X151868688Y-108762452D01*
X151888047Y-108786042D01*
X151902428Y-108812947D01*
X151911285Y-108842144D01*
X151914880Y-108878650D01*
X151914880Y-109428870D01*
X151911285Y-109465376D01*
X151902428Y-109494573D01*
X151888047Y-109521478D01*
X151868688Y-109545068D01*
X151845098Y-109564427D01*
X151818193Y-109578808D01*
X151788996Y-109587665D01*
X151752490Y-109591260D01*
X151127270Y-109591260D01*
X151090764Y-109587665D01*
X151061567Y-109578808D01*
X151034662Y-109564427D01*
X151011072Y-109545068D01*
X150991713Y-109521478D01*
X150977332Y-109494573D01*
X150968475Y-109465376D01*
X150964880Y-109428870D01*
X150964880Y-108878650D01*
X150968475Y-108842144D01*
X150977332Y-108812947D01*
X150991713Y-108786042D01*
X151011072Y-108762452D01*
X151034662Y-108743093D01*
X151061567Y-108728712D01*
X151090764Y-108719855D01*
X151127270Y-108716260D01*
X151752490Y-108716260D01*
X151788996Y-108719855D01*
X151788996Y-108719855D01*
G37*
G36*
X185185416Y-108481895D02*
X185214613Y-108490752D01*
X185241518Y-108505133D01*
X185265108Y-108524492D01*
X185284467Y-108548082D01*
X185298848Y-108574987D01*
X185307705Y-108604184D01*
X185311300Y-108640690D01*
X185311300Y-109265910D01*
X185307705Y-109302416D01*
X185298848Y-109331613D01*
X185284467Y-109358518D01*
X185265108Y-109382108D01*
X185241518Y-109401467D01*
X185214613Y-109415848D01*
X185185416Y-109424705D01*
X185148910Y-109428300D01*
X184598690Y-109428300D01*
X184562184Y-109424705D01*
X184532987Y-109415848D01*
X184506082Y-109401467D01*
X184482492Y-109382108D01*
X184463133Y-109358518D01*
X184448752Y-109331613D01*
X184439895Y-109302416D01*
X184436300Y-109265910D01*
X184436300Y-108640690D01*
X184439895Y-108604184D01*
X184448752Y-108574987D01*
X184463133Y-108548082D01*
X184482492Y-108524492D01*
X184506082Y-108505133D01*
X184532987Y-108490752D01*
X184562184Y-108481895D01*
X184598690Y-108478300D01*
X185148910Y-108478300D01*
X185185416Y-108481895D01*
X185185416Y-108481895D01*
G37*
G36*
X186760416Y-108481895D02*
X186789613Y-108490752D01*
X186816518Y-108505133D01*
X186840108Y-108524492D01*
X186859467Y-108548082D01*
X186873848Y-108574987D01*
X186882705Y-108604184D01*
X186886300Y-108640690D01*
X186886300Y-109265910D01*
X186882705Y-109302416D01*
X186873848Y-109331613D01*
X186859467Y-109358518D01*
X186840108Y-109382108D01*
X186816518Y-109401467D01*
X186789613Y-109415848D01*
X186760416Y-109424705D01*
X186723910Y-109428300D01*
X186173690Y-109428300D01*
X186137184Y-109424705D01*
X186107987Y-109415848D01*
X186081082Y-109401467D01*
X186057492Y-109382108D01*
X186038133Y-109358518D01*
X186023752Y-109331613D01*
X186014895Y-109302416D01*
X186011300Y-109265910D01*
X186011300Y-108640690D01*
X186014895Y-108604184D01*
X186023752Y-108574987D01*
X186038133Y-108548082D01*
X186057492Y-108524492D01*
X186081082Y-108505133D01*
X186107987Y-108490752D01*
X186137184Y-108481895D01*
X186173690Y-108478300D01*
X186723910Y-108478300D01*
X186760416Y-108481895D01*
X186760416Y-108481895D01*
G37*
G36*
X180879769Y-108604234D02*
X180279769Y-108604234D01*
X180279769Y-107054234D01*
X180879769Y-107054234D01*
X180879769Y-108604234D01*
X180879769Y-108604234D01*
G37*
G36*
X179609769Y-108604234D02*
X179009769Y-108604234D01*
X179009769Y-107054234D01*
X179609769Y-107054234D01*
X179609769Y-108604234D01*
X179609769Y-108604234D01*
G37*
G36*
X178339769Y-108604234D02*
X177739769Y-108604234D01*
X177739769Y-107054234D01*
X178339769Y-107054234D01*
X178339769Y-108604234D01*
X178339769Y-108604234D01*
G37*
G36*
X182149769Y-108604234D02*
X181549769Y-108604234D01*
X181549769Y-107054234D01*
X182149769Y-107054234D01*
X182149769Y-108604234D01*
X182149769Y-108604234D01*
G37*
G36*
X148789103Y-107007020D02*
X148916494Y-107059788D01*
X148982648Y-107103990D01*
X149031145Y-107136395D01*
X149128645Y-107233895D01*
X149205252Y-107348546D01*
X149258020Y-107475937D01*
X149284920Y-107611175D01*
X149284920Y-107749065D01*
X149258020Y-107884303D01*
X149205252Y-108011694D01*
X149128645Y-108126345D01*
X149031145Y-108223845D01*
X148916494Y-108300452D01*
X148789103Y-108353220D01*
X148653865Y-108380120D01*
X148515975Y-108380120D01*
X148380737Y-108353220D01*
X148253346Y-108300452D01*
X148138695Y-108223845D01*
X148041195Y-108126345D01*
X147964588Y-108011694D01*
X147911820Y-107884303D01*
X147884920Y-107749065D01*
X147884920Y-107611175D01*
X147911820Y-107475937D01*
X147964588Y-107348546D01*
X148041195Y-107233895D01*
X148138695Y-107136395D01*
X148187193Y-107103990D01*
X148253346Y-107059788D01*
X148380737Y-107007020D01*
X148515975Y-106980120D01*
X148653865Y-106980120D01*
X148789103Y-107007020D01*
X148789103Y-107007020D01*
G37*
G36*
X186760416Y-106945195D02*
X186789613Y-106954052D01*
X186816518Y-106968433D01*
X186840108Y-106987792D01*
X186859467Y-107011382D01*
X186873848Y-107038287D01*
X186882705Y-107067484D01*
X186886300Y-107103990D01*
X186886300Y-107729210D01*
X186882705Y-107765716D01*
X186873848Y-107794913D01*
X186859467Y-107821818D01*
X186840108Y-107845408D01*
X186816518Y-107864767D01*
X186789613Y-107879148D01*
X186760416Y-107888005D01*
X186723910Y-107891600D01*
X186173690Y-107891600D01*
X186137184Y-107888005D01*
X186107987Y-107879148D01*
X186081082Y-107864767D01*
X186057492Y-107845408D01*
X186038133Y-107821818D01*
X186023752Y-107794913D01*
X186014895Y-107765716D01*
X186011300Y-107729210D01*
X186011300Y-107103990D01*
X186014895Y-107067484D01*
X186023752Y-107038287D01*
X186038133Y-107011382D01*
X186057492Y-106987792D01*
X186081082Y-106968433D01*
X186107987Y-106954052D01*
X186137184Y-106945195D01*
X186173690Y-106941600D01*
X186723910Y-106941600D01*
X186760416Y-106945195D01*
X186760416Y-106945195D01*
G37*
G36*
X185185416Y-106945195D02*
X185214613Y-106954052D01*
X185241518Y-106968433D01*
X185265108Y-106987792D01*
X185284467Y-107011382D01*
X185298848Y-107038287D01*
X185307705Y-107067484D01*
X185311300Y-107103990D01*
X185311300Y-107729210D01*
X185307705Y-107765716D01*
X185298848Y-107794913D01*
X185284467Y-107821818D01*
X185265108Y-107845408D01*
X185241518Y-107864767D01*
X185214613Y-107879148D01*
X185185416Y-107888005D01*
X185148910Y-107891600D01*
X184598690Y-107891600D01*
X184562184Y-107888005D01*
X184532987Y-107879148D01*
X184506082Y-107864767D01*
X184482492Y-107845408D01*
X184463133Y-107821818D01*
X184448752Y-107794913D01*
X184439895Y-107765716D01*
X184436300Y-107729210D01*
X184436300Y-107103990D01*
X184439895Y-107067484D01*
X184448752Y-107038287D01*
X184463133Y-107011382D01*
X184482492Y-106987792D01*
X184506082Y-106968433D01*
X184532987Y-106954052D01*
X184562184Y-106945195D01*
X184598690Y-106941600D01*
X185148910Y-106941600D01*
X185185416Y-106945195D01*
X185185416Y-106945195D01*
G37*
G36*
X142761836Y-106144595D02*
X142791033Y-106153452D01*
X142817938Y-106167833D01*
X142841528Y-106187192D01*
X142860887Y-106210782D01*
X142875268Y-106237687D01*
X142884125Y-106266884D01*
X142887720Y-106303390D01*
X142887720Y-106853610D01*
X142884125Y-106890116D01*
X142875268Y-106919313D01*
X142860887Y-106946218D01*
X142841528Y-106969808D01*
X142817938Y-106989167D01*
X142791033Y-107003548D01*
X142761836Y-107012405D01*
X142725330Y-107016000D01*
X142100110Y-107016000D01*
X142063604Y-107012405D01*
X142034407Y-107003548D01*
X142007502Y-106989167D01*
X141983912Y-106969808D01*
X141964553Y-106946218D01*
X141950172Y-106919313D01*
X141941315Y-106890116D01*
X141937720Y-106853610D01*
X141937720Y-106303390D01*
X141941315Y-106266884D01*
X141950172Y-106237687D01*
X141964553Y-106210782D01*
X141983912Y-106187192D01*
X142007502Y-106167833D01*
X142034407Y-106153452D01*
X142063604Y-106144595D01*
X142100110Y-106141000D01*
X142725330Y-106141000D01*
X142761836Y-106144595D01*
X142761836Y-106144595D01*
G37*
G36*
X141242916Y-106139515D02*
X141272113Y-106148372D01*
X141299018Y-106162753D01*
X141322608Y-106182112D01*
X141341967Y-106205702D01*
X141356348Y-106232607D01*
X141365205Y-106261804D01*
X141368800Y-106298310D01*
X141368800Y-106848530D01*
X141365205Y-106885036D01*
X141356348Y-106914233D01*
X141341967Y-106941138D01*
X141322608Y-106964728D01*
X141299018Y-106984087D01*
X141272113Y-106998468D01*
X141242916Y-107007325D01*
X141206410Y-107010920D01*
X140581190Y-107010920D01*
X140544684Y-107007325D01*
X140515487Y-106998468D01*
X140488582Y-106984087D01*
X140464992Y-106964728D01*
X140445633Y-106941138D01*
X140431252Y-106914233D01*
X140422395Y-106885036D01*
X140418800Y-106848530D01*
X140418800Y-106298310D01*
X140422395Y-106261804D01*
X140431252Y-106232607D01*
X140445633Y-106205702D01*
X140464992Y-106182112D01*
X140488582Y-106162753D01*
X140515487Y-106148372D01*
X140544684Y-106139515D01*
X140581190Y-106135920D01*
X141206410Y-106135920D01*
X141242916Y-106139515D01*
X141242916Y-106139515D01*
G37*
G36*
X155896676Y-105949515D02*
X155925873Y-105958372D01*
X155952778Y-105972753D01*
X155976368Y-105992112D01*
X155995727Y-106015702D01*
X156010108Y-106042607D01*
X156018965Y-106071804D01*
X156022560Y-106108310D01*
X156022560Y-106733530D01*
X156018965Y-106770036D01*
X156010108Y-106799233D01*
X155995727Y-106826138D01*
X155976368Y-106849728D01*
X155952778Y-106869087D01*
X155925873Y-106883468D01*
X155896676Y-106892325D01*
X155860170Y-106895920D01*
X155309950Y-106895920D01*
X155273444Y-106892325D01*
X155244247Y-106883468D01*
X155217342Y-106869087D01*
X155193752Y-106849728D01*
X155174393Y-106826138D01*
X155160012Y-106799233D01*
X155151155Y-106770036D01*
X155147560Y-106733530D01*
X155147560Y-106108310D01*
X155151155Y-106071804D01*
X155160012Y-106042607D01*
X155174393Y-106015702D01*
X155193752Y-105992112D01*
X155217342Y-105972753D01*
X155244247Y-105958372D01*
X155273444Y-105949515D01*
X155309950Y-105945920D01*
X155860170Y-105945920D01*
X155896676Y-105949515D01*
X155896676Y-105949515D01*
G37*
G36*
X157471676Y-105949515D02*
X157500873Y-105958372D01*
X157527778Y-105972753D01*
X157551368Y-105992112D01*
X157570727Y-106015702D01*
X157585108Y-106042607D01*
X157593965Y-106071804D01*
X157597560Y-106108310D01*
X157597560Y-106733530D01*
X157593965Y-106770036D01*
X157585108Y-106799233D01*
X157570727Y-106826138D01*
X157551368Y-106849728D01*
X157527778Y-106869087D01*
X157500873Y-106883468D01*
X157471676Y-106892325D01*
X157435170Y-106895920D01*
X156884950Y-106895920D01*
X156848444Y-106892325D01*
X156819247Y-106883468D01*
X156792342Y-106869087D01*
X156768752Y-106849728D01*
X156749393Y-106826138D01*
X156735012Y-106799233D01*
X156726155Y-106770036D01*
X156722560Y-106733530D01*
X156722560Y-106108310D01*
X156726155Y-106071804D01*
X156735012Y-106042607D01*
X156749393Y-106015702D01*
X156768752Y-105992112D01*
X156792342Y-105972753D01*
X156819247Y-105958372D01*
X156848444Y-105949515D01*
X156884950Y-105945920D01*
X157435170Y-105945920D01*
X157471676Y-105949515D01*
X157471676Y-105949515D01*
G37*
G36*
X153239183Y-105184580D02*
X153366574Y-105237348D01*
X153481224Y-105313954D01*
X153578726Y-105411456D01*
X153590146Y-105428548D01*
X153655332Y-105526106D01*
X153708100Y-105653497D01*
X153735000Y-105788735D01*
X153735000Y-105926625D01*
X153708100Y-106061863D01*
X153666309Y-106162753D01*
X153655332Y-106189254D01*
X153578726Y-106303904D01*
X153481224Y-106401406D01*
X153379762Y-106469200D01*
X153366574Y-106478012D01*
X153239183Y-106530780D01*
X153103945Y-106557680D01*
X152966055Y-106557680D01*
X152830817Y-106530780D01*
X152703426Y-106478012D01*
X152690238Y-106469200D01*
X152588776Y-106401406D01*
X152491274Y-106303904D01*
X152414668Y-106189254D01*
X152403691Y-106162753D01*
X152361900Y-106061863D01*
X152335000Y-105926625D01*
X152335000Y-105788735D01*
X152361900Y-105653497D01*
X152414668Y-105526106D01*
X152479854Y-105428548D01*
X152491274Y-105411456D01*
X152588776Y-105313954D01*
X152703426Y-105237348D01*
X152830817Y-105184580D01*
X152966055Y-105157680D01*
X153103945Y-105157680D01*
X153239183Y-105184580D01*
X153239183Y-105184580D01*
G37*
G36*
X180880216Y-105522795D02*
X180909413Y-105531652D01*
X180936318Y-105546033D01*
X180959908Y-105565392D01*
X180979267Y-105588982D01*
X180993648Y-105615887D01*
X181002505Y-105645084D01*
X181006100Y-105681590D01*
X181006100Y-106306810D01*
X181002505Y-106343316D01*
X180993648Y-106372513D01*
X180979267Y-106399418D01*
X180959908Y-106423008D01*
X180936318Y-106442367D01*
X180909413Y-106456748D01*
X180880216Y-106465605D01*
X180843710Y-106469200D01*
X180293490Y-106469200D01*
X180256984Y-106465605D01*
X180227787Y-106456748D01*
X180200882Y-106442367D01*
X180177292Y-106423008D01*
X180157933Y-106399418D01*
X180143552Y-106372513D01*
X180134695Y-106343316D01*
X180131100Y-106306810D01*
X180131100Y-105681590D01*
X180134695Y-105645084D01*
X180143552Y-105615887D01*
X180157933Y-105588982D01*
X180177292Y-105565392D01*
X180200882Y-105546033D01*
X180227787Y-105531652D01*
X180256984Y-105522795D01*
X180293490Y-105519200D01*
X180843710Y-105519200D01*
X180880216Y-105522795D01*
X180880216Y-105522795D01*
G37*
G36*
X179305216Y-105522795D02*
X179334413Y-105531652D01*
X179361318Y-105546033D01*
X179384908Y-105565392D01*
X179404267Y-105588982D01*
X179418648Y-105615887D01*
X179427505Y-105645084D01*
X179431100Y-105681590D01*
X179431100Y-106306810D01*
X179427505Y-106343316D01*
X179418648Y-106372513D01*
X179404267Y-106399418D01*
X179384908Y-106423008D01*
X179361318Y-106442367D01*
X179334413Y-106456748D01*
X179305216Y-106465605D01*
X179268710Y-106469200D01*
X178718490Y-106469200D01*
X178681984Y-106465605D01*
X178652787Y-106456748D01*
X178625882Y-106442367D01*
X178602292Y-106423008D01*
X178582933Y-106399418D01*
X178568552Y-106372513D01*
X178559695Y-106343316D01*
X178556100Y-106306810D01*
X178556100Y-105681590D01*
X178559695Y-105645084D01*
X178568552Y-105615887D01*
X178582933Y-105588982D01*
X178602292Y-105565392D01*
X178625882Y-105546033D01*
X178652787Y-105531652D01*
X178681984Y-105522795D01*
X178718490Y-105519200D01*
X179268710Y-105519200D01*
X179305216Y-105522795D01*
X179305216Y-105522795D01*
G37*
G36*
X174464652Y-104263543D02*
X174610241Y-104323848D01*
X174741273Y-104411401D01*
X174852699Y-104522827D01*
X174940252Y-104653859D01*
X175000557Y-104799448D01*
X175031300Y-104954005D01*
X175031300Y-105111595D01*
X175000557Y-105266152D01*
X174940252Y-105411741D01*
X174852699Y-105542773D01*
X174741273Y-105654199D01*
X174610241Y-105741752D01*
X174464652Y-105802057D01*
X174310095Y-105832800D01*
X174152505Y-105832800D01*
X173997948Y-105802057D01*
X173852359Y-105741752D01*
X173721327Y-105654199D01*
X173609901Y-105542773D01*
X173522348Y-105411741D01*
X173462043Y-105266152D01*
X173431300Y-105111595D01*
X173431300Y-104954005D01*
X173462043Y-104799448D01*
X173522348Y-104653859D01*
X173609901Y-104522827D01*
X173721327Y-104411401D01*
X173852359Y-104323848D01*
X173997948Y-104263543D01*
X174152505Y-104232800D01*
X174310095Y-104232800D01*
X174464652Y-104263543D01*
X174464652Y-104263543D01*
G37*
G36*
X136459303Y-104452420D02*
X136586694Y-104505188D01*
X136701344Y-104581794D01*
X136798846Y-104679296D01*
X136841260Y-104742774D01*
X136875452Y-104793946D01*
X136928220Y-104921337D01*
X136955120Y-105056575D01*
X136955120Y-105194465D01*
X136928220Y-105329703D01*
X136882118Y-105441000D01*
X136875452Y-105457094D01*
X136798846Y-105571744D01*
X136701344Y-105669246D01*
X136598520Y-105737950D01*
X136586694Y-105745852D01*
X136459303Y-105798620D01*
X136324065Y-105825520D01*
X136186175Y-105825520D01*
X136050937Y-105798620D01*
X135923546Y-105745852D01*
X135911720Y-105737950D01*
X135808896Y-105669246D01*
X135711394Y-105571744D01*
X135634788Y-105457094D01*
X135628122Y-105441000D01*
X135582020Y-105329703D01*
X135555120Y-105194465D01*
X135555120Y-105056575D01*
X135582020Y-104921337D01*
X135634788Y-104793946D01*
X135668980Y-104742774D01*
X135711394Y-104679296D01*
X135808896Y-104581794D01*
X135923546Y-104505188D01*
X136050937Y-104452420D01*
X136186175Y-104425520D01*
X136324065Y-104425520D01*
X136459303Y-104452420D01*
X136459303Y-104452420D01*
G37*
G36*
X138959303Y-104452420D02*
X139086694Y-104505188D01*
X139201344Y-104581794D01*
X139298846Y-104679296D01*
X139341260Y-104742774D01*
X139375452Y-104793946D01*
X139428220Y-104921337D01*
X139455120Y-105056575D01*
X139455120Y-105194465D01*
X139428220Y-105329703D01*
X139382118Y-105441000D01*
X139375452Y-105457094D01*
X139298846Y-105571744D01*
X139201344Y-105669246D01*
X139098520Y-105737950D01*
X139086694Y-105745852D01*
X138959303Y-105798620D01*
X138824065Y-105825520D01*
X138686175Y-105825520D01*
X138550937Y-105798620D01*
X138423546Y-105745852D01*
X138411720Y-105737950D01*
X138308896Y-105669246D01*
X138211394Y-105571744D01*
X138134788Y-105457094D01*
X138128122Y-105441000D01*
X138082020Y-105329703D01*
X138055120Y-105194465D01*
X138055120Y-105056575D01*
X138082020Y-104921337D01*
X138134788Y-104793946D01*
X138168980Y-104742774D01*
X138211394Y-104679296D01*
X138308896Y-104581794D01*
X138423546Y-104505188D01*
X138550937Y-104452420D01*
X138686175Y-104425520D01*
X138824065Y-104425520D01*
X138959303Y-104452420D01*
X138959303Y-104452420D01*
G37*
G36*
X185831555Y-103984885D02*
X185861631Y-103994008D01*
X185889345Y-104008822D01*
X185913640Y-104028760D01*
X185933578Y-104053055D01*
X185948392Y-104080769D01*
X185957515Y-104110845D01*
X185961200Y-104148259D01*
X185961200Y-105554141D01*
X185957515Y-105591555D01*
X185948392Y-105621631D01*
X185933578Y-105649345D01*
X185913640Y-105673640D01*
X185889345Y-105693578D01*
X185861631Y-105708392D01*
X185831555Y-105717515D01*
X185794141Y-105721200D01*
X183928259Y-105721200D01*
X183890845Y-105717515D01*
X183860769Y-105708392D01*
X183833055Y-105693578D01*
X183808760Y-105673640D01*
X183788822Y-105649345D01*
X183774008Y-105621631D01*
X183764885Y-105591555D01*
X183761200Y-105554141D01*
X183761200Y-104148259D01*
X183764885Y-104110845D01*
X183774008Y-104080769D01*
X183788822Y-104053055D01*
X183808760Y-104028760D01*
X183833055Y-104008822D01*
X183860769Y-103994008D01*
X183890845Y-103984885D01*
X183928259Y-103981200D01*
X185794141Y-103981200D01*
X185831555Y-103984885D01*
X185831555Y-103984885D01*
G37*
G36*
X130758720Y-105554680D02*
X128158720Y-105554680D01*
X128158720Y-103954680D01*
X130758720Y-103954680D01*
X130758720Y-105554680D01*
X130758720Y-105554680D01*
G37*
G36*
X134358720Y-105554680D02*
X131758720Y-105554680D01*
X131758720Y-103954680D01*
X134358720Y-103954680D01*
X134358720Y-105554680D01*
X134358720Y-105554680D01*
G37*
G36*
X170720016Y-104570295D02*
X170749213Y-104579152D01*
X170776118Y-104593533D01*
X170799708Y-104612892D01*
X170819067Y-104636482D01*
X170833448Y-104663387D01*
X170842305Y-104692584D01*
X170845900Y-104729090D01*
X170845900Y-105354310D01*
X170842305Y-105390816D01*
X170833448Y-105420013D01*
X170819067Y-105446918D01*
X170799708Y-105470508D01*
X170776118Y-105489867D01*
X170749213Y-105504248D01*
X170720016Y-105513105D01*
X170683510Y-105516700D01*
X170133290Y-105516700D01*
X170096784Y-105513105D01*
X170067587Y-105504248D01*
X170040682Y-105489867D01*
X170017092Y-105470508D01*
X169997733Y-105446918D01*
X169983352Y-105420013D01*
X169974495Y-105390816D01*
X169970900Y-105354310D01*
X169970900Y-104729090D01*
X169974495Y-104692584D01*
X169983352Y-104663387D01*
X169997733Y-104636482D01*
X170017092Y-104612892D01*
X170040682Y-104593533D01*
X170067587Y-104579152D01*
X170096784Y-104570295D01*
X170133290Y-104566700D01*
X170683510Y-104566700D01*
X170720016Y-104570295D01*
X170720016Y-104570295D01*
G37*
G36*
X172295016Y-104570295D02*
X172324213Y-104579152D01*
X172351118Y-104593533D01*
X172374708Y-104612892D01*
X172394067Y-104636482D01*
X172408448Y-104663387D01*
X172417305Y-104692584D01*
X172420900Y-104729090D01*
X172420900Y-105354310D01*
X172417305Y-105390816D01*
X172408448Y-105420013D01*
X172394067Y-105446918D01*
X172374708Y-105470508D01*
X172351118Y-105489867D01*
X172324213Y-105504248D01*
X172295016Y-105513105D01*
X172258510Y-105516700D01*
X171708290Y-105516700D01*
X171671784Y-105513105D01*
X171642587Y-105504248D01*
X171615682Y-105489867D01*
X171592092Y-105470508D01*
X171572733Y-105446918D01*
X171558352Y-105420013D01*
X171549495Y-105390816D01*
X171545900Y-105354310D01*
X171545900Y-104729090D01*
X171549495Y-104692584D01*
X171558352Y-104663387D01*
X171572733Y-104636482D01*
X171592092Y-104612892D01*
X171615682Y-104593533D01*
X171642587Y-104579152D01*
X171671784Y-104570295D01*
X171708290Y-104566700D01*
X172258510Y-104566700D01*
X172295016Y-104570295D01*
X172295016Y-104570295D01*
G37*
G36*
X142761836Y-104569595D02*
X142791033Y-104578452D01*
X142817938Y-104592833D01*
X142841528Y-104612192D01*
X142860887Y-104635782D01*
X142875268Y-104662687D01*
X142884125Y-104691884D01*
X142887720Y-104728390D01*
X142887720Y-105278610D01*
X142884125Y-105315116D01*
X142875268Y-105344313D01*
X142860887Y-105371218D01*
X142841528Y-105394808D01*
X142817938Y-105414167D01*
X142791033Y-105428548D01*
X142761836Y-105437405D01*
X142725330Y-105441000D01*
X142100110Y-105441000D01*
X142063604Y-105437405D01*
X142034407Y-105428548D01*
X142007502Y-105414167D01*
X141983912Y-105394808D01*
X141964553Y-105371218D01*
X141950172Y-105344313D01*
X141941315Y-105315116D01*
X141937720Y-105278610D01*
X141937720Y-104728390D01*
X141941315Y-104691884D01*
X141950172Y-104662687D01*
X141964553Y-104635782D01*
X141983912Y-104612192D01*
X142007502Y-104592833D01*
X142034407Y-104578452D01*
X142063604Y-104569595D01*
X142100110Y-104566000D01*
X142725330Y-104566000D01*
X142761836Y-104569595D01*
X142761836Y-104569595D01*
G37*
G36*
X141242916Y-104564515D02*
X141272113Y-104573372D01*
X141299018Y-104587753D01*
X141322608Y-104607112D01*
X141341967Y-104630702D01*
X141356348Y-104657607D01*
X141365205Y-104686804D01*
X141368800Y-104723310D01*
X141368800Y-105273530D01*
X141365205Y-105310036D01*
X141356348Y-105339233D01*
X141341967Y-105366138D01*
X141322608Y-105389728D01*
X141299018Y-105409087D01*
X141272113Y-105423468D01*
X141242916Y-105432325D01*
X141206410Y-105435920D01*
X140581190Y-105435920D01*
X140544684Y-105432325D01*
X140515487Y-105423468D01*
X140488582Y-105409087D01*
X140464992Y-105389728D01*
X140445633Y-105366138D01*
X140431252Y-105339233D01*
X140422395Y-105310036D01*
X140418800Y-105273530D01*
X140418800Y-104723310D01*
X140422395Y-104686804D01*
X140431252Y-104657607D01*
X140445633Y-104630702D01*
X140464992Y-104607112D01*
X140488582Y-104587753D01*
X140515487Y-104573372D01*
X140544684Y-104564515D01*
X140581190Y-104560920D01*
X141206410Y-104560920D01*
X141242916Y-104564515D01*
X141242916Y-104564515D01*
G37*
G36*
X157471676Y-104369635D02*
X157500873Y-104378492D01*
X157527778Y-104392873D01*
X157551368Y-104412232D01*
X157570727Y-104435822D01*
X157585108Y-104462727D01*
X157593965Y-104491924D01*
X157597560Y-104528430D01*
X157597560Y-105153650D01*
X157593965Y-105190156D01*
X157585108Y-105219353D01*
X157570727Y-105246258D01*
X157551368Y-105269848D01*
X157527778Y-105289207D01*
X157500873Y-105303588D01*
X157471676Y-105312445D01*
X157435170Y-105316040D01*
X156884950Y-105316040D01*
X156848444Y-105312445D01*
X156819247Y-105303588D01*
X156792342Y-105289207D01*
X156768752Y-105269848D01*
X156749393Y-105246258D01*
X156735012Y-105219353D01*
X156726155Y-105190156D01*
X156722560Y-105153650D01*
X156722560Y-104528430D01*
X156726155Y-104491924D01*
X156735012Y-104462727D01*
X156749393Y-104435822D01*
X156768752Y-104412232D01*
X156792342Y-104392873D01*
X156819247Y-104378492D01*
X156848444Y-104369635D01*
X156884950Y-104366040D01*
X157435170Y-104366040D01*
X157471676Y-104369635D01*
X157471676Y-104369635D01*
G37*
G36*
X155896676Y-104369635D02*
X155925873Y-104378492D01*
X155952778Y-104392873D01*
X155976368Y-104412232D01*
X155995727Y-104435822D01*
X156010108Y-104462727D01*
X156018965Y-104491924D01*
X156022560Y-104528430D01*
X156022560Y-105153650D01*
X156018965Y-105190156D01*
X156010108Y-105219353D01*
X155995727Y-105246258D01*
X155976368Y-105269848D01*
X155952778Y-105289207D01*
X155925873Y-105303588D01*
X155896676Y-105312445D01*
X155860170Y-105316040D01*
X155309950Y-105316040D01*
X155273444Y-105312445D01*
X155244247Y-105303588D01*
X155217342Y-105289207D01*
X155193752Y-105269848D01*
X155174393Y-105246258D01*
X155160012Y-105219353D01*
X155151155Y-105190156D01*
X155147560Y-105153650D01*
X155147560Y-104528430D01*
X155151155Y-104491924D01*
X155160012Y-104462727D01*
X155174393Y-104435822D01*
X155193752Y-104412232D01*
X155217342Y-104392873D01*
X155244247Y-104378492D01*
X155273444Y-104369635D01*
X155309950Y-104366040D01*
X155860170Y-104366040D01*
X155896676Y-104369635D01*
X155896676Y-104369635D01*
G37*
G36*
X149519312Y-103716183D02*
X149664901Y-103776488D01*
X149795933Y-103864041D01*
X149907359Y-103975467D01*
X149994912Y-104106499D01*
X150055217Y-104252088D01*
X150085960Y-104406645D01*
X150085960Y-104564235D01*
X150055217Y-104718792D01*
X149994912Y-104864381D01*
X149907359Y-104995413D01*
X149795933Y-105106839D01*
X149664901Y-105194392D01*
X149519312Y-105254697D01*
X149364755Y-105285440D01*
X149207165Y-105285440D01*
X149052608Y-105254697D01*
X148907019Y-105194392D01*
X148775987Y-105106839D01*
X148664561Y-104995413D01*
X148577008Y-104864381D01*
X148516703Y-104718792D01*
X148485960Y-104564235D01*
X148485960Y-104406645D01*
X148516703Y-104252088D01*
X148577008Y-104106499D01*
X148664561Y-103975467D01*
X148775987Y-103864041D01*
X148907019Y-103776488D01*
X149052608Y-103716183D01*
X149207165Y-103685440D01*
X149364755Y-103685440D01*
X149519312Y-103716183D01*
X149519312Y-103716183D01*
G37*
G36*
X144519312Y-103716183D02*
X144664901Y-103776488D01*
X144795933Y-103864041D01*
X144907359Y-103975467D01*
X144994912Y-104106499D01*
X145055217Y-104252088D01*
X145085960Y-104406645D01*
X145085960Y-104564235D01*
X145055217Y-104718792D01*
X144994912Y-104864381D01*
X144907359Y-104995413D01*
X144795933Y-105106839D01*
X144664901Y-105194392D01*
X144519312Y-105254697D01*
X144364755Y-105285440D01*
X144207165Y-105285440D01*
X144052608Y-105254697D01*
X143907019Y-105194392D01*
X143775987Y-105106839D01*
X143664561Y-104995413D01*
X143577008Y-104864381D01*
X143516703Y-104718792D01*
X143485960Y-104564235D01*
X143485960Y-104406645D01*
X143516703Y-104252088D01*
X143577008Y-104106499D01*
X143664561Y-103975467D01*
X143775987Y-103864041D01*
X143907019Y-103776488D01*
X144052608Y-103716183D01*
X144207165Y-103685440D01*
X144364755Y-103685440D01*
X144519312Y-103716183D01*
X144519312Y-103716183D01*
G37*
G36*
X166001274Y-102674962D02*
X166214204Y-102763160D01*
X166405833Y-102891203D01*
X166568797Y-103054167D01*
X166696840Y-103245796D01*
X166785038Y-103458726D01*
X166830000Y-103684764D01*
X166830000Y-103915236D01*
X166785038Y-104141274D01*
X166696840Y-104354204D01*
X166568797Y-104545833D01*
X166405833Y-104708797D01*
X166214204Y-104836840D01*
X166001274Y-104925038D01*
X165775236Y-104970000D01*
X165544764Y-104970000D01*
X165318726Y-104925038D01*
X165105796Y-104836840D01*
X164914167Y-104708797D01*
X164751203Y-104545833D01*
X164623160Y-104354204D01*
X164534962Y-104141274D01*
X164490000Y-103915236D01*
X164490000Y-103684764D01*
X164534962Y-103458726D01*
X164623160Y-103245796D01*
X164751203Y-103054167D01*
X164914167Y-102891203D01*
X165105796Y-102763160D01*
X165318726Y-102674962D01*
X165544764Y-102630000D01*
X165775236Y-102630000D01*
X166001274Y-102674962D01*
X166001274Y-102674962D01*
G37*
G36*
X161001274Y-102674962D02*
X161214204Y-102763160D01*
X161405833Y-102891203D01*
X161568797Y-103054167D01*
X161696840Y-103245796D01*
X161785038Y-103458726D01*
X161830000Y-103684764D01*
X161830000Y-103915236D01*
X161785038Y-104141274D01*
X161696840Y-104354204D01*
X161568797Y-104545833D01*
X161405833Y-104708797D01*
X161214204Y-104836840D01*
X161001274Y-104925038D01*
X160775236Y-104970000D01*
X160544764Y-104970000D01*
X160318726Y-104925038D01*
X160105796Y-104836840D01*
X159914167Y-104708797D01*
X159751203Y-104545833D01*
X159623160Y-104354204D01*
X159534962Y-104141274D01*
X159490000Y-103915236D01*
X159490000Y-103684764D01*
X159534962Y-103458726D01*
X159623160Y-103245796D01*
X159751203Y-103054167D01*
X159914167Y-102891203D01*
X160105796Y-102763160D01*
X160318726Y-102674962D01*
X160544764Y-102630000D01*
X160775236Y-102630000D01*
X161001274Y-102674962D01*
X161001274Y-102674962D01*
G37*
G36*
X176957000Y-104838800D02*
X176357000Y-104838800D01*
X176357000Y-103288800D01*
X176957000Y-103288800D01*
X176957000Y-104838800D01*
X176957000Y-104838800D01*
G37*
G36*
X178227000Y-104838800D02*
X177627000Y-104838800D01*
X177627000Y-103288800D01*
X178227000Y-103288800D01*
X178227000Y-104838800D01*
X178227000Y-104838800D01*
G37*
G36*
X179497000Y-104838800D02*
X178897000Y-104838800D01*
X178897000Y-103288800D01*
X179497000Y-103288800D01*
X179497000Y-104838800D01*
X179497000Y-104838800D01*
G37*
G36*
X180767000Y-104838800D02*
X180167000Y-104838800D01*
X180167000Y-103288800D01*
X180767000Y-103288800D01*
X180767000Y-104838800D01*
X180767000Y-104838800D01*
G37*
G36*
X153239183Y-102684580D02*
X153366574Y-102737348D01*
X153455680Y-102796886D01*
X153481225Y-102813955D01*
X153578725Y-102911455D01*
X153655332Y-103026106D01*
X153708100Y-103153497D01*
X153735000Y-103288735D01*
X153735000Y-103426625D01*
X153708100Y-103561863D01*
X153657192Y-103684764D01*
X153655332Y-103689254D01*
X153578726Y-103803904D01*
X153481224Y-103901406D01*
X153380949Y-103968407D01*
X153366574Y-103978012D01*
X153239183Y-104030780D01*
X153103945Y-104057680D01*
X152966055Y-104057680D01*
X152830817Y-104030780D01*
X152703426Y-103978012D01*
X152689051Y-103968407D01*
X152588776Y-103901406D01*
X152491274Y-103803904D01*
X152414668Y-103689254D01*
X152412808Y-103684764D01*
X152361900Y-103561863D01*
X152335000Y-103426625D01*
X152335000Y-103288735D01*
X152361900Y-103153497D01*
X152414668Y-103026106D01*
X152491275Y-102911455D01*
X152588775Y-102813955D01*
X152614321Y-102796886D01*
X152703426Y-102737348D01*
X152830817Y-102684580D01*
X152966055Y-102657680D01*
X153103945Y-102657680D01*
X153239183Y-102684580D01*
X153239183Y-102684580D01*
G37*
G36*
X142754916Y-103048835D02*
X142784113Y-103057692D01*
X142811018Y-103072073D01*
X142834608Y-103091432D01*
X142853967Y-103115022D01*
X142868348Y-103141927D01*
X142877205Y-103171124D01*
X142880800Y-103207630D01*
X142880800Y-103832850D01*
X142877205Y-103869356D01*
X142868348Y-103898553D01*
X142853967Y-103925458D01*
X142834608Y-103949048D01*
X142811018Y-103968407D01*
X142784113Y-103982788D01*
X142754916Y-103991645D01*
X142718410Y-103995240D01*
X142168190Y-103995240D01*
X142131684Y-103991645D01*
X142102487Y-103982788D01*
X142075582Y-103968407D01*
X142051992Y-103949048D01*
X142032633Y-103925458D01*
X142018252Y-103898553D01*
X142009395Y-103869356D01*
X142005800Y-103832850D01*
X142005800Y-103207630D01*
X142009395Y-103171124D01*
X142018252Y-103141927D01*
X142032633Y-103115022D01*
X142051992Y-103091432D01*
X142075582Y-103072073D01*
X142102487Y-103057692D01*
X142131684Y-103048835D01*
X142168190Y-103045240D01*
X142718410Y-103045240D01*
X142754916Y-103048835D01*
X142754916Y-103048835D01*
G37*
G36*
X141179916Y-103048835D02*
X141209113Y-103057692D01*
X141236018Y-103072073D01*
X141259608Y-103091432D01*
X141278967Y-103115022D01*
X141293348Y-103141927D01*
X141302205Y-103171124D01*
X141305800Y-103207630D01*
X141305800Y-103832850D01*
X141302205Y-103869356D01*
X141293348Y-103898553D01*
X141278967Y-103925458D01*
X141259608Y-103949048D01*
X141236018Y-103968407D01*
X141209113Y-103982788D01*
X141179916Y-103991645D01*
X141143410Y-103995240D01*
X140593190Y-103995240D01*
X140556684Y-103991645D01*
X140527487Y-103982788D01*
X140500582Y-103968407D01*
X140476992Y-103949048D01*
X140457633Y-103925458D01*
X140443252Y-103898553D01*
X140434395Y-103869356D01*
X140430800Y-103832850D01*
X140430800Y-103207630D01*
X140434395Y-103171124D01*
X140443252Y-103141927D01*
X140457633Y-103115022D01*
X140476992Y-103091432D01*
X140500582Y-103072073D01*
X140527487Y-103057692D01*
X140556684Y-103048835D01*
X140593190Y-103045240D01*
X141143410Y-103045240D01*
X141179916Y-103048835D01*
X141179916Y-103048835D01*
G37*
G36*
X185261746Y-101453788D02*
X185261749Y-101453789D01*
X185261750Y-101453789D01*
X185425745Y-101503536D01*
X185425747Y-101503537D01*
X185576886Y-101584322D01*
X185709359Y-101693041D01*
X185818078Y-101825514D01*
X185898863Y-101976653D01*
X185948612Y-102140654D01*
X185965409Y-102311200D01*
X185948612Y-102481746D01*
X185948611Y-102481749D01*
X185948611Y-102481750D01*
X185904628Y-102626745D01*
X185898863Y-102645747D01*
X185818078Y-102796886D01*
X185709359Y-102929359D01*
X185576886Y-103038078D01*
X185432933Y-103115022D01*
X185425745Y-103118864D01*
X185261750Y-103168611D01*
X185261749Y-103168611D01*
X185261746Y-103168612D01*
X185133938Y-103181200D01*
X184588462Y-103181200D01*
X184460654Y-103168612D01*
X184460651Y-103168611D01*
X184460650Y-103168611D01*
X184296655Y-103118864D01*
X184289467Y-103115022D01*
X184145514Y-103038078D01*
X184013041Y-102929359D01*
X183904322Y-102796886D01*
X183823537Y-102645747D01*
X183817773Y-102626745D01*
X183773789Y-102481750D01*
X183773789Y-102481749D01*
X183773788Y-102481746D01*
X183756991Y-102311200D01*
X183773788Y-102140654D01*
X183823537Y-101976653D01*
X183904322Y-101825514D01*
X184013041Y-101693041D01*
X184145514Y-101584322D01*
X184296653Y-101503537D01*
X184296655Y-101503536D01*
X184460650Y-101453789D01*
X184460651Y-101453789D01*
X184460654Y-101453788D01*
X184588462Y-101441200D01*
X185133938Y-101441200D01*
X185261746Y-101453788D01*
X185261746Y-101453788D01*
G37*
G36*
X173118855Y-100962285D02*
X173148931Y-100971408D01*
X173176645Y-100986222D01*
X173200940Y-101006160D01*
X173220878Y-101030455D01*
X173235692Y-101058169D01*
X173244815Y-101088245D01*
X173248500Y-101125659D01*
X173248500Y-102531541D01*
X173244815Y-102568955D01*
X173235692Y-102599031D01*
X173220878Y-102626745D01*
X173200940Y-102651040D01*
X173176645Y-102670978D01*
X173148931Y-102685792D01*
X173118855Y-102694915D01*
X173081441Y-102698600D01*
X171215559Y-102698600D01*
X171178145Y-102694915D01*
X171148069Y-102685792D01*
X171120355Y-102670978D01*
X171096060Y-102651040D01*
X171076122Y-102626745D01*
X171061308Y-102599031D01*
X171052185Y-102568955D01*
X171048500Y-102531541D01*
X171048500Y-101125659D01*
X171052185Y-101088245D01*
X171061308Y-101058169D01*
X171076122Y-101030455D01*
X171096060Y-101006160D01*
X171120355Y-100986222D01*
X171148069Y-100971408D01*
X171178145Y-100962285D01*
X171215559Y-100958600D01*
X173081441Y-100958600D01*
X173118855Y-100962285D01*
X173118855Y-100962285D01*
G37*
G36*
X148875463Y-100566220D02*
X149002854Y-100618988D01*
X149117504Y-100695594D01*
X149215006Y-100793096D01*
X149264700Y-100867469D01*
X149291612Y-100907746D01*
X149344380Y-101035137D01*
X149371280Y-101170375D01*
X149371280Y-101308265D01*
X149344380Y-101443503D01*
X149305013Y-101538541D01*
X149291612Y-101570894D01*
X149215006Y-101685544D01*
X149117504Y-101783046D01*
X149002854Y-101859652D01*
X148875463Y-101912420D01*
X148740225Y-101939320D01*
X148602335Y-101939320D01*
X148467097Y-101912420D01*
X148339706Y-101859652D01*
X148225056Y-101783046D01*
X148127554Y-101685544D01*
X148050948Y-101570894D01*
X148037547Y-101538541D01*
X147998180Y-101443503D01*
X147971280Y-101308265D01*
X147971280Y-101170375D01*
X147998180Y-101035137D01*
X148050948Y-100907746D01*
X148077860Y-100867469D01*
X148127554Y-100793096D01*
X148225056Y-100695594D01*
X148339706Y-100618988D01*
X148467097Y-100566220D01*
X148602335Y-100539320D01*
X148740225Y-100539320D01*
X148875463Y-100566220D01*
X148875463Y-100566220D01*
G37*
G36*
X145924640Y-101632120D02*
X144224640Y-101632120D01*
X144224640Y-99932120D01*
X145924640Y-99932120D01*
X145924640Y-101632120D01*
X145924640Y-101632120D01*
G37*
G36*
X137463790Y-99863139D02*
X137624015Y-99911743D01*
X137771680Y-99990671D01*
X137901109Y-100096891D01*
X138007329Y-100226320D01*
X138086257Y-100373985D01*
X138134861Y-100534210D01*
X138151272Y-100700840D01*
X138134861Y-100867470D01*
X138086257Y-101027695D01*
X138007329Y-101175360D01*
X137901109Y-101304789D01*
X137771680Y-101411009D01*
X137624015Y-101489937D01*
X137463790Y-101538541D01*
X137338912Y-101550840D01*
X137255408Y-101550840D01*
X137130530Y-101538541D01*
X136970305Y-101489937D01*
X136822640Y-101411009D01*
X136693211Y-101304789D01*
X136586991Y-101175360D01*
X136508063Y-101027695D01*
X136459459Y-100867470D01*
X136443048Y-100700840D01*
X136459459Y-100534210D01*
X136508063Y-100373985D01*
X136586991Y-100226320D01*
X136693211Y-100096891D01*
X136822640Y-99990671D01*
X136970305Y-99911743D01*
X137130530Y-99863139D01*
X137255408Y-99850840D01*
X137338912Y-99850840D01*
X137463790Y-99863139D01*
X137463790Y-99863139D01*
G37*
G36*
X140687160Y-101550840D02*
X138987160Y-101550840D01*
X138987160Y-99850840D01*
X140687160Y-99850840D01*
X140687160Y-101550840D01*
X140687160Y-101550840D01*
G37*
G36*
X165991274Y-98674962D02*
X166204204Y-98763160D01*
X166395833Y-98891203D01*
X166558797Y-99054167D01*
X166686840Y-99245796D01*
X166775038Y-99458726D01*
X166820000Y-99684764D01*
X166820000Y-99915236D01*
X166775038Y-100141274D01*
X166686840Y-100354204D01*
X166558797Y-100545833D01*
X166395833Y-100708797D01*
X166204204Y-100836840D01*
X165991274Y-100925038D01*
X165765236Y-100970000D01*
X165534764Y-100970000D01*
X165308726Y-100925038D01*
X165095796Y-100836840D01*
X164904167Y-100708797D01*
X164741203Y-100545833D01*
X164613160Y-100354204D01*
X164524962Y-100141274D01*
X164480000Y-99915236D01*
X164480000Y-99684764D01*
X164524962Y-99458726D01*
X164613160Y-99245796D01*
X164741203Y-99054167D01*
X164904167Y-98891203D01*
X165095796Y-98763160D01*
X165308726Y-98674962D01*
X165534764Y-98630000D01*
X165765236Y-98630000D01*
X165991274Y-98674962D01*
X165991274Y-98674962D01*
G37*
G36*
X161001274Y-98664962D02*
X161214204Y-98753160D01*
X161405833Y-98881203D01*
X161568797Y-99044167D01*
X161696840Y-99235796D01*
X161785038Y-99448726D01*
X161830000Y-99674764D01*
X161830000Y-99905236D01*
X161785038Y-100131274D01*
X161696840Y-100344204D01*
X161568797Y-100535833D01*
X161405833Y-100698797D01*
X161214204Y-100826840D01*
X161001274Y-100915038D01*
X160775236Y-100960000D01*
X160544764Y-100960000D01*
X160318726Y-100915038D01*
X160105796Y-100826840D01*
X159914167Y-100698797D01*
X159751203Y-100535833D01*
X159623160Y-100344204D01*
X159534962Y-100131274D01*
X159490000Y-99905236D01*
X159490000Y-99674764D01*
X159534962Y-99448726D01*
X159623160Y-99235796D01*
X159751203Y-99044167D01*
X159914167Y-98881203D01*
X160105796Y-98753160D01*
X160318726Y-98664962D01*
X160544764Y-98620000D01*
X160775236Y-98620000D01*
X161001274Y-98664962D01*
X161001274Y-98664962D01*
G37*
G36*
X134512992Y-99250863D02*
X134658581Y-99311168D01*
X134789613Y-99398721D01*
X134901039Y-99510147D01*
X134988592Y-99641179D01*
X135048897Y-99786768D01*
X135079640Y-99941325D01*
X135079640Y-100098915D01*
X135048897Y-100253472D01*
X134988592Y-100399061D01*
X134901039Y-100530093D01*
X134789613Y-100641519D01*
X134658581Y-100729072D01*
X134512992Y-100789377D01*
X134358435Y-100820120D01*
X134200845Y-100820120D01*
X134046288Y-100789377D01*
X133900699Y-100729072D01*
X133769667Y-100641519D01*
X133658241Y-100530093D01*
X133570688Y-100399061D01*
X133510383Y-100253472D01*
X133479640Y-100098915D01*
X133479640Y-99941325D01*
X133510383Y-99786768D01*
X133570688Y-99641179D01*
X133658241Y-99510147D01*
X133769667Y-99398721D01*
X133900699Y-99311168D01*
X134046288Y-99250863D01*
X134200845Y-99220120D01*
X134358435Y-99220120D01*
X134512992Y-99250863D01*
X134512992Y-99250863D01*
G37*
G36*
X129512992Y-99250863D02*
X129658581Y-99311168D01*
X129789613Y-99398721D01*
X129901039Y-99510147D01*
X129988592Y-99641179D01*
X130048897Y-99786768D01*
X130079640Y-99941325D01*
X130079640Y-100098915D01*
X130048897Y-100253472D01*
X129988592Y-100399061D01*
X129901039Y-100530093D01*
X129789613Y-100641519D01*
X129658581Y-100729072D01*
X129512992Y-100789377D01*
X129358435Y-100820120D01*
X129200845Y-100820120D01*
X129046288Y-100789377D01*
X128900699Y-100729072D01*
X128769667Y-100641519D01*
X128658241Y-100530093D01*
X128570688Y-100399061D01*
X128510383Y-100253472D01*
X128479640Y-100098915D01*
X128479640Y-99941325D01*
X128510383Y-99786768D01*
X128570688Y-99641179D01*
X128658241Y-99510147D01*
X128769667Y-99398721D01*
X128900699Y-99311168D01*
X129046288Y-99250863D01*
X129200845Y-99220120D01*
X129358435Y-99220120D01*
X129512992Y-99250863D01*
X129512992Y-99250863D01*
G37*
G36*
X156865368Y-99093928D02*
X157012779Y-99154987D01*
X157145448Y-99243634D01*
X157258266Y-99356452D01*
X157346913Y-99489121D01*
X157407972Y-99636532D01*
X157439100Y-99793022D01*
X157439100Y-99952578D01*
X157407972Y-100109068D01*
X157346913Y-100256479D01*
X157258266Y-100389148D01*
X157145448Y-100501966D01*
X157012779Y-100590613D01*
X156889875Y-100641521D01*
X156865368Y-100651672D01*
X156708878Y-100682800D01*
X156549322Y-100682800D01*
X156392832Y-100651672D01*
X156368325Y-100641521D01*
X156245421Y-100590613D01*
X156112752Y-100501966D01*
X155999934Y-100389148D01*
X155911287Y-100256479D01*
X155850228Y-100109068D01*
X155819100Y-99952578D01*
X155819100Y-99793022D01*
X155850228Y-99636532D01*
X155911287Y-99489121D01*
X155999934Y-99356452D01*
X156112752Y-99243634D01*
X156245421Y-99154987D01*
X156392832Y-99093928D01*
X156549322Y-99062800D01*
X156708878Y-99062800D01*
X156865368Y-99093928D01*
X156865368Y-99093928D01*
G37*
G36*
X151865368Y-99093928D02*
X152012779Y-99154987D01*
X152145448Y-99243634D01*
X152258266Y-99356452D01*
X152346913Y-99489121D01*
X152407972Y-99636532D01*
X152439100Y-99793022D01*
X152439100Y-99952578D01*
X152407972Y-100109068D01*
X152346913Y-100256479D01*
X152258266Y-100389148D01*
X152145448Y-100501966D01*
X152012779Y-100590613D01*
X151889875Y-100641521D01*
X151865368Y-100651672D01*
X151708878Y-100682800D01*
X151549322Y-100682800D01*
X151392832Y-100651672D01*
X151368325Y-100641521D01*
X151245421Y-100590613D01*
X151112752Y-100501966D01*
X150999934Y-100389148D01*
X150911287Y-100256479D01*
X150850228Y-100109068D01*
X150819100Y-99952578D01*
X150819100Y-99793022D01*
X150850228Y-99636532D01*
X150911287Y-99489121D01*
X150999934Y-99356452D01*
X151112752Y-99243634D01*
X151245421Y-99154987D01*
X151392832Y-99093928D01*
X151549322Y-99062800D01*
X151708878Y-99062800D01*
X151865368Y-99093928D01*
X151865368Y-99093928D01*
G37*
G36*
X172549046Y-98431188D02*
X172549049Y-98431189D01*
X172549050Y-98431189D01*
X172713045Y-98480936D01*
X172713047Y-98480937D01*
X172864186Y-98561722D01*
X172996659Y-98670441D01*
X173105378Y-98802914D01*
X173152569Y-98891203D01*
X173186164Y-98954055D01*
X173235911Y-99118050D01*
X173235912Y-99118054D01*
X173252709Y-99288600D01*
X173235912Y-99459146D01*
X173186163Y-99623147D01*
X173105378Y-99774286D01*
X172996659Y-99906759D01*
X172864186Y-100015478D01*
X172713047Y-100096263D01*
X172713045Y-100096264D01*
X172549050Y-100146011D01*
X172549049Y-100146011D01*
X172549046Y-100146012D01*
X172421238Y-100158600D01*
X171875762Y-100158600D01*
X171747954Y-100146012D01*
X171747951Y-100146011D01*
X171747950Y-100146011D01*
X171583955Y-100096264D01*
X171583953Y-100096263D01*
X171432814Y-100015478D01*
X171300341Y-99906759D01*
X171191622Y-99774286D01*
X171110837Y-99623147D01*
X171061088Y-99459146D01*
X171044291Y-99288600D01*
X171061088Y-99118054D01*
X171061089Y-99118050D01*
X171110836Y-98954055D01*
X171144431Y-98891203D01*
X171191622Y-98802914D01*
X171300341Y-98670441D01*
X171432814Y-98561722D01*
X171583953Y-98480937D01*
X171583955Y-98480936D01*
X171747950Y-98431189D01*
X171747951Y-98431189D01*
X171747954Y-98431188D01*
X171875762Y-98418600D01*
X172421238Y-98418600D01*
X172549046Y-98431188D01*
X172549046Y-98431188D01*
G37*
G36*
X148875463Y-98066220D02*
X149002854Y-98118988D01*
X149117505Y-98195595D01*
X149215005Y-98293095D01*
X149291612Y-98407746D01*
X149344380Y-98535137D01*
X149371280Y-98670375D01*
X149371280Y-98808265D01*
X149344380Y-98943503D01*
X149298540Y-99054169D01*
X149291612Y-99070894D01*
X149215006Y-99185544D01*
X149117504Y-99283046D01*
X149007643Y-99356452D01*
X149002854Y-99359652D01*
X148875463Y-99412420D01*
X148740225Y-99439320D01*
X148602335Y-99439320D01*
X148467097Y-99412420D01*
X148339706Y-99359652D01*
X148334917Y-99356452D01*
X148225056Y-99283046D01*
X148127554Y-99185544D01*
X148050948Y-99070894D01*
X148044020Y-99054169D01*
X147998180Y-98943503D01*
X147971280Y-98808265D01*
X147971280Y-98670375D01*
X147998180Y-98535137D01*
X148050948Y-98407746D01*
X148127555Y-98293095D01*
X148225055Y-98195595D01*
X148339706Y-98118988D01*
X148467097Y-98066220D01*
X148602335Y-98039320D01*
X148740225Y-98039320D01*
X148875463Y-98066220D01*
X148875463Y-98066220D01*
G37*
G36*
X178227000Y-99438800D02*
X177627000Y-99438800D01*
X177627000Y-97888800D01*
X178227000Y-97888800D01*
X178227000Y-99438800D01*
X178227000Y-99438800D01*
G37*
G36*
X179497000Y-99438800D02*
X178897000Y-99438800D01*
X178897000Y-97888800D01*
X179497000Y-97888800D01*
X179497000Y-99438800D01*
X179497000Y-99438800D01*
G37*
G36*
X180767000Y-99438800D02*
X180167000Y-99438800D01*
X180167000Y-97888800D01*
X180767000Y-97888800D01*
X180767000Y-99438800D01*
X180767000Y-99438800D01*
G37*
G36*
X176957000Y-99438800D02*
X176357000Y-99438800D01*
X176357000Y-97888800D01*
X176957000Y-97888800D01*
X176957000Y-99438800D01*
X176957000Y-99438800D01*
G37*
G36*
X145241270Y-97404419D02*
X145401495Y-97453023D01*
X145549160Y-97531951D01*
X145678589Y-97638171D01*
X145784809Y-97767600D01*
X145863737Y-97915265D01*
X145912341Y-98075490D01*
X145928752Y-98242120D01*
X145912341Y-98408750D01*
X145863737Y-98568975D01*
X145784809Y-98716640D01*
X145678589Y-98846069D01*
X145549160Y-98952289D01*
X145401495Y-99031217D01*
X145241270Y-99079821D01*
X145116392Y-99092120D01*
X145032888Y-99092120D01*
X144908010Y-99079821D01*
X144747785Y-99031217D01*
X144600120Y-98952289D01*
X144470691Y-98846069D01*
X144364471Y-98716640D01*
X144285543Y-98568975D01*
X144236939Y-98408750D01*
X144220528Y-98242120D01*
X144236939Y-98075490D01*
X144285543Y-97915265D01*
X144364471Y-97767600D01*
X144470691Y-97638171D01*
X144600120Y-97531951D01*
X144747785Y-97453023D01*
X144908010Y-97404419D01*
X145032888Y-97392120D01*
X145116392Y-97392120D01*
X145241270Y-97404419D01*
X145241270Y-97404419D01*
G37*
G36*
X138533136Y-96678515D02*
X138562333Y-96687372D01*
X138589238Y-96701753D01*
X138612828Y-96721112D01*
X138632187Y-96744702D01*
X138646568Y-96771607D01*
X138655425Y-96800804D01*
X138659020Y-96837310D01*
X138659020Y-97462530D01*
X138655425Y-97499036D01*
X138646568Y-97528233D01*
X138632187Y-97555138D01*
X138612828Y-97578728D01*
X138589238Y-97598087D01*
X138562333Y-97612468D01*
X138533136Y-97621325D01*
X138496630Y-97624920D01*
X137946410Y-97624920D01*
X137909904Y-97621325D01*
X137880707Y-97612468D01*
X137853802Y-97598087D01*
X137830212Y-97578728D01*
X137810853Y-97555138D01*
X137796472Y-97528233D01*
X137787615Y-97499036D01*
X137784020Y-97462530D01*
X137784020Y-96837310D01*
X137787615Y-96800804D01*
X137796472Y-96771607D01*
X137810853Y-96744702D01*
X137830212Y-96721112D01*
X137853802Y-96701753D01*
X137880707Y-96687372D01*
X137909904Y-96678515D01*
X137946410Y-96674920D01*
X138496630Y-96674920D01*
X138533136Y-96678515D01*
X138533136Y-96678515D01*
G37*
G36*
X140108136Y-96678515D02*
X140137333Y-96687372D01*
X140164238Y-96701753D01*
X140187828Y-96721112D01*
X140207187Y-96744702D01*
X140221568Y-96771607D01*
X140230425Y-96800804D01*
X140234020Y-96837310D01*
X140234020Y-97462530D01*
X140230425Y-97499036D01*
X140221568Y-97528233D01*
X140207187Y-97555138D01*
X140187828Y-97578728D01*
X140164238Y-97598087D01*
X140137333Y-97612468D01*
X140108136Y-97621325D01*
X140071630Y-97624920D01*
X139521410Y-97624920D01*
X139484904Y-97621325D01*
X139455707Y-97612468D01*
X139428802Y-97598087D01*
X139405212Y-97578728D01*
X139385853Y-97555138D01*
X139371472Y-97528233D01*
X139362615Y-97499036D01*
X139359020Y-97462530D01*
X139359020Y-96837310D01*
X139362615Y-96800804D01*
X139371472Y-96771607D01*
X139385853Y-96744702D01*
X139405212Y-96721112D01*
X139428802Y-96701753D01*
X139455707Y-96687372D01*
X139484904Y-96678515D01*
X139521410Y-96674920D01*
X140071630Y-96674920D01*
X140108136Y-96678515D01*
X140108136Y-96678515D01*
G37*
G36*
X135951943Y-96080580D02*
X136079334Y-96133348D01*
X136193985Y-96209955D01*
X136291485Y-96307455D01*
X136368092Y-96422106D01*
X136420860Y-96549497D01*
X136447760Y-96684735D01*
X136447760Y-96822625D01*
X136420860Y-96957863D01*
X136368092Y-97085254D01*
X136291485Y-97199905D01*
X136193985Y-97297405D01*
X136079334Y-97374012D01*
X135951943Y-97426780D01*
X135816705Y-97453680D01*
X135678815Y-97453680D01*
X135543577Y-97426780D01*
X135416186Y-97374012D01*
X135301535Y-97297405D01*
X135204035Y-97199905D01*
X135127428Y-97085254D01*
X135074660Y-96957863D01*
X135047760Y-96822625D01*
X135047760Y-96684735D01*
X135074660Y-96549497D01*
X135127428Y-96422106D01*
X135204035Y-96307455D01*
X135301535Y-96209955D01*
X135416186Y-96133348D01*
X135543577Y-96080580D01*
X135678815Y-96053680D01*
X135816705Y-96053680D01*
X135951943Y-96080580D01*
X135951943Y-96080580D01*
G37*
G36*
X132395943Y-96080580D02*
X132523334Y-96133348D01*
X132637985Y-96209955D01*
X132735485Y-96307455D01*
X132812092Y-96422106D01*
X132864860Y-96549497D01*
X132891760Y-96684735D01*
X132891760Y-96822625D01*
X132864860Y-96957863D01*
X132812092Y-97085254D01*
X132735485Y-97199905D01*
X132637985Y-97297405D01*
X132523334Y-97374012D01*
X132395943Y-97426780D01*
X132260705Y-97453680D01*
X132122815Y-97453680D01*
X131987577Y-97426780D01*
X131860186Y-97374012D01*
X131745535Y-97297405D01*
X131648035Y-97199905D01*
X131571428Y-97085254D01*
X131518660Y-96957863D01*
X131491760Y-96822625D01*
X131491760Y-96684735D01*
X131518660Y-96549497D01*
X131571428Y-96422106D01*
X131648035Y-96307455D01*
X131745535Y-96209955D01*
X131860186Y-96133348D01*
X131987577Y-96080580D01*
X132122815Y-96053680D01*
X132260705Y-96053680D01*
X132395943Y-96080580D01*
X132395943Y-96080580D01*
G37*
G36*
X161001274Y-94674962D02*
X161214204Y-94763160D01*
X161405833Y-94891203D01*
X161568797Y-95054167D01*
X161696840Y-95245796D01*
X161785038Y-95458726D01*
X161830000Y-95684764D01*
X161830000Y-95915236D01*
X161785038Y-96141274D01*
X161696840Y-96354204D01*
X161568797Y-96545833D01*
X161405833Y-96708797D01*
X161214204Y-96836840D01*
X161001274Y-96925038D01*
X160775236Y-96970000D01*
X160544764Y-96970000D01*
X160318726Y-96925038D01*
X160105796Y-96836840D01*
X159914167Y-96708797D01*
X159751203Y-96545833D01*
X159623160Y-96354204D01*
X159534962Y-96141274D01*
X159490000Y-95915236D01*
X159490000Y-95684764D01*
X159534962Y-95458726D01*
X159623160Y-95245796D01*
X159751203Y-95054167D01*
X159914167Y-94891203D01*
X160105796Y-94763160D01*
X160318726Y-94674962D01*
X160544764Y-94630000D01*
X160775236Y-94630000D01*
X161001274Y-94674962D01*
X161001274Y-94674962D01*
G37*
G36*
X166001274Y-94674962D02*
X166214204Y-94763160D01*
X166405833Y-94891203D01*
X166568797Y-95054167D01*
X166696840Y-95245796D01*
X166785038Y-95458726D01*
X166830000Y-95684764D01*
X166830000Y-95915236D01*
X166785038Y-96141274D01*
X166696840Y-96354204D01*
X166568797Y-96545833D01*
X166405833Y-96708797D01*
X166214204Y-96836840D01*
X166001274Y-96925038D01*
X165775236Y-96970000D01*
X165544764Y-96970000D01*
X165318726Y-96925038D01*
X165105796Y-96836840D01*
X164914167Y-96708797D01*
X164751203Y-96545833D01*
X164623160Y-96354204D01*
X164534962Y-96141274D01*
X164490000Y-95915236D01*
X164490000Y-95684764D01*
X164534962Y-95458726D01*
X164623160Y-95245796D01*
X164751203Y-95054167D01*
X164914167Y-94891203D01*
X165105796Y-94763160D01*
X165318726Y-94674962D01*
X165544764Y-94630000D01*
X165775236Y-94630000D01*
X166001274Y-94674962D01*
X166001274Y-94674962D01*
G37*
G36*
X185856576Y-95388586D02*
X185885773Y-95397443D01*
X185912678Y-95411824D01*
X185936268Y-95431183D01*
X185955627Y-95454773D01*
X185970008Y-95481678D01*
X185978865Y-95510875D01*
X185982460Y-95547381D01*
X185982460Y-96172601D01*
X185978865Y-96209107D01*
X185970008Y-96238304D01*
X185955627Y-96265209D01*
X185936268Y-96288799D01*
X185912678Y-96308158D01*
X185885773Y-96322539D01*
X185856576Y-96331396D01*
X185820070Y-96334991D01*
X185269850Y-96334991D01*
X185233344Y-96331396D01*
X185204147Y-96322539D01*
X185177242Y-96308158D01*
X185153652Y-96288799D01*
X185134293Y-96265209D01*
X185119912Y-96238304D01*
X185111055Y-96209107D01*
X185107460Y-96172601D01*
X185107460Y-95547381D01*
X185111055Y-95510875D01*
X185119912Y-95481678D01*
X185134293Y-95454773D01*
X185153652Y-95431183D01*
X185177242Y-95411824D01*
X185204147Y-95397443D01*
X185233344Y-95388586D01*
X185269850Y-95384991D01*
X185820070Y-95384991D01*
X185856576Y-95388586D01*
X185856576Y-95388586D01*
G37*
G36*
X184281576Y-95388586D02*
X184310773Y-95397443D01*
X184337678Y-95411824D01*
X184361268Y-95431183D01*
X184380627Y-95454773D01*
X184395008Y-95481678D01*
X184403865Y-95510875D01*
X184407460Y-95547381D01*
X184407460Y-96172601D01*
X184403865Y-96209107D01*
X184395008Y-96238304D01*
X184380627Y-96265209D01*
X184361268Y-96288799D01*
X184337678Y-96308158D01*
X184310773Y-96322539D01*
X184281576Y-96331396D01*
X184245070Y-96334991D01*
X183694850Y-96334991D01*
X183658344Y-96331396D01*
X183629147Y-96322539D01*
X183602242Y-96308158D01*
X183578652Y-96288799D01*
X183559293Y-96265209D01*
X183544912Y-96238304D01*
X183536055Y-96209107D01*
X183532460Y-96172601D01*
X183532460Y-95547381D01*
X183536055Y-95510875D01*
X183544912Y-95481678D01*
X183559293Y-95454773D01*
X183578652Y-95431183D01*
X183602242Y-95411824D01*
X183629147Y-95397443D01*
X183658344Y-95388586D01*
X183694850Y-95384991D01*
X184245070Y-95384991D01*
X184281576Y-95388586D01*
X184281576Y-95388586D01*
G37*
G36*
X176564909Y-95388586D02*
X176594106Y-95397443D01*
X176621011Y-95411824D01*
X176644601Y-95431183D01*
X176663960Y-95454773D01*
X176678341Y-95481678D01*
X176687198Y-95510875D01*
X176690793Y-95547381D01*
X176690793Y-96172601D01*
X176687198Y-96209107D01*
X176678341Y-96238304D01*
X176663960Y-96265209D01*
X176644601Y-96288799D01*
X176621011Y-96308158D01*
X176594106Y-96322539D01*
X176564909Y-96331396D01*
X176528403Y-96334991D01*
X175978183Y-96334991D01*
X175941677Y-96331396D01*
X175912480Y-96322539D01*
X175885575Y-96308158D01*
X175861985Y-96288799D01*
X175842626Y-96265209D01*
X175828245Y-96238304D01*
X175819388Y-96209107D01*
X175815793Y-96172601D01*
X175815793Y-95547381D01*
X175819388Y-95510875D01*
X175828245Y-95481678D01*
X175842626Y-95454773D01*
X175861985Y-95431183D01*
X175885575Y-95411824D01*
X175912480Y-95397443D01*
X175941677Y-95388586D01*
X175978183Y-95384991D01*
X176528403Y-95384991D01*
X176564909Y-95388586D01*
X176564909Y-95388586D01*
G37*
G36*
X180423242Y-95388586D02*
X180452439Y-95397443D01*
X180479344Y-95411824D01*
X180502934Y-95431183D01*
X180522293Y-95454773D01*
X180536674Y-95481678D01*
X180545531Y-95510875D01*
X180549126Y-95547381D01*
X180549126Y-96172601D01*
X180545531Y-96209107D01*
X180536674Y-96238304D01*
X180522293Y-96265209D01*
X180502934Y-96288799D01*
X180479344Y-96308158D01*
X180452439Y-96322539D01*
X180423242Y-96331396D01*
X180386736Y-96334991D01*
X179836516Y-96334991D01*
X179800010Y-96331396D01*
X179770813Y-96322539D01*
X179743908Y-96308158D01*
X179720318Y-96288799D01*
X179700959Y-96265209D01*
X179686578Y-96238304D01*
X179677721Y-96209107D01*
X179674126Y-96172601D01*
X179674126Y-95547381D01*
X179677721Y-95510875D01*
X179686578Y-95481678D01*
X179700959Y-95454773D01*
X179720318Y-95431183D01*
X179743908Y-95411824D01*
X179770813Y-95397443D01*
X179800010Y-95388586D01*
X179836516Y-95384991D01*
X180386736Y-95384991D01*
X180423242Y-95388586D01*
X180423242Y-95388586D01*
G37*
G36*
X174281576Y-95388586D02*
X174310773Y-95397443D01*
X174337678Y-95411824D01*
X174361268Y-95431183D01*
X174380627Y-95454773D01*
X174395008Y-95481678D01*
X174403865Y-95510875D01*
X174407460Y-95547381D01*
X174407460Y-96172601D01*
X174403865Y-96209107D01*
X174395008Y-96238304D01*
X174380627Y-96265209D01*
X174361268Y-96288799D01*
X174337678Y-96308158D01*
X174310773Y-96322539D01*
X174281576Y-96331396D01*
X174245070Y-96334991D01*
X173694850Y-96334991D01*
X173658344Y-96331396D01*
X173629147Y-96322539D01*
X173602242Y-96308158D01*
X173578652Y-96288799D01*
X173559293Y-96265209D01*
X173544912Y-96238304D01*
X173536055Y-96209107D01*
X173532460Y-96172601D01*
X173532460Y-95547381D01*
X173536055Y-95510875D01*
X173544912Y-95481678D01*
X173559293Y-95454773D01*
X173578652Y-95431183D01*
X173602242Y-95411824D01*
X173629147Y-95397443D01*
X173658344Y-95388586D01*
X173694850Y-95384991D01*
X174245070Y-95384991D01*
X174281576Y-95388586D01*
X174281576Y-95388586D01*
G37*
G36*
X178139909Y-95388586D02*
X178169106Y-95397443D01*
X178196011Y-95411824D01*
X178219601Y-95431183D01*
X178238960Y-95454773D01*
X178253341Y-95481678D01*
X178262198Y-95510875D01*
X178265793Y-95547381D01*
X178265793Y-96172601D01*
X178262198Y-96209107D01*
X178253341Y-96238304D01*
X178238960Y-96265209D01*
X178219601Y-96288799D01*
X178196011Y-96308158D01*
X178169106Y-96322539D01*
X178139909Y-96331396D01*
X178103403Y-96334991D01*
X177553183Y-96334991D01*
X177516677Y-96331396D01*
X177487480Y-96322539D01*
X177460575Y-96308158D01*
X177436985Y-96288799D01*
X177417626Y-96265209D01*
X177403245Y-96238304D01*
X177394388Y-96209107D01*
X177390793Y-96172601D01*
X177390793Y-95547381D01*
X177394388Y-95510875D01*
X177403245Y-95481678D01*
X177417626Y-95454773D01*
X177436985Y-95431183D01*
X177460575Y-95411824D01*
X177487480Y-95397443D01*
X177516677Y-95388586D01*
X177553183Y-95384991D01*
X178103403Y-95384991D01*
X178139909Y-95388586D01*
X178139909Y-95388586D01*
G37*
G36*
X181998242Y-95388586D02*
X182027439Y-95397443D01*
X182054344Y-95411824D01*
X182077934Y-95431183D01*
X182097293Y-95454773D01*
X182111674Y-95481678D01*
X182120531Y-95510875D01*
X182124126Y-95547381D01*
X182124126Y-96172601D01*
X182120531Y-96209107D01*
X182111674Y-96238304D01*
X182097293Y-96265209D01*
X182077934Y-96288799D01*
X182054344Y-96308158D01*
X182027439Y-96322539D01*
X181998242Y-96331396D01*
X181961736Y-96334991D01*
X181411516Y-96334991D01*
X181375010Y-96331396D01*
X181345813Y-96322539D01*
X181318908Y-96308158D01*
X181295318Y-96288799D01*
X181275959Y-96265209D01*
X181261578Y-96238304D01*
X181252721Y-96209107D01*
X181249126Y-96172601D01*
X181249126Y-95547381D01*
X181252721Y-95510875D01*
X181261578Y-95481678D01*
X181275959Y-95454773D01*
X181295318Y-95431183D01*
X181318908Y-95411824D01*
X181345813Y-95397443D01*
X181375010Y-95388586D01*
X181411516Y-95384991D01*
X181961736Y-95384991D01*
X181998242Y-95388586D01*
X181998242Y-95388586D01*
G37*
G36*
X172706576Y-95388586D02*
X172735773Y-95397443D01*
X172762678Y-95411824D01*
X172786268Y-95431183D01*
X172805627Y-95454773D01*
X172820008Y-95481678D01*
X172828865Y-95510875D01*
X172832460Y-95547381D01*
X172832460Y-96172601D01*
X172828865Y-96209107D01*
X172820008Y-96238304D01*
X172805627Y-96265209D01*
X172786268Y-96288799D01*
X172762678Y-96308158D01*
X172735773Y-96322539D01*
X172706576Y-96331396D01*
X172670070Y-96334991D01*
X172119850Y-96334991D01*
X172083344Y-96331396D01*
X172054147Y-96322539D01*
X172027242Y-96308158D01*
X172003652Y-96288799D01*
X171984293Y-96265209D01*
X171969912Y-96238304D01*
X171961055Y-96209107D01*
X171957460Y-96172601D01*
X171957460Y-95547381D01*
X171961055Y-95510875D01*
X171969912Y-95481678D01*
X171984293Y-95454773D01*
X172003652Y-95431183D01*
X172027242Y-95411824D01*
X172054147Y-95397443D01*
X172083344Y-95388586D01*
X172119850Y-95384991D01*
X172670070Y-95384991D01*
X172706576Y-95388586D01*
X172706576Y-95388586D01*
G37*
G36*
X140092996Y-95174835D02*
X140122193Y-95183692D01*
X140149098Y-95198073D01*
X140172688Y-95217432D01*
X140192047Y-95241022D01*
X140206428Y-95267927D01*
X140215285Y-95297124D01*
X140218880Y-95333630D01*
X140218880Y-95958850D01*
X140215285Y-95995356D01*
X140206428Y-96024553D01*
X140192047Y-96051458D01*
X140172688Y-96075048D01*
X140149098Y-96094407D01*
X140122193Y-96108788D01*
X140092996Y-96117645D01*
X140056490Y-96121240D01*
X139506270Y-96121240D01*
X139469764Y-96117645D01*
X139440567Y-96108788D01*
X139413662Y-96094407D01*
X139390072Y-96075048D01*
X139370713Y-96051458D01*
X139356332Y-96024553D01*
X139347475Y-95995356D01*
X139343880Y-95958850D01*
X139343880Y-95333630D01*
X139347475Y-95297124D01*
X139356332Y-95267927D01*
X139370713Y-95241022D01*
X139390072Y-95217432D01*
X139413662Y-95198073D01*
X139440567Y-95183692D01*
X139469764Y-95174835D01*
X139506270Y-95171240D01*
X140056490Y-95171240D01*
X140092996Y-95174835D01*
X140092996Y-95174835D01*
G37*
G36*
X141520276Y-95174835D02*
X141549473Y-95183692D01*
X141576378Y-95198073D01*
X141599968Y-95217432D01*
X141619327Y-95241022D01*
X141633708Y-95267927D01*
X141642565Y-95297124D01*
X141646160Y-95333630D01*
X141646160Y-95958850D01*
X141642565Y-95995356D01*
X141633708Y-96024553D01*
X141619327Y-96051458D01*
X141599968Y-96075048D01*
X141576378Y-96094407D01*
X141549473Y-96108788D01*
X141520276Y-96117645D01*
X141483770Y-96121240D01*
X140933550Y-96121240D01*
X140897044Y-96117645D01*
X140867847Y-96108788D01*
X140840942Y-96094407D01*
X140817352Y-96075048D01*
X140797993Y-96051458D01*
X140783612Y-96024553D01*
X140774755Y-95995356D01*
X140771160Y-95958850D01*
X140771160Y-95333630D01*
X140774755Y-95297124D01*
X140783612Y-95267927D01*
X140797993Y-95241022D01*
X140817352Y-95217432D01*
X140840942Y-95198073D01*
X140867847Y-95183692D01*
X140897044Y-95174835D01*
X140933550Y-95171240D01*
X141483770Y-95171240D01*
X141520276Y-95174835D01*
X141520276Y-95174835D01*
G37*
G36*
X143095276Y-95174835D02*
X143124473Y-95183692D01*
X143151378Y-95198073D01*
X143174968Y-95217432D01*
X143194327Y-95241022D01*
X143208708Y-95267927D01*
X143217565Y-95297124D01*
X143221160Y-95333630D01*
X143221160Y-95958850D01*
X143217565Y-95995356D01*
X143208708Y-96024553D01*
X143194327Y-96051458D01*
X143174968Y-96075048D01*
X143151378Y-96094407D01*
X143124473Y-96108788D01*
X143095276Y-96117645D01*
X143058770Y-96121240D01*
X142508550Y-96121240D01*
X142472044Y-96117645D01*
X142442847Y-96108788D01*
X142415942Y-96094407D01*
X142392352Y-96075048D01*
X142372993Y-96051458D01*
X142358612Y-96024553D01*
X142349755Y-95995356D01*
X142346160Y-95958850D01*
X142346160Y-95333630D01*
X142349755Y-95297124D01*
X142358612Y-95267927D01*
X142372993Y-95241022D01*
X142392352Y-95217432D01*
X142415942Y-95198073D01*
X142442847Y-95183692D01*
X142472044Y-95174835D01*
X142508550Y-95171240D01*
X143058770Y-95171240D01*
X143095276Y-95174835D01*
X143095276Y-95174835D01*
G37*
G36*
X138517996Y-95174835D02*
X138547193Y-95183692D01*
X138574098Y-95198073D01*
X138597688Y-95217432D01*
X138617047Y-95241022D01*
X138631428Y-95267927D01*
X138640285Y-95297124D01*
X138643880Y-95333630D01*
X138643880Y-95958850D01*
X138640285Y-95995356D01*
X138631428Y-96024553D01*
X138617047Y-96051458D01*
X138597688Y-96075048D01*
X138574098Y-96094407D01*
X138547193Y-96108788D01*
X138517996Y-96117645D01*
X138481490Y-96121240D01*
X137931270Y-96121240D01*
X137894764Y-96117645D01*
X137865567Y-96108788D01*
X137838662Y-96094407D01*
X137815072Y-96075048D01*
X137795713Y-96051458D01*
X137781332Y-96024553D01*
X137772475Y-95995356D01*
X137768880Y-95958850D01*
X137768880Y-95333630D01*
X137772475Y-95297124D01*
X137781332Y-95267927D01*
X137795713Y-95241022D01*
X137815072Y-95217432D01*
X137838662Y-95198073D01*
X137865567Y-95183692D01*
X137894764Y-95174835D01*
X137931270Y-95171240D01*
X138481490Y-95171240D01*
X138517996Y-95174835D01*
X138517996Y-95174835D01*
G37*
G36*
X148819583Y-94399100D02*
X148942387Y-94449968D01*
X148946974Y-94451868D01*
X149061624Y-94528474D01*
X149159126Y-94625976D01*
X149166179Y-94636532D01*
X149235732Y-94740626D01*
X149288500Y-94868017D01*
X149315400Y-95003255D01*
X149315400Y-95141145D01*
X149288500Y-95276383D01*
X149238354Y-95397443D01*
X149235732Y-95403774D01*
X149160396Y-95516524D01*
X149159125Y-95518425D01*
X149061625Y-95615925D01*
X148946974Y-95692532D01*
X148819583Y-95745300D01*
X148684345Y-95772200D01*
X148546455Y-95772200D01*
X148411217Y-95745300D01*
X148283826Y-95692532D01*
X148169175Y-95615925D01*
X148071675Y-95518425D01*
X148070405Y-95516524D01*
X147995068Y-95403774D01*
X147992446Y-95397443D01*
X147942300Y-95276383D01*
X147915400Y-95141145D01*
X147915400Y-95003255D01*
X147942300Y-94868017D01*
X147995068Y-94740626D01*
X148064621Y-94636532D01*
X148071674Y-94625976D01*
X148169176Y-94528474D01*
X148283826Y-94451868D01*
X148288413Y-94449968D01*
X148411217Y-94399100D01*
X148546455Y-94372200D01*
X148684345Y-94372200D01*
X148819583Y-94399100D01*
X148819583Y-94399100D01*
G37*
G36*
X145492183Y-94397200D02*
X145590898Y-94438090D01*
X145619574Y-94449968D01*
X145734224Y-94526574D01*
X145831726Y-94624076D01*
X145865727Y-94674963D01*
X145908332Y-94738726D01*
X145961100Y-94866117D01*
X145988000Y-95001355D01*
X145988000Y-95139245D01*
X145961100Y-95274483D01*
X145910167Y-95397443D01*
X145908332Y-95401874D01*
X145831726Y-95516524D01*
X145734224Y-95614026D01*
X145628356Y-95684764D01*
X145619574Y-95690632D01*
X145492183Y-95743400D01*
X145356945Y-95770300D01*
X145219055Y-95770300D01*
X145083817Y-95743400D01*
X144956426Y-95690632D01*
X144947644Y-95684764D01*
X144841776Y-95614026D01*
X144744274Y-95516524D01*
X144667668Y-95401874D01*
X144665833Y-95397443D01*
X144614900Y-95274483D01*
X144588000Y-95139245D01*
X144588000Y-95001355D01*
X144614900Y-94866117D01*
X144667668Y-94738726D01*
X144710273Y-94674963D01*
X144744274Y-94624076D01*
X144841776Y-94526574D01*
X144956426Y-94449968D01*
X144985102Y-94438090D01*
X145083817Y-94397200D01*
X145219055Y-94370300D01*
X145356945Y-94370300D01*
X145492183Y-94397200D01*
X145492183Y-94397200D01*
G37*
G36*
X154365368Y-94093928D02*
X154512779Y-94154987D01*
X154645448Y-94243634D01*
X154758266Y-94356452D01*
X154846913Y-94489121D01*
X154907972Y-94636532D01*
X154939100Y-94793022D01*
X154939100Y-94952578D01*
X154907972Y-95109068D01*
X154846913Y-95256479D01*
X154758266Y-95389148D01*
X154645448Y-95501966D01*
X154512779Y-95590613D01*
X154365368Y-95651672D01*
X154208878Y-95682800D01*
X154049322Y-95682800D01*
X153892832Y-95651672D01*
X153745421Y-95590613D01*
X153612752Y-95501966D01*
X153499934Y-95389148D01*
X153411287Y-95256479D01*
X153350228Y-95109068D01*
X153319100Y-94952578D01*
X153319100Y-94793022D01*
X153350228Y-94636532D01*
X153411287Y-94489121D01*
X153499934Y-94356452D01*
X153612752Y-94243634D01*
X153745421Y-94154987D01*
X153892832Y-94093928D01*
X154049322Y-94062800D01*
X154208878Y-94062800D01*
X154365368Y-94093928D01*
X154365368Y-94093928D01*
G37*
G36*
X135951943Y-93580580D02*
X136079334Y-93633348D01*
X136193984Y-93709954D01*
X136291486Y-93807456D01*
X136345216Y-93887870D01*
X136368092Y-93922106D01*
X136420860Y-94049497D01*
X136447760Y-94184735D01*
X136447760Y-94322625D01*
X136420860Y-94457863D01*
X136372900Y-94573647D01*
X136368092Y-94585254D01*
X136308152Y-94674962D01*
X136291485Y-94699905D01*
X136193985Y-94797405D01*
X136079334Y-94874012D01*
X135951943Y-94926780D01*
X135816705Y-94953680D01*
X135678815Y-94953680D01*
X135543577Y-94926780D01*
X135416186Y-94874012D01*
X135301535Y-94797405D01*
X135204035Y-94699905D01*
X135187369Y-94674962D01*
X135127428Y-94585254D01*
X135122620Y-94573647D01*
X135074660Y-94457863D01*
X135047760Y-94322625D01*
X135047760Y-94184735D01*
X135074660Y-94049497D01*
X135127428Y-93922106D01*
X135150304Y-93887870D01*
X135204034Y-93807456D01*
X135301536Y-93709954D01*
X135416186Y-93633348D01*
X135543577Y-93580580D01*
X135678815Y-93553680D01*
X135816705Y-93553680D01*
X135951943Y-93580580D01*
X135951943Y-93580580D01*
G37*
G36*
X132395943Y-93580580D02*
X132523334Y-93633348D01*
X132637984Y-93709954D01*
X132735486Y-93807456D01*
X132789216Y-93887870D01*
X132812092Y-93922106D01*
X132864860Y-94049497D01*
X132891760Y-94184735D01*
X132891760Y-94322625D01*
X132864860Y-94457863D01*
X132816900Y-94573647D01*
X132812092Y-94585254D01*
X132752152Y-94674962D01*
X132735485Y-94699905D01*
X132637985Y-94797405D01*
X132523334Y-94874012D01*
X132395943Y-94926780D01*
X132260705Y-94953680D01*
X132122815Y-94953680D01*
X131987577Y-94926780D01*
X131860186Y-94874012D01*
X131745535Y-94797405D01*
X131648035Y-94699905D01*
X131631369Y-94674962D01*
X131571428Y-94585254D01*
X131566620Y-94573647D01*
X131518660Y-94457863D01*
X131491760Y-94322625D01*
X131491760Y-94184735D01*
X131518660Y-94049497D01*
X131571428Y-93922106D01*
X131594304Y-93887870D01*
X131648034Y-93807456D01*
X131745536Y-93709954D01*
X131860186Y-93633348D01*
X131987577Y-93580580D01*
X132122815Y-93553680D01*
X132260705Y-93553680D01*
X132395943Y-93580580D01*
X132395943Y-93580580D01*
G37*
G36*
X143279996Y-93729075D02*
X143309193Y-93737932D01*
X143336098Y-93752313D01*
X143359688Y-93771672D01*
X143379047Y-93795262D01*
X143393428Y-93822167D01*
X143402285Y-93851364D01*
X143405880Y-93887870D01*
X143405880Y-94438090D01*
X143402285Y-94474596D01*
X143393428Y-94503793D01*
X143379047Y-94530698D01*
X143359688Y-94554288D01*
X143336098Y-94573647D01*
X143309193Y-94588028D01*
X143279996Y-94596885D01*
X143243490Y-94600480D01*
X142618270Y-94600480D01*
X142581764Y-94596885D01*
X142552567Y-94588028D01*
X142525662Y-94573647D01*
X142502072Y-94554288D01*
X142482713Y-94530698D01*
X142468332Y-94503793D01*
X142459475Y-94474596D01*
X142455880Y-94438090D01*
X142455880Y-93887870D01*
X142459475Y-93851364D01*
X142468332Y-93822167D01*
X142482713Y-93795262D01*
X142502072Y-93771672D01*
X142525662Y-93752313D01*
X142552567Y-93737932D01*
X142581764Y-93729075D01*
X142618270Y-93725480D01*
X143243490Y-93725480D01*
X143279996Y-93729075D01*
X143279996Y-93729075D01*
G37*
G36*
X183994460Y-94435920D02*
X183094460Y-94435920D01*
X183094460Y-93635920D01*
X183994460Y-93635920D01*
X183994460Y-94435920D01*
X183994460Y-94435920D01*
G37*
G36*
X176556326Y-94435920D02*
X175656326Y-94435920D01*
X175656326Y-93635920D01*
X176556326Y-93635920D01*
X176556326Y-94435920D01*
X176556326Y-94435920D01*
G37*
G36*
X174837260Y-94435920D02*
X173937260Y-94435920D01*
X173937260Y-93635920D01*
X174837260Y-93635920D01*
X174837260Y-94435920D01*
X174837260Y-94435920D01*
G37*
G36*
X182275392Y-94435920D02*
X181375392Y-94435920D01*
X181375392Y-93635920D01*
X182275392Y-93635920D01*
X182275392Y-94435920D01*
X182275392Y-94435920D01*
G37*
G36*
X140527712Y-92270943D02*
X140673301Y-92331248D01*
X140804333Y-92418801D01*
X140915759Y-92530227D01*
X141003312Y-92661259D01*
X141063617Y-92806848D01*
X141094360Y-92961405D01*
X141094360Y-93118995D01*
X141063617Y-93273552D01*
X141003312Y-93419141D01*
X140915759Y-93550173D01*
X140804333Y-93661599D01*
X140673301Y-93749152D01*
X140527712Y-93809457D01*
X140373155Y-93840200D01*
X140215565Y-93840200D01*
X140061008Y-93809457D01*
X139915419Y-93749152D01*
X139784387Y-93661599D01*
X139672961Y-93550173D01*
X139585408Y-93419141D01*
X139525103Y-93273552D01*
X139494360Y-93118995D01*
X139494360Y-92961405D01*
X139525103Y-92806848D01*
X139585408Y-92661259D01*
X139672961Y-92530227D01*
X139784387Y-92418801D01*
X139915419Y-92331248D01*
X140061008Y-92270943D01*
X140215565Y-92240200D01*
X140373155Y-92240200D01*
X140527712Y-92270943D01*
X140527712Y-92270943D01*
G37*
G36*
X178556326Y-93485920D02*
X177656326Y-93485920D01*
X177656326Y-92685920D01*
X178556326Y-92685920D01*
X178556326Y-93485920D01*
X178556326Y-93485920D01*
G37*
G36*
X180275392Y-93485920D02*
X179375392Y-93485920D01*
X179375392Y-92685920D01*
X180275392Y-92685920D01*
X180275392Y-93485920D01*
X180275392Y-93485920D01*
G37*
G36*
X185994460Y-93485920D02*
X185094460Y-93485920D01*
X185094460Y-92685920D01*
X185994460Y-92685920D01*
X185994460Y-93485920D01*
X185994460Y-93485920D01*
G37*
G36*
X172837260Y-93485920D02*
X171937260Y-93485920D01*
X171937260Y-92685920D01*
X172837260Y-92685920D01*
X172837260Y-93485920D01*
X172837260Y-93485920D01*
G37*
G36*
X148819583Y-91899100D02*
X148942387Y-91949968D01*
X148946974Y-91951868D01*
X149061624Y-92028474D01*
X149159126Y-92125976D01*
X149193428Y-92177313D01*
X149235732Y-92240626D01*
X149288500Y-92368017D01*
X149315400Y-92503255D01*
X149315400Y-92641145D01*
X149288500Y-92776383D01*
X149258252Y-92849406D01*
X149235732Y-92903774D01*
X149159126Y-93018424D01*
X149061624Y-93115926D01*
X148949818Y-93190632D01*
X148946974Y-93192532D01*
X148819583Y-93245300D01*
X148684345Y-93272200D01*
X148546455Y-93272200D01*
X148411217Y-93245300D01*
X148283826Y-93192532D01*
X148280982Y-93190632D01*
X148169176Y-93115926D01*
X148071674Y-93018424D01*
X147995068Y-92903774D01*
X147972548Y-92849406D01*
X147942300Y-92776383D01*
X147915400Y-92641145D01*
X147915400Y-92503255D01*
X147942300Y-92368017D01*
X147995068Y-92240626D01*
X148037372Y-92177313D01*
X148071674Y-92125976D01*
X148169176Y-92028474D01*
X148283826Y-91951868D01*
X148288413Y-91949968D01*
X148411217Y-91899100D01*
X148546455Y-91872200D01*
X148684345Y-91872200D01*
X148819583Y-91899100D01*
X148819583Y-91899100D01*
G37*
G36*
X145492183Y-91897200D02*
X145619574Y-91949968D01*
X145734224Y-92026574D01*
X145831726Y-92124076D01*
X145872989Y-92185831D01*
X145908332Y-92238726D01*
X145961100Y-92366117D01*
X145988000Y-92501355D01*
X145988000Y-92639245D01*
X145961100Y-92774483D01*
X145930065Y-92849406D01*
X145908332Y-92901874D01*
X145831726Y-93016524D01*
X145734224Y-93114026D01*
X145731380Y-93115926D01*
X145619574Y-93190632D01*
X145492183Y-93243400D01*
X145356945Y-93270300D01*
X145219055Y-93270300D01*
X145083817Y-93243400D01*
X144956426Y-93190632D01*
X144844620Y-93115926D01*
X144841776Y-93114026D01*
X144744274Y-93016524D01*
X144667668Y-92901874D01*
X144645935Y-92849406D01*
X144614900Y-92774483D01*
X144588000Y-92639245D01*
X144588000Y-92501355D01*
X144614900Y-92366117D01*
X144667668Y-92238726D01*
X144703011Y-92185831D01*
X144744274Y-92124076D01*
X144841776Y-92026574D01*
X144956426Y-91949968D01*
X145083817Y-91897200D01*
X145219055Y-91870300D01*
X145356945Y-91870300D01*
X145492183Y-91897200D01*
X145492183Y-91897200D01*
G37*
G36*
X143279996Y-92154075D02*
X143309193Y-92162932D01*
X143336098Y-92177313D01*
X143359688Y-92196672D01*
X143379047Y-92220262D01*
X143393428Y-92247167D01*
X143402285Y-92276364D01*
X143405880Y-92312870D01*
X143405880Y-92863090D01*
X143402285Y-92899596D01*
X143393428Y-92928793D01*
X143379047Y-92955698D01*
X143359688Y-92979288D01*
X143336098Y-92998647D01*
X143309193Y-93013028D01*
X143279996Y-93021885D01*
X143243490Y-93025480D01*
X142618270Y-93025480D01*
X142581764Y-93021885D01*
X142552567Y-93013028D01*
X142525662Y-92998647D01*
X142502072Y-92979288D01*
X142482713Y-92955698D01*
X142468332Y-92928793D01*
X142459475Y-92899596D01*
X142455880Y-92863090D01*
X142455880Y-92312870D01*
X142459475Y-92276364D01*
X142468332Y-92247167D01*
X142482713Y-92220262D01*
X142502072Y-92196672D01*
X142525662Y-92177313D01*
X142552567Y-92162932D01*
X142581764Y-92154075D01*
X142618270Y-92150480D01*
X143243490Y-92150480D01*
X143279996Y-92154075D01*
X143279996Y-92154075D01*
G37*
G36*
X163501274Y-90314962D02*
X163714204Y-90403160D01*
X163905833Y-90531203D01*
X164068797Y-90694167D01*
X164196840Y-90885796D01*
X164285038Y-91098726D01*
X164330000Y-91324764D01*
X164330000Y-91555236D01*
X164285038Y-91781274D01*
X164196840Y-91994204D01*
X164068797Y-92185833D01*
X163905833Y-92348797D01*
X163714204Y-92476840D01*
X163501274Y-92565038D01*
X163275236Y-92610000D01*
X163044764Y-92610000D01*
X162818726Y-92565038D01*
X162605796Y-92476840D01*
X162414167Y-92348797D01*
X162251203Y-92185833D01*
X162123160Y-91994204D01*
X162034962Y-91781274D01*
X161990000Y-91555236D01*
X161990000Y-91324764D01*
X162034962Y-91098726D01*
X162123160Y-90885796D01*
X162251203Y-90694167D01*
X162414167Y-90531203D01*
X162605796Y-90403160D01*
X162818726Y-90314962D01*
X163044764Y-90270000D01*
X163275236Y-90270000D01*
X163501274Y-90314962D01*
X163501274Y-90314962D01*
G37*
G36*
X176556326Y-92535920D02*
X175656326Y-92535920D01*
X175656326Y-91735920D01*
X176556326Y-91735920D01*
X176556326Y-92535920D01*
X176556326Y-92535920D01*
G37*
G36*
X182275392Y-92535920D02*
X181375392Y-92535920D01*
X181375392Y-91735920D01*
X182275392Y-91735920D01*
X182275392Y-92535920D01*
X182275392Y-92535920D01*
G37*
G36*
X183994460Y-92535920D02*
X183094460Y-92535920D01*
X183094460Y-91735920D01*
X183994460Y-91735920D01*
X183994460Y-92535920D01*
X183994460Y-92535920D01*
G37*
G36*
X174837260Y-92535920D02*
X173937260Y-92535920D01*
X173937260Y-91735920D01*
X174837260Y-91735920D01*
X174837260Y-92535920D01*
X174837260Y-92535920D01*
G37*
G36*
X138031500Y-91079600D02*
X136481500Y-91079600D01*
X136481500Y-90479600D01*
X138031500Y-90479600D01*
X138031500Y-91079600D01*
X138031500Y-91079600D01*
G37*
G36*
X132631500Y-91079600D02*
X131081500Y-91079600D01*
X131081500Y-90479600D01*
X132631500Y-90479600D01*
X132631500Y-91079600D01*
X132631500Y-91079600D01*
G37*
G36*
X152648592Y-89305503D02*
X152794181Y-89365808D01*
X152925213Y-89453361D01*
X153036639Y-89564787D01*
X153124192Y-89695819D01*
X153184497Y-89841408D01*
X153215240Y-89995965D01*
X153215240Y-90153555D01*
X153184497Y-90308112D01*
X153124192Y-90453701D01*
X153036639Y-90584733D01*
X152925213Y-90696159D01*
X152794181Y-90783712D01*
X152648592Y-90844017D01*
X152494035Y-90874760D01*
X152336445Y-90874760D01*
X152181888Y-90844017D01*
X152036299Y-90783712D01*
X151905267Y-90696159D01*
X151793841Y-90584733D01*
X151706288Y-90453701D01*
X151645983Y-90308112D01*
X151615240Y-90153555D01*
X151615240Y-89995965D01*
X151645983Y-89841408D01*
X151706288Y-89695819D01*
X151793841Y-89564787D01*
X151905267Y-89453361D01*
X152036299Y-89365808D01*
X152181888Y-89305503D01*
X152336445Y-89274760D01*
X152494035Y-89274760D01*
X152648592Y-89305503D01*
X152648592Y-89305503D01*
G37*
G36*
X150238740Y-90645260D02*
X148688740Y-90645260D01*
X148688740Y-90045260D01*
X150238740Y-90045260D01*
X150238740Y-90645260D01*
X150238740Y-90645260D01*
G37*
G36*
X144838740Y-90645260D02*
X143288740Y-90645260D01*
X143288740Y-90045260D01*
X144838740Y-90045260D01*
X144838740Y-90645260D01*
X144838740Y-90645260D01*
G37*
G36*
X132631500Y-89809600D02*
X131081500Y-89809600D01*
X131081500Y-89209600D01*
X132631500Y-89209600D01*
X132631500Y-89809600D01*
X132631500Y-89809600D01*
G37*
G36*
X138031500Y-89809600D02*
X136481500Y-89809600D01*
X136481500Y-89209600D01*
X138031500Y-89209600D01*
X138031500Y-89809600D01*
X138031500Y-89809600D01*
G37*
G36*
X150238740Y-89375260D02*
X148688740Y-89375260D01*
X148688740Y-88775260D01*
X150238740Y-88775260D01*
X150238740Y-89375260D01*
X150238740Y-89375260D01*
G37*
G36*
X144838740Y-89375260D02*
X143288740Y-89375260D01*
X143288740Y-88775260D01*
X144838740Y-88775260D01*
X144838740Y-89375260D01*
X144838740Y-89375260D01*
G37*
G36*
X140527712Y-87270943D02*
X140673301Y-87331248D01*
X140804333Y-87418801D01*
X140915759Y-87530227D01*
X141003312Y-87661259D01*
X141063617Y-87806848D01*
X141094360Y-87961405D01*
X141094360Y-88118995D01*
X141063617Y-88273552D01*
X141003312Y-88419141D01*
X140915759Y-88550173D01*
X140804333Y-88661599D01*
X140673301Y-88749152D01*
X140527712Y-88809457D01*
X140373155Y-88840200D01*
X140215565Y-88840200D01*
X140061008Y-88809457D01*
X139915419Y-88749152D01*
X139784387Y-88661599D01*
X139672961Y-88550173D01*
X139585408Y-88419141D01*
X139525103Y-88273552D01*
X139494360Y-88118995D01*
X139494360Y-87961405D01*
X139525103Y-87806848D01*
X139585408Y-87661259D01*
X139672961Y-87530227D01*
X139784387Y-87418801D01*
X139915419Y-87331248D01*
X140061008Y-87270943D01*
X140215565Y-87240200D01*
X140373155Y-87240200D01*
X140527712Y-87270943D01*
X140527712Y-87270943D01*
G37*
G36*
X160252906Y-87051988D02*
X160252909Y-87051989D01*
X160252910Y-87051989D01*
X160416905Y-87101736D01*
X160416907Y-87101737D01*
X160568046Y-87182522D01*
X160700519Y-87291241D01*
X160809238Y-87423714D01*
X160890023Y-87574853D01*
X160939772Y-87738854D01*
X160956569Y-87909400D01*
X160939772Y-88079946D01*
X160939771Y-88079949D01*
X160939771Y-88079950D01*
X160927928Y-88118993D01*
X160890023Y-88243947D01*
X160809238Y-88395086D01*
X160700519Y-88527559D01*
X160568046Y-88636278D01*
X160416907Y-88717063D01*
X160416905Y-88717064D01*
X160252910Y-88766811D01*
X160252909Y-88766811D01*
X160252906Y-88766812D01*
X160125098Y-88779400D01*
X159579622Y-88779400D01*
X159451814Y-88766812D01*
X159451811Y-88766811D01*
X159451810Y-88766811D01*
X159287815Y-88717064D01*
X159287813Y-88717063D01*
X159136674Y-88636278D01*
X159004201Y-88527559D01*
X158895482Y-88395086D01*
X158814697Y-88243947D01*
X158776793Y-88118993D01*
X158764949Y-88079950D01*
X158764949Y-88079949D01*
X158764948Y-88079946D01*
X158748151Y-87909400D01*
X158764948Y-87738854D01*
X158814697Y-87574853D01*
X158895482Y-87423714D01*
X159004201Y-87291241D01*
X159136674Y-87182522D01*
X159287813Y-87101737D01*
X159287815Y-87101736D01*
X159451810Y-87051989D01*
X159451811Y-87051989D01*
X159451814Y-87051988D01*
X159579622Y-87039400D01*
X160125098Y-87039400D01*
X160252906Y-87051988D01*
X160252906Y-87051988D01*
G37*
G36*
X132631500Y-88539600D02*
X131081500Y-88539600D01*
X131081500Y-87939600D01*
X132631500Y-87939600D01*
X132631500Y-88539600D01*
X132631500Y-88539600D01*
G37*
G36*
X138031500Y-88539600D02*
X136481500Y-88539600D01*
X136481500Y-87939600D01*
X138031500Y-87939600D01*
X138031500Y-88539600D01*
X138031500Y-88539600D01*
G37*
G36*
X168747400Y-88465560D02*
X165247400Y-88465560D01*
X165247400Y-86865560D01*
X168747400Y-86865560D01*
X168747400Y-88465560D01*
X168747400Y-88465560D01*
G37*
G36*
X183657160Y-88465560D02*
X180157160Y-88465560D01*
X180157160Y-86865560D01*
X183657160Y-86865560D01*
X183657160Y-88465560D01*
X183657160Y-88465560D01*
G37*
G36*
X174147400Y-88465560D02*
X170647400Y-88465560D01*
X170647400Y-86865560D01*
X174147400Y-86865560D01*
X174147400Y-88465560D01*
X174147400Y-88465560D01*
G37*
G36*
X178257160Y-88465560D02*
X174757160Y-88465560D01*
X174757160Y-86865560D01*
X178257160Y-86865560D01*
X178257160Y-88465560D01*
X178257160Y-88465560D01*
G37*
G36*
X144838740Y-88105260D02*
X143288740Y-88105260D01*
X143288740Y-87505260D01*
X144838740Y-87505260D01*
X144838740Y-88105260D01*
X144838740Y-88105260D01*
G37*
G36*
X150238740Y-88105260D02*
X148688740Y-88105260D01*
X148688740Y-87505260D01*
X150238740Y-87505260D01*
X150238740Y-88105260D01*
X150238740Y-88105260D01*
G37*
G36*
X164458516Y-87094695D02*
X164487713Y-87103552D01*
X164514618Y-87117933D01*
X164538208Y-87137292D01*
X164557567Y-87160882D01*
X164571948Y-87187787D01*
X164580805Y-87216984D01*
X164584400Y-87253490D01*
X164584400Y-87803710D01*
X164580805Y-87840216D01*
X164571948Y-87869413D01*
X164557567Y-87896318D01*
X164538208Y-87919908D01*
X164514618Y-87939267D01*
X164487713Y-87953648D01*
X164458516Y-87962505D01*
X164422010Y-87966100D01*
X163796790Y-87966100D01*
X163760284Y-87962505D01*
X163731087Y-87953648D01*
X163704182Y-87939267D01*
X163680592Y-87919908D01*
X163661233Y-87896318D01*
X163646852Y-87869413D01*
X163637995Y-87840216D01*
X163634400Y-87803710D01*
X163634400Y-87253490D01*
X163637995Y-87216984D01*
X163646852Y-87187787D01*
X163661233Y-87160882D01*
X163680592Y-87137292D01*
X163704182Y-87117933D01*
X163731087Y-87103552D01*
X163760284Y-87094695D01*
X163796790Y-87091100D01*
X164422010Y-87091100D01*
X164458516Y-87094695D01*
X164458516Y-87094695D01*
G37*
G36*
X132631500Y-87269600D02*
X131081500Y-87269600D01*
X131081500Y-86669600D01*
X132631500Y-86669600D01*
X132631500Y-87269600D01*
X132631500Y-87269600D01*
G37*
G36*
X138031500Y-87269600D02*
X136481500Y-87269600D01*
X136481500Y-86669600D01*
X138031500Y-86669600D01*
X138031500Y-87269600D01*
X138031500Y-87269600D01*
G37*
G36*
X144838740Y-86835260D02*
X143288740Y-86835260D01*
X143288740Y-86235260D01*
X144838740Y-86235260D01*
X144838740Y-86835260D01*
X144838740Y-86835260D01*
G37*
G36*
X150238740Y-86835260D02*
X148688740Y-86835260D01*
X148688740Y-86235260D01*
X150238740Y-86235260D01*
X150238740Y-86835260D01*
X150238740Y-86835260D01*
G37*
G36*
X164458516Y-85519695D02*
X164487713Y-85528552D01*
X164514618Y-85542933D01*
X164538208Y-85562292D01*
X164557567Y-85585882D01*
X164571948Y-85612787D01*
X164580805Y-85641984D01*
X164584400Y-85678490D01*
X164584400Y-86228710D01*
X164580805Y-86265216D01*
X164571948Y-86294413D01*
X164557567Y-86321318D01*
X164538208Y-86344908D01*
X164514618Y-86364267D01*
X164487713Y-86378648D01*
X164458516Y-86387505D01*
X164422010Y-86391100D01*
X163796790Y-86391100D01*
X163760284Y-86387505D01*
X163731087Y-86378648D01*
X163704182Y-86364267D01*
X163680592Y-86344908D01*
X163661233Y-86321318D01*
X163646852Y-86294413D01*
X163637995Y-86265216D01*
X163634400Y-86228710D01*
X163634400Y-85678490D01*
X163637995Y-85641984D01*
X163646852Y-85612787D01*
X163661233Y-85585882D01*
X163680592Y-85562292D01*
X163704182Y-85542933D01*
X163731087Y-85528552D01*
X163760284Y-85519695D01*
X163796790Y-85516100D01*
X164422010Y-85516100D01*
X164458516Y-85519695D01*
X164458516Y-85519695D01*
G37*
G36*
X160252906Y-84511988D02*
X160252909Y-84511989D01*
X160252910Y-84511989D01*
X160416905Y-84561736D01*
X160416907Y-84561737D01*
X160568046Y-84642522D01*
X160700519Y-84751241D01*
X160809238Y-84883714D01*
X160890023Y-85034853D01*
X160939772Y-85198854D01*
X160956569Y-85369400D01*
X160939772Y-85539946D01*
X160939771Y-85539949D01*
X160939771Y-85539950D01*
X160892386Y-85696159D01*
X160890023Y-85703947D01*
X160809238Y-85855086D01*
X160700519Y-85987559D01*
X160568046Y-86096278D01*
X160425724Y-86172350D01*
X160416905Y-86177064D01*
X160252910Y-86226811D01*
X160252909Y-86226811D01*
X160252906Y-86226812D01*
X160125098Y-86239400D01*
X159579622Y-86239400D01*
X159451814Y-86226812D01*
X159451811Y-86226811D01*
X159451810Y-86226811D01*
X159287815Y-86177064D01*
X159278996Y-86172350D01*
X159136674Y-86096278D01*
X159004201Y-85987559D01*
X158895482Y-85855086D01*
X158814697Y-85703947D01*
X158812335Y-85696159D01*
X158764949Y-85539950D01*
X158764949Y-85539949D01*
X158764948Y-85539946D01*
X158748151Y-85369400D01*
X158764948Y-85198854D01*
X158814697Y-85034853D01*
X158895482Y-84883714D01*
X159004201Y-84751241D01*
X159136674Y-84642522D01*
X159287813Y-84561737D01*
X159287815Y-84561736D01*
X159451810Y-84511989D01*
X159451811Y-84511989D01*
X159451814Y-84511988D01*
X159579622Y-84499400D01*
X160125098Y-84499400D01*
X160252906Y-84511988D01*
X160252906Y-84511988D01*
G37*
G36*
X152648592Y-84305503D02*
X152794181Y-84365808D01*
X152925213Y-84453361D01*
X153036639Y-84564787D01*
X153124192Y-84695819D01*
X153184497Y-84841408D01*
X153215240Y-84995965D01*
X153215240Y-85153555D01*
X153184497Y-85308112D01*
X153124192Y-85453701D01*
X153036639Y-85584733D01*
X152925213Y-85696159D01*
X152794181Y-85783712D01*
X152648592Y-85844017D01*
X152494035Y-85874760D01*
X152336445Y-85874760D01*
X152181888Y-85844017D01*
X152036299Y-85783712D01*
X151905267Y-85696159D01*
X151793841Y-85584733D01*
X151706288Y-85453701D01*
X151645983Y-85308112D01*
X151615240Y-85153555D01*
X151615240Y-84995965D01*
X151645983Y-84841408D01*
X151706288Y-84695819D01*
X151793841Y-84564787D01*
X151905267Y-84453361D01*
X152036299Y-84365808D01*
X152181888Y-84305503D01*
X152336445Y-84274760D01*
X152494035Y-84274760D01*
X152648592Y-84305503D01*
X152648592Y-84305503D01*
G37*
G36*
X146336116Y-84461115D02*
X146365313Y-84469972D01*
X146392218Y-84484353D01*
X146415808Y-84503712D01*
X146435167Y-84527302D01*
X146449548Y-84554207D01*
X146458405Y-84583404D01*
X146462000Y-84619910D01*
X146462000Y-85245130D01*
X146458405Y-85281636D01*
X146449548Y-85310833D01*
X146435167Y-85337738D01*
X146415808Y-85361328D01*
X146392218Y-85380687D01*
X146365313Y-85395068D01*
X146336116Y-85403925D01*
X146299610Y-85407520D01*
X145749390Y-85407520D01*
X145712884Y-85403925D01*
X145683687Y-85395068D01*
X145656782Y-85380687D01*
X145633192Y-85361328D01*
X145613833Y-85337738D01*
X145599452Y-85310833D01*
X145590595Y-85281636D01*
X145587000Y-85245130D01*
X145587000Y-84619910D01*
X145590595Y-84583404D01*
X145599452Y-84554207D01*
X145613833Y-84527302D01*
X145633192Y-84503712D01*
X145656782Y-84484353D01*
X145683687Y-84469972D01*
X145712884Y-84461115D01*
X145749390Y-84457520D01*
X146299610Y-84457520D01*
X146336116Y-84461115D01*
X146336116Y-84461115D01*
G37*
G36*
X147911116Y-84461115D02*
X147940313Y-84469972D01*
X147967218Y-84484353D01*
X147990808Y-84503712D01*
X148010167Y-84527302D01*
X148024548Y-84554207D01*
X148033405Y-84583404D01*
X148037000Y-84619910D01*
X148037000Y-85245130D01*
X148033405Y-85281636D01*
X148024548Y-85310833D01*
X148010167Y-85337738D01*
X147990808Y-85361328D01*
X147967218Y-85380687D01*
X147940313Y-85395068D01*
X147911116Y-85403925D01*
X147874610Y-85407520D01*
X147324390Y-85407520D01*
X147287884Y-85403925D01*
X147258687Y-85395068D01*
X147231782Y-85380687D01*
X147208192Y-85361328D01*
X147188833Y-85337738D01*
X147174452Y-85310833D01*
X147165595Y-85281636D01*
X147162000Y-85245130D01*
X147162000Y-84619910D01*
X147165595Y-84583404D01*
X147174452Y-84554207D01*
X147188833Y-84527302D01*
X147208192Y-84503712D01*
X147231782Y-84484353D01*
X147258687Y-84469972D01*
X147287884Y-84461115D01*
X147324390Y-84457520D01*
X147874610Y-84457520D01*
X147911116Y-84461115D01*
X147911116Y-84461115D01*
G37*
G36*
X144868196Y-84456035D02*
X144897393Y-84464892D01*
X144924298Y-84479273D01*
X144947888Y-84498632D01*
X144967247Y-84522222D01*
X144981628Y-84549127D01*
X144990485Y-84578324D01*
X144994080Y-84614830D01*
X144994080Y-85240050D01*
X144990485Y-85276556D01*
X144981628Y-85305753D01*
X144967247Y-85332658D01*
X144947888Y-85356248D01*
X144924298Y-85375607D01*
X144897393Y-85389988D01*
X144868196Y-85398845D01*
X144831690Y-85402440D01*
X144281470Y-85402440D01*
X144244964Y-85398845D01*
X144215767Y-85389988D01*
X144188862Y-85375607D01*
X144165272Y-85356248D01*
X144145913Y-85332658D01*
X144131532Y-85305753D01*
X144122675Y-85276556D01*
X144119080Y-85240050D01*
X144119080Y-84614830D01*
X144122675Y-84578324D01*
X144131532Y-84549127D01*
X144145913Y-84522222D01*
X144165272Y-84498632D01*
X144188862Y-84479273D01*
X144215767Y-84464892D01*
X144244964Y-84456035D01*
X144281470Y-84452440D01*
X144831690Y-84452440D01*
X144868196Y-84456035D01*
X144868196Y-84456035D01*
G37*
G36*
X143293196Y-84456035D02*
X143322393Y-84464892D01*
X143349298Y-84479273D01*
X143372888Y-84498632D01*
X143392247Y-84522222D01*
X143406628Y-84549127D01*
X143415485Y-84578324D01*
X143419080Y-84614830D01*
X143419080Y-85240050D01*
X143415485Y-85276556D01*
X143406628Y-85305753D01*
X143392247Y-85332658D01*
X143372888Y-85356248D01*
X143349298Y-85375607D01*
X143322393Y-85389988D01*
X143293196Y-85398845D01*
X143256690Y-85402440D01*
X142706470Y-85402440D01*
X142669964Y-85398845D01*
X142640767Y-85389988D01*
X142613862Y-85375607D01*
X142590272Y-85356248D01*
X142570913Y-85332658D01*
X142556532Y-85305753D01*
X142547675Y-85276556D01*
X142544080Y-85240050D01*
X142544080Y-84614830D01*
X142547675Y-84578324D01*
X142556532Y-84549127D01*
X142570913Y-84522222D01*
X142590272Y-84498632D01*
X142613862Y-84479273D01*
X142640767Y-84464892D01*
X142669964Y-84456035D01*
X142706470Y-84452440D01*
X143256690Y-84452440D01*
X143293196Y-84456035D01*
X143293196Y-84456035D01*
G37*
G36*
X160252906Y-81971988D02*
X160252909Y-81971989D01*
X160252910Y-81971989D01*
X160416905Y-82021736D01*
X160416907Y-82021737D01*
X160568046Y-82102522D01*
X160700519Y-82211241D01*
X160809238Y-82343714D01*
X160873505Y-82463950D01*
X160890024Y-82494855D01*
X160938866Y-82655867D01*
X160939772Y-82658854D01*
X160956569Y-82829400D01*
X160939772Y-82999946D01*
X160890023Y-83163947D01*
X160809238Y-83315086D01*
X160700519Y-83447559D01*
X160568046Y-83556278D01*
X160416907Y-83637063D01*
X160416905Y-83637064D01*
X160252910Y-83686811D01*
X160252909Y-83686811D01*
X160252906Y-83686812D01*
X160125098Y-83699400D01*
X159579622Y-83699400D01*
X159451814Y-83686812D01*
X159451811Y-83686811D01*
X159451810Y-83686811D01*
X159287815Y-83637064D01*
X159287813Y-83637063D01*
X159136674Y-83556278D01*
X159004201Y-83447559D01*
X158895482Y-83315086D01*
X158814697Y-83163947D01*
X158764948Y-82999946D01*
X158748151Y-82829400D01*
X158764948Y-82658854D01*
X158765854Y-82655867D01*
X158814696Y-82494855D01*
X158831215Y-82463950D01*
X158895482Y-82343714D01*
X159004201Y-82211241D01*
X159136674Y-82102522D01*
X159287813Y-82021737D01*
X159287815Y-82021736D01*
X159451810Y-81971989D01*
X159451811Y-81971989D01*
X159451814Y-81971988D01*
X159579622Y-81959400D01*
X160125098Y-81959400D01*
X160252906Y-81971988D01*
X160252906Y-81971988D01*
G37*
G36*
X164458516Y-81811295D02*
X164487713Y-81820152D01*
X164514618Y-81834533D01*
X164538208Y-81853892D01*
X164557567Y-81877482D01*
X164571948Y-81904387D01*
X164580805Y-81933584D01*
X164584400Y-81970090D01*
X164584400Y-82520310D01*
X164580805Y-82556816D01*
X164571948Y-82586013D01*
X164557567Y-82612918D01*
X164538208Y-82636508D01*
X164514618Y-82655867D01*
X164487713Y-82670248D01*
X164458516Y-82679105D01*
X164422010Y-82682700D01*
X163796790Y-82682700D01*
X163760284Y-82679105D01*
X163731087Y-82670248D01*
X163704182Y-82655867D01*
X163680592Y-82636508D01*
X163661233Y-82612918D01*
X163646852Y-82586013D01*
X163637995Y-82556816D01*
X163634400Y-82520310D01*
X163634400Y-81970090D01*
X163637995Y-81933584D01*
X163646852Y-81904387D01*
X163661233Y-81877482D01*
X163680592Y-81853892D01*
X163704182Y-81834533D01*
X163731087Y-81820152D01*
X163760284Y-81811295D01*
X163796790Y-81807700D01*
X164422010Y-81807700D01*
X164458516Y-81811295D01*
X164458516Y-81811295D01*
G37*
G36*
X178257160Y-81226560D02*
X174757160Y-81226560D01*
X174757160Y-79626560D01*
X178257160Y-79626560D01*
X178257160Y-81226560D01*
X178257160Y-81226560D01*
G37*
G36*
X174147400Y-81226560D02*
X170647400Y-81226560D01*
X170647400Y-79626560D01*
X174147400Y-79626560D01*
X174147400Y-81226560D01*
X174147400Y-81226560D01*
G37*
G36*
X183657160Y-81226560D02*
X180157160Y-81226560D01*
X180157160Y-79626560D01*
X183657160Y-79626560D01*
X183657160Y-81226560D01*
X183657160Y-81226560D01*
G37*
G36*
X168747400Y-81226560D02*
X165247400Y-81226560D01*
X165247400Y-79626560D01*
X168747400Y-79626560D01*
X168747400Y-81226560D01*
X168747400Y-81226560D01*
G37*
G36*
X160822715Y-79423085D02*
X160852791Y-79432208D01*
X160880505Y-79447022D01*
X160904800Y-79466960D01*
X160924738Y-79491255D01*
X160939552Y-79518969D01*
X160948675Y-79549045D01*
X160952360Y-79586459D01*
X160952360Y-80992341D01*
X160948675Y-81029755D01*
X160939552Y-81059831D01*
X160924738Y-81087545D01*
X160904800Y-81111840D01*
X160880505Y-81131778D01*
X160852791Y-81146592D01*
X160822715Y-81155715D01*
X160785301Y-81159400D01*
X158919419Y-81159400D01*
X158882005Y-81155715D01*
X158851929Y-81146592D01*
X158824215Y-81131778D01*
X158799920Y-81111840D01*
X158779982Y-81087545D01*
X158765168Y-81059831D01*
X158756045Y-81029755D01*
X158752360Y-80992341D01*
X158752360Y-79586459D01*
X158756045Y-79549045D01*
X158765168Y-79518969D01*
X158779982Y-79491255D01*
X158799920Y-79466960D01*
X158824215Y-79447022D01*
X158851929Y-79432208D01*
X158882005Y-79423085D01*
X158919419Y-79419400D01*
X160785301Y-79419400D01*
X160822715Y-79423085D01*
X160822715Y-79423085D01*
G37*
G36*
X164458516Y-80236295D02*
X164487713Y-80245152D01*
X164514618Y-80259533D01*
X164538208Y-80278892D01*
X164557567Y-80302482D01*
X164571948Y-80329387D01*
X164580805Y-80358584D01*
X164584400Y-80395090D01*
X164584400Y-80945310D01*
X164580805Y-80981816D01*
X164571948Y-81011013D01*
X164557567Y-81037918D01*
X164538208Y-81061508D01*
X164514618Y-81080867D01*
X164487713Y-81095248D01*
X164458516Y-81104105D01*
X164422010Y-81107700D01*
X163796790Y-81107700D01*
X163760284Y-81104105D01*
X163731087Y-81095248D01*
X163704182Y-81080867D01*
X163680592Y-81061508D01*
X163661233Y-81037918D01*
X163646852Y-81011013D01*
X163637995Y-80981816D01*
X163634400Y-80945310D01*
X163634400Y-80395090D01*
X163637995Y-80358584D01*
X163646852Y-80329387D01*
X163661233Y-80302482D01*
X163680592Y-80278892D01*
X163704182Y-80259533D01*
X163731087Y-80245152D01*
X163760284Y-80236295D01*
X163796790Y-80232700D01*
X164422010Y-80232700D01*
X164458516Y-80236295D01*
X164458516Y-80236295D01*
G37*
G36*
X133337039Y-74938116D02*
X133544386Y-75001015D01*
X133544388Y-75001016D01*
X133735484Y-75103158D01*
X133902981Y-75240619D01*
X134040442Y-75408116D01*
X134141109Y-75596452D01*
X134142585Y-75599214D01*
X134205484Y-75806561D01*
X134226722Y-76022200D01*
X134205484Y-76237839D01*
X134143422Y-76442428D01*
X134142584Y-76445188D01*
X134040442Y-76636284D01*
X133902981Y-76803781D01*
X133735484Y-76941242D01*
X133549550Y-77040625D01*
X133544386Y-77043385D01*
X133337039Y-77106284D01*
X133175438Y-77122200D01*
X133067362Y-77122200D01*
X132905761Y-77106284D01*
X132698414Y-77043385D01*
X132693250Y-77040625D01*
X132507316Y-76941242D01*
X132339819Y-76803781D01*
X132202358Y-76636284D01*
X132100216Y-76445188D01*
X132099379Y-76442428D01*
X132037316Y-76237839D01*
X132016078Y-76022200D01*
X132037316Y-75806561D01*
X132100215Y-75599214D01*
X132101691Y-75596452D01*
X132202358Y-75408116D01*
X132339819Y-75240619D01*
X132507316Y-75103158D01*
X132698412Y-75001016D01*
X132698414Y-75001015D01*
X132905761Y-74938116D01*
X133067362Y-74922200D01*
X133175438Y-74922200D01*
X133337039Y-74938116D01*
X133337039Y-74938116D01*
G37*
G36*
X136588239Y-74935356D02*
X136795586Y-74998255D01*
X136795588Y-74998256D01*
X136986684Y-75100398D01*
X137154181Y-75237859D01*
X137291642Y-75405356D01*
X137393784Y-75596452D01*
X137393785Y-75596454D01*
X137456684Y-75803801D01*
X137477922Y-76019440D01*
X137456684Y-76235079D01*
X137455847Y-76237839D01*
X137393784Y-76442428D01*
X137291642Y-76633524D01*
X137154181Y-76801021D01*
X136986684Y-76938482D01*
X136795588Y-77040624D01*
X136795586Y-77040625D01*
X136588239Y-77103524D01*
X136426638Y-77119440D01*
X136318562Y-77119440D01*
X136156961Y-77103524D01*
X135949614Y-77040625D01*
X135949612Y-77040624D01*
X135758516Y-76938482D01*
X135591019Y-76801021D01*
X135453558Y-76633524D01*
X135351416Y-76442428D01*
X135289354Y-76237839D01*
X135288516Y-76235079D01*
X135267278Y-76019440D01*
X135288516Y-75803801D01*
X135351415Y-75596454D01*
X135351416Y-75596452D01*
X135453558Y-75405356D01*
X135591019Y-75237859D01*
X135758516Y-75100398D01*
X135949612Y-74998256D01*
X135949614Y-74998255D01*
X136156961Y-74935356D01*
X136318562Y-74919440D01*
X136426638Y-74919440D01*
X136588239Y-74935356D01*
X136588239Y-74935356D01*
G37*
G36*
X163199586Y-71715555D02*
X163417972Y-71806013D01*
X163614518Y-71937341D01*
X163781659Y-72104482D01*
X163912987Y-72301028D01*
X164003445Y-72519414D01*
X164049560Y-72751249D01*
X164049560Y-72987631D01*
X164003445Y-73219466D01*
X163912987Y-73437852D01*
X163781659Y-73634398D01*
X163614518Y-73801539D01*
X163417972Y-73932867D01*
X163199586Y-74023325D01*
X162967751Y-74069440D01*
X162731369Y-74069440D01*
X162499534Y-74023325D01*
X162281148Y-73932867D01*
X162084602Y-73801539D01*
X161917461Y-73634398D01*
X161786133Y-73437852D01*
X161695675Y-73219466D01*
X161649560Y-72987631D01*
X161649560Y-72751249D01*
X161695675Y-72519414D01*
X161786133Y-72301028D01*
X161917461Y-72104482D01*
X162084602Y-71937341D01*
X162281148Y-71806013D01*
X162499534Y-71715555D01*
X162731369Y-71669440D01*
X162967751Y-71669440D01*
X163199586Y-71715555D01*
X163199586Y-71715555D01*
G37*
G36*
X146679426Y-71715555D02*
X146897812Y-71806013D01*
X147094358Y-71937341D01*
X147261499Y-72104482D01*
X147392827Y-72301028D01*
X147483285Y-72519414D01*
X147529400Y-72751249D01*
X147529400Y-72987631D01*
X147483285Y-73219466D01*
X147392827Y-73437852D01*
X147261499Y-73634398D01*
X147094358Y-73801539D01*
X146897812Y-73932867D01*
X146679426Y-74023325D01*
X146447591Y-74069440D01*
X146211209Y-74069440D01*
X145979374Y-74023325D01*
X145760988Y-73932867D01*
X145564442Y-73801539D01*
X145397301Y-73634398D01*
X145265973Y-73437852D01*
X145175515Y-73219466D01*
X145129400Y-72987631D01*
X145129400Y-72751249D01*
X145175515Y-72519414D01*
X145265973Y-72301028D01*
X145397301Y-72104482D01*
X145564442Y-71937341D01*
X145760988Y-71806013D01*
X145979374Y-71715555D01*
X146211209Y-71669440D01*
X146447591Y-71669440D01*
X146679426Y-71715555D01*
X146679426Y-71715555D01*
G37*
G36*
X134221400Y-69502200D02*
X132021400Y-69502200D01*
X132021400Y-67302200D01*
X134221400Y-67302200D01*
X134221400Y-69502200D01*
X134221400Y-69502200D01*
G37*
G36*
X137472600Y-69499440D02*
X135272600Y-69499440D01*
X135272600Y-67299440D01*
X137472600Y-67299440D01*
X137472600Y-69499440D01*
X137472600Y-69499440D01*
G37*
G36*
X180495450Y-66909452D02*
X180611369Y-66932509D01*
X180793358Y-67007891D01*
X180957143Y-67117329D01*
X181096431Y-67256617D01*
X181205869Y-67420402D01*
X181281251Y-67602391D01*
X181319680Y-67795589D01*
X181319680Y-67992571D01*
X181281251Y-68185769D01*
X181205869Y-68367758D01*
X181096431Y-68531543D01*
X180957143Y-68670831D01*
X180793358Y-68780269D01*
X180611369Y-68855651D01*
X180495450Y-68878708D01*
X180418173Y-68894080D01*
X180221187Y-68894080D01*
X180143910Y-68878708D01*
X180027991Y-68855651D01*
X179846002Y-68780269D01*
X179682217Y-68670831D01*
X179542929Y-68531543D01*
X179433491Y-68367758D01*
X179358109Y-68185769D01*
X179319680Y-67992571D01*
X179319680Y-67795589D01*
X179358109Y-67602391D01*
X179433491Y-67420402D01*
X179542929Y-67256617D01*
X179682217Y-67117329D01*
X179846002Y-67007891D01*
X180027991Y-66932509D01*
X180143910Y-66909452D01*
X180221187Y-66894080D01*
X180418173Y-66894080D01*
X180495450Y-66909452D01*
X180495450Y-66909452D01*
G37*
G36*
X147529400Y-66569440D02*
X145129400Y-66569440D01*
X145129400Y-64169440D01*
X147529400Y-64169440D01*
X147529400Y-66569440D01*
X147529400Y-66569440D01*
G37*
G36*
X164049560Y-66569440D02*
X161649560Y-66569440D01*
X161649560Y-64169440D01*
X164049560Y-64169440D01*
X164049560Y-66569440D01*
X164049560Y-66569440D01*
G37*
G36*
X135033246Y-63912588D02*
X135033249Y-63912589D01*
X135033250Y-63912589D01*
X135197245Y-63962336D01*
X135197247Y-63962337D01*
X135348386Y-64043122D01*
X135480859Y-64151841D01*
X135589578Y-64284314D01*
X135670363Y-64435453D01*
X135720112Y-64599454D01*
X135736909Y-64770000D01*
X135720112Y-64940546D01*
X135670363Y-65104547D01*
X135589578Y-65255686D01*
X135480859Y-65388159D01*
X135348386Y-65496878D01*
X135197247Y-65577663D01*
X135197245Y-65577664D01*
X135033250Y-65627411D01*
X135033249Y-65627411D01*
X135033246Y-65627412D01*
X134905438Y-65640000D01*
X134359962Y-65640000D01*
X134232154Y-65627412D01*
X134232151Y-65627411D01*
X134232150Y-65627411D01*
X134068155Y-65577664D01*
X134068153Y-65577663D01*
X133917014Y-65496878D01*
X133784541Y-65388159D01*
X133675822Y-65255686D01*
X133595037Y-65104547D01*
X133545288Y-64940546D01*
X133528491Y-64770000D01*
X133545288Y-64599454D01*
X133595037Y-64435453D01*
X133675822Y-64284314D01*
X133784541Y-64151841D01*
X133917014Y-64043122D01*
X134068153Y-63962337D01*
X134068155Y-63962336D01*
X134232150Y-63912589D01*
X134232151Y-63912589D01*
X134232154Y-63912588D01*
X134359962Y-63900000D01*
X134905438Y-63900000D01*
X135033246Y-63912588D01*
X135033246Y-63912588D01*
G37*
G36*
X181319680Y-65394080D02*
X179319680Y-65394080D01*
X179319680Y-63394080D01*
X181319680Y-63394080D01*
X181319680Y-65394080D01*
X181319680Y-65394080D01*
G37*
G36*
X135033246Y-61372588D02*
X135033249Y-61372589D01*
X135033250Y-61372589D01*
X135197245Y-61422336D01*
X135197247Y-61422337D01*
X135348386Y-61503122D01*
X135480859Y-61611841D01*
X135589578Y-61744314D01*
X135670363Y-61895453D01*
X135720112Y-62059454D01*
X135736909Y-62230000D01*
X135720112Y-62400546D01*
X135670363Y-62564547D01*
X135589578Y-62715686D01*
X135480859Y-62848159D01*
X135348386Y-62956878D01*
X135197247Y-63037663D01*
X135197245Y-63037664D01*
X135033250Y-63087411D01*
X135033249Y-63087411D01*
X135033246Y-63087412D01*
X134905438Y-63100000D01*
X134359962Y-63100000D01*
X134232154Y-63087412D01*
X134232151Y-63087411D01*
X134232150Y-63087411D01*
X134068155Y-63037664D01*
X134068153Y-63037663D01*
X133917014Y-62956878D01*
X133784541Y-62848159D01*
X133675822Y-62715686D01*
X133595037Y-62564547D01*
X133545288Y-62400546D01*
X133528491Y-62230000D01*
X133545288Y-62059454D01*
X133595037Y-61895453D01*
X133675822Y-61744314D01*
X133784541Y-61611841D01*
X133917014Y-61503122D01*
X134068153Y-61422337D01*
X134068155Y-61422336D01*
X134232150Y-61372589D01*
X134232151Y-61372589D01*
X134232154Y-61372588D01*
X134359962Y-61360000D01*
X134905438Y-61360000D01*
X135033246Y-61372588D01*
X135033246Y-61372588D01*
G37*
G36*
X135033246Y-58832588D02*
X135033249Y-58832589D01*
X135033250Y-58832589D01*
X135197245Y-58882336D01*
X135197247Y-58882337D01*
X135348386Y-58963122D01*
X135480859Y-59071841D01*
X135589578Y-59204314D01*
X135670363Y-59355453D01*
X135720112Y-59519454D01*
X135736909Y-59690000D01*
X135720112Y-59860546D01*
X135670363Y-60024547D01*
X135589578Y-60175686D01*
X135480859Y-60308159D01*
X135348386Y-60416878D01*
X135197247Y-60497663D01*
X135197245Y-60497664D01*
X135033250Y-60547411D01*
X135033249Y-60547411D01*
X135033246Y-60547412D01*
X134905438Y-60560000D01*
X134359962Y-60560000D01*
X134232154Y-60547412D01*
X134232151Y-60547411D01*
X134232150Y-60547411D01*
X134068155Y-60497664D01*
X134068153Y-60497663D01*
X133917014Y-60416878D01*
X133784541Y-60308159D01*
X133675822Y-60175686D01*
X133595037Y-60024547D01*
X133545288Y-59860546D01*
X133528491Y-59690000D01*
X133545288Y-59519454D01*
X133595037Y-59355453D01*
X133675822Y-59204314D01*
X133784541Y-59071841D01*
X133917014Y-58963122D01*
X134068153Y-58882337D01*
X134068155Y-58882336D01*
X134232150Y-58832589D01*
X134232151Y-58832589D01*
X134232154Y-58832588D01*
X134359962Y-58820000D01*
X134905438Y-58820000D01*
X135033246Y-58832588D01*
X135033246Y-58832588D01*
G37*
G36*
X180493828Y-56379569D02*
X180611369Y-56402949D01*
X180793358Y-56478331D01*
X180957143Y-56587769D01*
X181096431Y-56727057D01*
X181205869Y-56890842D01*
X181281251Y-57072831D01*
X181319680Y-57266029D01*
X181319680Y-57463011D01*
X181281251Y-57656209D01*
X181205869Y-57838198D01*
X181096431Y-58001983D01*
X180957143Y-58141271D01*
X180793358Y-58250709D01*
X180611369Y-58326091D01*
X180495450Y-58349148D01*
X180418173Y-58364520D01*
X180221187Y-58364520D01*
X180143910Y-58349148D01*
X180027991Y-58326091D01*
X179846002Y-58250709D01*
X179682217Y-58141271D01*
X179542929Y-58001983D01*
X179433491Y-57838198D01*
X179358109Y-57656209D01*
X179319680Y-57463011D01*
X179319680Y-57266029D01*
X179358109Y-57072831D01*
X179433491Y-56890842D01*
X179542929Y-56727057D01*
X179682217Y-56587769D01*
X179846002Y-56478331D01*
X180027991Y-56402949D01*
X180145532Y-56379569D01*
X180221187Y-56364520D01*
X180418173Y-56364520D01*
X180493828Y-56379569D01*
X180493828Y-56379569D01*
G37*
G36*
X135603055Y-56283685D02*
X135633131Y-56292808D01*
X135660845Y-56307622D01*
X135685140Y-56327560D01*
X135705078Y-56351855D01*
X135719892Y-56379569D01*
X135729015Y-56409645D01*
X135732700Y-56447059D01*
X135732700Y-57852941D01*
X135729015Y-57890355D01*
X135719892Y-57920431D01*
X135705078Y-57948145D01*
X135685140Y-57972440D01*
X135660845Y-57992378D01*
X135633131Y-58007192D01*
X135603055Y-58016315D01*
X135565641Y-58020000D01*
X133699759Y-58020000D01*
X133662345Y-58016315D01*
X133632269Y-58007192D01*
X133604555Y-57992378D01*
X133580260Y-57972440D01*
X133560322Y-57948145D01*
X133545508Y-57920431D01*
X133536385Y-57890355D01*
X133532700Y-57852941D01*
X133532700Y-56447059D01*
X133536385Y-56409645D01*
X133545508Y-56379569D01*
X133560322Y-56351855D01*
X133580260Y-56327560D01*
X133604555Y-56307622D01*
X133632269Y-56292808D01*
X133662345Y-56283685D01*
X133699759Y-56280000D01*
X135565641Y-56280000D01*
X135603055Y-56283685D01*
X135603055Y-56283685D01*
G37*
G36*
X163199586Y-55210635D02*
X163417972Y-55301093D01*
X163614518Y-55432421D01*
X163781659Y-55599562D01*
X163912987Y-55796108D01*
X164003445Y-56014494D01*
X164049560Y-56246329D01*
X164049560Y-56482711D01*
X164003445Y-56714546D01*
X163912987Y-56932932D01*
X163781659Y-57129478D01*
X163614518Y-57296619D01*
X163417972Y-57427947D01*
X163199586Y-57518405D01*
X162967751Y-57564520D01*
X162731369Y-57564520D01*
X162499534Y-57518405D01*
X162281148Y-57427947D01*
X162084602Y-57296619D01*
X161917461Y-57129478D01*
X161786133Y-56932932D01*
X161695675Y-56714546D01*
X161649560Y-56482711D01*
X161649560Y-56246329D01*
X161695675Y-56014494D01*
X161786133Y-55796108D01*
X161917461Y-55599562D01*
X162084602Y-55432421D01*
X162281148Y-55301093D01*
X162499534Y-55210635D01*
X162731369Y-55164520D01*
X162967751Y-55164520D01*
X163199586Y-55210635D01*
X163199586Y-55210635D01*
G37*
G36*
X146679426Y-55210635D02*
X146897812Y-55301093D01*
X147094358Y-55432421D01*
X147261499Y-55599562D01*
X147392827Y-55796108D01*
X147483285Y-56014494D01*
X147529400Y-56246329D01*
X147529400Y-56482711D01*
X147483285Y-56714546D01*
X147392827Y-56932932D01*
X147261499Y-57129478D01*
X147094358Y-57296619D01*
X146897812Y-57427947D01*
X146679426Y-57518405D01*
X146447591Y-57564520D01*
X146211209Y-57564520D01*
X145979374Y-57518405D01*
X145760988Y-57427947D01*
X145564442Y-57296619D01*
X145397301Y-57129478D01*
X145265973Y-56932932D01*
X145175515Y-56714546D01*
X145129400Y-56482711D01*
X145129400Y-56246329D01*
X145175515Y-56014494D01*
X145265973Y-55796108D01*
X145397301Y-55599562D01*
X145564442Y-55432421D01*
X145760988Y-55301093D01*
X145979374Y-55210635D01*
X146211209Y-55164520D01*
X146447591Y-55164520D01*
X146679426Y-55210635D01*
X146679426Y-55210635D01*
G37*
G36*
X181319680Y-54864520D02*
X179319680Y-54864520D01*
X179319680Y-52864520D01*
X181319680Y-52864520D01*
X181319680Y-54864520D01*
X181319680Y-54864520D01*
G37*
G36*
X133337039Y-52382916D02*
X133544386Y-52445815D01*
X133544388Y-52445816D01*
X133735484Y-52547958D01*
X133902981Y-52685419D01*
X134040442Y-52852916D01*
X134142584Y-53044012D01*
X134205484Y-53251362D01*
X134226722Y-53467000D01*
X134205484Y-53682638D01*
X134142584Y-53889988D01*
X134040442Y-54081084D01*
X133902981Y-54248581D01*
X133735484Y-54386042D01*
X133544388Y-54488184D01*
X133544386Y-54488185D01*
X133337039Y-54551084D01*
X133175438Y-54567000D01*
X133067362Y-54567000D01*
X132905761Y-54551084D01*
X132698414Y-54488185D01*
X132698412Y-54488184D01*
X132507316Y-54386042D01*
X132339819Y-54248581D01*
X132202358Y-54081084D01*
X132100216Y-53889988D01*
X132037316Y-53682638D01*
X132016078Y-53467000D01*
X132037316Y-53251362D01*
X132100216Y-53044012D01*
X132202358Y-52852916D01*
X132339819Y-52685419D01*
X132507316Y-52547958D01*
X132698412Y-52445816D01*
X132698414Y-52445815D01*
X132905761Y-52382916D01*
X133067362Y-52367000D01*
X133175438Y-52367000D01*
X133337039Y-52382916D01*
X133337039Y-52382916D01*
G37*
G36*
X136588239Y-52382916D02*
X136795586Y-52445815D01*
X136795588Y-52445816D01*
X136986684Y-52547958D01*
X137154181Y-52685419D01*
X137291642Y-52852916D01*
X137393784Y-53044012D01*
X137456684Y-53251362D01*
X137477922Y-53467000D01*
X137456684Y-53682638D01*
X137393784Y-53889988D01*
X137291642Y-54081084D01*
X137154181Y-54248581D01*
X136986684Y-54386042D01*
X136795588Y-54488184D01*
X136795586Y-54488185D01*
X136588239Y-54551084D01*
X136426638Y-54567000D01*
X136318562Y-54567000D01*
X136156961Y-54551084D01*
X135949614Y-54488185D01*
X135949612Y-54488184D01*
X135758516Y-54386042D01*
X135591019Y-54248581D01*
X135453558Y-54081084D01*
X135351416Y-53889988D01*
X135288516Y-53682638D01*
X135267278Y-53467000D01*
X135288516Y-53251362D01*
X135351416Y-53044012D01*
X135453558Y-52852916D01*
X135591019Y-52685419D01*
X135758516Y-52547958D01*
X135949612Y-52445816D01*
X135949614Y-52445815D01*
X136156961Y-52382916D01*
X136318562Y-52367000D01*
X136426638Y-52367000D01*
X136588239Y-52382916D01*
X136588239Y-52382916D01*
G37*
G36*
X147529400Y-50064520D02*
X145129400Y-50064520D01*
X145129400Y-47664520D01*
X147529400Y-47664520D01*
X147529400Y-50064520D01*
X147529400Y-50064520D01*
G37*
G36*
X164049560Y-50064520D02*
X161649560Y-50064520D01*
X161649560Y-47664520D01*
X164049560Y-47664520D01*
X164049560Y-50064520D01*
X164049560Y-50064520D01*
G37*
G36*
X134221400Y-46947000D02*
X132021400Y-46947000D01*
X132021400Y-44747000D01*
X134221400Y-44747000D01*
X134221400Y-46947000D01*
X134221400Y-46947000D01*
G37*
G36*
X137472600Y-46947000D02*
X135272600Y-46947000D01*
X135272600Y-44747000D01*
X137472600Y-44747000D01*
X137472600Y-46947000D01*
X137472600Y-46947000D01*
G37*
M02*
