G04 #@! TF.GenerationSoftware,KiCad,Pcbnew,5.0.1-33cea8e~67~ubuntu18.04.1*
G04 #@! TF.CreationDate,2018-10-21T17:35:32+02:00*
G04 #@! TF.ProjectId,CondorCabSim,436F6E646F7243616253696D2E6B6963,rev?*
G04 #@! TF.SameCoordinates,Original*
G04 #@! TF.FileFunction,Legend,Bot*
G04 #@! TF.FilePolarity,Positive*
%FSLAX46Y46*%
G04 Gerber Fmt 4.6, Leading zero omitted, Abs format (unit mm)*
G04 Created by KiCad (PCBNEW 5.0.1-33cea8e~67~ubuntu18.04.1) date Sun 21 Oct 2018 05:35:32 PM CEST*
%MOMM*%
%LPD*%
G01*
G04 APERTURE LIST*
%ADD10C,0.120000*%
%ADD11C,0.150000*%
G04 APERTURE END LIST*
D10*
G04 #@! TO.C,R30*
X176331200Y-56942264D02*
X176331200Y-55738136D01*
X178151200Y-56942264D02*
X178151200Y-55738136D01*
G04 #@! TO.C,D8*
X176365800Y-67849800D02*
X176365800Y-70399800D01*
X178065800Y-67849800D02*
X178065800Y-70399800D01*
X176365800Y-67849800D02*
X178065800Y-67849800D01*
G04 #@! TO.C,D10*
X183617500Y-64641600D02*
X183617500Y-67191600D01*
X185317500Y-64641600D02*
X185317500Y-67191600D01*
X183617500Y-64641600D02*
X185317500Y-64641600D01*
G04 #@! TO.C,U6*
X175733300Y-67924600D02*
X169723300Y-67924600D01*
X173483300Y-74744600D02*
X169723300Y-74744600D01*
X169723300Y-67924600D02*
X169723300Y-69184600D01*
X169723300Y-74744600D02*
X169723300Y-73484600D01*
G04 #@! TO.C,C33*
X148158519Y-87045260D02*
X147832961Y-87045260D01*
X148158519Y-86025260D02*
X147832961Y-86025260D01*
G04 #@! TO.C,C16*
X162339560Y-52735161D02*
X162339560Y-53060719D01*
X163359560Y-52735161D02*
X163359560Y-53060719D01*
G04 #@! TO.C,C17*
X163359560Y-69042161D02*
X163359560Y-69367719D01*
X162339560Y-69042161D02*
X162339560Y-69367719D01*
G04 #@! TO.C,C22*
X171724300Y-55927200D02*
X171724300Y-56552200D01*
X172036800Y-56239700D02*
X171411800Y-56239700D01*
X171171800Y-59620263D02*
X170107363Y-60684700D01*
X171171800Y-56229137D02*
X170107363Y-55164700D01*
X171171800Y-56229137D02*
X171171800Y-56864700D01*
X171171800Y-59620263D02*
X171171800Y-58984700D01*
X170107363Y-60684700D02*
X165651800Y-60684700D01*
X170107363Y-55164700D02*
X165651800Y-55164700D01*
X165651800Y-55164700D02*
X165651800Y-56864700D01*
X165651800Y-60684700D02*
X165651800Y-58984700D01*
G04 #@! TO.C,C23*
X171171800Y-60994000D02*
X171171800Y-62694000D01*
X171171800Y-66514000D02*
X171171800Y-64814000D01*
X166716237Y-66514000D02*
X171171800Y-66514000D01*
X166716237Y-60994000D02*
X171171800Y-60994000D01*
X165651800Y-62058437D02*
X165651800Y-62694000D01*
X165651800Y-65449563D02*
X165651800Y-64814000D01*
X165651800Y-65449563D02*
X166716237Y-66514000D01*
X165651800Y-62058437D02*
X166716237Y-60994000D01*
X164786800Y-65439000D02*
X165411800Y-65439000D01*
X165099300Y-65751500D02*
X165099300Y-65126500D01*
G04 #@! TO.C,C25*
X161694400Y-83936521D02*
X161694400Y-84262079D01*
X162714400Y-83936521D02*
X162714400Y-84262079D01*
G04 #@! TO.C,C29*
X182917560Y-55783161D02*
X182917560Y-56108719D01*
X181897560Y-55783161D02*
X181897560Y-56108719D01*
G04 #@! TO.C,C30*
X182151560Y-65994161D02*
X182151560Y-66319719D01*
X183171560Y-65994161D02*
X183171560Y-66319719D01*
G04 #@! TO.C,C34*
X145720019Y-89835260D02*
X145394461Y-89835260D01*
X145720019Y-90855260D02*
X145394461Y-90855260D01*
G04 #@! TO.C,C35*
X176147000Y-99938721D02*
X176147000Y-100264279D01*
X177167000Y-99938721D02*
X177167000Y-100264279D01*
G04 #@! TO.C,C36*
X179957000Y-102427721D02*
X179957000Y-102753279D01*
X180977000Y-102427721D02*
X180977000Y-102753279D01*
G04 #@! TO.C,C37*
X136882600Y-49493720D02*
X136882600Y-49819278D01*
X135862600Y-49493720D02*
X135862600Y-49819278D01*
G04 #@! TO.C,C38*
X135872760Y-72100221D02*
X135872760Y-72425779D01*
X136892760Y-72100221D02*
X136892760Y-72425779D01*
G04 #@! TO.C,C39*
X133631400Y-49493720D02*
X133631400Y-49819278D01*
X132611400Y-49493720D02*
X132611400Y-49819278D01*
G04 #@! TO.C,C40*
X133631400Y-72201921D02*
X133631400Y-72527479D01*
X132611400Y-72201921D02*
X132611400Y-72527479D01*
G04 #@! TO.C,D5*
X165304100Y-47649000D02*
X167004100Y-47649000D01*
X167004100Y-47649000D02*
X167004100Y-50199000D01*
X165304100Y-47649000D02*
X165304100Y-50199000D01*
G04 #@! TO.C,D6*
X166991400Y-74855200D02*
X166991400Y-72305200D01*
X165291400Y-74855200D02*
X165291400Y-72305200D01*
X166991400Y-74855200D02*
X165291400Y-74855200D01*
G04 #@! TO.C,D7*
X165304100Y-50938300D02*
X167004100Y-50938300D01*
X167004100Y-50938300D02*
X167004100Y-53488300D01*
X165304100Y-50938300D02*
X165304100Y-53488300D01*
G04 #@! TO.C,D9*
X183338100Y-54494300D02*
X185038100Y-54494300D01*
X185038100Y-54494300D02*
X185038100Y-57044300D01*
X183338100Y-54494300D02*
X183338100Y-57044300D01*
G04 #@! TO.C,R3*
X155191544Y-47954520D02*
X153987416Y-47954520D01*
X155191544Y-49774520D02*
X153987416Y-49774520D01*
G04 #@! TO.C,R4*
X155191544Y-73779440D02*
X153987416Y-73779440D01*
X155191544Y-71959440D02*
X153987416Y-71959440D01*
G04 #@! TO.C,R10*
X174616878Y-57697440D02*
X174099722Y-57697440D01*
X174616878Y-56277440D02*
X174099722Y-56277440D01*
G04 #@! TO.C,R12*
X174099722Y-65327600D02*
X174616878Y-65327600D01*
X174099722Y-63907600D02*
X174616878Y-63907600D01*
G04 #@! TO.C,R13*
X174099722Y-54245440D02*
X174616878Y-54245440D01*
X174099722Y-55665440D02*
X174616878Y-55665440D01*
G04 #@! TO.C,R18*
X174616878Y-67334200D02*
X174099722Y-67334200D01*
X174616878Y-65914200D02*
X174099722Y-65914200D01*
G04 #@! TO.C,R21*
X157605000Y-83962121D02*
X157605000Y-84287679D01*
X158625000Y-83962121D02*
X158625000Y-84287679D01*
G04 #@! TO.C,U2*
X173537400Y-46932800D02*
X173537400Y-48192800D01*
X173537400Y-53752800D02*
X173537400Y-52492800D01*
X169777400Y-46932800D02*
X173537400Y-46932800D01*
X167527400Y-53752800D02*
X173537400Y-53752800D01*
G04 #@! TO.C,R32*
X174099722Y-58309440D02*
X174616878Y-58309440D01*
X174099722Y-59729440D02*
X174616878Y-59729440D01*
G04 #@! TO.C,R33*
X174616878Y-61901000D02*
X174099722Y-61901000D01*
X174616878Y-63321000D02*
X174099722Y-63321000D01*
G04 #@! TO.C,C41*
X135925879Y-87479600D02*
X135600321Y-87479600D01*
X135925879Y-86459600D02*
X135600321Y-86459600D01*
G04 #@! TO.C,C42*
X133538079Y-90269600D02*
X133212521Y-90269600D01*
X133538079Y-91289600D02*
X133212521Y-91289600D01*
G04 #@! TO.C,C43*
X177529769Y-109357955D02*
X177529769Y-109683513D01*
X178549769Y-109357955D02*
X178549769Y-109683513D01*
G04 #@! TO.C,C44*
X182359769Y-111262955D02*
X182359769Y-111588513D01*
X181339769Y-111262955D02*
X181339769Y-111588513D01*
G04 #@! TO.C,R31*
X178125800Y-65826264D02*
X178125800Y-64622136D01*
X176305800Y-65826264D02*
X176305800Y-64622136D01*
G04 #@! TD*
G04 #@! TO.C,R30*
D11*
X178569880Y-52189142D02*
X178093690Y-51855809D01*
X178569880Y-51617714D02*
X177569880Y-51617714D01*
X177569880Y-51998666D01*
X177617500Y-52093904D01*
X177665119Y-52141523D01*
X177760357Y-52189142D01*
X177903214Y-52189142D01*
X177998452Y-52141523D01*
X178046071Y-52093904D01*
X178093690Y-51998666D01*
X178093690Y-51617714D01*
X177569880Y-52522476D02*
X177569880Y-53141523D01*
X177950833Y-52808190D01*
X177950833Y-52951047D01*
X177998452Y-53046285D01*
X178046071Y-53093904D01*
X178141309Y-53141523D01*
X178379404Y-53141523D01*
X178474642Y-53093904D01*
X178522261Y-53046285D01*
X178569880Y-52951047D01*
X178569880Y-52665333D01*
X178522261Y-52570095D01*
X178474642Y-52522476D01*
X177569880Y-53760571D02*
X177569880Y-53855809D01*
X177617500Y-53951047D01*
X177665119Y-53998666D01*
X177760357Y-54046285D01*
X177950833Y-54093904D01*
X178188928Y-54093904D01*
X178379404Y-54046285D01*
X178474642Y-53998666D01*
X178522261Y-53951047D01*
X178569880Y-53855809D01*
X178569880Y-53760571D01*
X178522261Y-53665333D01*
X178474642Y-53617714D01*
X178379404Y-53570095D01*
X178188928Y-53522476D01*
X177950833Y-53522476D01*
X177760357Y-53570095D01*
X177665119Y-53617714D01*
X177617500Y-53665333D01*
X177569880Y-53760571D01*
G04 #@! TO.C,D8*
X179522380Y-69175404D02*
X178522380Y-69175404D01*
X178522380Y-69413500D01*
X178570000Y-69556357D01*
X178665238Y-69651595D01*
X178760476Y-69699214D01*
X178950952Y-69746833D01*
X179093809Y-69746833D01*
X179284285Y-69699214D01*
X179379523Y-69651595D01*
X179474761Y-69556357D01*
X179522380Y-69413500D01*
X179522380Y-69175404D01*
X178950952Y-70318261D02*
X178903333Y-70223023D01*
X178855714Y-70175404D01*
X178760476Y-70127785D01*
X178712857Y-70127785D01*
X178617619Y-70175404D01*
X178570000Y-70223023D01*
X178522380Y-70318261D01*
X178522380Y-70508738D01*
X178570000Y-70603976D01*
X178617619Y-70651595D01*
X178712857Y-70699214D01*
X178760476Y-70699214D01*
X178855714Y-70651595D01*
X178903333Y-70603976D01*
X178950952Y-70508738D01*
X178950952Y-70318261D01*
X178998571Y-70223023D01*
X179046190Y-70175404D01*
X179141428Y-70127785D01*
X179331904Y-70127785D01*
X179427142Y-70175404D01*
X179474761Y-70223023D01*
X179522380Y-70318261D01*
X179522380Y-70508738D01*
X179474761Y-70603976D01*
X179427142Y-70651595D01*
X179331904Y-70699214D01*
X179141428Y-70699214D01*
X179046190Y-70651595D01*
X178998571Y-70603976D01*
X178950952Y-70508738D01*
G04 #@! TO.C,D10*
X186634380Y-64762214D02*
X185634380Y-64762214D01*
X185634380Y-65000309D01*
X185682000Y-65143166D01*
X185777238Y-65238404D01*
X185872476Y-65286023D01*
X186062952Y-65333642D01*
X186205809Y-65333642D01*
X186396285Y-65286023D01*
X186491523Y-65238404D01*
X186586761Y-65143166D01*
X186634380Y-65000309D01*
X186634380Y-64762214D01*
X186634380Y-66286023D02*
X186634380Y-65714595D01*
X186634380Y-66000309D02*
X185634380Y-66000309D01*
X185777238Y-65905071D01*
X185872476Y-65809833D01*
X185920095Y-65714595D01*
X185634380Y-66905071D02*
X185634380Y-67000309D01*
X185682000Y-67095547D01*
X185729619Y-67143166D01*
X185824857Y-67190785D01*
X186015333Y-67238404D01*
X186253428Y-67238404D01*
X186443904Y-67190785D01*
X186539142Y-67143166D01*
X186586761Y-67095547D01*
X186634380Y-67000309D01*
X186634380Y-66905071D01*
X186586761Y-66809833D01*
X186539142Y-66762214D01*
X186443904Y-66714595D01*
X186253428Y-66666976D01*
X186015333Y-66666976D01*
X185824857Y-66714595D01*
X185729619Y-66762214D01*
X185682000Y-66809833D01*
X185634380Y-66905071D01*
G04 #@! TO.C,U6*
X172338904Y-75144380D02*
X172338904Y-75953904D01*
X172291285Y-76049142D01*
X172243666Y-76096761D01*
X172148428Y-76144380D01*
X171957952Y-76144380D01*
X171862714Y-76096761D01*
X171815095Y-76049142D01*
X171767476Y-75953904D01*
X171767476Y-75144380D01*
X170862714Y-75144380D02*
X171053190Y-75144380D01*
X171148428Y-75192000D01*
X171196047Y-75239619D01*
X171291285Y-75382476D01*
X171338904Y-75572952D01*
X171338904Y-75953904D01*
X171291285Y-76049142D01*
X171243666Y-76096761D01*
X171148428Y-76144380D01*
X170957952Y-76144380D01*
X170862714Y-76096761D01*
X170815095Y-76049142D01*
X170767476Y-75953904D01*
X170767476Y-75715809D01*
X170815095Y-75620571D01*
X170862714Y-75572952D01*
X170957952Y-75525333D01*
X171148428Y-75525333D01*
X171243666Y-75572952D01*
X171291285Y-75620571D01*
X171338904Y-75715809D01*
G04 #@! TO.C,C33*
X148638597Y-85462402D02*
X148686216Y-85510021D01*
X148829073Y-85557640D01*
X148924311Y-85557640D01*
X149067168Y-85510021D01*
X149162406Y-85414783D01*
X149210025Y-85319545D01*
X149257644Y-85129069D01*
X149257644Y-84986212D01*
X149210025Y-84795736D01*
X149162406Y-84700498D01*
X149067168Y-84605260D01*
X148924311Y-84557640D01*
X148829073Y-84557640D01*
X148686216Y-84605260D01*
X148638597Y-84652879D01*
X148305263Y-84557640D02*
X147686216Y-84557640D01*
X148019549Y-84938593D01*
X147876692Y-84938593D01*
X147781454Y-84986212D01*
X147733835Y-85033831D01*
X147686216Y-85129069D01*
X147686216Y-85367164D01*
X147733835Y-85462402D01*
X147781454Y-85510021D01*
X147876692Y-85557640D01*
X148162406Y-85557640D01*
X148257644Y-85510021D01*
X148305263Y-85462402D01*
X147352882Y-84557640D02*
X146733835Y-84557640D01*
X147067168Y-84938593D01*
X146924311Y-84938593D01*
X146829073Y-84986212D01*
X146781454Y-85033831D01*
X146733835Y-85129069D01*
X146733835Y-85367164D01*
X146781454Y-85462402D01*
X146829073Y-85510021D01*
X146924311Y-85557640D01*
X147210025Y-85557640D01*
X147305263Y-85510021D01*
X147352882Y-85462402D01*
G04 #@! TO.C,C16*
X161776702Y-52255082D02*
X161824321Y-52207463D01*
X161871940Y-52064606D01*
X161871940Y-51969368D01*
X161824321Y-51826511D01*
X161729083Y-51731273D01*
X161633845Y-51683654D01*
X161443369Y-51636035D01*
X161300512Y-51636035D01*
X161110036Y-51683654D01*
X161014798Y-51731273D01*
X160919560Y-51826511D01*
X160871940Y-51969368D01*
X160871940Y-52064606D01*
X160919560Y-52207463D01*
X160967179Y-52255082D01*
X161871940Y-53207463D02*
X161871940Y-52636035D01*
X161871940Y-52921749D02*
X160871940Y-52921749D01*
X161014798Y-52826511D01*
X161110036Y-52731273D01*
X161157655Y-52636035D01*
X160871940Y-54064606D02*
X160871940Y-53874130D01*
X160919560Y-53778892D01*
X160967179Y-53731273D01*
X161110036Y-53636035D01*
X161300512Y-53588416D01*
X161681464Y-53588416D01*
X161776702Y-53636035D01*
X161824321Y-53683654D01*
X161871940Y-53778892D01*
X161871940Y-53969368D01*
X161824321Y-54064606D01*
X161776702Y-54112225D01*
X161681464Y-54159844D01*
X161443369Y-54159844D01*
X161348131Y-54112225D01*
X161300512Y-54064606D01*
X161252893Y-53969368D01*
X161252893Y-53778892D01*
X161300512Y-53683654D01*
X161348131Y-53636035D01*
X161443369Y-53588416D01*
G04 #@! TO.C,C17*
X161776702Y-68562082D02*
X161824321Y-68514463D01*
X161871940Y-68371606D01*
X161871940Y-68276368D01*
X161824321Y-68133511D01*
X161729083Y-68038273D01*
X161633845Y-67990654D01*
X161443369Y-67943035D01*
X161300512Y-67943035D01*
X161110036Y-67990654D01*
X161014798Y-68038273D01*
X160919560Y-68133511D01*
X160871940Y-68276368D01*
X160871940Y-68371606D01*
X160919560Y-68514463D01*
X160967179Y-68562082D01*
X161871940Y-69514463D02*
X161871940Y-68943035D01*
X161871940Y-69228749D02*
X160871940Y-69228749D01*
X161014798Y-69133511D01*
X161110036Y-69038273D01*
X161157655Y-68943035D01*
X160871940Y-69847797D02*
X160871940Y-70514463D01*
X161871940Y-70085892D01*
G04 #@! TO.C,C22*
X164726857Y-60428142D02*
X164774476Y-60475761D01*
X164917333Y-60523380D01*
X165012571Y-60523380D01*
X165155428Y-60475761D01*
X165250666Y-60380523D01*
X165298285Y-60285285D01*
X165345904Y-60094809D01*
X165345904Y-59951952D01*
X165298285Y-59761476D01*
X165250666Y-59666238D01*
X165155428Y-59571000D01*
X165012571Y-59523380D01*
X164917333Y-59523380D01*
X164774476Y-59571000D01*
X164726857Y-59618619D01*
X164345904Y-59618619D02*
X164298285Y-59571000D01*
X164203047Y-59523380D01*
X163964952Y-59523380D01*
X163869714Y-59571000D01*
X163822095Y-59618619D01*
X163774476Y-59713857D01*
X163774476Y-59809095D01*
X163822095Y-59951952D01*
X164393523Y-60523380D01*
X163774476Y-60523380D01*
X163393523Y-59618619D02*
X163345904Y-59571000D01*
X163250666Y-59523380D01*
X163012571Y-59523380D01*
X162917333Y-59571000D01*
X162869714Y-59618619D01*
X162822095Y-59713857D01*
X162822095Y-59809095D01*
X162869714Y-59951952D01*
X163441142Y-60523380D01*
X162822095Y-60523380D01*
G04 #@! TO.C,C23*
X164853857Y-62333142D02*
X164901476Y-62380761D01*
X165044333Y-62428380D01*
X165139571Y-62428380D01*
X165282428Y-62380761D01*
X165377666Y-62285523D01*
X165425285Y-62190285D01*
X165472904Y-61999809D01*
X165472904Y-61856952D01*
X165425285Y-61666476D01*
X165377666Y-61571238D01*
X165282428Y-61476000D01*
X165139571Y-61428380D01*
X165044333Y-61428380D01*
X164901476Y-61476000D01*
X164853857Y-61523619D01*
X164472904Y-61523619D02*
X164425285Y-61476000D01*
X164330047Y-61428380D01*
X164091952Y-61428380D01*
X163996714Y-61476000D01*
X163949095Y-61523619D01*
X163901476Y-61618857D01*
X163901476Y-61714095D01*
X163949095Y-61856952D01*
X164520523Y-62428380D01*
X163901476Y-62428380D01*
X163568142Y-61428380D02*
X162949095Y-61428380D01*
X163282428Y-61809333D01*
X163139571Y-61809333D01*
X163044333Y-61856952D01*
X162996714Y-61904571D01*
X162949095Y-61999809D01*
X162949095Y-62237904D01*
X162996714Y-62333142D01*
X163044333Y-62380761D01*
X163139571Y-62428380D01*
X163425285Y-62428380D01*
X163520523Y-62380761D01*
X163568142Y-62333142D01*
G04 #@! TO.C,C25*
X163933142Y-83456442D02*
X163980761Y-83408823D01*
X164028380Y-83265966D01*
X164028380Y-83170728D01*
X163980761Y-83027871D01*
X163885523Y-82932633D01*
X163790285Y-82885014D01*
X163599809Y-82837395D01*
X163456952Y-82837395D01*
X163266476Y-82885014D01*
X163171238Y-82932633D01*
X163076000Y-83027871D01*
X163028380Y-83170728D01*
X163028380Y-83265966D01*
X163076000Y-83408823D01*
X163123619Y-83456442D01*
X163123619Y-83837395D02*
X163076000Y-83885014D01*
X163028380Y-83980252D01*
X163028380Y-84218347D01*
X163076000Y-84313585D01*
X163123619Y-84361204D01*
X163218857Y-84408823D01*
X163314095Y-84408823D01*
X163456952Y-84361204D01*
X164028380Y-83789776D01*
X164028380Y-84408823D01*
X163028380Y-85313585D02*
X163028380Y-84837395D01*
X163504571Y-84789776D01*
X163456952Y-84837395D01*
X163409333Y-84932633D01*
X163409333Y-85170728D01*
X163456952Y-85265966D01*
X163504571Y-85313585D01*
X163599809Y-85361204D01*
X163837904Y-85361204D01*
X163933142Y-85313585D01*
X163980761Y-85265966D01*
X164028380Y-85170728D01*
X164028380Y-84932633D01*
X163980761Y-84837395D01*
X163933142Y-84789776D01*
G04 #@! TO.C,C29*
X182792642Y-57904142D02*
X182840261Y-57856523D01*
X182887880Y-57713666D01*
X182887880Y-57618428D01*
X182840261Y-57475571D01*
X182745023Y-57380333D01*
X182649785Y-57332714D01*
X182459309Y-57285095D01*
X182316452Y-57285095D01*
X182125976Y-57332714D01*
X182030738Y-57380333D01*
X181935500Y-57475571D01*
X181887880Y-57618428D01*
X181887880Y-57713666D01*
X181935500Y-57856523D01*
X181983119Y-57904142D01*
X181983119Y-58285095D02*
X181935500Y-58332714D01*
X181887880Y-58427952D01*
X181887880Y-58666047D01*
X181935500Y-58761285D01*
X181983119Y-58808904D01*
X182078357Y-58856523D01*
X182173595Y-58856523D01*
X182316452Y-58808904D01*
X182887880Y-58237476D01*
X182887880Y-58856523D01*
X182887880Y-59332714D02*
X182887880Y-59523190D01*
X182840261Y-59618428D01*
X182792642Y-59666047D01*
X182649785Y-59761285D01*
X182459309Y-59808904D01*
X182078357Y-59808904D01*
X181983119Y-59761285D01*
X181935500Y-59713666D01*
X181887880Y-59618428D01*
X181887880Y-59427952D01*
X181935500Y-59332714D01*
X181983119Y-59285095D01*
X182078357Y-59237476D01*
X182316452Y-59237476D01*
X182411690Y-59285095D01*
X182459309Y-59332714D01*
X182506928Y-59427952D01*
X182506928Y-59618428D01*
X182459309Y-59713666D01*
X182411690Y-59761285D01*
X182316452Y-59808904D01*
G04 #@! TO.C,C30*
X183173642Y-62539642D02*
X183221261Y-62492023D01*
X183268880Y-62349166D01*
X183268880Y-62253928D01*
X183221261Y-62111071D01*
X183126023Y-62015833D01*
X183030785Y-61968214D01*
X182840309Y-61920595D01*
X182697452Y-61920595D01*
X182506976Y-61968214D01*
X182411738Y-62015833D01*
X182316500Y-62111071D01*
X182268880Y-62253928D01*
X182268880Y-62349166D01*
X182316500Y-62492023D01*
X182364119Y-62539642D01*
X182268880Y-62872976D02*
X182268880Y-63492023D01*
X182649833Y-63158690D01*
X182649833Y-63301547D01*
X182697452Y-63396785D01*
X182745071Y-63444404D01*
X182840309Y-63492023D01*
X183078404Y-63492023D01*
X183173642Y-63444404D01*
X183221261Y-63396785D01*
X183268880Y-63301547D01*
X183268880Y-63015833D01*
X183221261Y-62920595D01*
X183173642Y-62872976D01*
X182268880Y-64111071D02*
X182268880Y-64206309D01*
X182316500Y-64301547D01*
X182364119Y-64349166D01*
X182459357Y-64396785D01*
X182649833Y-64444404D01*
X182887928Y-64444404D01*
X183078404Y-64396785D01*
X183173642Y-64349166D01*
X183221261Y-64301547D01*
X183268880Y-64206309D01*
X183268880Y-64111071D01*
X183221261Y-64015833D01*
X183173642Y-63968214D01*
X183078404Y-63920595D01*
X182887928Y-63872976D01*
X182649833Y-63872976D01*
X182459357Y-63920595D01*
X182364119Y-63968214D01*
X182316500Y-64015833D01*
X182268880Y-64111071D01*
G04 #@! TO.C,C34*
X146200097Y-89272402D02*
X146247716Y-89320021D01*
X146390573Y-89367640D01*
X146485811Y-89367640D01*
X146628668Y-89320021D01*
X146723906Y-89224783D01*
X146771525Y-89129545D01*
X146819144Y-88939069D01*
X146819144Y-88796212D01*
X146771525Y-88605736D01*
X146723906Y-88510498D01*
X146628668Y-88415260D01*
X146485811Y-88367640D01*
X146390573Y-88367640D01*
X146247716Y-88415260D01*
X146200097Y-88462879D01*
X145866763Y-88367640D02*
X145247716Y-88367640D01*
X145581049Y-88748593D01*
X145438192Y-88748593D01*
X145342954Y-88796212D01*
X145295335Y-88843831D01*
X145247716Y-88939069D01*
X145247716Y-89177164D01*
X145295335Y-89272402D01*
X145342954Y-89320021D01*
X145438192Y-89367640D01*
X145723906Y-89367640D01*
X145819144Y-89320021D01*
X145866763Y-89272402D01*
X144390573Y-88700974D02*
X144390573Y-89367640D01*
X144628668Y-88320021D02*
X144866763Y-89034307D01*
X144247716Y-89034307D01*
G04 #@! TO.C,C35*
X175584142Y-99458642D02*
X175631761Y-99411023D01*
X175679380Y-99268166D01*
X175679380Y-99172928D01*
X175631761Y-99030071D01*
X175536523Y-98934833D01*
X175441285Y-98887214D01*
X175250809Y-98839595D01*
X175107952Y-98839595D01*
X174917476Y-98887214D01*
X174822238Y-98934833D01*
X174727000Y-99030071D01*
X174679380Y-99172928D01*
X174679380Y-99268166D01*
X174727000Y-99411023D01*
X174774619Y-99458642D01*
X174679380Y-99791976D02*
X174679380Y-100411023D01*
X175060333Y-100077690D01*
X175060333Y-100220547D01*
X175107952Y-100315785D01*
X175155571Y-100363404D01*
X175250809Y-100411023D01*
X175488904Y-100411023D01*
X175584142Y-100363404D01*
X175631761Y-100315785D01*
X175679380Y-100220547D01*
X175679380Y-99934833D01*
X175631761Y-99839595D01*
X175584142Y-99791976D01*
X174679380Y-101315785D02*
X174679380Y-100839595D01*
X175155571Y-100791976D01*
X175107952Y-100839595D01*
X175060333Y-100934833D01*
X175060333Y-101172928D01*
X175107952Y-101268166D01*
X175155571Y-101315785D01*
X175250809Y-101363404D01*
X175488904Y-101363404D01*
X175584142Y-101315785D01*
X175631761Y-101268166D01*
X175679380Y-101172928D01*
X175679380Y-100934833D01*
X175631761Y-100839595D01*
X175584142Y-100791976D01*
G04 #@! TO.C,C36*
X179394142Y-101947642D02*
X179441761Y-101900023D01*
X179489380Y-101757166D01*
X179489380Y-101661928D01*
X179441761Y-101519071D01*
X179346523Y-101423833D01*
X179251285Y-101376214D01*
X179060809Y-101328595D01*
X178917952Y-101328595D01*
X178727476Y-101376214D01*
X178632238Y-101423833D01*
X178537000Y-101519071D01*
X178489380Y-101661928D01*
X178489380Y-101757166D01*
X178537000Y-101900023D01*
X178584619Y-101947642D01*
X178489380Y-102280976D02*
X178489380Y-102900023D01*
X178870333Y-102566690D01*
X178870333Y-102709547D01*
X178917952Y-102804785D01*
X178965571Y-102852404D01*
X179060809Y-102900023D01*
X179298904Y-102900023D01*
X179394142Y-102852404D01*
X179441761Y-102804785D01*
X179489380Y-102709547D01*
X179489380Y-102423833D01*
X179441761Y-102328595D01*
X179394142Y-102280976D01*
X178489380Y-103757166D02*
X178489380Y-103566690D01*
X178537000Y-103471452D01*
X178584619Y-103423833D01*
X178727476Y-103328595D01*
X178917952Y-103280976D01*
X179298904Y-103280976D01*
X179394142Y-103328595D01*
X179441761Y-103376214D01*
X179489380Y-103471452D01*
X179489380Y-103661928D01*
X179441761Y-103757166D01*
X179394142Y-103804785D01*
X179298904Y-103852404D01*
X179060809Y-103852404D01*
X178965571Y-103804785D01*
X178917952Y-103757166D01*
X178870333Y-103661928D01*
X178870333Y-103471452D01*
X178917952Y-103376214D01*
X178965571Y-103328595D01*
X179060809Y-103280976D01*
G04 #@! TO.C,C37*
X135299742Y-49013641D02*
X135347361Y-48966022D01*
X135394980Y-48823165D01*
X135394980Y-48727927D01*
X135347361Y-48585070D01*
X135252123Y-48489832D01*
X135156885Y-48442213D01*
X134966409Y-48394594D01*
X134823552Y-48394594D01*
X134633076Y-48442213D01*
X134537838Y-48489832D01*
X134442600Y-48585070D01*
X134394980Y-48727927D01*
X134394980Y-48823165D01*
X134442600Y-48966022D01*
X134490219Y-49013641D01*
X134394980Y-49346975D02*
X134394980Y-49966022D01*
X134775933Y-49632689D01*
X134775933Y-49775546D01*
X134823552Y-49870784D01*
X134871171Y-49918403D01*
X134966409Y-49966022D01*
X135204504Y-49966022D01*
X135299742Y-49918403D01*
X135347361Y-49870784D01*
X135394980Y-49775546D01*
X135394980Y-49489832D01*
X135347361Y-49394594D01*
X135299742Y-49346975D01*
X134394980Y-50299356D02*
X134394980Y-50966022D01*
X135394980Y-50537451D01*
G04 #@! TO.C,C38*
X135309902Y-71620142D02*
X135357521Y-71572523D01*
X135405140Y-71429666D01*
X135405140Y-71334428D01*
X135357521Y-71191571D01*
X135262283Y-71096333D01*
X135167045Y-71048714D01*
X134976569Y-71001095D01*
X134833712Y-71001095D01*
X134643236Y-71048714D01*
X134547998Y-71096333D01*
X134452760Y-71191571D01*
X134405140Y-71334428D01*
X134405140Y-71429666D01*
X134452760Y-71572523D01*
X134500379Y-71620142D01*
X134405140Y-71953476D02*
X134405140Y-72572523D01*
X134786093Y-72239190D01*
X134786093Y-72382047D01*
X134833712Y-72477285D01*
X134881331Y-72524904D01*
X134976569Y-72572523D01*
X135214664Y-72572523D01*
X135309902Y-72524904D01*
X135357521Y-72477285D01*
X135405140Y-72382047D01*
X135405140Y-72096333D01*
X135357521Y-72001095D01*
X135309902Y-71953476D01*
X134833712Y-73143952D02*
X134786093Y-73048714D01*
X134738474Y-73001095D01*
X134643236Y-72953476D01*
X134595617Y-72953476D01*
X134500379Y-73001095D01*
X134452760Y-73048714D01*
X134405140Y-73143952D01*
X134405140Y-73334428D01*
X134452760Y-73429666D01*
X134500379Y-73477285D01*
X134595617Y-73524904D01*
X134643236Y-73524904D01*
X134738474Y-73477285D01*
X134786093Y-73429666D01*
X134833712Y-73334428D01*
X134833712Y-73143952D01*
X134881331Y-73048714D01*
X134928950Y-73001095D01*
X135024188Y-72953476D01*
X135214664Y-72953476D01*
X135309902Y-73001095D01*
X135357521Y-73048714D01*
X135405140Y-73143952D01*
X135405140Y-73334428D01*
X135357521Y-73429666D01*
X135309902Y-73477285D01*
X135214664Y-73524904D01*
X135024188Y-73524904D01*
X134928950Y-73477285D01*
X134881331Y-73429666D01*
X134833712Y-73334428D01*
G04 #@! TO.C,C39*
X132048542Y-49013641D02*
X132096161Y-48966022D01*
X132143780Y-48823165D01*
X132143780Y-48727927D01*
X132096161Y-48585070D01*
X132000923Y-48489832D01*
X131905685Y-48442213D01*
X131715209Y-48394594D01*
X131572352Y-48394594D01*
X131381876Y-48442213D01*
X131286638Y-48489832D01*
X131191400Y-48585070D01*
X131143780Y-48727927D01*
X131143780Y-48823165D01*
X131191400Y-48966022D01*
X131239019Y-49013641D01*
X131143780Y-49346975D02*
X131143780Y-49966022D01*
X131524733Y-49632689D01*
X131524733Y-49775546D01*
X131572352Y-49870784D01*
X131619971Y-49918403D01*
X131715209Y-49966022D01*
X131953304Y-49966022D01*
X132048542Y-49918403D01*
X132096161Y-49870784D01*
X132143780Y-49775546D01*
X132143780Y-49489832D01*
X132096161Y-49394594D01*
X132048542Y-49346975D01*
X132143780Y-50442213D02*
X132143780Y-50632689D01*
X132096161Y-50727927D01*
X132048542Y-50775546D01*
X131905685Y-50870784D01*
X131715209Y-50918403D01*
X131334257Y-50918403D01*
X131239019Y-50870784D01*
X131191400Y-50823165D01*
X131143780Y-50727927D01*
X131143780Y-50537451D01*
X131191400Y-50442213D01*
X131239019Y-50394594D01*
X131334257Y-50346975D01*
X131572352Y-50346975D01*
X131667590Y-50394594D01*
X131715209Y-50442213D01*
X131762828Y-50537451D01*
X131762828Y-50727927D01*
X131715209Y-50823165D01*
X131667590Y-50870784D01*
X131572352Y-50918403D01*
G04 #@! TO.C,C40*
X132048542Y-71721842D02*
X132096161Y-71674223D01*
X132143780Y-71531366D01*
X132143780Y-71436128D01*
X132096161Y-71293271D01*
X132000923Y-71198033D01*
X131905685Y-71150414D01*
X131715209Y-71102795D01*
X131572352Y-71102795D01*
X131381876Y-71150414D01*
X131286638Y-71198033D01*
X131191400Y-71293271D01*
X131143780Y-71436128D01*
X131143780Y-71531366D01*
X131191400Y-71674223D01*
X131239019Y-71721842D01*
X131477114Y-72578985D02*
X132143780Y-72578985D01*
X131096161Y-72340890D02*
X131810447Y-72102795D01*
X131810447Y-72721842D01*
X131143780Y-73293271D02*
X131143780Y-73388509D01*
X131191400Y-73483747D01*
X131239019Y-73531366D01*
X131334257Y-73578985D01*
X131524733Y-73626604D01*
X131762828Y-73626604D01*
X131953304Y-73578985D01*
X132048542Y-73531366D01*
X132096161Y-73483747D01*
X132143780Y-73388509D01*
X132143780Y-73293271D01*
X132096161Y-73198033D01*
X132048542Y-73150414D01*
X131953304Y-73102795D01*
X131762828Y-73055176D01*
X131524733Y-73055176D01*
X131334257Y-73102795D01*
X131239019Y-73150414D01*
X131191400Y-73198033D01*
X131143780Y-73293271D01*
G04 #@! TO.C,D5*
X166631880Y-45680404D02*
X165631880Y-45680404D01*
X165631880Y-45918500D01*
X165679500Y-46061357D01*
X165774738Y-46156595D01*
X165869976Y-46204214D01*
X166060452Y-46251833D01*
X166203309Y-46251833D01*
X166393785Y-46204214D01*
X166489023Y-46156595D01*
X166584261Y-46061357D01*
X166631880Y-45918500D01*
X166631880Y-45680404D01*
X165631880Y-47156595D02*
X165631880Y-46680404D01*
X166108071Y-46632785D01*
X166060452Y-46680404D01*
X166012833Y-46775642D01*
X166012833Y-47013738D01*
X166060452Y-47108976D01*
X166108071Y-47156595D01*
X166203309Y-47204214D01*
X166441404Y-47204214D01*
X166536642Y-47156595D01*
X166584261Y-47108976D01*
X166631880Y-47013738D01*
X166631880Y-46775642D01*
X166584261Y-46680404D01*
X166536642Y-46632785D01*
G04 #@! TO.C,D6*
X168443780Y-72617104D02*
X167443780Y-72617104D01*
X167443780Y-72855200D01*
X167491400Y-72998057D01*
X167586638Y-73093295D01*
X167681876Y-73140914D01*
X167872352Y-73188533D01*
X168015209Y-73188533D01*
X168205685Y-73140914D01*
X168300923Y-73093295D01*
X168396161Y-72998057D01*
X168443780Y-72855200D01*
X168443780Y-72617104D01*
X167443780Y-74045676D02*
X167443780Y-73855200D01*
X167491400Y-73759961D01*
X167539019Y-73712342D01*
X167681876Y-73617104D01*
X167872352Y-73569485D01*
X168253304Y-73569485D01*
X168348542Y-73617104D01*
X168396161Y-73664723D01*
X168443780Y-73759961D01*
X168443780Y-73950438D01*
X168396161Y-74045676D01*
X168348542Y-74093295D01*
X168253304Y-74140914D01*
X168015209Y-74140914D01*
X167919971Y-74093295D01*
X167872352Y-74045676D01*
X167824733Y-73950438D01*
X167824733Y-73759961D01*
X167872352Y-73664723D01*
X167919971Y-73617104D01*
X168015209Y-73569485D01*
G04 #@! TO.C,D7*
X164756480Y-51700204D02*
X163756480Y-51700204D01*
X163756480Y-51938300D01*
X163804100Y-52081157D01*
X163899338Y-52176395D01*
X163994576Y-52224014D01*
X164185052Y-52271633D01*
X164327909Y-52271633D01*
X164518385Y-52224014D01*
X164613623Y-52176395D01*
X164708861Y-52081157D01*
X164756480Y-51938300D01*
X164756480Y-51700204D01*
X163756480Y-52604966D02*
X163756480Y-53271633D01*
X164756480Y-52843061D01*
G04 #@! TO.C,D9*
X186316880Y-55141904D02*
X185316880Y-55141904D01*
X185316880Y-55380000D01*
X185364500Y-55522857D01*
X185459738Y-55618095D01*
X185554976Y-55665714D01*
X185745452Y-55713333D01*
X185888309Y-55713333D01*
X186078785Y-55665714D01*
X186174023Y-55618095D01*
X186269261Y-55522857D01*
X186316880Y-55380000D01*
X186316880Y-55141904D01*
X186316880Y-56189523D02*
X186316880Y-56380000D01*
X186269261Y-56475238D01*
X186221642Y-56522857D01*
X186078785Y-56618095D01*
X185888309Y-56665714D01*
X185507357Y-56665714D01*
X185412119Y-56618095D01*
X185364500Y-56570476D01*
X185316880Y-56475238D01*
X185316880Y-56284761D01*
X185364500Y-56189523D01*
X185412119Y-56141904D01*
X185507357Y-56094285D01*
X185745452Y-56094285D01*
X185840690Y-56141904D01*
X185888309Y-56189523D01*
X185935928Y-56284761D01*
X185935928Y-56475238D01*
X185888309Y-56570476D01*
X185840690Y-56618095D01*
X185745452Y-56665714D01*
G04 #@! TO.C,R3*
X154756146Y-47496900D02*
X155089480Y-47020710D01*
X155327575Y-47496900D02*
X155327575Y-46496900D01*
X154946622Y-46496900D01*
X154851384Y-46544520D01*
X154803765Y-46592139D01*
X154756146Y-46687377D01*
X154756146Y-46830234D01*
X154803765Y-46925472D01*
X154851384Y-46973091D01*
X154946622Y-47020710D01*
X155327575Y-47020710D01*
X154422813Y-46496900D02*
X153803765Y-46496900D01*
X154137099Y-46877853D01*
X153994241Y-46877853D01*
X153899003Y-46925472D01*
X153851384Y-46973091D01*
X153803765Y-47068329D01*
X153803765Y-47306424D01*
X153851384Y-47401662D01*
X153899003Y-47449281D01*
X153994241Y-47496900D01*
X154279956Y-47496900D01*
X154375194Y-47449281D01*
X154422813Y-47401662D01*
G04 #@! TO.C,R4*
X154756146Y-71501820D02*
X155089480Y-71025630D01*
X155327575Y-71501820D02*
X155327575Y-70501820D01*
X154946622Y-70501820D01*
X154851384Y-70549440D01*
X154803765Y-70597059D01*
X154756146Y-70692297D01*
X154756146Y-70835154D01*
X154803765Y-70930392D01*
X154851384Y-70978011D01*
X154946622Y-71025630D01*
X155327575Y-71025630D01*
X153899003Y-70835154D02*
X153899003Y-71501820D01*
X154137099Y-70454201D02*
X154375194Y-71168487D01*
X153756146Y-71168487D01*
G04 #@! TO.C,R10*
X172537380Y-56634142D02*
X172061190Y-56300809D01*
X172537380Y-56062714D02*
X171537380Y-56062714D01*
X171537380Y-56443666D01*
X171585000Y-56538904D01*
X171632619Y-56586523D01*
X171727857Y-56634142D01*
X171870714Y-56634142D01*
X171965952Y-56586523D01*
X172013571Y-56538904D01*
X172061190Y-56443666D01*
X172061190Y-56062714D01*
X172537380Y-57586523D02*
X172537380Y-57015095D01*
X172537380Y-57300809D02*
X171537380Y-57300809D01*
X171680238Y-57205571D01*
X171775476Y-57110333D01*
X171823095Y-57015095D01*
X171537380Y-58205571D02*
X171537380Y-58300809D01*
X171585000Y-58396047D01*
X171632619Y-58443666D01*
X171727857Y-58491285D01*
X171918333Y-58538904D01*
X172156428Y-58538904D01*
X172346904Y-58491285D01*
X172442142Y-58443666D01*
X172489761Y-58396047D01*
X172537380Y-58300809D01*
X172537380Y-58205571D01*
X172489761Y-58110333D01*
X172442142Y-58062714D01*
X172346904Y-58015095D01*
X172156428Y-57967476D01*
X171918333Y-57967476D01*
X171727857Y-58015095D01*
X171632619Y-58062714D01*
X171585000Y-58110333D01*
X171537380Y-58205571D01*
G04 #@! TO.C,R12*
X172854880Y-64063642D02*
X172378690Y-63730309D01*
X172854880Y-63492214D02*
X171854880Y-63492214D01*
X171854880Y-63873166D01*
X171902500Y-63968404D01*
X171950119Y-64016023D01*
X172045357Y-64063642D01*
X172188214Y-64063642D01*
X172283452Y-64016023D01*
X172331071Y-63968404D01*
X172378690Y-63873166D01*
X172378690Y-63492214D01*
X172854880Y-65016023D02*
X172854880Y-64444595D01*
X172854880Y-64730309D02*
X171854880Y-64730309D01*
X171997738Y-64635071D01*
X172092976Y-64539833D01*
X172140595Y-64444595D01*
X171950119Y-65396976D02*
X171902500Y-65444595D01*
X171854880Y-65539833D01*
X171854880Y-65777928D01*
X171902500Y-65873166D01*
X171950119Y-65920785D01*
X172045357Y-65968404D01*
X172140595Y-65968404D01*
X172283452Y-65920785D01*
X172854880Y-65349357D01*
X172854880Y-65968404D01*
G04 #@! TO.C,R13*
X175839357Y-53919380D02*
X176172690Y-53443190D01*
X176410785Y-53919380D02*
X176410785Y-52919380D01*
X176029833Y-52919380D01*
X175934595Y-52967000D01*
X175886976Y-53014619D01*
X175839357Y-53109857D01*
X175839357Y-53252714D01*
X175886976Y-53347952D01*
X175934595Y-53395571D01*
X176029833Y-53443190D01*
X176410785Y-53443190D01*
X174886976Y-53919380D02*
X175458404Y-53919380D01*
X175172690Y-53919380D02*
X175172690Y-52919380D01*
X175267928Y-53062238D01*
X175363166Y-53157476D01*
X175458404Y-53205095D01*
X174553642Y-52919380D02*
X173934595Y-52919380D01*
X174267928Y-53300333D01*
X174125071Y-53300333D01*
X174029833Y-53347952D01*
X173982214Y-53395571D01*
X173934595Y-53490809D01*
X173934595Y-53728904D01*
X173982214Y-53824142D01*
X174029833Y-53871761D01*
X174125071Y-53919380D01*
X174410785Y-53919380D01*
X174506023Y-53871761D01*
X174553642Y-53824142D01*
G04 #@! TO.C,R18*
X172219857Y-67635380D02*
X172553190Y-67159190D01*
X172791285Y-67635380D02*
X172791285Y-66635380D01*
X172410333Y-66635380D01*
X172315095Y-66683000D01*
X172267476Y-66730619D01*
X172219857Y-66825857D01*
X172219857Y-66968714D01*
X172267476Y-67063952D01*
X172315095Y-67111571D01*
X172410333Y-67159190D01*
X172791285Y-67159190D01*
X171267476Y-67635380D02*
X171838904Y-67635380D01*
X171553190Y-67635380D02*
X171553190Y-66635380D01*
X171648428Y-66778238D01*
X171743666Y-66873476D01*
X171838904Y-66921095D01*
X170696047Y-67063952D02*
X170791285Y-67016333D01*
X170838904Y-66968714D01*
X170886523Y-66873476D01*
X170886523Y-66825857D01*
X170838904Y-66730619D01*
X170791285Y-66683000D01*
X170696047Y-66635380D01*
X170505571Y-66635380D01*
X170410333Y-66683000D01*
X170362714Y-66730619D01*
X170315095Y-66825857D01*
X170315095Y-66873476D01*
X170362714Y-66968714D01*
X170410333Y-67016333D01*
X170505571Y-67063952D01*
X170696047Y-67063952D01*
X170791285Y-67111571D01*
X170838904Y-67159190D01*
X170886523Y-67254428D01*
X170886523Y-67444904D01*
X170838904Y-67540142D01*
X170791285Y-67587761D01*
X170696047Y-67635380D01*
X170505571Y-67635380D01*
X170410333Y-67587761D01*
X170362714Y-67540142D01*
X170315095Y-67444904D01*
X170315095Y-67254428D01*
X170362714Y-67159190D01*
X170410333Y-67111571D01*
X170505571Y-67063952D01*
G04 #@! TO.C,R21*
X157137380Y-83482042D02*
X156661190Y-83148709D01*
X157137380Y-82910614D02*
X156137380Y-82910614D01*
X156137380Y-83291566D01*
X156185000Y-83386804D01*
X156232619Y-83434423D01*
X156327857Y-83482042D01*
X156470714Y-83482042D01*
X156565952Y-83434423D01*
X156613571Y-83386804D01*
X156661190Y-83291566D01*
X156661190Y-82910614D01*
X156232619Y-83862995D02*
X156185000Y-83910614D01*
X156137380Y-84005852D01*
X156137380Y-84243947D01*
X156185000Y-84339185D01*
X156232619Y-84386804D01*
X156327857Y-84434423D01*
X156423095Y-84434423D01*
X156565952Y-84386804D01*
X157137380Y-83815376D01*
X157137380Y-84434423D01*
X157137380Y-85386804D02*
X157137380Y-84815376D01*
X157137380Y-85101090D02*
X156137380Y-85101090D01*
X156280238Y-85005852D01*
X156375476Y-84910614D01*
X156423095Y-84815376D01*
G04 #@! TO.C,U2*
X172338904Y-45743880D02*
X172338904Y-46553404D01*
X172291285Y-46648642D01*
X172243666Y-46696261D01*
X172148428Y-46743880D01*
X171957952Y-46743880D01*
X171862714Y-46696261D01*
X171815095Y-46648642D01*
X171767476Y-46553404D01*
X171767476Y-45743880D01*
X171338904Y-45839119D02*
X171291285Y-45791500D01*
X171196047Y-45743880D01*
X170957952Y-45743880D01*
X170862714Y-45791500D01*
X170815095Y-45839119D01*
X170767476Y-45934357D01*
X170767476Y-46029595D01*
X170815095Y-46172452D01*
X171386523Y-46743880D01*
X170767476Y-46743880D01*
G04 #@! TO.C,R32*
X177871357Y-60269380D02*
X178204690Y-59793190D01*
X178442785Y-60269380D02*
X178442785Y-59269380D01*
X178061833Y-59269380D01*
X177966595Y-59317000D01*
X177918976Y-59364619D01*
X177871357Y-59459857D01*
X177871357Y-59602714D01*
X177918976Y-59697952D01*
X177966595Y-59745571D01*
X178061833Y-59793190D01*
X178442785Y-59793190D01*
X177538023Y-59269380D02*
X176918976Y-59269380D01*
X177252309Y-59650333D01*
X177109452Y-59650333D01*
X177014214Y-59697952D01*
X176966595Y-59745571D01*
X176918976Y-59840809D01*
X176918976Y-60078904D01*
X176966595Y-60174142D01*
X177014214Y-60221761D01*
X177109452Y-60269380D01*
X177395166Y-60269380D01*
X177490404Y-60221761D01*
X177538023Y-60174142D01*
X176538023Y-59364619D02*
X176490404Y-59317000D01*
X176395166Y-59269380D01*
X176157071Y-59269380D01*
X176061833Y-59317000D01*
X176014214Y-59364619D01*
X175966595Y-59459857D01*
X175966595Y-59555095D01*
X176014214Y-59697952D01*
X176585642Y-60269380D01*
X175966595Y-60269380D01*
G04 #@! TO.C,R33*
X177807857Y-62047380D02*
X178141190Y-61571190D01*
X178379285Y-62047380D02*
X178379285Y-61047380D01*
X177998333Y-61047380D01*
X177903095Y-61095000D01*
X177855476Y-61142619D01*
X177807857Y-61237857D01*
X177807857Y-61380714D01*
X177855476Y-61475952D01*
X177903095Y-61523571D01*
X177998333Y-61571190D01*
X178379285Y-61571190D01*
X177474523Y-61047380D02*
X176855476Y-61047380D01*
X177188809Y-61428333D01*
X177045952Y-61428333D01*
X176950714Y-61475952D01*
X176903095Y-61523571D01*
X176855476Y-61618809D01*
X176855476Y-61856904D01*
X176903095Y-61952142D01*
X176950714Y-61999761D01*
X177045952Y-62047380D01*
X177331666Y-62047380D01*
X177426904Y-61999761D01*
X177474523Y-61952142D01*
X176522142Y-61047380D02*
X175903095Y-61047380D01*
X176236428Y-61428333D01*
X176093571Y-61428333D01*
X175998333Y-61475952D01*
X175950714Y-61523571D01*
X175903095Y-61618809D01*
X175903095Y-61856904D01*
X175950714Y-61952142D01*
X175998333Y-61999761D01*
X176093571Y-62047380D01*
X176379285Y-62047380D01*
X176474523Y-61999761D01*
X176522142Y-61952142D01*
G04 #@! TO.C,C41*
X136405957Y-85896742D02*
X136453576Y-85944361D01*
X136596433Y-85991980D01*
X136691671Y-85991980D01*
X136834528Y-85944361D01*
X136929766Y-85849123D01*
X136977385Y-85753885D01*
X137025004Y-85563409D01*
X137025004Y-85420552D01*
X136977385Y-85230076D01*
X136929766Y-85134838D01*
X136834528Y-85039600D01*
X136691671Y-84991980D01*
X136596433Y-84991980D01*
X136453576Y-85039600D01*
X136405957Y-85087219D01*
X135548814Y-85325314D02*
X135548814Y-85991980D01*
X135786909Y-84944361D02*
X136025004Y-85658647D01*
X135405957Y-85658647D01*
X134501195Y-85991980D02*
X135072623Y-85991980D01*
X134786909Y-85991980D02*
X134786909Y-84991980D01*
X134882147Y-85134838D01*
X134977385Y-85230076D01*
X135072623Y-85277695D01*
G04 #@! TO.C,C42*
X134018157Y-89706742D02*
X134065776Y-89754361D01*
X134208633Y-89801980D01*
X134303871Y-89801980D01*
X134446728Y-89754361D01*
X134541966Y-89659123D01*
X134589585Y-89563885D01*
X134637204Y-89373409D01*
X134637204Y-89230552D01*
X134589585Y-89040076D01*
X134541966Y-88944838D01*
X134446728Y-88849600D01*
X134303871Y-88801980D01*
X134208633Y-88801980D01*
X134065776Y-88849600D01*
X134018157Y-88897219D01*
X133161014Y-89135314D02*
X133161014Y-89801980D01*
X133399109Y-88754361D02*
X133637204Y-89468647D01*
X133018157Y-89468647D01*
X132684823Y-88897219D02*
X132637204Y-88849600D01*
X132541966Y-88801980D01*
X132303871Y-88801980D01*
X132208633Y-88849600D01*
X132161014Y-88897219D01*
X132113395Y-88992457D01*
X132113395Y-89087695D01*
X132161014Y-89230552D01*
X132732442Y-89801980D01*
X132113395Y-89801980D01*
G04 #@! TO.C,C43*
X176966911Y-108877876D02*
X177014530Y-108830257D01*
X177062149Y-108687400D01*
X177062149Y-108592162D01*
X177014530Y-108449305D01*
X176919292Y-108354067D01*
X176824054Y-108306448D01*
X176633578Y-108258829D01*
X176490721Y-108258829D01*
X176300245Y-108306448D01*
X176205007Y-108354067D01*
X176109769Y-108449305D01*
X176062149Y-108592162D01*
X176062149Y-108687400D01*
X176109769Y-108830257D01*
X176157388Y-108877876D01*
X176395483Y-109735019D02*
X177062149Y-109735019D01*
X176014530Y-109496924D02*
X176728816Y-109258829D01*
X176728816Y-109877876D01*
X176062149Y-110163591D02*
X176062149Y-110782638D01*
X176443102Y-110449305D01*
X176443102Y-110592162D01*
X176490721Y-110687400D01*
X176538340Y-110735019D01*
X176633578Y-110782638D01*
X176871673Y-110782638D01*
X176966911Y-110735019D01*
X177014530Y-110687400D01*
X177062149Y-110592162D01*
X177062149Y-110306448D01*
X177014530Y-110211210D01*
X176966911Y-110163591D01*
G04 #@! TO.C,C44*
X180776911Y-110782876D02*
X180824530Y-110735257D01*
X180872149Y-110592400D01*
X180872149Y-110497162D01*
X180824530Y-110354305D01*
X180729292Y-110259067D01*
X180634054Y-110211448D01*
X180443578Y-110163829D01*
X180300721Y-110163829D01*
X180110245Y-110211448D01*
X180015007Y-110259067D01*
X179919769Y-110354305D01*
X179872149Y-110497162D01*
X179872149Y-110592400D01*
X179919769Y-110735257D01*
X179967388Y-110782876D01*
X180205483Y-111640019D02*
X180872149Y-111640019D01*
X179824530Y-111401924D02*
X180538816Y-111163829D01*
X180538816Y-111782876D01*
X180205483Y-112592400D02*
X180872149Y-112592400D01*
X179824530Y-112354305D02*
X180538816Y-112116210D01*
X180538816Y-112735257D01*
G04 #@! TO.C,R31*
X179268380Y-62539642D02*
X178792190Y-62206309D01*
X179268380Y-61968214D02*
X178268380Y-61968214D01*
X178268380Y-62349166D01*
X178316000Y-62444404D01*
X178363619Y-62492023D01*
X178458857Y-62539642D01*
X178601714Y-62539642D01*
X178696952Y-62492023D01*
X178744571Y-62444404D01*
X178792190Y-62349166D01*
X178792190Y-61968214D01*
X178268380Y-62872976D02*
X178268380Y-63492023D01*
X178649333Y-63158690D01*
X178649333Y-63301547D01*
X178696952Y-63396785D01*
X178744571Y-63444404D01*
X178839809Y-63492023D01*
X179077904Y-63492023D01*
X179173142Y-63444404D01*
X179220761Y-63396785D01*
X179268380Y-63301547D01*
X179268380Y-63015833D01*
X179220761Y-62920595D01*
X179173142Y-62872976D01*
X179268380Y-64444404D02*
X179268380Y-63872976D01*
X179268380Y-64158690D02*
X178268380Y-64158690D01*
X178411238Y-64063452D01*
X178506476Y-63968214D01*
X178554095Y-63872976D01*
G04 #@! TD*
M02*
