M48
;DRILL file {KiCad 5.0.1-33cea8e~67~ubuntu18.04.1} date Sun 21 Oct 2018 05:35:34 PM CEST
;FORMAT={-:-/ absolute / metric / decimal}
FMAT,2
METRIC,TZ
T1C0.400
T2C0.700
T3C0.750
T4C0.800
T5C0.900
T6C1.000
T7C1.100
T8C1.200
T9C1.300
%
G90
G05
M71
T1
X131.267Y-91.821
X138.913Y-85.903
X142.565Y-90.795
X151.31Y-87.107
X172.403Y-112.382
X175.237Y-98.044
X176.555Y-107.747
X178.991Y-94.254
X181.445Y-98.577
X181.458Y-104.445
X183.147Y-113.157
T2
X135.748Y-94.254
X135.748Y-96.754
X153.035Y-103.358
X153.035Y-105.858
X148.671Y-98.739
X148.671Y-101.239
X145.288Y-92.57
X145.288Y-95.07
X152.425Y-114.238
X152.425Y-116.738
X136.255Y-105.126
X138.755Y-105.126
X148.615Y-92.572
X148.615Y-95.072
X132.192Y-94.254
X132.192Y-96.754
X148.585Y-107.68
X148.585Y-110.18
T3
X147.828Y-114.046
X149.098Y-112.776
X149.098Y-115.316
T4
X140.294Y-88.04
X140.294Y-93.04
X129.28Y-100.02
X134.28Y-100.02
X152.415Y-85.075
X152.415Y-90.075
X174.231Y-105.033
X174.231Y-110.033
X144.286Y-104.485
X149.286Y-104.485
T5
X151.629Y-99.873
X154.129Y-94.873
X156.629Y-99.873
T6
X180.32Y-64.394
X180.32Y-67.894
X180.32Y-53.865
X180.32Y-57.365
X145.075Y-98.242
X145.075Y-100.782
X137.297Y-100.701
X139.837Y-100.701
T7
X136.373Y-68.399
X136.373Y-76.019
X133.121Y-68.402
X133.121Y-76.022
X133.121Y-45.847
X133.121Y-53.467
X136.373Y-45.847
X136.373Y-53.467
T8
X162.85Y-65.369
X162.85Y-72.869
X162.85Y-48.865
X162.85Y-56.365
X159.852Y-80.289
X159.852Y-82.829
X159.852Y-85.369
X159.852Y-87.909
X146.329Y-48.865
X146.329Y-56.365
X172.148Y-99.289
X172.148Y-101.829
X184.861Y-102.311
X184.861Y-104.851
X134.633Y-57.15
X134.633Y-59.69
X134.633Y-62.23
X134.633Y-64.77
X146.329Y-65.369
X146.329Y-72.869
T9
X132.16Y-114.3
X137.16Y-114.3
X142.16Y-114.3
X158.16Y-114.3
X160.66Y-95.8
X160.66Y-99.79
X160.66Y-103.8
X163.16Y-91.44
X163.16Y-114.3
X165.65Y-99.8
X165.66Y-95.8
X165.66Y-103.8
X168.16Y-114.3
T0
M30
